<?xml version="1.0" encoding="UTF-8"?>
<svg xmlns="http://www.w3.org/2000/svg" xmlns:xlink="http://www.w3.org/1999/xlink" width="825px" height="450px" viewBox="0 0 825 450" version="1.1">
<g id="surface1">
<rect x="0" y="0" width="825" height="450" style="fill:rgb(100%,100%,100%);fill-opacity:1;stroke:none;"/>
<path style=" stroke:none;fill-rule:nonzero;fill:rgb(0%,0%,0%);fill-opacity:1;" d="M 129.492188 43.425781 C 129.207031 43.582031 128.835938 43.660156 128.371094 43.660156 C 127.058594 43.660156 126.402344 42.929688 126.402344 41.464844 L 126.402344 37.027344 L 125.113281 37.027344 L 125.113281 36 L 126.402344 36 L 126.402344 34.167969 L 127.601562 33.78125 L 127.601562 36 L 129.492188 36 L 129.492188 37.027344 L 127.601562 37.027344 L 127.601562 41.25 C 127.601562 41.753906 127.6875 42.113281 127.859375 42.328125 C 128.03125 42.542969 128.3125 42.652344 128.707031 42.652344 C 129.011719 42.652344 129.273438 42.566406 129.492188 42.402344 Z M 136.464844 43.5 L 135.265625 43.5 L 135.265625 42.328125 L 135.234375 42.328125 C 134.710938 43.226562 133.941406 43.675781 132.925781 43.675781 C 132.179688 43.675781 131.59375 43.476562 131.167969 43.082031 C 130.75 42.6875 130.539062 42.164062 130.539062 41.507812 C 130.539062 40.105469 131.363281 39.289062 133.015625 39.0625 L 135.265625 38.746094 C 135.265625 37.472656 134.75 36.835938 133.71875 36.835938 C 132.816406 36.835938 132 37.140625 131.273438 37.757812 L 131.273438 36.527344 C 132.007812 36.058594 132.859375 35.824219 133.820312 35.824219 C 135.582031 35.824219 136.464844 36.757812 136.464844 38.621094 Z M 135.265625 39.707031 L 133.453125 39.953125 C 132.898438 40.03125 132.476562 40.171875 132.195312 40.371094 C 131.910156 40.566406 131.769531 40.917969 131.769531 41.421875 C 131.769531 41.785156 131.898438 42.085938 132.160156 42.320312 C 132.421875 42.550781 132.769531 42.664062 133.207031 42.664062 C 133.800781 42.664062 134.292969 42.457031 134.679688 42.042969 C 135.070312 41.621094 135.265625 41.09375 135.265625 40.453125 Z M 139.957031 42.414062 L 139.929688 42.414062 L 139.929688 46.949219 L 138.726562 46.949219 L 138.726562 36 L 139.929688 36 L 139.929688 37.316406 L 139.957031 37.316406 C 140.550781 36.320312 141.414062 35.824219 142.550781 35.824219 C 143.519531 35.824219 144.273438 36.160156 144.816406 36.835938 C 145.355469 37.503906 145.628906 38.402344 145.628906 39.53125 C 145.628906 40.785156 145.320312 41.792969 144.710938 42.546875 C 144.101562 43.300781 143.265625 43.675781 142.207031 43.675781 C 141.234375 43.675781 140.484375 43.253906 139.957031 42.414062 Z M 139.929688 39.390625 L 139.929688 40.4375 C 139.929688 41.058594 140.128906 41.585938 140.53125 42.019531 C 140.933594 42.449219 141.449219 42.664062 142.066406 42.664062 C 142.796875 42.664062 143.363281 42.386719 143.773438 41.828125 C 144.1875 41.273438 144.398438 40.5 144.398438 39.507812 C 144.398438 38.671875 144.203125 38.019531 143.816406 37.546875 C 143.433594 37.070312 142.910156 36.835938 142.25 36.835938 C 141.554688 36.835938 140.992188 37.078125 140.566406 37.566406 C 140.140625 38.050781 139.929688 38.660156 139.929688 39.390625 Z M 148.777344 42.414062 L 148.746094 42.414062 L 148.746094 46.949219 L 147.546875 46.949219 L 147.546875 36 L 148.746094 36 L 148.746094 37.316406 L 148.777344 37.316406 C 149.367188 36.320312 150.234375 35.824219 151.371094 35.824219 C 152.335938 35.824219 153.089844 36.160156 153.632812 36.835938 C 154.175781 37.503906 154.445312 38.402344 154.445312 39.53125 C 154.445312 40.785156 154.140625 41.792969 153.53125 42.546875 C 152.921875 43.300781 152.085938 43.675781 151.027344 43.675781 C 150.054688 43.675781 149.304688 43.253906 148.777344 42.414062 Z M 148.746094 39.390625 L 148.746094 40.4375 C 148.746094 41.058594 148.949219 41.585938 149.347656 42.019531 C 149.753906 42.449219 150.265625 42.664062 150.886719 42.664062 C 151.613281 42.664062 152.183594 42.386719 152.59375 41.828125 C 153.007812 41.273438 153.214844 40.5 153.214844 39.507812 C 153.214844 38.671875 153.023438 38.019531 152.636719 37.546875 C 152.25 37.070312 151.726562 36.835938 151.070312 36.835938 C 150.371094 36.835938 149.808594 37.078125 149.382812 37.566406 C 148.960938 38.050781 148.746094 38.660156 148.746094 39.390625 Z M 156.980469 34.097656 C 156.765625 34.097656 156.582031 34.023438 156.429688 33.875 C 156.277344 33.730469 156.203125 33.542969 156.203125 33.320312 C 156.203125 33.09375 156.277344 32.910156 156.429688 32.761719 C 156.582031 32.613281 156.765625 32.535156 156.980469 32.535156 C 157.199219 32.535156 157.386719 32.613281 157.535156 32.761719 C 157.695312 32.910156 157.773438 33.09375 157.773438 33.320312 C 157.773438 33.535156 157.695312 33.71875 157.535156 33.867188 C 157.386719 34.019531 157.199219 34.097656 156.980469 34.097656 Z M 157.566406 43.5 L 156.363281 43.5 L 156.363281 36 L 157.566406 36 Z M 166.222656 43.5 L 165.023438 43.5 L 165.023438 39.222656 C 165.023438 37.628906 164.441406 36.835938 163.28125 36.835938 C 162.679688 36.835938 162.179688 37.0625 161.785156 37.515625 C 161.394531 37.964844 161.199219 38.535156 161.199219 39.222656 L 161.199219 43.5 L 159.996094 43.5 L 159.996094 36 L 161.199219 36 L 161.199219 37.246094 L 161.226562 37.246094 C 161.792969 36.296875 162.613281 35.824219 163.6875 35.824219 C 164.507812 35.824219 165.136719 36.089844 165.570312 36.621094 C 166.007812 37.148438 166.222656 37.914062 166.222656 38.914062 Z M 174.894531 42.898438 C 174.894531 45.652344 173.578125 47.03125 170.941406 47.03125 C 170.011719 47.03125 169.203125 46.855469 168.507812 46.503906 L 168.507812 45.300781 C 169.351562 45.769531 170.160156 46.003906 170.925781 46.003906 C 172.773438 46.003906 173.695312 45.023438 173.695312 43.058594 L 173.695312 42.242188 L 173.664062 42.242188 C 173.09375 43.199219 172.234375 43.675781 171.085938 43.675781 C 170.152344 43.675781 169.402344 43.34375 168.832031 42.679688 C 168.265625 42.011719 167.980469 41.113281 167.980469 39.992188 C 167.980469 38.71875 168.285156 37.703125 168.898438 36.953125 C 169.511719 36.199219 170.351562 35.824219 171.414062 35.824219 C 172.425781 35.824219 173.175781 36.230469 173.664062 37.039062 L 173.695312 37.039062 L 173.695312 36 L 174.894531 36 Z M 173.695312 40.109375 L 173.695312 39.003906 C 173.695312 38.40625 173.492188 37.898438 173.085938 37.472656 C 172.6875 37.046875 172.183594 36.835938 171.585938 36.835938 C 170.84375 36.835938 170.261719 37.105469 169.84375 37.648438 C 169.421875 38.183594 169.210938 38.9375 169.210938 39.910156 C 169.210938 40.746094 169.410156 41.414062 169.8125 41.917969 C 170.21875 42.414062 170.753906 42.664062 171.414062 42.664062 C 172.089844 42.664062 172.636719 42.425781 173.054688 41.945312 C 173.480469 41.46875 173.695312 40.855469 173.695312 40.109375 Z M 181.164062 39.792969 L 177.164062 39.792969 L 177.164062 38.847656 L 181.164062 38.847656 Z M 186.8125 43.425781 C 186.527344 43.582031 186.15625 43.660156 185.691406 43.660156 C 184.378906 43.660156 183.71875 42.929688 183.71875 41.464844 L 183.71875 37.027344 L 182.429688 37.027344 L 182.429688 36 L 183.71875 36 L 183.71875 34.167969 L 184.921875 33.78125 L 184.921875 36 L 186.8125 36 L 186.8125 37.027344 L 184.921875 37.027344 L 184.921875 41.25 C 184.921875 41.753906 185.007812 42.113281 185.179688 42.328125 C 185.347656 42.542969 185.632812 42.652344 186.027344 42.652344 C 186.328125 42.652344 186.59375 42.566406 186.8125 42.402344 Z M 194.445312 40.050781 L 189.148438 40.050781 C 189.167969 40.886719 189.390625 41.53125 189.820312 41.984375 C 190.25 42.4375 190.84375 42.664062 191.59375 42.664062 C 192.441406 42.664062 193.214844 42.386719 193.921875 41.828125 L 193.921875 42.957031 C 193.265625 43.4375 192.394531 43.675781 191.308594 43.675781 C 190.25 43.675781 189.417969 43.335938 188.8125 42.65625 C 188.203125 41.972656 187.902344 41.015625 187.902344 39.777344 C 187.902344 38.613281 188.230469 37.664062 188.890625 36.929688 C 189.554688 36.191406 190.378906 35.824219 191.359375 35.824219 C 192.34375 35.824219 193.101562 36.140625 193.636719 36.777344 C 194.175781 37.410156 194.445312 38.292969 194.445312 39.421875 Z M 193.214844 39.03125 C 193.207031 38.339844 193.039062 37.800781 192.707031 37.414062 C 192.382812 37.027344 191.921875 36.835938 191.339844 36.835938 C 190.773438 36.835938 190.289062 37.039062 189.894531 37.441406 C 189.5 37.847656 189.253906 38.378906 189.160156 39.03125 Z M 200.179688 37.214844 C 199.96875 37.054688 199.664062 36.972656 199.269531 36.972656 C 198.757812 36.972656 198.328125 37.214844 197.980469 37.699219 C 197.636719 38.183594 197.46875 38.839844 197.46875 39.675781 L 197.46875 43.5 L 196.265625 43.5 L 196.265625 36 L 197.46875 36 L 197.46875 37.546875 L 197.496094 37.546875 C 197.667969 37.019531 197.929688 36.609375 198.28125 36.316406 C 198.632812 36.015625 199.027344 35.867188 199.460938 35.867188 C 199.773438 35.867188 200.011719 35.902344 200.179688 35.972656 Z M 212.132812 43.5 L 210.929688 43.5 L 210.929688 39.191406 C 210.929688 38.363281 210.800781 37.761719 210.542969 37.390625 C 210.289062 37.019531 209.859375 36.835938 209.253906 36.835938 C 208.738281 36.835938 208.304688 37.070312 207.941406 37.539062 C 207.585938 38.007812 207.40625 38.566406 207.40625 39.222656 L 207.40625 43.5 L 206.207031 43.5 L 206.207031 39.046875 C 206.207031 37.574219 205.636719 36.835938 204.5 36.835938 C 203.972656 36.835938 203.539062 37.058594 203.195312 37.5 C 202.855469 37.941406 202.683594 38.515625 202.683594 39.222656 L 202.683594 43.5 L 201.480469 43.5 L 201.480469 36 L 202.683594 36 L 202.683594 37.1875 L 202.714844 37.1875 C 203.242188 36.277344 204.019531 35.824219 205.039062 35.824219 C 205.554688 35.824219 206 35.96875 206.382812 36.257812 C 206.761719 36.539062 207.023438 36.914062 207.164062 37.378906 C 207.722656 36.34375 208.550781 35.824219 209.65625 35.824219 C 211.304688 35.824219 212.132812 36.84375 212.132812 38.878906 Z M 218.238281 39.792969 L 214.242188 39.792969 L 214.242188 38.847656 L 218.238281 38.847656 Z M 231.058594 43.5 L 229.855469 43.5 L 229.855469 39.191406 C 229.855469 38.363281 229.726562 37.761719 229.46875 37.390625 C 229.214844 37.019531 228.785156 36.835938 228.179688 36.835938 C 227.664062 36.835938 227.230469 37.070312 226.867188 37.539062 C 226.511719 38.007812 226.332031 38.566406 226.332031 39.222656 L 226.332031 43.5 L 225.132812 43.5 L 225.132812 39.046875 C 225.132812 37.574219 224.5625 36.835938 223.425781 36.835938 C 222.898438 36.835938 222.464844 37.058594 222.121094 37.5 C 221.78125 37.941406 221.609375 38.515625 221.609375 39.222656 L 221.609375 43.5 L 220.40625 43.5 L 220.40625 36 L 221.609375 36 L 221.609375 37.1875 L 221.636719 37.1875 C 222.171875 36.277344 222.945312 35.824219 223.96875 35.824219 C 224.480469 35.824219 224.925781 35.96875 225.308594 36.257812 C 225.6875 36.539062 225.949219 36.914062 226.09375 37.378906 C 226.648438 36.34375 227.476562 35.824219 228.582031 35.824219 C 230.230469 35.824219 231.058594 36.84375 231.058594 38.878906 Z M 232.875 43.230469 L 232.875 41.941406 C 233.527344 42.421875 234.246094 42.664062 235.035156 42.664062 C 236.089844 42.664062 236.617188 42.3125 236.617188 41.609375 C 236.617188 41.410156 236.570312 41.242188 236.476562 41.105469 C 236.390625 40.964844 236.265625 40.839844 236.109375 40.730469 C 235.960938 40.625 235.777344 40.527344 235.570312 40.445312 C 235.363281 40.359375 235.140625 40.269531 234.902344 40.175781 C 234.570312 40.042969 234.277344 39.910156 234.023438 39.777344 C 233.773438 39.644531 233.566406 39.492188 233.394531 39.324219 C 233.226562 39.15625 233.101562 38.960938 233.011719 38.746094 C 232.929688 38.53125 232.886719 38.28125 232.886719 37.992188 C 232.886719 37.640625 232.96875 37.332031 233.128906 37.0625 C 233.289062 36.789062 233.507812 36.5625 233.773438 36.378906 C 234.042969 36.195312 234.347656 36.054688 234.691406 35.964844 C 235.035156 35.871094 235.394531 35.824219 235.757812 35.824219 C 236.410156 35.824219 236.988281 35.9375 237.503906 36.160156 L 237.503906 37.378906 C 236.949219 37.015625 236.316406 36.835938 235.597656 36.835938 C 235.375 36.835938 235.171875 36.863281 234.988281 36.914062 C 234.808594 36.964844 234.652344 37.035156 234.523438 37.128906 C 234.394531 37.21875 234.292969 37.332031 234.21875 37.464844 C 234.152344 37.59375 234.117188 37.734375 234.117188 37.890625 C 234.117188 38.085938 234.152344 38.25 234.21875 38.378906 C 234.292969 38.511719 234.398438 38.628906 234.535156 38.730469 C 234.671875 38.835938 234.839844 38.925781 235.035156 39.011719 C 235.230469 39.09375 235.453125 39.183594 235.699219 39.28125 C 236.03125 39.40625 236.332031 39.539062 236.59375 39.675781 C 236.859375 39.808594 237.082031 39.960938 237.269531 40.128906 C 237.453125 40.296875 237.59375 40.488281 237.691406 40.710938 C 237.796875 40.929688 237.847656 41.191406 237.847656 41.492188 C 237.847656 41.863281 237.761719 42.1875 237.597656 42.460938 C 237.4375 42.734375 237.21875 42.960938 236.945312 43.140625 C 236.671875 43.320312 236.359375 43.457031 236 43.542969 C 235.644531 43.632812 235.269531 43.675781 234.878906 43.675781 C 234.109375 43.675781 233.441406 43.527344 232.875 43.230469 Z M 246.964844 45.886719 L 245.898438 45.886719 C 244.382812 44.160156 243.625 42.027344 243.625 39.492188 C 243.625 36.949219 244.382812 34.785156 245.898438 32.996094 L 246.980469 32.996094 C 245.445312 34.851562 244.679688 37.011719 244.679688 39.480469 C 244.679688 41.925781 245.441406 44.0625 246.964844 45.886719 Z M 252.429688 43.5 L 251.226562 43.5 L 251.226562 34.425781 C 251.136719 34.519531 250.996094 34.625 250.816406 34.746094 C 250.640625 34.863281 250.441406 34.980469 250.21875 35.097656 C 249.996094 35.214844 249.761719 35.328125 249.515625 35.429688 C 249.269531 35.53125 249.03125 35.613281 248.796875 35.671875 L 248.796875 34.453125 C 249.058594 34.382812 249.339844 34.285156 249.632812 34.160156 C 249.929688 34.035156 250.21875 33.894531 250.503906 33.746094 C 250.789062 33.585938 251.0625 33.425781 251.316406 33.261719 C 251.570312 33.089844 251.789062 32.921875 251.972656 32.761719 L 252.429688 32.761719 Z M 262.683594 38.203125 C 262.683594 39.082031 262.601562 39.863281 262.441406 40.539062 C 262.285156 41.21875 262.054688 41.792969 261.753906 42.261719 C 261.453125 42.726562 261.085938 43.082031 260.648438 43.324219 C 260.210938 43.5625 259.71875 43.683594 259.160156 43.683594 C 258.632812 43.683594 258.160156 43.570312 257.746094 43.339844 C 257.335938 43.105469 256.988281 42.765625 256.707031 42.320312 C 256.421875 41.875 256.210938 41.332031 256.0625 40.6875 C 255.914062 40.039062 255.84375 39.296875 255.84375 38.460938 C 255.84375 37.542969 255.917969 36.734375 256.070312 36.027344 C 256.226562 35.328125 256.453125 34.738281 256.75 34.265625 C 257.050781 33.785156 257.417969 33.425781 257.855469 33.1875 C 258.300781 32.941406 258.808594 32.820312 259.378906 32.820312 C 261.582031 32.820312 262.683594 34.617188 262.683594 38.203125 Z M 261.453125 38.320312 C 261.453125 35.332031 260.742188 33.839844 259.320312 33.839844 C 257.824219 33.839844 257.074219 35.359375 257.074219 38.402344 C 257.074219 41.238281 257.808594 42.65625 259.277344 42.65625 C 260.726562 42.65625 261.453125 41.210938 261.453125 38.320312 Z M 270.769531 38.203125 C 270.769531 39.082031 270.6875 39.863281 270.527344 40.539062 C 270.371094 41.21875 270.140625 41.792969 269.839844 42.261719 C 269.539062 42.726562 269.171875 43.082031 268.734375 43.324219 C 268.300781 43.5625 267.800781 43.683594 267.246094 43.683594 C 266.71875 43.683594 266.246094 43.570312 265.832031 43.339844 C 265.421875 43.105469 265.074219 42.765625 264.792969 42.320312 C 264.511719 41.875 264.292969 41.332031 264.148438 40.6875 C 264 40.039062 263.929688 39.296875 263.929688 38.460938 C 263.929688 37.542969 264.003906 36.734375 264.15625 36.027344 C 264.3125 35.328125 264.539062 34.738281 264.835938 34.265625 C 265.132812 33.785156 265.503906 33.425781 265.941406 33.1875 C 266.386719 32.941406 266.894531 32.820312 267.464844 32.820312 C 269.667969 32.820312 270.769531 34.617188 270.769531 38.203125 Z M 269.539062 38.320312 C 269.539062 35.332031 268.828125 33.839844 267.40625 33.839844 C 265.90625 33.839844 265.15625 35.359375 265.15625 38.402344 C 265.15625 41.238281 265.894531 42.65625 267.363281 42.65625 C 268.8125 42.65625 269.539062 41.210938 269.539062 38.320312 Z M 283.25 43.5 L 282.046875 43.5 L 282.046875 39.191406 C 282.046875 38.363281 281.917969 37.761719 281.660156 37.390625 C 281.40625 37.019531 280.976562 36.835938 280.371094 36.835938 C 279.859375 36.835938 279.421875 37.070312 279.058594 37.539062 C 278.703125 38.007812 278.527344 38.566406 278.527344 39.222656 L 278.527344 43.5 L 277.324219 43.5 L 277.324219 39.046875 C 277.324219 37.574219 276.757812 36.835938 275.617188 36.835938 C 275.089844 36.835938 274.65625 37.058594 274.3125 37.5 C 273.972656 37.941406 273.800781 38.515625 273.800781 39.222656 L 273.800781 43.5 L 272.597656 43.5 L 272.597656 36 L 273.800781 36 L 273.800781 37.1875 L 273.832031 37.1875 C 274.363281 36.277344 275.140625 35.824219 276.160156 35.824219 C 276.671875 35.824219 277.117188 35.96875 277.5 36.257812 C 277.882812 36.539062 278.140625 36.914062 278.28125 37.378906 C 278.839844 36.34375 279.671875 35.824219 280.773438 35.824219 C 282.425781 35.824219 283.25 36.84375 283.25 38.878906 Z M 285.066406 43.230469 L 285.066406 41.941406 C 285.71875 42.421875 286.441406 42.664062 287.226562 42.664062 C 288.28125 42.664062 288.808594 42.3125 288.808594 41.609375 C 288.808594 41.410156 288.761719 41.242188 288.667969 41.105469 C 288.582031 40.964844 288.460938 40.839844 288.304688 40.730469 C 288.152344 40.625 287.972656 40.527344 287.761719 40.445312 C 287.554688 40.359375 287.335938 40.269531 287.09375 40.175781 C 286.761719 40.042969 286.46875 39.910156 286.214844 39.777344 C 285.96875 39.644531 285.757812 39.492188 285.585938 39.324219 C 285.421875 39.15625 285.292969 38.960938 285.207031 38.746094 C 285.121094 38.53125 285.082031 38.28125 285.082031 37.992188 C 285.082031 37.640625 285.160156 37.332031 285.324219 37.0625 C 285.484375 36.789062 285.699219 36.5625 285.96875 36.378906 C 286.234375 36.195312 286.539062 36.054688 286.882812 35.964844 C 287.230469 35.871094 287.585938 35.824219 287.953125 35.824219 C 288.601562 35.824219 289.183594 35.9375 289.695312 36.160156 L 289.695312 37.378906 C 289.144531 37.015625 288.507812 36.835938 287.789062 36.835938 C 287.566406 36.835938 287.363281 36.863281 287.183594 36.914062 C 287.003906 36.964844 286.84375 37.035156 286.714844 37.128906 C 286.585938 37.21875 286.488281 37.332031 286.414062 37.464844 C 286.34375 37.59375 286.3125 37.734375 286.3125 37.890625 C 286.3125 38.085938 286.34375 38.25 286.414062 38.378906 C 286.488281 38.511719 286.589844 38.628906 286.726562 38.730469 C 286.863281 38.835938 287.03125 38.925781 287.226562 39.011719 C 287.421875 39.09375 287.644531 39.183594 287.894531 39.28125 C 288.226562 39.40625 288.523438 39.539062 288.785156 39.675781 C 289.050781 39.808594 289.273438 39.960938 289.460938 40.128906 C 289.644531 40.296875 289.789062 40.488281 289.886719 40.710938 C 289.988281 40.929688 290.039062 41.191406 290.039062 41.492188 C 290.039062 41.863281 289.957031 42.1875 289.789062 42.460938 C 289.628906 42.734375 289.410156 42.960938 289.136719 43.140625 C 288.863281 43.320312 288.550781 43.457031 288.195312 43.542969 C 287.835938 43.632812 287.464844 43.675781 287.074219 43.675781 C 286.300781 43.675781 285.632812 43.527344 285.066406 43.230469 Z M 291.921875 45.886719 L 290.851562 45.886719 C 292.375 44.0625 293.136719 41.925781 293.136719 39.480469 C 293.136719 37.011719 292.371094 34.851562 290.839844 32.996094 L 291.921875 32.996094 C 293.445312 34.785156 294.207031 36.949219 294.207031 39.492188 C 294.207031 42.027344 293.445312 44.160156 291.921875 45.886719 Z M 291.921875 45.886719 "/>
<path style=" stroke:none;fill-rule:nonzero;fill:rgb(0%,0%,0%);fill-opacity:1;" d="M 59 95.898438 C 58.601562 96.117188 58.082031 96.226562 57.429688 96.226562 C 55.59375 96.226562 54.671875 95.199219 54.671875 93.148438 L 54.671875 86.933594 L 52.867188 86.933594 L 52.867188 85.5 L 54.671875 85.5 L 54.671875 82.9375 L 56.355469 82.394531 L 56.355469 85.5 L 59 85.5 L 59 86.933594 L 56.355469 86.933594 L 56.355469 92.851562 C 56.355469 93.554688 56.472656 94.058594 56.714844 94.359375 C 56.953125 94.660156 57.347656 94.808594 57.902344 94.808594 C 58.324219 94.808594 58.691406 94.695312 59 94.460938 Z M 68.761719 96 L 67.078125 96 L 67.078125 94.359375 L 67.039062 94.359375 C 66.308594 95.617188 65.230469 96.246094 63.808594 96.246094 C 62.761719 96.246094 61.941406 95.96875 61.347656 95.414062 C 60.757812 94.863281 60.464844 94.125 60.464844 93.210938 C 60.464844 91.25 61.621094 90.105469 63.933594 89.785156 L 67.078125 89.34375 C 67.078125 87.5625 66.359375 86.667969 64.914062 86.667969 C 63.652344 86.667969 62.511719 87.097656 61.492188 87.960938 L 61.492188 86.238281 C 62.523438 85.582031 63.714844 85.253906 65.058594 85.253906 C 67.527344 85.253906 68.761719 86.558594 68.761719 89.171875 Z M 67.078125 90.6875 L 64.546875 91.035156 C 63.765625 91.144531 63.179688 91.339844 62.785156 91.621094 C 62.386719 91.894531 62.1875 92.382812 62.1875 93.089844 C 62.1875 93.601562 62.371094 94.019531 62.730469 94.347656 C 63.101562 94.671875 63.589844 94.832031 64.199219 94.832031 C 65.03125 94.832031 65.71875 94.539062 66.257812 93.960938 C 66.804688 93.371094 67.078125 92.628906 67.078125 91.734375 Z M 73.652344 94.484375 L 73.609375 94.484375 L 73.609375 100.828125 L 71.929688 100.828125 L 71.929688 85.5 L 73.609375 85.5 L 73.609375 87.347656 L 73.652344 87.347656 C 74.480469 85.953125 75.6875 85.253906 77.28125 85.253906 C 78.636719 85.253906 79.691406 85.726562 80.449219 86.667969 C 81.210938 87.605469 81.589844 88.863281 81.589844 90.441406 C 81.589844 92.199219 81.160156 93.605469 80.308594 94.667969 C 79.453125 95.71875 78.285156 96.246094 76.800781 96.246094 C 75.441406 96.246094 74.390625 95.65625 73.652344 94.484375 Z M 73.609375 90.246094 L 73.609375 91.714844 C 73.609375 92.582031 73.890625 93.320312 74.453125 93.929688 C 75.019531 94.53125 75.738281 94.832031 76.605469 94.832031 C 77.625 94.832031 78.421875 94.441406 78.996094 93.660156 C 79.574219 92.882812 79.867188 91.800781 79.867188 90.410156 C 79.867188 89.242188 79.597656 88.328125 79.054688 87.664062 C 78.515625 87 77.785156 86.667969 76.863281 86.667969 C 75.882812 86.667969 75.097656 87.011719 74.503906 87.695312 C 73.910156 88.371094 73.609375 89.222656 73.609375 90.246094 Z M 73.609375 90.246094 "/>
<path style=" stroke:none;fill-rule:nonzero;fill:rgb(0%,0%,0%);fill-opacity:1;" d="M 38.769531 232.398438 C 38.371094 232.617188 37.847656 232.726562 37.199219 232.726562 C 35.359375 232.726562 34.441406 231.699219 34.441406 229.648438 L 34.441406 223.433594 L 32.636719 223.433594 L 32.636719 222 L 34.441406 222 L 34.441406 219.4375 L 36.121094 218.894531 L 36.121094 222 L 38.769531 222 L 38.769531 223.433594 L 36.121094 223.433594 L 36.121094 229.351562 C 36.121094 230.054688 36.242188 230.558594 36.480469 230.859375 C 36.722656 231.160156 37.117188 231.308594 37.671875 231.308594 C 38.09375 231.308594 38.460938 231.195312 38.769531 230.960938 Z M 48.53125 232.5 L 46.847656 232.5 L 46.847656 230.859375 L 46.808594 230.859375 C 46.074219 232.117188 45 232.746094 43.578125 232.746094 C 42.53125 232.746094 41.710938 232.46875 41.117188 231.914062 C 40.527344 231.363281 40.234375 230.625 40.234375 229.710938 C 40.234375 227.75 41.390625 226.609375 43.699219 226.285156 L 46.847656 225.84375 C 46.847656 224.0625 46.128906 223.167969 44.683594 223.167969 C 43.421875 223.167969 42.277344 223.597656 41.261719 224.460938 L 41.261719 222.738281 C 42.292969 222.082031 43.480469 221.753906 44.828125 221.753906 C 47.296875 221.753906 48.53125 223.058594 48.53125 225.671875 Z M 46.847656 227.1875 L 44.316406 227.535156 C 43.535156 227.644531 42.949219 227.839844 42.550781 228.121094 C 42.15625 228.394531 41.957031 228.882812 41.957031 229.589844 C 41.957031 230.101562 42.136719 230.523438 42.5 230.847656 C 42.871094 231.171875 43.359375 231.332031 43.96875 231.332031 C 44.800781 231.332031 45.488281 231.039062 46.027344 230.460938 C 46.574219 229.871094 46.847656 229.128906 46.847656 228.234375 Z M 53.421875 230.980469 L 53.378906 230.980469 L 53.378906 237.328125 L 51.699219 237.328125 L 51.699219 222 L 53.378906 222 L 53.378906 223.84375 L 53.421875 223.84375 C 54.25 222.453125 55.457031 221.753906 57.050781 221.753906 C 58.40625 221.753906 59.460938 222.226562 60.21875 223.167969 C 60.976562 224.105469 61.359375 225.363281 61.359375 226.941406 C 61.359375 228.699219 60.929688 230.109375 60.078125 231.167969 C 59.222656 232.21875 58.050781 232.746094 56.570312 232.746094 C 55.210938 232.746094 54.160156 232.15625 53.421875 230.980469 Z M 53.378906 226.746094 L 53.378906 228.214844 C 53.378906 229.082031 53.660156 229.820312 54.222656 230.429688 C 54.789062 231.03125 55.507812 231.332031 56.375 231.332031 C 57.394531 231.332031 58.191406 230.941406 58.765625 230.160156 C 59.34375 229.382812 59.636719 228.300781 59.636719 226.910156 C 59.636719 225.742188 59.363281 224.824219 58.824219 224.164062 C 58.285156 223.5 57.554688 223.167969 56.628906 223.167969 C 55.652344 223.167969 54.867188 223.511719 54.273438 224.195312 C 53.679688 224.871094 53.378906 225.722656 53.378906 226.746094 Z M 65.582031 230.160156 L 63.941406 235.207031 L 62.742188 235.207031 L 63.941406 230.160156 Z M 79.230469 232.398438 C 78.835938 232.617188 78.3125 232.726562 77.660156 232.726562 C 75.824219 232.726562 74.902344 231.699219 74.902344 229.648438 L 74.902344 223.433594 L 73.097656 223.433594 L 73.097656 222 L 74.902344 222 L 74.902344 219.4375 L 76.585938 218.894531 L 76.585938 222 L 79.230469 222 L 79.230469 223.433594 L 76.585938 223.433594 L 76.585938 229.351562 C 76.585938 230.054688 76.703125 230.558594 76.945312 230.859375 C 77.183594 231.160156 77.578125 231.308594 78.132812 231.308594 C 78.558594 231.308594 78.921875 231.195312 79.230469 230.960938 Z M 88.992188 232.5 L 87.308594 232.5 L 87.308594 230.859375 L 87.269531 230.859375 C 86.539062 232.117188 85.460938 232.746094 84.039062 232.746094 C 82.992188 232.746094 82.171875 232.46875 81.578125 231.914062 C 80.992188 231.363281 80.695312 230.625 80.695312 229.710938 C 80.695312 227.75 81.851562 226.609375 84.164062 226.285156 L 87.308594 225.84375 C 87.308594 224.0625 86.589844 223.167969 85.148438 223.167969 C 83.882812 223.167969 82.742188 223.597656 81.722656 224.460938 L 81.722656 222.738281 C 82.753906 222.082031 83.945312 221.753906 85.289062 221.753906 C 87.757812 221.753906 88.992188 223.058594 88.992188 225.671875 Z M 87.308594 227.1875 L 84.777344 227.535156 C 84 227.644531 83.410156 227.839844 83.015625 228.121094 C 82.617188 228.394531 82.417969 228.882812 82.417969 229.589844 C 82.417969 230.101562 82.601562 230.523438 82.964844 230.847656 C 83.332031 231.171875 83.820312 231.332031 84.429688 231.332031 C 85.261719 231.332031 85.949219 231.039062 86.492188 230.460938 C 87.035156 229.871094 87.308594 229.128906 87.308594 228.234375 Z M 93.882812 230.980469 L 93.84375 230.980469 L 93.84375 237.328125 L 92.160156 237.328125 L 92.160156 222 L 93.84375 222 L 93.84375 223.84375 L 93.882812 223.84375 C 94.710938 222.453125 95.921875 221.753906 97.511719 221.753906 C 98.867188 221.753906 99.921875 222.226562 100.683594 223.167969 C 101.441406 224.105469 101.820312 225.363281 101.820312 226.941406 C 101.820312 228.699219 101.394531 230.109375 100.539062 231.167969 C 99.683594 232.21875 98.515625 232.746094 97.03125 232.746094 C 95.671875 232.746094 94.621094 232.15625 93.882812 230.980469 Z M 93.84375 226.746094 L 93.84375 228.214844 C 93.84375 229.082031 94.121094 229.820312 94.683594 230.429688 C 95.25 231.03125 95.96875 231.332031 96.835938 231.332031 C 97.855469 231.332031 98.652344 230.941406 99.226562 230.160156 C 99.808594 229.382812 100.097656 228.300781 100.097656 226.910156 C 100.097656 225.742188 99.828125 224.824219 99.285156 224.164062 C 98.746094 223.5 98.015625 223.167969 97.09375 223.167969 C 96.113281 223.167969 95.328125 223.511719 94.734375 224.195312 C 94.140625 224.871094 93.84375 225.722656 93.84375 226.746094 Z M 93.84375 226.746094 "/>
<path style=" stroke:none;fill-rule:nonzero;fill:rgb(0%,0%,0%);fill-opacity:1;" d="M 18.539062 370.398438 C 18.140625 370.617188 17.617188 370.726562 16.96875 370.726562 C 15.128906 370.726562 14.210938 369.699219 14.210938 367.648438 L 14.210938 361.433594 L 12.40625 361.433594 L 12.40625 360 L 14.210938 360 L 14.210938 357.4375 L 15.890625 356.894531 L 15.890625 360 L 18.539062 360 L 18.539062 361.433594 L 15.890625 361.433594 L 15.890625 367.351562 C 15.890625 368.054688 16.011719 368.558594 16.25 368.859375 C 16.492188 369.160156 16.886719 369.308594 17.441406 369.308594 C 17.863281 369.308594 18.230469 369.195312 18.539062 368.960938 Z M 28.300781 370.5 L 26.617188 370.5 L 26.617188 368.859375 L 26.578125 368.859375 C 25.84375 370.117188 24.769531 370.746094 23.347656 370.746094 C 22.300781 370.746094 21.480469 370.46875 20.886719 369.914062 C 20.296875 369.363281 20.003906 368.625 20.003906 367.710938 C 20.003906 365.75 21.160156 364.609375 23.46875 364.285156 L 26.617188 363.84375 C 26.617188 362.0625 25.894531 361.167969 24.453125 361.167969 C 23.1875 361.167969 22.046875 361.597656 21.027344 362.460938 L 21.027344 360.738281 C 22.0625 360.082031 23.25 359.753906 24.597656 359.753906 C 27.066406 359.753906 28.300781 361.058594 28.300781 363.671875 Z M 26.617188 365.1875 L 24.085938 365.535156 C 23.304688 365.644531 22.71875 365.839844 22.320312 366.121094 C 21.925781 366.394531 21.726562 366.882812 21.726562 367.589844 C 21.726562 368.101562 21.90625 368.523438 22.269531 368.847656 C 22.640625 369.171875 23.128906 369.332031 23.734375 369.332031 C 24.570312 369.332031 25.257812 369.039062 25.796875 368.460938 C 26.34375 367.871094 26.617188 367.128906 26.617188 366.234375 Z M 33.191406 368.980469 L 33.148438 368.980469 L 33.148438 375.328125 L 31.46875 375.328125 L 31.46875 360 L 33.148438 360 L 33.148438 361.84375 L 33.191406 361.84375 C 34.019531 360.453125 35.226562 359.753906 36.820312 359.753906 C 38.171875 359.753906 39.230469 360.226562 39.988281 361.167969 C 40.746094 362.105469 41.128906 363.363281 41.128906 364.941406 C 41.128906 366.699219 40.699219 368.109375 39.84375 369.167969 C 38.992188 370.21875 37.820312 370.746094 36.339844 370.746094 C 34.976562 370.746094 33.929688 370.15625 33.191406 368.980469 Z M 33.148438 364.746094 L 33.148438 366.214844 C 33.148438 367.082031 33.429688 367.820312 33.992188 368.429688 C 34.558594 369.03125 35.273438 369.332031 36.144531 369.332031 C 37.160156 369.332031 37.957031 368.941406 38.53125 368.160156 C 39.113281 367.382812 39.402344 366.300781 39.402344 364.910156 C 39.402344 363.742188 39.132812 362.824219 38.59375 362.164062 C 38.054688 361.5 37.324219 361.167969 36.398438 361.167969 C 35.421875 361.167969 34.636719 361.511719 34.042969 362.195312 C 33.445312 362.871094 33.148438 363.722656 33.148438 364.746094 Z M 45.351562 368.160156 L 43.710938 373.207031 L 42.511719 373.207031 L 43.710938 368.160156 Z M 59 370.398438 C 58.601562 370.617188 58.082031 370.726562 57.429688 370.726562 C 55.59375 370.726562 54.671875 369.699219 54.671875 367.648438 L 54.671875 361.433594 L 52.867188 361.433594 L 52.867188 360 L 54.671875 360 L 54.671875 357.4375 L 56.355469 356.894531 L 56.355469 360 L 59 360 L 59 361.433594 L 56.355469 361.433594 L 56.355469 367.351562 C 56.355469 368.054688 56.472656 368.558594 56.714844 368.859375 C 56.953125 369.160156 57.347656 369.308594 57.902344 369.308594 C 58.324219 369.308594 58.691406 369.195312 59 368.960938 Z M 68.761719 370.5 L 67.078125 370.5 L 67.078125 368.859375 L 67.039062 368.859375 C 66.308594 370.117188 65.230469 370.746094 63.808594 370.746094 C 62.761719 370.746094 61.941406 370.46875 61.347656 369.914062 C 60.757812 369.363281 60.464844 368.625 60.464844 367.710938 C 60.464844 365.75 61.621094 364.609375 63.933594 364.285156 L 67.078125 363.84375 C 67.078125 362.0625 66.359375 361.167969 64.914062 361.167969 C 63.652344 361.167969 62.511719 361.597656 61.492188 362.460938 L 61.492188 360.738281 C 62.523438 360.082031 63.714844 359.753906 65.058594 359.753906 C 67.527344 359.753906 68.761719 361.058594 68.761719 363.671875 Z M 67.078125 365.1875 L 64.546875 365.535156 C 63.765625 365.644531 63.179688 365.839844 62.785156 366.121094 C 62.386719 366.394531 62.1875 366.882812 62.1875 367.589844 C 62.1875 368.101562 62.371094 368.523438 62.730469 368.847656 C 63.101562 369.171875 63.589844 369.332031 64.199219 369.332031 C 65.03125 369.332031 65.71875 369.039062 66.257812 368.460938 C 66.804688 367.871094 67.078125 367.128906 67.078125 366.234375 Z M 73.652344 368.980469 L 73.609375 368.980469 L 73.609375 375.328125 L 71.929688 375.328125 L 71.929688 360 L 73.609375 360 L 73.609375 361.84375 L 73.652344 361.84375 C 74.480469 360.453125 75.6875 359.753906 77.28125 359.753906 C 78.636719 359.753906 79.691406 360.226562 80.449219 361.167969 C 81.210938 362.105469 81.589844 363.363281 81.589844 364.941406 C 81.589844 366.699219 81.160156 368.109375 80.308594 369.167969 C 79.453125 370.21875 78.285156 370.746094 76.800781 370.746094 C 75.441406 370.746094 74.390625 370.15625 73.652344 368.980469 Z M 73.609375 364.746094 L 73.609375 366.214844 C 73.609375 367.082031 73.890625 367.820312 74.453125 368.429688 C 75.019531 369.03125 75.738281 369.332031 76.605469 369.332031 C 77.625 369.332031 78.421875 368.941406 78.996094 368.160156 C 79.574219 367.382812 79.867188 366.300781 79.867188 364.910156 C 79.867188 363.742188 79.597656 362.824219 79.054688 362.164062 C 78.515625 361.5 77.785156 361.167969 76.863281 361.167969 C 75.882812 361.167969 75.097656 361.511719 74.503906 362.195312 C 73.910156 362.871094 73.609375 363.722656 73.609375 364.746094 Z M 85.8125 368.160156 L 84.171875 373.207031 L 82.972656 373.207031 L 84.171875 368.160156 Z M 99.460938 370.398438 C 99.066406 370.617188 98.542969 370.726562 97.890625 370.726562 C 96.054688 370.726562 95.132812 369.699219 95.132812 367.648438 L 95.132812 361.433594 L 93.328125 361.433594 L 93.328125 360 L 95.132812 360 L 95.132812 357.4375 L 96.816406 356.894531 L 96.816406 360 L 99.460938 360 L 99.460938 361.433594 L 96.816406 361.433594 L 96.816406 367.351562 C 96.816406 368.054688 96.9375 368.558594 97.175781 368.859375 C 97.414062 369.160156 97.808594 369.308594 98.363281 369.308594 C 98.789062 369.308594 99.152344 369.195312 99.460938 368.960938 Z M 109.222656 370.5 L 107.542969 370.5 L 107.542969 368.859375 L 107.5 368.859375 C 106.769531 370.117188 105.691406 370.746094 104.269531 370.746094 C 103.222656 370.746094 102.402344 370.46875 101.808594 369.914062 C 101.222656 369.363281 100.929688 368.625 100.929688 367.710938 C 100.929688 365.75 102.082031 364.609375 104.394531 364.285156 L 107.542969 363.84375 C 107.542969 362.0625 106.820312 361.167969 105.378906 361.167969 C 104.113281 361.167969 102.972656 361.597656 101.953125 362.460938 L 101.953125 360.738281 C 102.984375 360.082031 104.175781 359.753906 105.523438 359.753906 C 107.988281 359.753906 109.222656 361.058594 109.222656 363.671875 Z M 107.542969 365.1875 L 105.007812 365.535156 C 104.230469 365.644531 103.640625 365.839844 103.246094 366.121094 C 102.847656 366.394531 102.652344 366.882812 102.652344 367.589844 C 102.652344 368.101562 102.832031 368.523438 103.195312 368.847656 C 103.5625 369.171875 104.050781 369.332031 104.660156 369.332031 C 105.492188 369.332031 106.179688 369.039062 106.722656 368.460938 C 107.269531 367.871094 107.542969 367.128906 107.542969 366.234375 Z M 114.113281 368.980469 L 114.074219 368.980469 L 114.074219 375.328125 L 112.390625 375.328125 L 112.390625 360 L 114.074219 360 L 114.074219 361.84375 L 114.113281 361.84375 C 114.941406 360.453125 116.152344 359.753906 117.746094 359.753906 C 119.097656 359.753906 120.152344 360.226562 120.914062 361.167969 C 121.671875 362.105469 122.050781 363.363281 122.050781 364.941406 C 122.050781 366.699219 121.625 368.109375 120.769531 369.167969 C 119.914062 370.21875 118.746094 370.746094 117.261719 370.746094 C 115.902344 370.746094 114.851562 370.15625 114.113281 368.980469 Z M 114.074219 364.746094 L 114.074219 366.214844 C 114.074219 367.082031 114.355469 367.820312 114.914062 368.429688 C 115.480469 369.03125 116.199219 369.332031 117.066406 369.332031 C 118.085938 369.332031 118.882812 368.941406 119.457031 368.160156 C 120.039062 367.382812 120.328125 366.300781 120.328125 364.910156 C 120.328125 363.742188 120.058594 362.824219 119.519531 362.164062 C 118.976562 361.5 118.246094 361.167969 117.324219 361.167969 C 116.347656 361.167969 115.558594 361.511719 114.964844 362.195312 C 114.371094 362.871094 114.074219 363.722656 114.074219 364.746094 Z M 114.074219 364.746094 "/>
<path style=" stroke:none;fill-rule:nonzero;fill:rgb(0.784314%,43.529412%,77.254902%);fill-opacity:1;" d="M 135 69 L 172.5 69 L 172.5 106.5 L 135 106.5 Z M 135 69 "/>
<path style=" stroke:none;fill-rule:nonzero;fill:rgb(100%,100%,100%);fill-opacity:1;" d="M 151.785156 94.410156 C 151.445312 94.597656 150.996094 94.691406 150.441406 94.691406 C 148.863281 94.691406 148.074219 93.816406 148.074219 92.058594 L 148.074219 86.730469 L 146.527344 86.730469 L 146.527344 85.5 L 148.074219 85.5 L 148.074219 83.304688 L 149.515625 82.835938 L 149.515625 85.5 L 151.785156 85.5 L 151.785156 86.730469 L 149.515625 86.730469 L 149.515625 91.800781 C 149.515625 92.40625 149.621094 92.835938 149.824219 93.09375 C 150.03125 93.351562 150.367188 93.480469 150.84375 93.480469 C 151.207031 93.480469 151.519531 93.378906 151.785156 93.183594 Z M 161.390625 94.5 L 159.949219 94.5 L 159.949219 92.972656 L 159.914062 92.972656 C 159.246094 94.128906 158.214844 94.710938 156.820312 94.710938 C 155.691406 94.710938 154.785156 94.308594 154.105469 93.507812 C 153.429688 92.699219 153.09375 91.597656 153.09375 90.210938 C 153.09375 88.722656 153.46875 87.53125 154.21875 86.632812 C 154.96875 85.738281 155.96875 85.289062 157.214844 85.289062 C 158.453125 85.289062 159.351562 85.777344 159.914062 86.746094 L 159.949219 86.746094 L 159.949219 81.175781 L 161.390625 81.175781 Z M 159.949219 90.429688 L 159.949219 89.101562 C 159.949219 88.378906 159.710938 87.761719 159.226562 87.257812 C 158.746094 86.753906 158.140625 86.503906 157.402344 86.503906 C 156.523438 86.503906 155.832031 86.824219 155.328125 87.46875 C 154.824219 88.113281 154.570312 89.003906 154.570312 90.140625 C 154.570312 91.179688 154.808594 91.996094 155.289062 92.601562 C 155.777344 93.199219 156.425781 93.496094 157.242188 93.496094 C 158.042969 93.496094 158.695312 93.207031 159.195312 92.628906 C 159.699219 92.046875 159.949219 91.316406 159.949219 90.429688 Z M 159.949219 90.429688 "/>
<path style="fill:none;stroke-width:1;stroke-linecap:butt;stroke-linejoin:miter;stroke:rgb(0%,0%,0%);stroke-opacity:1;stroke-dasharray:2,2;stroke-miterlimit:4;" d="M 189.5 47 L 189.5 71 " transform="matrix(1.5,0,0,1.5,0,0)"/>
<path style=" stroke:none;fill-rule:nonzero;fill:rgb(0%,0%,0%);fill-opacity:1;" d="M 285 54 L 277.5 61.5 L 277.5 46.5 Z M 285 54 "/>
<path style="fill:none;stroke-width:1;stroke-linecap:butt;stroke-linejoin:miter;stroke:rgb(0%,0%,0%);stroke-opacity:1;stroke-miterlimit:4;" d="M 90.5 46 L 90.5 36 " transform="matrix(1.5,0,0,1.5,0,0)"/>
<path style="fill:none;stroke-width:1;stroke-linecap:butt;stroke-linejoin:miter;stroke:rgb(0%,0%,0%);stroke-opacity:1;stroke-miterlimit:4;" d="M 90 35.5 L 189 35.5 " transform="matrix(1.5,0,0,1.5,0,0)"/>
<path style="fill:none;stroke-width:1;stroke-linecap:butt;stroke-linejoin:miter;stroke:rgb(0%,0%,0%);stroke-opacity:1;stroke-miterlimit:4;" d="M 189.5 46 L 189.5 36 " transform="matrix(1.5,0,0,1.5,0,0)"/>
<path style="fill:none;stroke-width:1;stroke-linecap:butt;stroke-linejoin:miter;stroke:rgb(0%,0%,0%);stroke-opacity:1;stroke-dasharray:2,2;stroke-miterlimit:4;" d="M 464.5 46 L 464.5 71 " transform="matrix(1.5,0,0,1.5,0,0)"/>
<path style=" stroke:none;fill-rule:nonzero;fill:rgb(0%,0%,0%);fill-opacity:1;" d="M 697.5 54 L 690 61.5 L 690 46.5 Z M 697.5 54 "/>
<path style="fill:none;stroke-width:1;stroke-linecap:butt;stroke-linejoin:miter;stroke:rgb(0%,0%,0%);stroke-opacity:1;stroke-miterlimit:4;" d="M 365.5 46 L 365.5 36 " transform="matrix(1.5,0,0,1.5,0,0)"/>
<path style="fill:none;stroke-width:1;stroke-linecap:butt;stroke-linejoin:miter;stroke:rgb(0%,0%,0%);stroke-opacity:1;stroke-miterlimit:4;" d="M 365 35.5 L 464 35.5 " transform="matrix(1.5,0,0,1.5,0,0)"/>
<path style="fill:none;stroke-width:1;stroke-linecap:butt;stroke-linejoin:miter;stroke:rgb(0%,0%,0%);stroke-opacity:1;stroke-miterlimit:4;" d="M 464.5 46 L 464.5 36 " transform="matrix(1.5,0,0,1.5,0,0)"/>
<path style=" stroke:none;fill-rule:nonzero;fill:rgb(76.862745%,76.862745%,76.862745%);fill-opacity:1;" d="M 283.5 381 L 298.5 381 L 298.5 418.5 L 283.5 418.5 Z M 283.5 381 "/>
<path style=" stroke:none;fill-rule:nonzero;fill:rgb(0.784314%,43.529412%,77.254902%);fill-opacity:1;" d="M 135 343.5 L 172.5 343.5 L 172.5 381 L 135 381 Z M 135 343.5 "/>
<path style=" stroke:none;fill-rule:nonzero;fill:rgb(100%,100%,100%);fill-opacity:1;" d="M 151.785156 368.910156 C 151.445312 369.097656 150.996094 369.195312 150.441406 369.195312 C 148.863281 369.195312 148.074219 368.316406 148.074219 366.554688 L 148.074219 361.230469 L 146.527344 361.230469 L 146.527344 360 L 148.074219 360 L 148.074219 357.800781 L 149.515625 357.335938 L 149.515625 360 L 151.785156 360 L 151.785156 361.230469 L 149.515625 361.230469 L 149.515625 366.300781 C 149.515625 366.90625 149.621094 367.335938 149.824219 367.59375 C 150.03125 367.851562 150.367188 367.980469 150.84375 367.980469 C 151.207031 367.980469 151.519531 367.882812 151.785156 367.679688 Z M 161.390625 369 L 159.949219 369 L 159.949219 367.46875 L 159.914062 367.46875 C 159.246094 368.632812 158.214844 369.210938 156.820312 369.210938 C 155.691406 369.210938 154.785156 368.808594 154.105469 368.007812 C 153.429688 367.199219 153.09375 366.097656 153.09375 364.710938 C 153.09375 363.222656 153.46875 362.03125 154.21875 361.132812 C 154.96875 360.238281 155.96875 359.789062 157.214844 359.789062 C 158.453125 359.789062 159.351562 360.277344 159.914062 361.246094 L 159.949219 361.246094 L 159.949219 355.675781 L 161.390625 355.675781 Z M 159.949219 364.929688 L 159.949219 363.601562 C 159.949219 362.878906 159.710938 362.261719 159.226562 361.757812 C 158.746094 361.253906 158.140625 361.003906 157.402344 361.003906 C 156.523438 361.003906 155.832031 361.324219 155.328125 361.96875 C 154.824219 362.613281 154.570312 363.503906 154.570312 364.640625 C 154.570312 365.675781 154.808594 366.496094 155.289062 367.101562 C 155.777344 367.699219 156.425781 367.996094 157.242188 367.996094 C 158.042969 367.996094 158.695312 367.707031 159.195312 367.128906 C 159.699219 366.546875 159.949219 365.816406 159.949219 364.929688 Z M 159.949219 364.929688 "/>
<path style=" stroke:none;fill-rule:nonzero;fill:rgb(0.784314%,43.529412%,77.254902%);fill-opacity:1;" d="M 210 343.5 L 247.5 343.5 L 247.5 381 L 210 381 Z M 210 343.5 "/>
<path style=" stroke:none;fill-rule:nonzero;fill:rgb(100%,100%,100%);fill-opacity:1;" d="M 226.785156 368.910156 C 226.445312 369.097656 225.996094 369.195312 225.441406 369.195312 C 223.863281 369.195312 223.074219 368.316406 223.074219 366.554688 L 223.074219 361.230469 L 221.527344 361.230469 L 221.527344 360 L 223.074219 360 L 223.074219 357.800781 L 224.515625 357.335938 L 224.515625 360 L 226.785156 360 L 226.785156 361.230469 L 224.515625 361.230469 L 224.515625 366.300781 C 224.515625 366.90625 224.617188 367.335938 224.824219 367.59375 C 225.03125 367.851562 225.367188 367.980469 225.84375 367.980469 C 226.207031 367.980469 226.519531 367.882812 226.785156 367.679688 Z M 236.390625 369 L 234.949219 369 L 234.949219 367.46875 L 234.914062 367.46875 C 234.246094 368.632812 233.214844 369.210938 231.820312 369.210938 C 230.691406 369.210938 229.785156 368.808594 229.105469 368.007812 C 228.429688 367.199219 228.09375 366.097656 228.09375 364.710938 C 228.09375 363.222656 228.46875 362.03125 229.21875 361.132812 C 229.96875 360.238281 230.96875 359.789062 232.214844 359.789062 C 233.453125 359.789062 234.351562 360.277344 234.914062 361.246094 L 234.949219 361.246094 L 234.949219 355.675781 L 236.390625 355.675781 Z M 234.949219 364.929688 L 234.949219 363.601562 C 234.949219 362.878906 234.710938 362.261719 234.226562 361.757812 C 233.746094 361.253906 233.140625 361.003906 232.402344 361.003906 C 231.523438 361.003906 230.832031 361.324219 230.328125 361.96875 C 229.824219 362.613281 229.570312 363.503906 229.570312 364.640625 C 229.570312 365.675781 229.808594 366.496094 230.289062 367.101562 C 230.777344 367.699219 231.425781 367.996094 232.242188 367.996094 C 233.042969 367.996094 233.695312 367.707031 234.195312 367.128906 C 234.699219 366.546875 234.949219 365.816406 234.949219 364.929688 Z M 234.949219 364.929688 "/>
<path style=" stroke:none;fill-rule:nonzero;fill:rgb(0.784314%,43.529412%,77.254902%);fill-opacity:1;" d="M 283.5 343.5 L 321 343.5 L 321 381 L 283.5 381 Z M 283.5 343.5 "/>
<path style=" stroke:none;fill-rule:nonzero;fill:rgb(100%,100%,100%);fill-opacity:1;" d="M 300.285156 368.910156 C 299.945312 369.097656 299.496094 369.195312 298.941406 369.195312 C 297.363281 369.195312 296.574219 368.316406 296.574219 366.554688 L 296.574219 361.230469 L 295.027344 361.230469 L 295.027344 360 L 296.574219 360 L 296.574219 357.800781 L 298.015625 357.335938 L 298.015625 360 L 300.285156 360 L 300.285156 361.230469 L 298.015625 361.230469 L 298.015625 366.300781 C 298.015625 366.90625 298.117188 367.335938 298.324219 367.59375 C 298.53125 367.851562 298.867188 367.980469 299.34375 367.980469 C 299.707031 367.980469 300.019531 367.882812 300.285156 367.679688 Z M 309.890625 369 L 308.449219 369 L 308.449219 367.46875 L 308.414062 367.46875 C 307.746094 368.632812 306.714844 369.210938 305.320312 369.210938 C 304.191406 369.210938 303.285156 368.808594 302.605469 368.007812 C 301.929688 367.199219 301.59375 366.097656 301.59375 364.710938 C 301.59375 363.222656 301.96875 362.03125 302.71875 361.132812 C 303.46875 360.238281 304.46875 359.789062 305.714844 359.789062 C 306.953125 359.789062 307.851562 360.277344 308.414062 361.246094 L 308.449219 361.246094 L 308.449219 355.675781 L 309.890625 355.675781 Z M 308.449219 364.929688 L 308.449219 363.601562 C 308.449219 362.878906 308.210938 362.261719 307.726562 361.757812 C 307.246094 361.253906 306.640625 361.003906 305.902344 361.003906 C 305.023438 361.003906 304.332031 361.324219 303.828125 361.96875 C 303.324219 362.613281 303.070312 363.503906 303.070312 364.640625 C 303.070312 365.675781 303.308594 366.496094 303.789062 367.101562 C 304.277344 367.699219 304.925781 367.996094 305.742188 367.996094 C 306.542969 367.996094 307.195312 367.707031 307.695312 367.128906 C 308.199219 366.546875 308.449219 365.816406 308.449219 364.929688 Z M 308.449219 364.929688 "/>
<path style="fill:none;stroke-width:1;stroke-linecap:butt;stroke-linejoin:miter;stroke:rgb(0%,0%,0%);stroke-opacity:1;stroke-miterlimit:4;" d="M 140 219.5 L 190 219.5 " transform="matrix(1.5,0,0,1.5,0,0)"/>
<path style="fill:none;stroke-width:1;stroke-linecap:butt;stroke-linejoin:miter;stroke:rgb(0%,0%,0%);stroke-opacity:1;stroke-miterlimit:4;" d="M 90.5 229 L 90.5 219 " transform="matrix(1.5,0,0,1.5,0,0)"/>
<path style="fill:none;stroke-width:1;stroke-linecap:butt;stroke-linejoin:miter;stroke:rgb(0%,0%,0%);stroke-opacity:1;stroke-miterlimit:4;" d="M 90 219.5 L 189 219.5 " transform="matrix(1.5,0,0,1.5,0,0)"/>
<path style=" stroke:none;fill-rule:nonzero;fill:rgb(0%,0%,0%);fill-opacity:1;" d="M 294.523438 402.929688 C 294.523438 403.5 294.414062 404.019531 294.199219 404.488281 C 293.988281 404.949219 293.6875 405.347656 293.292969 405.683594 C 292.90625 406.011719 292.441406 406.265625 291.898438 406.449219 C 291.351562 406.628906 290.75 406.71875 290.09375 406.71875 C 288.894531 406.71875 287.9375 406.492188 287.230469 406.035156 L 287.230469 404.488281 C 288.078125 405.15625 289.050781 405.488281 290.148438 405.488281 C 290.585938 405.488281 290.980469 405.433594 291.335938 405.324219 C 291.691406 405.210938 291.996094 405.050781 292.246094 404.839844 C 292.507812 404.628906 292.703125 404.371094 292.835938 404.074219 C 292.976562 403.777344 293.046875 403.4375 293.046875 403.0625 C 293.046875 401.417969 291.875 400.59375 289.53125 400.59375 L 288.484375 400.59375 L 288.484375 399.371094 L 289.480469 399.371094 C 291.554688 399.371094 292.589844 398.597656 292.589844 397.050781 C 292.589844 395.621094 291.800781 394.90625 290.21875 394.90625 C 289.328125 394.90625 288.492188 395.207031 287.714844 395.804688 L 287.714844 394.40625 C 288.515625 393.925781 289.46875 393.683594 290.578125 393.683594 C 291.105469 393.683594 291.582031 393.757812 292.011719 393.90625 C 292.4375 394.050781 292.804688 394.257812 293.109375 394.519531 C 293.414062 394.785156 293.648438 395.101562 293.8125 395.46875 C 293.980469 395.839844 294.066406 396.246094 294.066406 396.691406 C 294.066406 398.347656 293.230469 399.414062 291.554688 399.890625 L 291.554688 399.925781 C 291.980469 399.972656 292.378906 400.078125 292.738281 400.242188 C 293.101562 400.402344 293.417969 400.609375 293.679688 400.867188 C 293.945312 401.125 294.148438 401.429688 294.296875 401.78125 C 294.449219 402.125 294.523438 402.511719 294.523438 402.929688 Z M 294.523438 402.929688 "/>
<path style=" stroke:none;fill-rule:nonzero;fill:rgb(76.862745%,76.862745%,76.862745%);fill-opacity:1;" d="M 358.5 243 L 373.5 243 L 373.5 280.5 L 358.5 280.5 Z M 358.5 243 "/>
<path style=" stroke:none;fill-rule:nonzero;fill:rgb(0.784314%,43.529412%,77.254902%);fill-opacity:1;" d="M 135 205.5 L 172.5 205.5 L 172.5 243 L 135 243 Z M 135 205.5 "/>
<path style=" stroke:none;fill-rule:nonzero;fill:rgb(100%,100%,100%);fill-opacity:1;" d="M 151.785156 230.910156 C 151.445312 231.097656 150.996094 231.195312 150.441406 231.195312 C 148.863281 231.195312 148.074219 230.316406 148.074219 228.554688 L 148.074219 223.230469 L 146.527344 223.230469 L 146.527344 222 L 148.074219 222 L 148.074219 219.800781 L 149.515625 219.335938 L 149.515625 222 L 151.785156 222 L 151.785156 223.230469 L 149.515625 223.230469 L 149.515625 228.300781 C 149.515625 228.90625 149.621094 229.335938 149.824219 229.59375 C 150.03125 229.851562 150.367188 229.980469 150.84375 229.980469 C 151.207031 229.980469 151.519531 229.882812 151.785156 229.679688 Z M 161.390625 231 L 159.949219 231 L 159.949219 229.46875 L 159.914062 229.46875 C 159.246094 230.632812 158.214844 231.210938 156.820312 231.210938 C 155.691406 231.210938 154.785156 230.808594 154.105469 230.007812 C 153.429688 229.199219 153.09375 228.097656 153.09375 226.710938 C 153.09375 225.222656 153.46875 224.03125 154.21875 223.132812 C 154.96875 222.238281 155.96875 221.789062 157.214844 221.789062 C 158.453125 221.789062 159.351562 222.277344 159.914062 223.246094 L 159.949219 223.246094 L 159.949219 217.675781 L 161.390625 217.675781 Z M 159.949219 226.929688 L 159.949219 225.601562 C 159.949219 224.878906 159.710938 224.261719 159.226562 223.757812 C 158.746094 223.253906 158.140625 223.003906 157.402344 223.003906 C 156.523438 223.003906 155.832031 223.324219 155.328125 223.96875 C 154.824219 224.613281 154.570312 225.503906 154.570312 226.640625 C 154.570312 227.675781 154.808594 228.496094 155.289062 229.101562 C 155.777344 229.699219 156.425781 229.996094 157.242188 229.996094 C 158.042969 229.996094 158.695312 229.707031 159.195312 229.128906 C 159.699219 228.546875 159.949219 227.816406 159.949219 226.929688 Z M 159.949219 226.929688 "/>
<path style=" stroke:none;fill-rule:nonzero;fill:rgb(0.784314%,43.529412%,77.254902%);fill-opacity:1;" d="M 210 205.5 L 247.5 205.5 L 247.5 243 L 210 243 Z M 210 205.5 "/>
<path style=" stroke:none;fill-rule:nonzero;fill:rgb(100%,100%,100%);fill-opacity:1;" d="M 226.785156 230.910156 C 226.445312 231.097656 225.996094 231.195312 225.441406 231.195312 C 223.863281 231.195312 223.074219 230.316406 223.074219 228.554688 L 223.074219 223.230469 L 221.527344 223.230469 L 221.527344 222 L 223.074219 222 L 223.074219 219.800781 L 224.515625 219.335938 L 224.515625 222 L 226.785156 222 L 226.785156 223.230469 L 224.515625 223.230469 L 224.515625 228.300781 C 224.515625 228.90625 224.617188 229.335938 224.824219 229.59375 C 225.03125 229.851562 225.367188 229.980469 225.84375 229.980469 C 226.207031 229.980469 226.519531 229.882812 226.785156 229.679688 Z M 236.390625 231 L 234.949219 231 L 234.949219 229.46875 L 234.914062 229.46875 C 234.246094 230.632812 233.214844 231.210938 231.820312 231.210938 C 230.691406 231.210938 229.785156 230.808594 229.105469 230.007812 C 228.429688 229.199219 228.09375 228.097656 228.09375 226.710938 C 228.09375 225.222656 228.46875 224.03125 229.21875 223.132812 C 229.96875 222.238281 230.96875 221.789062 232.214844 221.789062 C 233.453125 221.789062 234.351562 222.277344 234.914062 223.246094 L 234.949219 223.246094 L 234.949219 217.675781 L 236.390625 217.675781 Z M 234.949219 226.929688 L 234.949219 225.601562 C 234.949219 224.878906 234.710938 224.261719 234.226562 223.757812 C 233.746094 223.253906 233.140625 223.003906 232.402344 223.003906 C 231.523438 223.003906 230.832031 223.324219 230.328125 223.96875 C 229.824219 224.613281 229.570312 225.503906 229.570312 226.640625 C 229.570312 227.675781 229.808594 228.496094 230.289062 229.101562 C 230.777344 229.699219 231.425781 229.996094 232.242188 229.996094 C 233.042969 229.996094 233.695312 229.707031 234.195312 229.128906 C 234.699219 228.546875 234.949219 227.816406 234.949219 226.929688 Z M 234.949219 226.929688 "/>
<path style=" stroke:none;fill-rule:nonzero;fill:rgb(0%,0%,0%);fill-opacity:1;" d="M 211.5 192 L 204 199.5 L 204 184.5 Z M 211.5 192 "/>
<path style=" stroke:none;fill-rule:nonzero;fill:rgb(0%,0%,0%);fill-opacity:1;" d="M 601.5 192 L 594 199.5 L 594 184.5 Z M 601.5 192 "/>
<path style="fill:none;stroke-width:1;stroke-linecap:butt;stroke-linejoin:miter;stroke:rgb(0%,0%,0%);stroke-opacity:1;stroke-dasharray:2,2;stroke-miterlimit:4;" d="M 239.5 137 L 239.5 162 " transform="matrix(1.5,0,0,1.5,0,0)"/>
<path style="fill:none;stroke-width:1;stroke-linecap:butt;stroke-linejoin:miter;stroke:rgb(0%,0%,0%);stroke-opacity:1;stroke-miterlimit:4;" d="M 140 127.5 L 239 127.5 " transform="matrix(1.5,0,0,1.5,0,0)"/>
<path style="fill:none;stroke-width:1;stroke-linecap:butt;stroke-linejoin:miter;stroke:rgb(0%,0%,0%);stroke-opacity:1;stroke-miterlimit:4;" d="M 239.5 137 L 239.5 127 " transform="matrix(1.5,0,0,1.5,0,0)"/>
<path style=" stroke:none;fill-rule:nonzero;fill:rgb(0%,0%,0%);fill-opacity:1;" d="M 367.933594 257.703125 C 367.933594 257.316406 367.871094 256.976562 367.75 256.691406 C 367.632812 256.402344 367.46875 256.164062 367.257812 255.976562 C 367.050781 255.785156 366.808594 255.640625 366.527344 255.546875 C 366.246094 255.453125 365.941406 255.40625 365.613281 255.40625 C 365.332031 255.40625 365.054688 255.445312 364.785156 255.523438 C 364.519531 255.597656 364.253906 255.703125 363.996094 255.839844 C 363.742188 255.972656 363.496094 256.132812 363.257812 256.320312 C 363.023438 256.507812 362.804688 256.71875 362.597656 256.945312 L 362.597656 255.398438 C 363.003906 255.007812 363.453125 254.707031 363.953125 254.503906 C 364.457031 254.289062 365.070312 254.183594 365.789062 254.183594 C 366.304688 254.183594 366.78125 254.261719 367.222656 254.414062 C 367.660156 254.558594 368.042969 254.777344 368.363281 255.066406 C 368.6875 255.351562 368.9375 255.707031 369.121094 256.128906 C 369.308594 256.550781 369.402344 257.03125 369.402344 257.578125 C 369.402344 258.078125 369.34375 258.527344 369.226562 258.929688 C 369.113281 259.335938 368.941406 259.71875 368.707031 260.074219 C 368.476562 260.429688 368.1875 260.773438 367.835938 261.101562 C 367.484375 261.429688 367.074219 261.765625 366.597656 262.105469 C 366.007812 262.527344 365.515625 262.886719 365.128906 263.183594 C 364.75 263.484375 364.445312 263.765625 364.214844 264.03125 C 363.992188 264.285156 363.835938 264.546875 363.742188 264.8125 C 363.652344 265.070312 363.609375 265.367188 363.609375 265.707031 L 369.886719 265.707031 L 369.886719 267 L 362.105469 267 L 362.105469 266.375 C 362.105469 265.835938 362.164062 265.363281 362.28125 264.953125 C 362.398438 264.542969 362.59375 264.152344 362.863281 263.78125 C 363.132812 263.414062 363.484375 263.042969 363.917969 262.675781 C 364.355469 262.304688 364.894531 261.890625 365.527344 261.425781 C 365.980469 261.097656 366.363281 260.785156 366.667969 260.488281 C 366.976562 260.1875 367.226562 259.890625 367.414062 259.589844 C 367.601562 259.292969 367.734375 258.988281 367.808594 258.683594 C 367.894531 258.375 367.933594 258.046875 367.933594 257.703125 Z M 367.933594 257.703125 "/>
<path style=" stroke:none;fill-rule:nonzero;fill:rgb(76.862745%,76.862745%,76.862745%);fill-opacity:1;" d="M 283.5 106.5 L 298.5 106.5 L 298.5 144 L 283.5 144 Z M 283.5 106.5 "/>
<path style=" stroke:none;fill-rule:nonzero;fill:rgb(0%,0%,0%);fill-opacity:1;" d="M 292.511719 130.5 L 291.070312 130.5 L 291.070312 119.609375 C 290.960938 119.722656 290.792969 119.851562 290.578125 119.996094 C 290.367188 120.136719 290.128906 120.277344 289.855469 120.417969 C 289.59375 120.558594 289.3125 120.691406 289.015625 120.816406 C 288.71875 120.9375 288.433594 121.035156 288.152344 121.105469 L 288.152344 119.644531 C 288.46875 119.558594 288.800781 119.441406 289.15625 119.292969 C 289.511719 119.140625 289.859375 118.972656 290.199219 118.792969 C 290.546875 118.605469 290.871094 118.410156 291.175781 118.214844 C 291.480469 118.007812 291.742188 117.808594 291.96875 117.617188 L 292.511719 117.617188 Z M 292.511719 130.5 "/>
<path style=" stroke:none;fill-rule:nonzero;fill:rgb(76.862745%,76.862745%,76.862745%);fill-opacity:1;" d="M 697.5 106.5 L 735 106.5 L 735 144 L 697.5 144 Z M 697.5 106.5 "/>
<path style="fill:none;stroke-width:1;stroke-linecap:butt;stroke-linejoin:miter;stroke:rgb(0%,0%,0%);stroke-opacity:1;stroke-miterlimit:4;" d="M 90.5 137 L 90.5 127 " transform="matrix(1.5,0,0,1.5,0,0)"/>
<path style="fill:none;stroke-width:1;stroke-linecap:butt;stroke-linejoin:miter;stroke:rgb(0%,0%,0%);stroke-opacity:1;stroke-miterlimit:4;" d="M 90 127.5 L 190 127.5 " transform="matrix(1.5,0,0,1.5,0,0)"/>
<path style=" stroke:none;fill-rule:nonzero;fill:rgb(0%,0%,0%);fill-opacity:1;" d="M 360 192 L 352.5 199.5 L 352.5 184.5 Z M 360 192 "/>
<path style=" stroke:none;fill-rule:nonzero;fill:rgb(0%,0%,0%);fill-opacity:1;" d="M 211.5 330 L 204 337.5 L 204 322.5 Z M 211.5 330 "/>
<path style=" stroke:none;fill-rule:nonzero;fill:rgb(0%,0%,0%);fill-opacity:1;" d="M 717.761719 130.5 L 716.320312 130.5 L 716.320312 119.609375 C 716.210938 119.722656 716.042969 119.851562 715.828125 119.996094 C 715.617188 120.136719 715.378906 120.277344 715.105469 120.417969 C 714.84375 120.558594 714.5625 120.691406 714.265625 120.816406 C 713.96875 120.9375 713.683594 121.035156 713.402344 121.105469 L 713.402344 119.644531 C 713.71875 119.558594 714.050781 119.441406 714.40625 119.292969 C 714.761719 119.140625 715.109375 118.972656 715.449219 118.792969 C 715.796875 118.605469 716.121094 118.410156 716.425781 118.214844 C 716.730469 118.007812 716.992188 117.808594 717.21875 117.617188 L 717.761719 117.617188 Z M 717.761719 130.5 "/>
<path style=" stroke:none;fill-rule:nonzero;fill:rgb(100%,0%,0%);fill-opacity:1;" d="M 211.5 321 L 210 321 L 210 343.5 L 211.5 343.5 Z M 211.5 321 "/>
<path style=" stroke:none;fill-rule:nonzero;fill:rgb(100%,0%,0%);fill-opacity:1;" d="M 211.5 183 L 210 183 L 210 205.5 L 211.5 205.5 Z M 211.5 183 "/>
<path style=" stroke:none;fill-rule:nonzero;fill:rgb(0%,0%,0%);fill-opacity:1;" d="M 469.59375 96 L 467.910156 96 L 467.910156 89.949219 C 467.910156 87.761719 467.097656 86.667969 465.46875 86.667969 C 464.652344 86.667969 463.960938 86.988281 463.398438 87.621094 C 462.839844 88.25 462.558594 89.0625 462.558594 90.054688 L 462.558594 96 L 460.875 96 L 460.875 80.453125 L 462.558594 80.453125 L 462.558594 87.242188 L 462.597656 87.242188 C 463.40625 85.917969 464.554688 85.253906 466.042969 85.253906 C 468.410156 85.253906 469.59375 86.679688 469.59375 89.53125 Z M 477.160156 96.246094 C 475.609375 96.246094 474.367188 95.757812 473.4375 94.78125 C 472.515625 93.796875 472.054688 92.492188 472.054688 90.871094 C 472.054688 89.109375 472.535156 87.730469 473.5 86.742188 C 474.464844 85.75 475.765625 85.253906 477.40625 85.253906 C 478.972656 85.253906 480.191406 85.734375 481.066406 86.699219 C 481.949219 87.664062 482.390625 89 482.390625 90.710938 C 482.390625 92.382812 481.914062 93.726562 480.964844 94.738281 C 480.019531 95.742188 478.753906 96.246094 477.160156 96.246094 Z M 477.28125 86.667969 C 476.203125 86.667969 475.347656 87.039062 474.71875 87.777344 C 474.089844 88.507812 473.777344 89.519531 473.777344 90.8125 C 473.777344 92.054688 474.09375 93.035156 474.730469 93.753906 C 475.363281 94.472656 476.21875 94.832031 477.28125 94.832031 C 478.371094 94.832031 479.203125 94.480469 479.785156 93.773438 C 480.371094 93.070312 480.664062 92.070312 480.664062 90.769531 C 480.664062 89.457031 480.371094 88.445312 479.785156 87.734375 C 479.203125 87.023438 478.371094 86.667969 477.28125 86.667969 Z M 486.757812 96 L 485.074219 96 L 485.074219 80.453125 L 486.757812 80.453125 Z M 499.125 96 L 497.441406 96 L 497.441406 94.214844 L 497.402344 94.214844 C 496.621094 95.570312 495.417969 96.246094 493.789062 96.246094 C 492.472656 96.246094 491.417969 95.777344 490.621094 94.839844 C 489.835938 93.898438 489.445312 92.617188 489.445312 90.996094 C 489.445312 89.257812 489.882812 87.867188 490.757812 86.824219 C 491.632812 85.777344 492.796875 85.253906 494.253906 85.253906 C 495.695312 85.253906 496.746094 85.820312 497.402344 86.957031 L 497.441406 86.957031 L 497.441406 80.453125 L 499.125 80.453125 Z M 497.441406 91.253906 L 497.441406 89.703125 C 497.441406 88.855469 497.160156 88.136719 496.601562 87.550781 C 496.039062 86.964844 495.328125 86.667969 494.46875 86.667969 C 493.441406 86.667969 492.636719 87.042969 492.046875 87.796875 C 491.460938 88.550781 491.164062 89.589844 491.164062 90.914062 C 491.164062 92.125 491.445312 93.082031 492.007812 93.785156 C 492.574219 94.484375 493.332031 94.832031 494.28125 94.832031 C 495.21875 94.832031 495.980469 94.492188 496.558594 93.816406 C 497.148438 93.140625 497.441406 92.285156 497.441406 91.253906 Z M 497.441406 91.253906 "/>
<path style=" stroke:none;fill-rule:nonzero;fill:rgb(0.784314%,43.529412%,77.254902%);fill-opacity:1;" d="M 547.5 69 L 735 69 L 735 106.5 L 547.5 106.5 Z M 547.5 69 "/>
<path style=" stroke:none;fill-rule:nonzero;fill:rgb(100%,100%,100%);fill-opacity:1;" d="M 642.285156 94.410156 C 641.945312 94.597656 641.496094 94.691406 640.941406 94.691406 C 639.363281 94.691406 638.574219 93.816406 638.574219 92.058594 L 638.574219 86.730469 L 637.027344 86.730469 L 637.027344 85.5 L 638.574219 85.5 L 638.574219 83.304688 L 640.015625 82.835938 L 640.015625 85.5 L 642.285156 85.5 L 642.285156 86.730469 L 640.015625 86.730469 L 640.015625 91.800781 C 640.015625 92.40625 640.117188 92.835938 640.324219 93.09375 C 640.53125 93.351562 640.867188 93.480469 641.34375 93.480469 C 641.707031 93.480469 642.019531 93.378906 642.285156 93.183594 Z M 651.890625 94.5 L 650.449219 94.5 L 650.449219 92.972656 L 650.414062 92.972656 C 649.746094 94.128906 648.714844 94.710938 647.320312 94.710938 C 646.191406 94.710938 645.285156 94.308594 644.605469 93.507812 C 643.929688 92.699219 643.59375 91.597656 643.59375 90.210938 C 643.59375 88.722656 643.96875 87.53125 644.71875 86.632812 C 645.46875 85.738281 646.46875 85.289062 647.714844 85.289062 C 648.953125 85.289062 649.851562 85.777344 650.414062 86.746094 L 650.449219 86.746094 L 650.449219 81.175781 L 651.890625 81.175781 Z M 650.449219 90.429688 L 650.449219 89.101562 C 650.449219 88.378906 650.210938 87.761719 649.726562 87.257812 C 649.246094 86.753906 648.640625 86.503906 647.902344 86.503906 C 647.023438 86.503906 646.332031 86.824219 645.828125 87.46875 C 645.324219 88.113281 645.070312 89.003906 645.070312 90.140625 C 645.070312 91.179688 645.308594 91.996094 645.789062 92.601562 C 646.277344 93.199219 646.925781 93.496094 647.742188 93.496094 C 648.542969 93.496094 649.195312 93.207031 649.695312 92.628906 C 650.199219 92.046875 650.449219 91.316406 650.449219 90.429688 Z M 650.449219 90.429688 "/>
<path style="fill:none;stroke-width:1;stroke-linecap:butt;stroke-linejoin:miter;stroke:rgb(0%,0%,0%);stroke-opacity:1;stroke-miterlimit:4;" d="M 365.5 137 L 365.5 127 " transform="matrix(1.5,0,0,1.5,0,0)"/>
<path style="fill:none;stroke-width:1;stroke-linecap:butt;stroke-linejoin:miter;stroke:rgb(0%,0%,0%);stroke-opacity:1;stroke-miterlimit:4;" d="M 365 127.5 L 400 127.5 " transform="matrix(1.5,0,0,1.5,0,0)"/>
<path style=" stroke:none;fill-rule:nonzero;fill:rgb(76.862745%,76.862745%,76.862745%);fill-opacity:1;" d="M 600 280.5 L 630 280.5 L 630 318 L 600 318 Z M 600 280.5 "/>
<path style=" stroke:none;fill-rule:nonzero;fill:rgb(0%,0%,0%);fill-opacity:1;" d="M 609.160156 304.5 L 607.71875 304.5 L 607.71875 293.609375 C 607.609375 293.722656 607.445312 293.851562 607.226562 293.996094 C 607.015625 294.136719 606.777344 294.277344 606.507812 294.417969 C 606.242188 294.558594 605.960938 294.691406 605.664062 294.816406 C 605.371094 294.9375 605.082031 295.035156 604.800781 295.105469 L 604.800781 293.644531 C 605.117188 293.558594 605.453125 293.441406 605.804688 293.292969 C 606.160156 293.140625 606.511719 292.972656 606.847656 292.792969 C 607.195312 292.605469 607.519531 292.410156 607.824219 292.214844 C 608.128906 292.007812 608.394531 291.808594 608.617188 291.613281 L 609.160156 291.613281 Z M 615.277344 302.496094 L 613.871094 306.820312 L 612.84375 306.820312 L 613.871094 302.496094 Z M 624.242188 304.121094 C 624.242188 305.597656 623.945312 306.734375 623.347656 307.53125 C 622.753906 308.335938 621.90625 308.734375 620.796875 308.734375 C 620.386719 308.734375 619.988281 308.644531 619.601562 308.457031 L 619.601562 307.109375 C 620.035156 307.375 620.445312 307.507812 620.832031 307.507812 C 622.144531 307.507812 622.800781 306.457031 622.800781 304.359375 L 622.800781 295.5 L 624.242188 295.5 Z M 623.539062 293.214844 C 623.28125 293.214844 623.0625 293.128906 622.882812 292.953125 C 622.699219 292.777344 622.609375 292.550781 622.609375 292.28125 C 622.609375 292.015625 622.699219 291.789062 622.882812 291.613281 C 623.0625 291.433594 623.28125 291.34375 623.539062 291.34375 C 623.804688 291.34375 624.027344 291.433594 624.207031 291.613281 C 624.394531 291.789062 624.488281 292.015625 624.488281 292.28125 C 624.488281 292.539062 624.394531 292.761719 624.207031 292.941406 C 624.027344 293.125 623.804688 293.214844 623.539062 293.214844 Z M 623.539062 293.214844 "/>
<path style=" stroke:none;fill-rule:nonzero;fill:rgb(0%,0%,0%);fill-opacity:1;" d="M 425.820312 233.898438 C 425.421875 234.117188 424.898438 234.226562 424.25 234.226562 C 422.410156 234.226562 421.492188 233.199219 421.492188 231.148438 L 421.492188 224.933594 L 419.6875 224.933594 L 419.6875 223.5 L 421.492188 223.5 L 421.492188 220.9375 L 423.171875 220.394531 L 423.171875 223.5 L 425.820312 223.5 L 425.820312 224.933594 L 423.171875 224.933594 L 423.171875 230.851562 C 423.171875 231.554688 423.292969 232.058594 423.53125 232.359375 C 423.769531 232.660156 424.167969 232.808594 424.71875 232.808594 C 425.144531 232.808594 425.511719 232.695312 425.820312 232.460938 Z M 435.582031 234 L 433.898438 234 L 433.898438 232.359375 L 433.855469 232.359375 C 433.125 233.617188 432.050781 234.246094 430.628906 234.246094 C 429.582031 234.246094 428.761719 233.96875 428.164062 233.414062 C 427.578125 232.863281 427.285156 232.125 427.285156 231.210938 C 427.285156 229.25 428.441406 228.109375 430.75 227.785156 L 433.898438 227.34375 C 433.898438 225.5625 433.175781 224.667969 431.734375 224.667969 C 430.46875 224.667969 429.328125 225.097656 428.308594 225.960938 L 428.308594 224.238281 C 429.34375 223.582031 430.53125 223.253906 431.878906 223.253906 C 434.347656 223.253906 435.582031 224.558594 435.582031 227.171875 Z M 433.898438 228.6875 L 431.367188 229.035156 C 430.585938 229.144531 430 229.339844 429.601562 229.621094 C 429.207031 229.894531 429.007812 230.382812 429.007812 231.089844 C 429.007812 231.601562 429.1875 232.023438 429.550781 232.347656 C 429.917969 232.671875 430.410156 232.832031 431.015625 232.832031 C 431.851562 232.832031 432.539062 232.539062 433.078125 231.960938 C 433.625 231.371094 433.898438 230.628906 433.898438 229.734375 Z M 440.46875 232.480469 L 440.429688 232.480469 L 440.429688 238.828125 L 438.75 238.828125 L 438.75 223.5 L 440.429688 223.5 L 440.429688 225.34375 L 440.46875 225.34375 C 441.296875 223.953125 442.507812 223.253906 444.101562 223.253906 C 445.453125 223.253906 446.511719 223.726562 447.269531 224.667969 C 448.027344 225.605469 448.40625 226.863281 448.40625 228.441406 C 448.40625 230.199219 447.980469 231.609375 447.125 232.667969 C 446.269531 233.71875 445.101562 234.246094 443.617188 234.246094 C 442.257812 234.246094 441.210938 233.65625 440.46875 232.480469 Z M 440.429688 228.246094 L 440.429688 229.714844 C 440.429688 230.582031 440.710938 231.320312 441.273438 231.929688 C 441.839844 232.53125 442.554688 232.832031 443.425781 232.832031 C 444.441406 232.832031 445.238281 232.441406 445.8125 231.660156 C 446.394531 230.882812 446.683594 229.800781 446.683594 228.410156 C 446.683594 227.242188 446.414062 226.324219 445.875 225.664062 C 445.335938 225 444.601562 224.667969 443.679688 224.667969 C 442.703125 224.667969 441.917969 225.011719 441.324219 225.695312 C 440.726562 226.371094 440.429688 227.222656 440.429688 228.246094 Z M 452.632812 231.660156 L 450.992188 236.707031 L 449.792969 236.707031 L 450.992188 231.660156 Z M 462.273438 220.835938 C 461.96875 220.835938 461.714844 220.730469 461.503906 220.527344 C 461.289062 220.320312 461.183594 220.0625 461.183594 219.746094 C 461.183594 219.433594 461.289062 219.171875 461.503906 218.96875 C 461.714844 218.753906 461.96875 218.652344 462.273438 218.652344 C 462.578125 218.652344 462.839844 218.753906 463.050781 218.96875 C 463.269531 219.171875 463.378906 219.433594 463.378906 219.746094 C 463.378906 220.046875 463.269531 220.304688 463.050781 220.515625 C 462.839844 220.726562 462.578125 220.835938 462.273438 220.835938 Z M 463.09375 234 L 461.410156 234 L 461.410156 223.5 L 463.09375 223.5 Z M 475.210938 234 L 473.53125 234 L 473.53125 228.011719 C 473.53125 225.78125 472.714844 224.667969 471.089844 224.667969 C 470.25 224.667969 469.550781 224.988281 468.996094 225.621094 C 468.449219 226.25 468.175781 227.046875 468.175781 228.011719 L 468.175781 234 L 466.496094 234 L 466.496094 223.5 L 468.175781 223.5 L 468.175781 225.242188 L 468.21875 225.242188 C 469.011719 223.917969 470.160156 223.253906 471.664062 223.253906 C 472.8125 223.253906 473.691406 223.625 474.296875 224.371094 C 474.90625 225.109375 475.210938 226.179688 475.210938 227.582031 Z M 483.261719 233.898438 C 482.863281 234.117188 482.339844 234.226562 481.691406 234.226562 C 479.851562 234.226562 478.933594 233.199219 478.933594 231.148438 L 478.933594 224.933594 L 477.128906 224.933594 L 477.128906 223.5 L 478.933594 223.5 L 478.933594 220.9375 L 480.613281 220.394531 L 480.613281 223.5 L 483.261719 223.5 L 483.261719 224.933594 L 480.613281 224.933594 L 480.613281 230.851562 C 480.613281 231.554688 480.734375 232.058594 480.972656 232.359375 C 481.214844 232.660156 481.609375 232.808594 482.164062 232.808594 C 482.585938 232.808594 482.953125 232.695312 483.261719 232.460938 Z M 493.945312 229.171875 L 486.53125 229.171875 C 486.558594 230.339844 486.871094 231.242188 487.472656 231.878906 C 488.074219 232.511719 488.902344 232.832031 489.957031 232.832031 C 491.140625 232.832031 492.226562 232.441406 493.21875 231.660156 L 493.21875 233.242188 C 492.292969 233.910156 491.074219 234.246094 489.554688 234.246094 C 488.074219 234.246094 486.90625 233.769531 486.058594 232.820312 C 485.210938 231.863281 484.789062 230.519531 484.789062 228.789062 C 484.789062 227.15625 485.25 225.828125 486.171875 224.800781 C 487.101562 223.769531 488.253906 223.253906 489.628906 223.253906 C 491.003906 223.253906 492.066406 223.699219 492.816406 224.585938 C 493.570312 225.476562 493.945312 226.710938 493.945312 228.289062 Z M 492.222656 227.746094 C 492.214844 226.773438 491.980469 226.019531 491.515625 225.476562 C 491.054688 224.9375 490.417969 224.667969 489.597656 224.667969 C 488.804688 224.667969 488.132812 224.953125 487.578125 225.519531 C 487.023438 226.085938 486.683594 226.828125 486.550781 227.746094 Z M 501.972656 225.203125 C 501.679688 224.976562 501.257812 224.863281 500.703125 224.863281 C 499.984375 224.863281 499.382812 225.203125 498.898438 225.878906 C 498.421875 226.554688 498.179688 227.476562 498.179688 228.648438 L 498.179688 234 L 496.5 234 L 496.5 223.5 L 498.179688 223.5 L 498.179688 225.664062 L 498.21875 225.664062 C 498.460938 224.925781 498.828125 224.351562 499.320312 223.941406 C 499.808594 223.523438 500.359375 223.316406 500.96875 223.316406 C 501.40625 223.316406 501.742188 223.363281 501.972656 223.460938 Z M 509.277344 225.203125 C 508.980469 224.976562 508.558594 224.863281 508.003906 224.863281 C 507.285156 224.863281 506.683594 225.203125 506.199219 225.878906 C 505.71875 226.554688 505.480469 227.476562 505.480469 228.648438 L 505.480469 234 L 503.800781 234 L 503.800781 223.5 L 505.480469 223.5 L 505.480469 225.664062 L 505.523438 225.664062 C 505.761719 224.925781 506.128906 224.351562 506.617188 223.941406 C 507.109375 223.523438 507.660156 223.316406 508.269531 223.316406 C 508.707031 223.316406 509.042969 223.363281 509.277344 223.460938 Z M 519.589844 234 L 517.90625 234 L 517.90625 232.339844 L 517.867188 232.339844 C 517.171875 233.609375 516.089844 234.246094 514.628906 234.246094 C 512.125 234.246094 510.875 232.757812 510.875 229.777344 L 510.875 223.5 L 512.546875 223.5 L 512.546875 229.507812 C 512.546875 231.722656 513.394531 232.832031 515.089844 232.832031 C 515.910156 232.832031 516.582031 232.53125 517.109375 231.929688 C 517.640625 231.320312 517.90625 230.527344 517.90625 229.550781 L 517.90625 223.5 L 519.589844 223.5 Z M 524.71875 232.480469 L 524.675781 232.480469 L 524.675781 238.828125 L 522.996094 238.828125 L 522.996094 223.5 L 524.675781 223.5 L 524.675781 225.34375 L 524.71875 225.34375 C 525.542969 223.953125 526.753906 223.253906 528.347656 223.253906 C 529.699219 223.253906 530.757812 223.726562 531.515625 224.667969 C 532.273438 225.605469 532.65625 226.863281 532.65625 228.441406 C 532.65625 230.199219 532.226562 231.609375 531.371094 232.667969 C 530.515625 233.71875 529.347656 234.246094 527.863281 234.246094 C 526.503906 234.246094 525.457031 233.65625 524.71875 232.480469 Z M 524.675781 228.246094 L 524.675781 229.714844 C 524.675781 230.582031 524.957031 231.320312 525.515625 231.929688 C 526.085938 232.53125 526.800781 232.832031 527.671875 232.832031 C 528.6875 232.832031 529.484375 232.441406 530.058594 231.660156 C 530.640625 230.882812 530.929688 229.800781 530.929688 228.410156 C 530.929688 227.242188 530.660156 226.324219 530.121094 225.664062 C 529.582031 225 528.847656 224.667969 527.925781 224.667969 C 526.949219 224.667969 526.164062 225.011719 525.570312 225.695312 C 524.972656 226.371094 524.675781 227.222656 524.675781 228.246094 Z M 540.210938 233.898438 C 539.8125 234.117188 539.292969 234.226562 538.640625 234.226562 C 536.804688 234.226562 535.882812 233.199219 535.882812 231.148438 L 535.882812 224.933594 L 534.078125 224.933594 L 534.078125 223.5 L 535.882812 223.5 L 535.882812 220.9375 L 537.566406 220.394531 L 537.566406 223.5 L 540.210938 223.5 L 540.210938 224.933594 L 537.566406 224.933594 L 537.566406 230.851562 C 537.566406 231.554688 537.683594 232.058594 537.925781 232.359375 C 538.164062 232.660156 538.558594 232.808594 539.113281 232.808594 C 539.539062 232.808594 539.902344 232.695312 540.210938 232.460938 Z M 540.210938 233.898438 "/>
<path style=" stroke:none;fill-rule:nonzero;fill:rgb(0%,0%,0%);fill-opacity:1;" d="M 739.832031 371.59375 C 739.617188 371.59375 739.433594 371.523438 739.28125 371.375 C 739.132812 371.230469 739.054688 371.042969 739.054688 370.820312 C 739.054688 370.59375 739.132812 370.410156 739.28125 370.261719 C 739.433594 370.113281 739.617188 370.035156 739.832031 370.035156 C 740.050781 370.035156 740.238281 370.113281 740.386719 370.261719 C 740.542969 370.410156 740.621094 370.59375 740.621094 370.820312 C 740.621094 371.035156 740.542969 371.21875 740.386719 371.367188 C 740.238281 371.519531 740.050781 371.59375 739.832031 371.59375 Z M 740.417969 381 L 739.214844 381 L 739.214844 373.5 L 740.417969 373.5 Z M 749.074219 381 L 747.871094 381 L 747.871094 376.722656 C 747.871094 375.128906 747.292969 374.335938 746.128906 374.335938 C 745.53125 374.335938 745.03125 374.5625 744.636719 375.015625 C 744.246094 375.464844 744.050781 376.035156 744.050781 376.722656 L 744.050781 381 L 742.847656 381 L 742.847656 373.5 L 744.050781 373.5 L 744.050781 374.746094 L 744.078125 374.746094 C 744.644531 373.796875 745.464844 373.324219 746.539062 373.324219 C 747.359375 373.324219 747.988281 373.589844 748.421875 374.121094 C 748.855469 374.652344 749.074219 375.414062 749.074219 376.414062 Z M 752.574219 379.914062 L 752.546875 379.914062 L 752.546875 384.449219 L 751.34375 384.449219 L 751.34375 373.5 L 752.546875 373.5 L 752.546875 374.820312 L 752.574219 374.820312 C 753.167969 373.824219 754.03125 373.324219 755.167969 373.324219 C 756.136719 373.324219 756.890625 373.660156 757.429688 374.335938 C 757.972656 375.003906 758.242188 375.902344 758.242188 377.03125 C 758.242188 378.285156 757.941406 379.292969 757.328125 380.046875 C 756.71875 380.800781 755.882812 381.175781 754.824219 381.175781 C 753.851562 381.175781 753.101562 380.753906 752.574219 379.914062 Z M 752.546875 376.890625 L 752.546875 377.9375 C 752.546875 378.558594 752.746094 379.085938 753.148438 379.519531 C 753.550781 379.949219 754.066406 380.164062 754.683594 380.164062 C 755.410156 380.164062 755.980469 379.886719 756.390625 379.332031 C 756.804688 378.773438 757.015625 378 757.015625 377.007812 C 757.015625 376.171875 756.820312 375.519531 756.433594 375.046875 C 756.050781 374.574219 755.527344 374.335938 754.867188 374.335938 C 754.171875 374.335938 753.609375 374.578125 753.183594 375.066406 C 752.757812 375.550781 752.546875 376.15625 752.546875 376.890625 Z M 766.226562 381 L 765.027344 381 L 765.027344 379.8125 L 764.996094 379.8125 C 764.5 380.722656 763.726562 381.175781 762.683594 381.175781 C 760.894531 381.175781 760.003906 380.113281 760.003906 377.980469 L 760.003906 373.5 L 761.195312 373.5 L 761.195312 377.792969 C 761.195312 379.375 761.800781 380.164062 763.011719 380.164062 C 763.597656 380.164062 764.078125 379.949219 764.457031 379.519531 C 764.835938 379.085938 765.027344 378.519531 765.027344 377.820312 L 765.027344 373.5 L 766.226562 373.5 Z M 772.136719 380.925781 C 771.855469 381.082031 771.480469 381.160156 771.019531 381.160156 C 769.703125 381.160156 769.046875 380.429688 769.046875 378.964844 L 769.046875 374.527344 L 767.757812 374.527344 L 767.757812 373.5 L 769.046875 373.5 L 769.046875 371.667969 L 770.25 371.28125 L 770.25 373.5 L 772.136719 373.5 L 772.136719 374.527344 L 770.25 374.527344 L 770.25 378.75 C 770.25 379.253906 770.335938 379.613281 770.503906 379.828125 C 770.675781 380.042969 770.960938 380.152344 771.355469 380.152344 C 771.65625 380.152344 771.917969 380.066406 772.136719 379.902344 Z M 772.136719 380.925781 "/>
<path style=" stroke:none;fill-rule:nonzero;fill:rgb(0.784314%,43.529412%,77.254902%);fill-opacity:1;" d="M 547.5 205.5 L 585 205.5 L 585 243 L 547.5 243 Z M 547.5 205.5 "/>
<path style=" stroke:none;fill-rule:nonzero;fill:rgb(100%,100%,100%);fill-opacity:1;" d="M 564.285156 230.910156 C 563.945312 231.097656 563.496094 231.195312 562.941406 231.195312 C 561.363281 231.195312 560.574219 230.316406 560.574219 228.554688 L 560.574219 223.230469 L 559.027344 223.230469 L 559.027344 222 L 560.574219 222 L 560.574219 219.800781 L 562.015625 219.335938 L 562.015625 222 L 564.285156 222 L 564.285156 223.230469 L 562.015625 223.230469 L 562.015625 228.300781 C 562.015625 228.90625 562.117188 229.335938 562.324219 229.59375 C 562.53125 229.851562 562.867188 229.980469 563.34375 229.980469 C 563.707031 229.980469 564.019531 229.882812 564.285156 229.679688 Z M 573.890625 231 L 572.449219 231 L 572.449219 229.46875 L 572.414062 229.46875 C 571.746094 230.632812 570.714844 231.210938 569.320312 231.210938 C 568.191406 231.210938 567.285156 230.808594 566.605469 230.007812 C 565.929688 229.199219 565.59375 228.097656 565.59375 226.710938 C 565.59375 225.222656 565.96875 224.03125 566.71875 223.132812 C 567.46875 222.238281 568.46875 221.789062 569.714844 221.789062 C 570.953125 221.789062 571.851562 222.277344 572.414062 223.246094 L 572.449219 223.246094 L 572.449219 217.675781 L 573.890625 217.675781 Z M 572.449219 226.929688 L 572.449219 225.601562 C 572.449219 224.878906 572.210938 224.261719 571.726562 223.757812 C 571.246094 223.253906 570.640625 223.003906 569.902344 223.003906 C 569.023438 223.003906 568.332031 223.324219 567.828125 223.96875 C 567.324219 224.613281 567.070312 225.503906 567.070312 226.640625 C 567.070312 227.675781 567.308594 228.496094 567.789062 229.101562 C 568.277344 229.699219 568.925781 229.996094 569.742188 229.996094 C 570.542969 229.996094 571.195312 229.707031 571.695312 229.128906 C 572.199219 228.546875 572.449219 227.816406 572.449219 226.929688 Z M 572.449219 226.929688 "/>
<path style=" stroke:none;fill-rule:nonzero;fill:rgb(82.352941%,40%,16.078431%);fill-opacity:1;" d="M 600 243 L 615 243 L 615 280.5 L 600 280.5 Z M 600 243 "/>
<path style=" stroke:none;fill-rule:nonzero;fill:rgb(100%,100%,100%);fill-opacity:1;" d="M 608.21875 268.121094 C 608.21875 269.597656 607.921875 270.734375 607.324219 271.53125 C 606.730469 272.335938 605.882812 272.734375 604.777344 272.734375 C 604.363281 272.734375 603.96875 272.644531 603.582031 272.457031 L 603.582031 271.109375 C 604.015625 271.375 604.421875 271.507812 604.808594 271.507812 C 606.121094 271.507812 606.78125 270.457031 606.78125 268.359375 L 606.78125 259.5 L 608.21875 259.5 Z M 607.519531 257.214844 C 607.261719 257.214844 607.039062 257.128906 606.859375 256.953125 C 606.675781 256.777344 606.585938 256.550781 606.585938 256.28125 C 606.585938 256.015625 606.675781 255.789062 606.859375 255.613281 C 607.039062 255.433594 607.261719 255.34375 607.519531 255.34375 C 607.78125 255.34375 608.003906 255.433594 608.183594 255.613281 C 608.371094 255.789062 608.46875 256.015625 608.46875 256.28125 C 608.46875 256.539062 608.371094 256.761719 608.183594 256.941406 C 608.003906 257.125 607.78125 257.214844 607.519531 257.214844 Z M 607.519531 257.214844 "/>
<path style=" stroke:none;fill-rule:nonzero;fill:rgb(100%,0%,0%);fill-opacity:1;" d="M 601.5 183 L 600 183 L 600 205.5 L 601.5 205.5 Z M 601.5 183 "/>
<path style=" stroke:none;fill-rule:nonzero;fill:rgb(82.352941%,40%,16.078431%);fill-opacity:1;" d="M 712.5 369 L 727.5 369 L 727.5 384 L 712.5 384 Z M 712.5 369 "/>
<path style=" stroke:none;fill-rule:nonzero;fill:rgb(0.784314%,43.529412%,77.254902%);fill-opacity:1;" d="M 712.5 369 L 727.5 369 L 712.5 384 Z M 712.5 369 "/>
<path style=" stroke:none;fill-rule:nonzero;fill:rgb(0%,0%,0%);fill-opacity:1;" d="M 742.351562 409.675781 C 741.242188 409.675781 740.355469 409.324219 739.691406 408.628906 C 739.03125 407.925781 738.703125 406.996094 738.703125 405.839844 C 738.703125 404.578125 739.046875 403.59375 739.734375 402.886719 C 740.425781 402.179688 741.355469 401.824219 742.527344 401.824219 C 743.644531 401.824219 744.515625 402.167969 745.140625 402.855469 C 745.773438 403.546875 746.085938 404.5 746.085938 405.71875 C 746.085938 406.917969 745.746094 407.878906 745.066406 408.597656 C 744.394531 409.316406 743.488281 409.675781 742.351562 409.675781 Z M 742.4375 402.835938 C 741.667969 402.835938 741.058594 403.097656 740.605469 403.625 C 740.160156 404.148438 739.933594 404.871094 739.933594 405.792969 C 739.933594 406.683594 740.160156 407.382812 740.613281 407.898438 C 741.070312 408.40625 741.675781 408.664062 742.4375 408.664062 C 743.214844 408.664062 743.8125 408.414062 744.226562 407.910156 C 744.644531 407.40625 744.855469 406.691406 744.855469 405.765625 C 744.855469 404.828125 744.644531 404.105469 744.226562 403.597656 C 743.8125 403.089844 743.214844 402.835938 742.4375 402.835938 Z M 754.070312 409.5 L 752.867188 409.5 L 752.867188 408.3125 L 752.839844 408.3125 C 752.339844 409.222656 751.570312 409.675781 750.523438 409.675781 C 748.738281 409.675781 747.84375 408.613281 747.84375 406.480469 L 747.84375 402 L 749.035156 402 L 749.035156 406.292969 C 749.035156 407.875 749.644531 408.664062 750.851562 408.664062 C 751.441406 408.664062 751.921875 408.449219 752.296875 408.019531 C 752.675781 407.585938 752.867188 407.019531 752.867188 406.320312 L 752.867188 402 L 754.070312 402 Z M 759.980469 409.425781 C 759.699219 409.582031 759.324219 409.660156 758.859375 409.660156 C 757.546875 409.660156 756.890625 408.929688 756.890625 407.464844 L 756.890625 403.027344 L 755.597656 403.027344 L 755.597656 402 L 756.890625 402 L 756.890625 400.167969 L 758.089844 399.78125 L 758.089844 402 L 759.980469 402 L 759.980469 403.027344 L 758.089844 403.027344 L 758.089844 407.25 C 758.089844 407.753906 758.175781 408.113281 758.347656 408.328125 C 758.515625 408.542969 758.800781 408.652344 759.195312 408.652344 C 759.5 408.652344 759.761719 408.566406 759.980469 408.402344 Z M 762.816406 408.414062 L 762.785156 408.414062 L 762.785156 412.949219 L 761.585938 412.949219 L 761.585938 402 L 762.785156 402 L 762.785156 403.320312 L 762.816406 403.320312 C 763.40625 402.324219 764.269531 401.824219 765.40625 401.824219 C 766.375 401.824219 767.128906 402.160156 767.671875 402.835938 C 768.214844 403.503906 768.484375 404.402344 768.484375 405.53125 C 768.484375 406.785156 768.179688 407.792969 767.566406 408.546875 C 766.957031 409.300781 766.121094 409.675781 765.0625 409.675781 C 764.089844 409.675781 763.34375 409.253906 762.816406 408.414062 Z M 762.785156 405.390625 L 762.785156 406.4375 C 762.785156 407.058594 762.984375 407.585938 763.386719 408.019531 C 763.789062 408.449219 764.304688 408.664062 764.921875 408.664062 C 765.652344 408.664062 766.21875 408.386719 766.628906 407.832031 C 767.046875 407.273438 767.253906 406.5 767.253906 405.507812 C 767.253906 404.671875 767.058594 404.019531 766.675781 403.546875 C 766.289062 403.074219 765.765625 402.835938 765.105469 402.835938 C 764.410156 402.835938 763.847656 403.078125 763.421875 403.566406 C 762.996094 404.050781 762.785156 404.65625 762.785156 405.390625 Z M 776.46875 409.5 L 775.265625 409.5 L 775.265625 408.3125 L 775.234375 408.3125 C 774.738281 409.222656 773.96875 409.675781 772.921875 409.675781 C 771.136719 409.675781 770.242188 408.613281 770.242188 406.480469 L 770.242188 402 L 771.433594 402 L 771.433594 406.292969 C 771.433594 407.875 772.039062 408.664062 773.25 408.664062 C 773.839844 408.664062 774.316406 408.449219 774.695312 408.019531 C 775.074219 407.585938 775.265625 407.019531 775.265625 406.320312 L 775.265625 402 L 776.46875 402 Z M 782.378906 409.425781 C 782.09375 409.582031 781.71875 409.660156 781.257812 409.660156 C 779.941406 409.660156 779.285156 408.929688 779.285156 407.464844 L 779.285156 403.027344 L 777.996094 403.027344 L 777.996094 402 L 779.285156 402 L 779.285156 400.167969 L 780.488281 399.78125 L 780.488281 402 L 782.378906 402 L 782.378906 403.027344 L 780.488281 403.027344 L 780.488281 407.25 C 780.488281 407.753906 780.574219 408.113281 780.742188 408.328125 C 780.914062 408.542969 781.199219 408.652344 781.59375 408.652344 C 781.894531 408.652344 782.15625 408.566406 782.378906 408.402344 Z M 782.378906 409.425781 "/>
<path style=" stroke:none;fill-rule:nonzero;fill:rgb(76.862745%,76.862745%,76.862745%);fill-opacity:1;" d="M 712.5 397.5 L 727.5 397.5 L 727.5 412.5 L 712.5 412.5 Z M 712.5 397.5 "/>
<path style="fill:none;stroke-width:1;stroke-linecap:butt;stroke-linejoin:miter;stroke:rgb(100%,0%,0%);stroke-opacity:1;stroke-dasharray:2,2;stroke-miterlimit:4;" d="M 400 127.5 L 465 127.5 " transform="matrix(1.5,0,0,1.5,0,0)"/>
<path style="fill:none;stroke-width:1;stroke-linecap:butt;stroke-linejoin:miter;stroke:rgb(100%,0%,0%);stroke-opacity:1;stroke-dasharray:2,2;stroke-miterlimit:4;" d="M 464.5 127 L 464.5 137 " transform="matrix(1.5,0,0,1.5,0,0)"/>
<path style="fill:none;stroke-width:1;stroke-linecap:butt;stroke-linejoin:miter;stroke:rgb(100%,0%,0%);stroke-opacity:1;stroke-dasharray:2,2;stroke-miterlimit:4;" d="M 140 219.5 L 190 219.5 " transform="matrix(1.5,0,0,1.5,0,0)"/>
<path style="fill:none;stroke-width:1;stroke-linecap:butt;stroke-linejoin:miter;stroke:rgb(100%,0%,0%);stroke-opacity:1;stroke-dasharray:2,2;stroke-miterlimit:4;" d="M 189 219.5 L 239 219.5 " transform="matrix(1.5,0,0,1.5,0,0)"/>
<path style="fill:none;stroke-width:1;stroke-linecap:butt;stroke-linejoin:miter;stroke:rgb(100%,0%,0%);stroke-opacity:1;stroke-dasharray:2,2;stroke-miterlimit:4;" d="M 140 127.5 L 190 127.5 " transform="matrix(1.5,0,0,1.5,0,0)"/>
<path style="fill:none;stroke-width:1;stroke-linecap:butt;stroke-linejoin:miter;stroke:rgb(100%,0%,0%);stroke-opacity:1;stroke-dasharray:2,2;stroke-miterlimit:4;" d="M 189.5 127 L 189.5 137 " transform="matrix(1.5,0,0,1.5,0,0)"/>
<path style="fill:none;stroke-width:1;stroke-linecap:butt;stroke-linejoin:miter;stroke:rgb(100%,0%,0%);stroke-opacity:1;stroke-dasharray:2,2;stroke-miterlimit:4;" d="M 239.5 219 L 239.5 229 " transform="matrix(1.5,0,0,1.5,0,0)"/>
<path style="fill:none;stroke-width:1;stroke-linecap:butt;stroke-linejoin:miter;stroke:rgb(100%,0%,0%);stroke-opacity:1;stroke-dasharray:2,2;stroke-miterlimit:4;" d="M 240 219.5 L 290 219.5 " transform="matrix(1.5,0,0,1.5,0,0)"/>
<path style="fill:none;stroke-width:1;stroke-linecap:butt;stroke-linejoin:miter;stroke:rgb(100%,0%,0%);stroke-opacity:1;stroke-dasharray:2,2;stroke-miterlimit:4;" d="M 290.5 219 L 290.5 229 " transform="matrix(1.5,0,0,1.5,0,0)"/>
<path style=" stroke:none;fill-rule:nonzero;fill:rgb(0%,0%,0%);fill-opacity:1;" d="M 285 330 L 277.5 337.5 L 277.5 322.5 Z M 285 330 "/>
<path style=" stroke:none;fill-rule:nonzero;fill:rgb(100%,0%,0%);fill-opacity:1;" d="M 285 321 L 283.5 321 L 283.5 343.5 L 285 343.5 Z M 285 321 "/>
</g>
</svg>
