<svg id="b1edf876-5da0-4179-85bc-2c7718e75d01" data-name="Layer 1" xmlns="http://www.w3.org/2000/svg" width="1153.45" height="845.67" viewBox="0 0 1153.45 845.67"><title>moving forward</title><path d="M1169.66,414.15,1039.72,714.78,995.26,817.63c-14.44,33.39-48.57,55.18-86.46,55.18H291.2c-37.89,0-72-21.79-86.46-55.18l-6.2-14.35L30.34,414.15c-17.89-41.4-.79-89,40-111.3l40.8-22.28,23.34-12.75L251.5,203.9l34.08-18.62,43.94-24,50.07-27.35,35.74-19.51,87-47.54L522.29,56l30.38-16.6.85-.45a97.46,97.46,0,0,1,93,0L801,123.36l49.58,27.09h0l50.88,27.79,35.29,19.27,81.67,44.59h0l65.4,35.73h0l45.8,25C1170.45,325.12,1187.55,372.75,1169.66,414.15Z" transform="translate(-23.28 -27.16)" fill="#7929d2" opacity="0.1"/><path d="M343.9,164.61c-3.75-.9-8.75-2-14.38-3.32l50.07-27.35c27.81,7.08,54.56,12.28,70.49,11.33,0,0,4.78,8.72-8.74,8.72s-.41,12.14-8.76,12.9-15.11,5.68-21.87,0-11.13-8.72-19.48-7.59-19.89,7.2-23.87,0S366.17,169.91,343.9,164.61Z" transform="translate(-23.28 -27.16)" fill="#7929d2" opacity="0.1"/><path d="M748.8,130.31c12.38.73,31.34-2.25,52.24-7l49.58,27.09c-17.55,2.11-15.41-12.8-19.1-6.11-4,7.2-15.52,1.13-23.87,0s-12.72,1.89-19.48,7.59-13.52.75-21.87,0,4.76-12.9-8.76-12.9S748.8,130.31,748.8,130.31Z" transform="translate(-23.28 -27.16)" fill="#7929d2" opacity="0.1"/><path d="M1097.15,395.52c13.52,0,8.75-8.73,8.75-8.73C1069,389,973.81,358.1,942.37,347.48L939,256.79c17.09,11.28,42.85,16,55.11,19,22.27,5.3,19.49-12.52,23.46-5.31s15.51,1.13,23.87,0,12.72,1.89,19.48,7.58,13.52.75,21.87,0a5.22,5.22,0,0,0,1.09-.19l-65.4-35.73h0c-32.5-8.74-64.63-19.24-80.93-24.75l-.74-19.84-35.29-19.27.79,42.2c-38.18,12.61-119.92,38-153.5,36,0,0-4.78,8.72,8.74,8.72s.41,12.14,8.76,12.9,15.11,5.69,21.87,0,11.13-8.72,19.48-7.58,19.89,7.2,23.87,0,1.19,10.61,23.46,5.31c10.68-2.55,31.57-6.49,48.09-14.91l1.63,87.31c-33.3,11.2-125.34,40.79-161.51,38.63,0,0-4.77,8.73,8.75,8.73s.4,12.14,8.75,12.89,15.11,5.69,21.87,0,11.14-8.72,19.49-7.58,19.88,7.2,23.86,0,1.19,10.61,23.47,5.31c12.49-3,39-7.87,56-19.6l1.75,93c-35.61,11.88-123.28,39.68-158.38,37.59,0,0-4.78,8.72,8.74,8.72S758,538,766.3,538.8s15.11,5.68,21.87,0,11.13-8.73,19.48-7.59,19.89,7.2,23.87,0,1.19,10.61,23.46,5.31c11.75-2.8,35.9-7.3,52.94-17.6l3.87,205.22h0c-40.23,13.11-78.93,31.66-121,37.33-70.26,9.47-142-18-211.95-17.3l-5.52-148.49c16,7.47,35.16,11.11,45.22,13.51,22.28,5.3,19.5-12.51,23.47-5.31s15.51,1.13,23.86,0,12.73,1.89,19.49,7.59,13.52.75,21.87,0-4.76-12.9,8.76-12.9,8.74-8.72,8.74-8.72c-33.42,2-114.54-23.13-153-35.79l-3.52-94.74c17.09,11.66,43.45,16.52,55.9,19.49,22.27,5.3,19.49-12.51,23.46-5.31s15.52,1.13,23.87,0,12.72,1.89,19.48,7.59,13.52.74,21.88,0-4.77-12.9,8.75-12.9,8.74-8.72,8.74-8.72c-36.92,2.2-132.08-28.7-163.52-39.32l-3.38-90.69c17.1,11.28,42.86,16,55.11,19,22.28,5.3,19.5-12.52,23.47-5.31s15.51,1.13,23.86,0,12.73,1.89,19.49,7.58,13.52.75,21.87,0-4.76-12.89,8.76-12.89,8.74-8.72,8.74-8.72C688.1,331.28,594.17,300.88,562,290l-3.36-90.23c16.66,13.88,46.45,19.32,59.92,22.53,22.28,5.3,19.5-12.51,23.47-5.31s15.51,1.13,23.86,0,12.73,1.89,19.49,7.59,13.52.75,21.87,0-4.76-12.9,8.76-12.9,8.74-8.72,8.74-8.72c-38.65,2.31-141.11-31.66-167.5-40.67l-2.1-56.75c16.25,7.92,36.24,11.7,46.6,14.17,22.27,5.3,19.49-12.52,23.46-5.31s15.52,1.13,23.87,0,12.72,1.89,19.48,7.58,13.52.75,21.87,0-4.76-12.9,8.76-12.9,8.74-8.72,8.74-8.72c-33.83,2-116.51-23.73-154.33-36.24l-.92-24.73L522.29,56l.08,4.24c-4.86,1.65-11.73,4-20,6.64l-87,47.54c8.35,1.14,19.85,7.18,23.82,0s1.19,10.61,23.47,5.31c13.6-3.25,43.87-8.77,60.43-23l1.34,71C485.29,180.62,406.15,205,373.24,203c0,0-4.77,8.72,8.75,8.72s.4,12.14,8.75,12.9,15.12,5.68,21.88,0,11.13-8.72,19.48-7.59,19.89,7.2,23.87,0,1.19,10.61,23.46,5.31c10.17-2.42,29.63-6.12,45.73-13.74l1.59,84.53c-38.18,12.61-119.92,38-153.51,36,0,0-4.77,8.72,8.75,8.72s.4,12.14,8.75,12.89,15.12,5.69,21.88,0,11.13-8.72,19.48-7.58,19.89,7.2,23.87,0,1.19,10.61,23.46,5.31c10.67-2.54,31.57-6.49,48.08-14.91l1.64,87.31C495.84,432,403.8,461.62,367.64,459.47c0,0-4.78,8.72,8.74,8.72s.41,12.14,8.76,12.9,15.11,5.68,21.87,0,11.13-8.72,19.48-7.59,19.89,7.2,23.87,0,1.19,10.61,23.47,5.31c12.48-3,39-7.87,56.05-19.6l1.75,93.05C496,564.15,408.35,591.94,373.24,589.85c0,0-4.77,8.72,8.75,8.72s.4,12.14,8.75,12.9,15.12,5.68,21.88,0,11.13-8.72,19.48-7.59,19.89,7.2,23.87,0,1.19,10.61,23.46,5.31c11.75-2.8,35.9-7.3,52.94-17.6l3,157.29h0l-1.27.28C505.75,755.63,479.5,769,451,774.55c-46.5,9.09-96.38-2.78-143.7-4.66L298.67,538c16,7.47,35.16,11.11,45.23,13.51,22.27,5.3,19.49-12.51,23.46-5.31s15.51,1.13,23.87,0,12.72,1.89,19.48,7.59,13.52.75,21.87,0-4.76-12.9,8.76-12.9,8.74-8.72,8.74-8.72c-33.42,2-114.54-23.13-152.95-35.79l-3.52-94.74c17.08,11.66,43.45,16.52,55.89,19.49,22.28,5.3,19.5-12.51,23.46-5.31s15.52,1.13,23.87,0,12.73,1.89,19.49,7.59,13.52.74,21.87,0-4.77-12.9,8.75-12.9,8.75-8.72,8.75-8.72c-36.93,2.2-132.09-28.7-163.53-39.32l-3.38-90.69c17.1,11.29,42.86,16,55.12,19,22.27,5.3,19.49-12.52,23.46-5.31s15.51,1.13,23.87,0S404,287.3,410.71,293s13.52.74,21.87,0-4.76-12.9,8.76-12.9,8.74-8.72,8.74-8.72c-36.63,2.19-130.57-28.21-162.75-39.07l-1.75-47L251.5,203.9l.59,31.5c-27.89,9.22-79,25.24-117.64,32.42l-23.34,12.75c6.92,2.26-2.38,11.75,5,12.43,8.35.74,15.11,5.68,21.87,0s11.13-8.73,19.48-7.59,19.89,7.2,23.87,0,1.19,10.61,23.46,5.31c10.68-2.54,31.57-6.49,48.09-14.91l1.63,87.31c-33.3,11.2-125.34,40.8-161.51,38.64,0,0-4.77,8.72,8.75,8.72s.4,12.14,8.75,12.9,15.11,5.68,21.87,0,11.14-8.72,19.49-7.59,19.88,7.2,23.86,0,1.19,10.61,23.47,5.31c12.49-3,39-7.87,56.05-19.6L257,494.55c-35.61,11.89-123.28,39.68-158.38,37.59,0,0-4.78,8.72,8.74,8.72s.4,12.14,8.76,12.9,15.11,5.68,21.87,0,11.13-8.72,19.48-7.59,19.89,7.2,23.87,0,1.19,10.61,23.46,5.31c11.75-2.8,35.9-7.3,52.94-17.6l4.49,238.4h0a128.79,128.79,0,0,0-34.67,11,122.92,122.92,0,0,0-29,20l6.2,14.35c14.44,33.39,48.57,55.18,86.46,55.18H908.8c37.89,0,72-21.79,86.46-55.18l44.46-102.85A233.66,233.66,0,0,0,955.93,713h0l-7-190c16,7.47,35.16,11.1,45.23,13.51,22.27,5.3,19.49-12.52,23.46-5.31s15.51,1.13,23.87,0,12.72,1.89,19.48,7.59,13.52.74,21.87,0-4.76-12.9,8.76-12.9,8.74-8.72,8.74-8.72c-33.42,2-114.54-23.13-152.95-35.79l-3.52-94.74c17.08,11.65,43.45,16.52,55.89,19.49,22.28,5.3,19.5-12.52,23.46-5.31s15.52,1.13,23.87,0,12.73,1.89,19.49,7.58,13.52.75,21.87,0S1083.63,395.52,1097.15,395.52Z" transform="translate(-23.28 -27.16)" fill="#7929d2" opacity="0.1"/><path d="M920.37,211.13c6.76,44.56-12,84.37-12,84.37s-29.77-32.44-36.53-77,12.05-84.37,12.05-84.37S913.61,166.57,920.37,211.13Z" transform="translate(-23.28 -27.16)" fill="#7929d2"/><path d="M1046.07,282.15c24.53-.27,44.56,12.88,44.56,12.88s-19.74,13.59-44.27,13.86S1001.8,296,1001.8,296,1021.54,282.41,1046.07,282.15Z" transform="translate(-23.28 -27.16)" fill="#7929d2"/><path d="M977.09,214.41c-22.83,25.09-27.66,57.88-27.66,57.88s32.18-7.9,55-33,27.66-57.88,27.66-57.88S999.92,189.31,977.09,214.41Z" transform="translate(-23.28 -27.16)" fill="#7929d2"/><rect x="303.76" y="219.67" width="699" height="626" rx="16.37" fill="#464353"/><g opacity="0.1"><path d="M945.86,571.54,928.28,580l-142,68.46-12.53,6a7,7,0,0,1-9.47-3.67,6.87,6.87,0,0,1-.5-2.59V607.76a7,7,0,0,0-6.95-7H410.23a7,7,0,0,1-7-6.95v-57.1a7,7,0,0,1,7-7h346.6a7,7,0,0,0,6.95-6.95V481.42a6.87,6.87,0,0,1,.5-2.59,7,7,0,0,1,9.49-3.65l12.51,6.09,142,69.18L945.89,559A7,7,0,0,1,945.86,571.54Z" transform="translate(-23.28 -27.16)"/></g><path d="M945.86,566.54,928.28,575l-142,68.46-12.53,6a7,7,0,0,1-9.47-3.67,6.87,6.87,0,0,1-.5-2.59V602.76a7,7,0,0,0-6.95-7H410.23a7,7,0,0,1-7-6.95v-57.1a7,7,0,0,1,7-7h346.6a7,7,0,0,0,6.95-6.95V476.42a6.87,6.87,0,0,1,.5-2.59,7,7,0,0,1,9.49-3.65l12.51,6.09,142,69.18L945.89,554A7,7,0,0,1,945.86,566.54Z" transform="translate(-23.28 -27.16)" fill="#7929d2"/><path d="M198.11,703.13c.34,8.36-5,15.77-10,22.43a84,84,0,0,0-6.15,9.8c-5.5,9.8-17.32,14.46-23.72,23.7-1.55,2.24-2.75,4.7-4.1,7.07a94.47,94.47,0,0,1-17.28,22l-11.57,10.84c-3.29,3.08-6.65,6.25-8.6,10.32-2.23,4.69-2.35,10-2.22,15.25,0,.58,0,1.15,0,1.72,0,.4,0,.79,0,1.19.2,6.35.49,12.73,2,18.88.5,2,1.12,4.1.34,6-.83,2-3,3.11-5.11,3.81-2.26.75-4.74,1.26-7,.47s-3.82-2.74-5.21-4.66c-6.75-9.3-9.49-20.78-13.51-31.55-.84-2.24.06-4.8,1.54-6.67a38.39,38.39,0,0,1,5.28-4.82c8-7,11.69-17.5,14.75-27.64s6-20.75,12.95-28.71c4.52-5.17,10.45-8.87,15.49-13.53,12.55-11.62,18.82-28.58,22.1-45.38a34.3,34.3,0,0,1,11.7-.15l20.63,2.74c2.23.3,4.67.71,6.12,2.42A7.43,7.43,0,0,1,198.11,703.13Z" transform="translate(-23.28 -27.16)" fill="#efb7b9"/><path d="M286.17,720.17a21.93,21.93,0,0,1-3.23,8.76,78.75,78.75,0,0,1-8.46,10.75c-7.88,9-9.21,21.92-14.23,32.81-1.63,3.54-3.65,6.88-5.3,10.4-4.33,9.26-5.92,19.45-6.86,29.69-.12,1.32-.23,2.64-.33,3.95-.14,1.63-.25,3.26-.37,4.88-.31,4.29-.58,8.8,1.23,12.7.93,2,2.45,3.66,2.51,5.87-3.1,3-8.42,2.66-12,.22s-5.81-6.4-7.62-10.35a95.21,95.21,0,0,1-7.15-22.71c-.55-3-.8-6.47,1.33-8.63,1.07-1.08,2.56-1.62,3.76-2.56,2.63-2.06,3.39-5.66,4-9q3-17,6.07-34a82.55,82.55,0,0,1,1.77-8.23C243,738.73,245.6,732,250.52,728a5.11,5.11,0,0,0,1.55-4.69,14.23,14.23,0,0,0-1.92-4.76c-3.67-6.56-8.05-13.14-14.65-16.74a75.69,75.69,0,0,1,23.07-13.22,9.16,9.16,0,0,1,4.75-.81,8.07,8.07,0,0,1,2.46,1c4.53,2.54,8,6.54,11.32,10.54C282.05,705.34,287,712.42,286.17,720.17Z" transform="translate(-23.28 -27.16)" fill="#efb7b9"/><path d="M125.64,854.09a24.68,24.68,0,0,0-7-4.65,4.85,4.85,0,0,0-1.9-.63c-1.61-.08-2.82,1.37-4.2,2.21a7.76,7.76,0,0,1-7.34,0,15,15,0,0,1-5.47-5.24c-2.94-4.34-3.52-8.67-4.74-13.43l12.82-2.42a27,27,0,0,0,6.7-2.52c0-.4,0-.79,0-1.19,0-.57,0-1.14,0-1.72-2.37.71-7.4,3-8.59,3.31a89.32,89.32,0,0,1-11.72,1.86c-.61-1.21-1.49-2.26-2.2-3.45a19.66,19.66,0,0,1-2.67-7.83,9.89,9.89,0,0,0-.63-3.2A2.54,2.54,0,0,0,86,813.6a3.44,3.44,0,0,0-1.15.57,22.3,22.3,0,0,0-8,10c-2.41,6-2.06,12.74-3,19.15-.72,4.8-2.2,9.56-1.94,14.41a1,1,0,0,0,1,1.13c2.67.59,5.74,1.1,7.91-.56s2.48-4.8,2.9-7.53A37,37,0,0,1,87,840.27a21.73,21.73,0,0,1,4.89,14.41c0,2.89-.36,6.17,1.62,8.28a8.35,8.35,0,0,0,3.45,2,34.43,34.43,0,0,0,8.14,1.78c5,.48,10.09-.15,15.1-.78,1.58-.2,3.17-.4,4.74-.75a5,5,0,0,0,2.21-.92,4.07,4.07,0,0,0,1.3-2.53A9.22,9.22,0,0,0,125.64,854.09Z" transform="translate(-23.28 -27.16)" fill="#464353"/><path d="M257.92,838a16.44,16.44,0,0,0-4.1-2.72,9.32,9.32,0,0,0-4-1.35c-1.63,0-3.12.8-4.63,1.42s-3.28,1-4.7.2a6.37,6.37,0,0,1-2.33-3.31c-1.8-4.3-3.16-8.78-4.73-13.16a3.3,3.3,0,0,1,1.55-1.29,4.87,4.87,0,0,1,1.52-.18c2,0,8.08,0,11.31-1.12.1-1.31.21-2.63.33-3.95-2.5-.52-6.79.38-7.92.69-1.85.47-3.74,1.16-5.61.76-1.3-.27-2.53-1.06-3.8-1.23-.6-1.11-1.25-2.18-1.87-3.27-1.58-2.8-2.07-6.06-3.61-8.77a3,3,0,0,0-2.48-1.67,4.32,4.32,0,0,0-2.82,1.66c-2.55,2.59-5.17,5.27-6.63,8.6a26.17,26.17,0,0,0-1.44,4.66,113.68,113.68,0,0,0-3,27.32,17,17,0,0,0,7.2.68q1.86-9.28,4.55-18.37a.92.92,0,0,1,.35-.57c.39-.21.8.22,1,.6a46.77,46.77,0,0,1,5.26,10.45c.81,2.63,1.18,5.48,2.71,7.77a11.9,11.9,0,0,0,6.71,4.54,35.7,35.7,0,0,0,8.19,1.06l4.1.2a17.12,17.12,0,0,0,6.62-.52c2.1-.73,4-2.52,4.16-4.74A5.82,5.82,0,0,0,257.92,838Z" transform="translate(-23.28 -27.16)" fill="#464353"/><path d="M277.15,696.08c-1.68,1.72-4.15,2.37-6.49,2.94l-7.11,1.73a2.91,2.91,0,0,0-2,1.13c-.41.74-.12,1.67-.32,2.49a2.11,2.11,0,0,1-.45.88,5.18,5.18,0,0,1-3.66,1.31,9.38,9.38,0,0,0-3.45.51,2.79,2.79,0,0,0-1.16.94c-.36.52-.51,1.16-.89,1.66a4.12,4.12,0,0,1-2.46,1.28,21.32,21.32,0,0,1-3,.46,22,22,0,0,1-11.5-2.17,4.11,4.11,0,0,0-2.88-.69,2.78,2.78,0,0,0-1.43,1.15,18.09,18.09,0,0,1-1.19,1.64c-1.84,2-5,1.46-7.65.9-1.63-.35-3.27-.65-4.91-.92-9.8-1.6-19.79-1.92-29.77-2.21-12.9-.39-25.8-.74-38.29-3.79-2.72-.66-6-2.22-5.87-5,.09-1.59,1.35-3,1.34-4.56,0-2.72-3.33-4.18-6-4.63,1-14.86,9.89-27.87,14.54-42,1.16-3.51,2-7.11,3.31-10.58,5.66-15.64,18.09-27.64,28.43-40.66a24.32,24.32,0,0,0,3.86-6.09,26.55,26.55,0,0,0,1.37-8.23l.57-9.79c15.33-.72,30.22-.43,45.22,2.81a3.07,3.07,0,0,1,3.16,3q.87,5.37,1.22,10.79a8.91,8.91,0,0,0,.34,2.36,9.79,9.79,0,0,0,1.62,2.67c8.68,11.38,14,25,18.2,38.64s7.54,27.66,12.82,41c1.82,4.6,4.2,9.77,4.68,14.7C279.25,691.16,278.83,694.35,277.15,696.08Z" transform="translate(-23.28 -27.16)" fill="#464353"/><path d="M216.61,711.32c-9.8-1.6-19.79-1.92-29.77-2.21q.41-13.8.83-27.6c.19-6.12.37-12.25,1.1-18.32,1-8.64,3.14-17.11,4.2-25.74a114.11,114.11,0,0,0,.83-14.9c-.05-5.07-.41-10.17.42-15.17.68-4.11,2.48-9.93,6.28-12.18,2.54,3.48-1.36,13.2-1.82,17.36-.94,8.66,1.4,17.29,3.41,25.76,2.42,10.17,4.4,20.44,6.37,30.71Q212.54,690.17,216.61,711.32Z" transform="translate(-23.28 -27.16)" opacity="0.1"/><path d="M246.17,711.41a22,22,0,0,1-11.5-2.17,4.11,4.11,0,0,0-2.88-.69,2.78,2.78,0,0,0-1.43,1.15c-3.38-16.05-3.2-32.75-5.87-49-1-5.78-2.28-11.68-1.16-17.43,1.2-6.14,5.07-11.47,6.58-17.54,1-4,.92-8.13.85-12.22s-1.27-6.84-2.61-10.49c3.56.59,6.46,4.08,7.89,7.23,1.75,3.84,2.08,8.15,2.31,12.37.56,10.19.65,20.39.5,30.59a113.2,113.2,0,0,0,.32,14.27c.52,4.67,1.67,9.26,2.05,13.94.44,5.62-.22,11.37,1.15,16.84C243.47,702.67,245.86,707.07,246.17,711.41Z" transform="translate(-23.28 -27.16)" opacity="0.1"/><path d="M260.76,705.25a5.18,5.18,0,0,1-3.66,1.31,9.38,9.38,0,0,0-3.45.51q-3-18.3-5.93-36.58A124.18,124.18,0,0,1,246,656.92c-.26-5.27.15-10.55-.22-15.81-.45-6.47-2.07-12.77-3.62-19-.92-3.73-5.14-14.85-2.78-18,3.68,2.38,5.92,7.47,7.17,11.53A73.55,73.55,0,0,1,249,630l2.82,28.22c1.56,15.61,3.17,31.42,8.62,46.14C260.55,704.66,260.66,705,260.76,705.25Z" transform="translate(-23.28 -27.16)" opacity="0.1"/><path d="M291.72,532.1c2.64-2.23,5.28-4.47,7.7-6.93a105.55,105.55,0,0,0,9.44-11.54c3.06-4.17,6.1-8.44,8-13.26,2.15-5.52,2.81-11.8,6.55-16.38a3.75,3.75,0,0,1,1.69-1.32c2.13-.67,3.72,2,4.13,4.21,2,10.82-2.77,21.62-7.41,31.6-1.53,3.29-3.13,6.67-5.78,9.16-1.4,1.31-3,2.32-4.55,3.49a47.63,47.63,0,0,0-6.44,6.34q-5,5.68-9.51,11.77c-3.73,5-7.23,10.24-11.65,14.65s-9.95,8-16.14,8.87c1.77-.24,1.19-10.63,1-11.94-.27-1.9-1.57-4.14-1.61-6-.05-2.28.88-2.61,2.76-4.21Z" transform="translate(-23.28 -27.16)" fill="#efb7b9"/><path d="M291.72,532.1c2.64-2.23,5.28-4.47,7.7-6.93a105.55,105.55,0,0,0,9.44-11.54c3.06-4.17,6.1-8.44,8-13.26,2.15-5.52,2.81-11.8,6.55-16.38a3.75,3.75,0,0,1,1.69-1.32c2.13-.67,3.72,2,4.13,4.21,2,10.82-2.77,21.62-7.41,31.6-1.53,3.29-3.13,6.67-5.78,9.16-1.4,1.31-3,2.32-4.55,3.49a47.63,47.63,0,0,0-6.44,6.34q-5,5.68-9.51,11.77c-3.73,5-7.23,10.24-11.65,14.65s-9.95,8-16.14,8.87c1.77-.24,1.19-10.63,1-11.94-.27-1.9-1.57-4.14-1.61-6-.05-2.28.88-2.61,2.76-4.21Z" transform="translate(-23.28 -27.16)" opacity="0.1"/><path d="M217.5,466.66s-6,30-13,35,38,11,38,11,1-24,13-35S217.5,466.66,217.5,466.66Z" transform="translate(-23.28 -27.16)" fill="#efb7b9"/><path d="M205.56,498.71a12.54,12.54,0,0,0-7.68,4.1c-4.72,5.08-5.66,12.81-4,19.55s5.47,12.71,9.43,18.4c5.16,7.42,10.71,14.73,17.88,20.24a134.78,134.78,0,0,0,12.06,7.79,197,197,0,0,1,19.87,14,16.7,16.7,0,0,0,4.7,3,13.4,13.4,0,0,0,4.59.6,36,36,0,0,0,15.16-3.53,2.79,2.79,0,0,0,1.14-.82,3.06,3.06,0,0,0,.05-2.45c-2.82-11.4,2.62-24.33-2.78-34.75-5.87,1.91-12.31,4-18.18,5.86a6.65,6.65,0,0,1-2.84.48,6,6,0,0,1-3.06-1.67c-6.36-5.5-10.37-13.16-14-20.73s-7.19-15.38-12.91-21.54S213.92,497.82,205.56,498.71Z" transform="translate(-23.28 -27.16)" fill="#7929d2"/><path d="M205.56,498.71a12.54,12.54,0,0,0-7.68,4.1c-4.72,5.08-5.66,12.81-4,19.55s5.47,12.71,9.43,18.4c5.16,7.42,10.71,14.73,17.88,20.24a134.78,134.78,0,0,0,12.06,7.79,197,197,0,0,1,19.87,14,16.7,16.7,0,0,0,4.7,3,13.4,13.4,0,0,0,4.59.6,36,36,0,0,0,15.16-3.53,2.79,2.79,0,0,0,1.14-.82,3.06,3.06,0,0,0,.05-2.45c-2.82-11.4,2.62-24.33-2.78-34.75-5.87,1.91-12.31,4-18.18,5.86a6.65,6.65,0,0,1-2.84.48,6,6,0,0,1-3.06-1.67c-6.36-5.5-10.37-13.16-14-20.73s-7.19-15.38-12.91-21.54S213.92,497.82,205.56,498.71Z" transform="translate(-23.28 -27.16)" opacity="0.1"/><circle cx="217.72" cy="432" r="30" fill="#efb7b9"/><path d="M253,545.5l-.07.13c-1.73,3.21-4.32,5.91-6.1,9.11-2,3.62-2.93,7.75-3.73,11.82q-.83,4.1-1.53,8.21c-.48,2.78-.93,5.56-1.34,8.36-9.06-3.07-19.1,2.08-28.48.2-2.81-.56-5.5-1.74-8.36-1.87-2.09-.1-4.19.37-6.28.17-3.47-.33-6.91-2.51-10.22-1.4-1.48.5-3.31,1.56-4.37.41a3.17,3.17,0,0,1-.54-1c-.86-2.37-1.74-4.92-1.12-7.36.53-2.08,2.06-3.73,3.12-5.6,1.83-3.25,2.2-7.1,2.44-10.83.61-9.64.59-19.35,2.17-28.88s4.91-19,11.35-26.24c3.16-3.54,7.29-6.55,12-6.94,17.33-1.4,31.35,8.16,38.92,23.34C255.26,525.93,257.6,536.79,253,545.5Z" transform="translate(-23.28 -27.16)" fill="#7929d2"/><path d="M303.72,536.1c2.64-2.23,5.28-4.47,7.7-6.93a105.55,105.55,0,0,0,9.44-11.54c3.06-4.17,6.1-8.44,8-13.26,2.15-5.52,2.81-11.8,6.55-16.38a3.75,3.75,0,0,1,1.69-1.32c2.13-.67,3.72,2,4.13,4.21,2,10.82-2.77,21.62-7.41,31.6-1.53,3.29-3.13,6.67-5.78,9.16-1.4,1.31-3,2.32-4.55,3.49a47.63,47.63,0,0,0-6.44,6.34q-5,5.68-9.51,11.77c-3.73,5-7.23,10.24-11.65,14.65s-9.95,8-16.14,8.87c1.77-.24,1.19-10.63,1-11.94-.27-1.9-1.57-4.14-1.61-6-.05-2.28.88-2.61,2.76-4.21Z" transform="translate(-23.28 -27.16)" fill="#efb7b9"/><path d="M250,546.5l-.07.13c-1.73,3.21-4.32,5.91-6.1,9.11-2,3.62-2.93,7.75-3.73,11.82q-.83,4.1-1.53,8.21a110.29,110.29,0,0,1-10.4-6.77c-7.17-5.51-12.72-12.82-17.88-20.25-4-5.69-7.8-11.66-9.43-18.39s-.68-14.47,4-19.55a12.56,12.56,0,0,1,7.68-4.11c8.36-.89,13.64,2.34,19.36,8.49s9.26,14,12.91,21.54C246.43,540,248.09,543.35,250,546.5Z" transform="translate(-23.28 -27.16)" opacity="0.1"/><path d="M217.56,502.71a12.54,12.54,0,0,0-7.68,4.1c-4.72,5.08-5.66,12.81-4,19.55s5.47,12.71,9.43,18.4c5.16,7.42,10.71,14.73,17.88,20.24a134.78,134.78,0,0,0,12.06,7.79,197,197,0,0,1,19.87,14,16.7,16.7,0,0,0,4.7,3,13.4,13.4,0,0,0,4.59.6,36,36,0,0,0,15.16-3.53,2.79,2.79,0,0,0,1.14-.82,3.06,3.06,0,0,0,.05-2.45c-2.82-11.4,2.62-24.33-2.78-34.75-5.87,1.91-12.31,4-18.18,5.86a6.65,6.65,0,0,1-2.84.48,6,6,0,0,1-3.06-1.67c-6.36-5.5-10.37-13.16-14-20.73s-7.19-15.38-12.91-21.54S225.92,501.82,217.56,502.71Z" transform="translate(-23.28 -27.16)" fill="#7929d2"/><path d="M260.4,438.21c2.91-3.31,2.29-8.65-.25-12.25s-6.54-5.86-10.43-7.92c-6.19-3.29-13.31-6.47-20-4.3-2.61.85-4.89,2.46-7.29,3.8-4.42,2.46-9.29,4-13.79,6.3s-8.8,5.58-10.74,10.25-1.3,9.7-.8,14.61c.76,7.6,1.2,15.31.14,22.88s-3.69,15.06-8.52,21c-3.38,4.16-7.86,7.62-9.89,12.58a29.89,29.89,0,0,0-1.66,8.87l-1.09,12.89c-.43,5.14-1.08,10.76-4.79,14.34,4.76-1.1,9.65-2.26,13.67-5a39.15,39.15,0,0,0,6.49-6.12c3.8-4.19,7.75-8.66,8.89-14.2.85-4.14.14-8.84,2.66-12.23,3-4,9.27-4,13.48-1.39s6.78,7.19,9,11.61S230,523,233.88,526.1a23.82,23.82,0,0,0,10.88,4.58c2.66.49,5.68.63,7.78-1.07,2.87-2.32,2.58-6.74,1.65-10.31-1.23-4.73-3.14-9.66-1.81-14.37.44-1.57,1.23-3,1.72-4.58a25.51,25.51,0,0,0,.81-6.92c.28-11.73.81-24.36-3-35.64-1.22-3.61-4.49-7.05-2.81-11C251.19,442,257.22,441.83,260.4,438.21Z" transform="translate(-23.28 -27.16)" fill="#464353"/><g opacity="0.1"><path d="M197.81,458.27a117.66,117.66,0,0,0-.69-16.57c-.11-1.08-.23-2.17-.32-3.27a46,46,0,0,0,.32,10.27C197.44,451.88,197.69,455.08,197.81,458.27Z" transform="translate(-23.28 -27.16)"/><path d="M252.54,522.61c-2.1,1.7-5.12,1.56-7.78,1.07a23.82,23.82,0,0,1-10.88-4.58c-3.85-3.14-6.08-7.78-8.34-12.21s-4.83-9-9-11.61S206,492.68,203,496.67c-2.52,3.39-1.81,8.09-2.66,12.23-1.14,5.54-5.09,10-8.89,14.2a39.15,39.15,0,0,1-6.49,6.12,30.58,30.58,0,0,1-9.72,4.07,15.05,15.05,0,0,1-3.95,8c4.76-1.1,9.65-2.26,13.67-5a39.15,39.15,0,0,0,6.49-6.12c3.8-4.19,7.75-8.66,8.89-14.2.85-4.14.14-8.84,2.66-12.23,3-4,9.27-4,13.48-1.39s6.78,7.19,9,11.61S230,523,233.88,526.1a23.82,23.82,0,0,0,10.88,4.58c2.66.49,5.68.63,7.78-1.07,2.69-2.17,2.6-6.2,1.81-9.63A5.66,5.66,0,0,1,252.54,522.61Z" transform="translate(-23.28 -27.16)"/><path d="M260.4,431.21c-3.18,3.62-9.21,3.8-11.28,8.62-.91,2.11-.37,4.09.51,6,2.42-3.89,7.82-4.29,10.77-7.65,2.15-2.45,2.37-6,1.31-9.15A7.35,7.35,0,0,1,260.4,431.21Z" transform="translate(-23.28 -27.16)"/><path d="M254.91,486.43a25.51,25.51,0,0,1-.81,6.92c-.49,1.56-1.28,3-1.72,4.58a15.41,15.41,0,0,0,0,7.21c0-.07,0-.14,0-.21.44-1.57,1.23-3,1.72-4.58a25.51,25.51,0,0,0,.81-6.92c.11-4.67.26-9.47.16-14.28C255,481.6,255,484,254.91,486.43Z" transform="translate(-23.28 -27.16)"/></g></svg>