<svg width="1245" height="520" viewBox="0 0 1245 520" fill="none" xmlns="http://www.w3.org/2000/svg">
<rect width="1245" height="520" fill="white"/>
<path d="M480 232.5L465 223.84V241.16L480 232.5ZM99 252V232.5H96V252H99ZM97.5 234H466.5V231H97.5V234ZM99 232.5V213H96V232.5H99Z" fill="black"/>
<rect x="480" y="213" width="3" height="39" fill="black"/>
<rect x="96" y="264" width="300" height="72" fill="black"/>
<path d="M118.56 315.432C117.432 315.432 116.436 315.24 115.572 314.856C114.732 314.472 114.012 313.956 113.412 313.308C112.812 312.66 112.356 311.904 112.044 311.04C111.756 310.176 111.612 309.252 111.612 308.268C111.612 306.828 111.96 305.508 112.656 304.308C113.352 303.108 114.468 302.088 116.004 301.248C115.236 300.24 114.648 299.316 114.24 298.476C113.856 297.612 113.664 296.688 113.664 295.704C113.664 294.792 113.832 293.952 114.168 293.184C114.528 292.416 115.008 291.756 115.608 291.204C116.232 290.652 116.964 290.22 117.804 289.908C118.644 289.596 119.556 289.44 120.54 289.44C121.404 289.44 122.196 289.56 122.916 289.8C123.636 290.04 124.272 290.364 124.824 290.772C125.4 291.156 125.88 291.612 126.264 292.14C126.648 292.644 126.936 293.172 127.128 293.724L123.852 295.452C123.588 294.684 123.156 294.084 122.556 293.652C121.98 293.196 121.308 292.968 120.54 292.968C119.7 292.968 119.028 293.22 118.524 293.724C118.02 294.228 117.768 294.864 117.768 295.632V295.848C117.768 296.208 117.816 296.544 117.912 296.856C118.008 297.168 118.164 297.516 118.38 297.9C118.62 298.284 118.92 298.716 119.28 299.196C119.64 299.676 120.096 300.252 120.648 300.924L123.024 303.948L125.04 306.756H125.256C125.328 306.324 125.388 305.856 125.436 305.352C125.484 304.848 125.52 304.332 125.544 303.804C125.592 303.252 125.616 302.724 125.616 302.22C125.64 301.692 125.652 301.2 125.652 300.744H131.664V304.236H129.108C128.964 305.124 128.784 305.988 128.568 306.828C128.376 307.644 128.076 308.52 127.668 309.456L132.276 315H127.272L124.32 311.436H124.068C123.852 312.66 123.252 313.632 122.268 314.352C121.308 315.072 120.072 315.432 118.56 315.432ZM119.712 311.796C120.408 311.796 121.044 311.664 121.62 311.4C122.196 311.136 122.664 310.692 123.024 310.068L117.912 303.66C117.144 304.284 116.628 304.956 116.364 305.676C116.1 306.372 115.968 307.116 115.968 307.908V308.088C115.968 309.288 116.304 310.212 116.976 310.86C117.648 311.484 118.56 311.796 119.712 311.796ZM133.918 315V296.424H137.734V298.98H137.95C138.238 298.164 138.646 297.468 139.174 296.892C139.726 296.292 140.494 295.992 141.478 295.992C142.414 295.992 143.158 296.268 143.71 296.82C144.262 297.348 144.622 298.104 144.79 299.088H144.97C145.282 298.248 145.738 297.528 146.338 296.928C146.962 296.304 147.838 295.992 148.966 295.992C150.334 295.992 151.318 296.484 151.918 297.468C152.518 298.452 152.818 299.904 152.818 301.824V315H149.038V302.364C149.038 301.284 148.882 300.528 148.57 300.096C148.282 299.664 147.838 299.448 147.238 299.448C146.686 299.448 146.218 299.628 145.834 299.988C145.474 300.348 145.294 300.9 145.294 301.644V315H141.478V302.364C141.478 301.284 141.334 300.528 141.046 300.096C140.758 299.664 140.314 299.448 139.714 299.448C139.138 299.448 138.658 299.628 138.274 299.988C137.914 300.348 137.734 300.9 137.734 301.644V315H133.918ZM166.232 315C164.456 315 163.148 314.532 162.308 313.596C161.468 312.66 161.048 311.448 161.048 309.96V300.06H155.648V296.424H159.32C160.064 296.424 160.592 296.28 160.904 295.992C161.216 295.68 161.372 295.14 161.372 294.372V289.872H165.656V296.424H173.216V300.06H165.656V311.364H173.216V315H166.232ZM200.944 315V289.872H205.66V311.112H216.784V315H200.944ZM229.442 315.432C227.282 315.432 225.434 315.06 223.898 314.316C222.386 313.572 221.15 312.588 220.19 311.364L223.034 308.412C223.97 309.492 224.978 310.296 226.058 310.824C227.162 311.328 228.338 311.58 229.586 311.58C231.026 311.58 232.13 311.256 232.898 310.608C233.666 309.96 234.05 309.024 234.05 307.8C234.05 306.792 233.762 306.036 233.186 305.532C232.61 305.004 231.638 304.632 230.27 304.416L227.606 303.984C225.278 303.576 223.622 302.736 222.638 301.464C221.654 300.168 221.162 298.644 221.162 296.892C221.162 294.492 221.942 292.656 223.502 291.384C225.062 290.088 227.222 289.44 229.982 289.44C231.95 289.44 233.642 289.752 235.058 290.376C236.498 291 237.65 291.852 238.514 292.932L235.742 295.884C235.07 295.092 234.266 294.468 233.33 294.012C232.394 293.532 231.29 293.292 230.018 293.292C227.282 293.292 225.914 294.42 225.914 296.676C225.914 297.636 226.202 298.368 226.778 298.872C227.354 299.376 228.338 299.748 229.73 299.988L232.358 300.456C234.542 300.864 236.162 301.668 237.218 302.868C238.274 304.068 238.802 305.604 238.802 307.476C238.802 308.652 238.598 309.732 238.19 310.716C237.782 311.676 237.182 312.516 236.39 313.236C235.598 313.932 234.614 314.472 233.438 314.856C232.286 315.24 230.954 315.432 229.442 315.432ZM254.988 304.2H247.644V315H242.928V289.872H247.644V300.312H254.988V289.872H259.704V315H254.988V304.2ZM264.91 315V311.472H270.562V293.4H264.91V289.872H280.894V293.4H275.242V311.472H280.894V315H264.91ZM286.676 315V289.872H303.092V293.76H291.392V300.312H301.94V304.2H291.392V315H286.676ZM318.413 293.76V315H313.733V293.76H306.173V289.872H325.973V293.76H318.413ZM351.433 315V289.872H367.849V293.76H356.149V300.312H366.697V304.2H356.149V315H351.433Z" fill="white"/>
<rect x="397.5" y="349.5" width="37" height="69" fill="white" stroke="black" stroke-width="3"/>
<path d="M407.968 394.364H413.656V383.06H407.608V379.424H413.656V376.4C413.656 375.656 413.752 374.984 413.944 374.384C414.16 373.76 414.484 373.232 414.916 372.8C415.348 372.344 415.888 371.996 416.536 371.756C417.208 371.492 417.988 371.36 418.876 371.36H425.14V374.996H418.264V379.424H425.14V383.06H418.264V394.364H424.312V398H407.968V394.364Z" fill="black"/>
<path d="M106.05 201C104.57 201 103.48 200.61 102.78 199.83C102.08 199.05 101.73 198.04 101.73 196.8V188.55H97.23V185.52H100.29C100.91 185.52 101.35 185.4 101.61 185.16C101.87 184.9 102 184.45 102 183.81V180.06H105.57V185.52H111.87V188.55H105.57V197.97H111.87V201H106.05ZM128.688 201C127.748 201 127.018 200.77 126.498 200.31C125.998 199.83 125.698 199.17 125.598 198.33H125.448C125.168 199.29 124.618 200.04 123.798 200.58C122.978 201.1 121.968 201.36 120.768 201.36C119.208 201.36 117.968 200.95 117.048 200.13C116.128 199.31 115.668 198.17 115.668 196.71C115.668 193.59 117.958 192.03 122.538 192.03H125.268V191.01C125.268 190.03 125.028 189.29 124.548 188.79C124.068 188.29 123.288 188.04 122.208 188.04C121.228 188.04 120.438 188.23 119.838 188.61C119.238 188.99 118.728 189.48 118.308 190.08L116.118 188.22C116.598 187.36 117.368 186.64 118.428 186.06C119.508 185.46 120.898 185.16 122.598 185.16C124.638 185.16 126.228 185.64 127.368 186.6C128.528 187.54 129.108 188.95 129.108 190.83V198.12H130.938V201H128.688ZM122.058 198.72C122.978 198.72 123.738 198.51 124.338 198.09C124.958 197.65 125.268 197.06 125.268 196.32V194.25H122.628C120.528 194.25 119.478 194.91 119.478 196.23V196.83C119.478 197.45 119.708 197.92 120.168 198.24C120.628 198.56 121.258 198.72 122.058 198.72ZM134.047 185.52H137.887V188.25H138.097C138.517 187.31 139.087 186.56 139.807 186C140.547 185.44 141.517 185.16 142.717 185.16C143.597 185.16 144.397 185.33 145.117 185.67C145.857 185.99 146.487 186.49 147.007 187.17C147.527 187.83 147.927 188.67 148.207 189.69C148.487 190.71 148.627 191.9 148.627 193.26C148.627 194.62 148.487 195.81 148.207 196.83C147.927 197.85 147.527 198.7 147.007 199.38C146.487 200.04 145.857 200.54 145.117 200.88C144.397 201.2 143.597 201.36 142.717 201.36C141.517 201.36 140.547 201.08 139.807 200.52C139.087 199.96 138.517 199.21 138.097 198.27H137.887V207H134.047V185.52ZM141.097 198.3C142.217 198.3 143.077 197.96 143.677 197.28C144.297 196.6 144.607 195.67 144.607 194.49V192.03C144.607 190.85 144.297 189.92 143.677 189.24C143.077 188.56 142.217 188.22 141.097 188.22C140.217 188.22 139.457 188.44 138.817 188.88C138.197 189.3 137.887 189.95 137.887 190.83V195.69C137.887 196.57 138.197 197.23 138.817 197.67C139.457 198.09 140.217 198.3 141.097 198.3ZM152.035 185.52H155.875V188.25H156.085C156.505 187.31 157.075 186.56 157.795 186C158.535 185.44 159.505 185.16 160.705 185.16C161.585 185.16 162.385 185.33 163.105 185.67C163.845 185.99 164.475 186.49 164.995 187.17C165.515 187.83 165.915 188.67 166.195 189.69C166.475 190.71 166.615 191.9 166.615 193.26C166.615 194.62 166.475 195.81 166.195 196.83C165.915 197.85 165.515 198.7 164.995 199.38C164.475 200.04 163.845 200.54 163.105 200.88C162.385 201.2 161.585 201.36 160.705 201.36C159.505 201.36 158.535 201.08 157.795 200.52C157.075 199.96 156.505 199.21 156.085 198.27H155.875V207H152.035V185.52ZM159.085 198.3C160.205 198.3 161.065 197.96 161.665 197.28C162.285 196.6 162.595 195.67 162.595 194.49V192.03C162.595 190.85 162.285 189.92 161.665 189.24C161.065 188.56 160.205 188.22 159.085 188.22C158.205 188.22 157.445 188.44 156.805 188.88C156.185 189.3 155.875 189.95 155.875 190.83V195.69C155.875 196.57 156.185 197.23 156.805 197.67C157.445 198.09 158.205 198.3 159.085 198.3ZM177.913 183.12C177.013 183.12 176.373 182.93 175.993 182.55C175.633 182.17 175.453 181.71 175.453 181.17V180.45C175.453 179.91 175.633 179.45 175.993 179.07C176.373 178.69 177.013 178.5 177.913 178.5C178.813 178.5 179.443 178.69 179.803 179.07C180.183 179.45 180.373 179.91 180.373 180.45V181.17C180.373 181.71 180.183 182.17 179.803 182.55C179.443 182.93 178.813 183.12 177.913 183.12ZM170.893 197.97H175.993V188.55H170.893V185.52H179.833V197.97H184.573V201H170.893V197.97ZM188.191 201V185.52H192.031V188.25H192.181C192.521 187.41 193.041 186.69 193.741 186.09C194.461 185.47 195.451 185.16 196.711 185.16C198.231 185.16 199.461 185.67 200.401 186.69C201.361 187.69 201.841 189.13 201.841 191.01V201H198.001V191.55C198.001 189.31 197.031 188.19 195.091 188.19C194.691 188.19 194.311 188.24 193.951 188.34C193.591 188.44 193.261 188.6 192.961 188.82C192.681 189.02 192.451 189.27 192.271 189.57C192.111 189.87 192.031 190.23 192.031 190.65V201H188.191ZM219.86 200.19C219.86 202.45 219.22 204.21 217.94 205.47C216.68 206.73 214.8 207.36 212.3 207.36C210.84 207.36 209.62 207.15 208.64 206.73C207.66 206.31 206.86 205.78 206.24 205.14L208.31 202.68C209.35 203.76 210.66 204.3 212.24 204.3C213.52 204.3 214.47 203.97 215.09 203.31C215.71 202.65 216.02 201.72 216.02 200.52V197.58H215.81C215.39 198.52 214.81 199.28 214.07 199.86C213.35 200.42 212.39 200.7 211.19 200.7C209.41 200.7 207.98 200.04 206.9 198.72C205.82 197.4 205.28 195.47 205.28 192.93C205.28 190.37 205.82 188.44 206.9 187.14C207.98 185.82 209.41 185.16 211.19 185.16C212.39 185.16 213.35 185.44 214.07 186C214.81 186.56 215.39 187.31 215.81 188.25H216.02V185.52H219.86V200.19ZM212.81 197.61C213.25 197.61 213.66 197.56 214.04 197.46C214.44 197.34 214.78 197.18 215.06 196.98C215.36 196.76 215.59 196.49 215.75 196.17C215.93 195.83 216.02 195.44 216.02 195V190.83C216.02 190.39 215.93 190.01 215.75 189.69C215.59 189.35 215.36 189.08 215.06 188.88C214.78 188.66 214.44 188.5 214.04 188.4C213.66 188.28 213.25 188.22 212.81 188.22C211.69 188.22 210.82 188.56 210.2 189.24C209.6 189.9 209.3 190.83 209.3 192.03V193.8C209.3 194.98 209.6 195.91 210.2 196.59C210.82 197.27 211.69 197.61 212.81 197.61ZM226.268 193.74V189.99H235.568V193.74H226.268ZM249.956 201C248.476 201 247.386 200.61 246.686 199.83C245.986 199.05 245.636 198.04 245.636 196.8V188.55H241.136V185.52H244.196C244.816 185.52 245.256 185.4 245.516 185.16C245.776 184.9 245.906 184.45 245.906 183.81V180.06H249.476V185.52H255.776V188.55H249.476V197.97H255.776V201H249.956ZM267.255 201.36C266.015 201.36 264.915 201.17 263.955 200.79C262.995 200.41 262.185 199.87 261.525 199.17C260.885 198.47 260.395 197.63 260.055 196.65C259.715 195.65 259.545 194.53 259.545 193.29C259.545 192.03 259.715 190.9 260.055 189.9C260.415 188.9 260.915 188.05 261.555 187.35C262.195 186.65 262.965 186.11 263.865 185.73C264.785 185.35 265.815 185.16 266.955 185.16C268.075 185.16 269.085 185.35 269.985 185.73C270.885 186.09 271.645 186.61 272.265 187.29C272.905 187.97 273.395 188.79 273.735 189.75C274.075 190.71 274.245 191.77 274.245 192.93V194.19H263.385V194.58C263.385 195.7 263.735 196.61 264.435 197.31C265.135 197.99 266.115 198.33 267.375 198.33C268.335 198.33 269.155 198.14 269.835 197.76C270.535 197.36 271.115 196.84 271.575 196.2L273.765 198.39C273.205 199.21 272.385 199.91 271.305 200.49C270.245 201.07 268.895 201.36 267.255 201.36ZM266.985 187.98C265.905 187.98 265.035 188.32 264.375 189C263.715 189.68 263.385 190.58 263.385 191.7V191.91H270.405V191.64C270.405 190.52 270.095 189.63 269.475 188.97C268.875 188.31 268.045 187.98 266.985 187.98ZM278.133 197.97H281.973V188.55H278.133V185.52H285.813V189.75H286.053C286.193 189.21 286.383 188.69 286.623 188.19C286.883 187.67 287.203 187.22 287.583 186.84C287.983 186.44 288.463 186.12 289.023 185.88C289.583 185.64 290.253 185.52 291.033 185.52H292.713V189.12H289.533C288.373 189.12 287.463 189.46 286.803 190.14C286.143 190.82 285.813 191.69 285.813 192.75V197.97H291.183V201H278.133V197.97ZM294.981 201V185.52H298.161V187.65H298.341C298.581 186.97 298.921 186.39 299.361 185.91C299.821 185.41 300.461 185.16 301.281 185.16C302.061 185.16 302.681 185.39 303.141 185.85C303.601 186.29 303.901 186.92 304.041 187.74H304.191C304.451 187.04 304.831 186.44 305.331 185.94C305.851 185.42 306.581 185.16 307.521 185.16C308.661 185.16 309.481 185.57 309.981 186.39C310.481 187.21 310.731 188.42 310.731 190.02V201H307.581V190.47C307.581 189.57 307.451 188.94 307.191 188.58C306.951 188.22 306.581 188.04 306.081 188.04C305.621 188.04 305.231 188.19 304.911 188.49C304.611 188.79 304.461 189.25 304.461 189.87V201H301.281V190.47C301.281 189.57 301.161 188.94 300.921 188.58C300.681 188.22 300.311 188.04 299.811 188.04C299.331 188.04 298.931 188.19 298.611 188.49C298.311 188.79 298.161 189.25 298.161 189.87V201H294.981ZM316.209 193.74V189.99H325.509V193.74H316.209ZM330.958 201V185.52H334.138V187.65H334.318C334.558 186.97 334.898 186.39 335.338 185.91C335.798 185.41 336.438 185.16 337.258 185.16C338.038 185.16 338.658 185.39 339.118 185.85C339.578 186.29 339.878 186.92 340.018 187.74H340.168C340.428 187.04 340.808 186.44 341.308 185.94C341.828 185.42 342.558 185.16 343.498 185.16C344.638 185.16 345.458 185.57 345.958 186.39C346.458 187.21 346.708 188.42 346.708 190.02V201H343.558V190.47C343.558 189.57 343.428 188.94 343.168 188.58C342.928 188.22 342.558 188.04 342.058 188.04C341.598 188.04 341.208 188.19 340.888 188.49C340.588 188.79 340.438 189.25 340.438 189.87V201H337.258V190.47C337.258 189.57 337.138 188.94 336.898 188.58C336.658 188.22 336.288 188.04 335.788 188.04C335.308 188.04 334.908 188.19 334.588 188.49C334.288 188.79 334.138 189.25 334.138 189.87V201H330.958ZM356.776 201.36C355.076 201.36 353.606 201.1 352.366 200.58C351.126 200.04 350.156 199.32 349.456 198.42L351.706 196.38C352.346 197.08 353.076 197.62 353.896 198C354.736 198.38 355.706 198.57 356.806 198.57C357.766 198.57 358.536 198.41 359.116 198.09C359.696 197.77 359.986 197.28 359.986 196.62C359.986 196.06 359.786 195.68 359.386 195.48C359.006 195.28 358.496 195.13 357.856 195.03L355.366 194.64C354.726 194.54 354.096 194.4 353.476 194.22C352.876 194.02 352.336 193.75 351.856 193.41C351.396 193.07 351.026 192.64 350.746 192.12C350.466 191.58 350.326 190.93 350.326 190.17C350.326 188.55 350.926 187.31 352.126 186.45C353.346 185.59 355.016 185.16 357.136 185.16C358.636 185.16 359.906 185.37 360.946 185.79C362.006 186.21 362.876 186.8 363.556 187.56L361.546 189.78C361.106 189.3 360.516 188.88 359.776 188.52C359.056 188.14 358.136 187.95 357.016 187.95C355.056 187.95 354.076 188.56 354.076 189.78C354.076 190.34 354.276 190.73 354.676 190.95C355.076 191.15 355.596 191.3 356.236 191.4L358.696 191.79C359.356 191.89 359.986 192.04 360.586 192.24C361.206 192.42 361.746 192.68 362.206 193.02C362.686 193.36 363.066 193.79 363.346 194.31C363.626 194.83 363.766 195.47 363.766 196.23C363.766 197.83 363.146 199.09 361.906 200.01C360.686 200.91 358.976 201.36 356.776 201.36Z" fill="black"/>
<path d="M389.303 191.67C389.303 190.21 389.463 188.81 389.783 187.47C390.123 186.11 390.573 184.85 391.133 183.69C391.713 182.53 392.383 181.49 393.143 180.57C393.903 179.63 394.703 178.84 395.543 178.2H399.383C398.483 178.84 397.623 179.59 396.803 180.45C395.983 181.31 395.263 182.26 394.643 183.3C394.023 184.32 393.523 185.42 393.143 186.6C392.783 187.76 392.603 188.97 392.603 190.23V193.11C392.603 194.37 392.783 195.59 393.143 196.77C393.523 197.93 394.023 199.03 394.643 200.07C395.263 201.09 395.983 202.03 396.803 202.89C397.623 203.75 398.483 204.5 399.383 205.14H395.543C394.703 204.52 393.903 203.74 393.143 202.8C392.383 201.86 391.713 200.81 391.133 199.65C390.573 198.49 390.123 197.24 389.783 195.9C389.463 194.54 389.303 193.13 389.303 191.67ZM418.301 201H403.541V197.34L410.261 191.61C411.381 190.65 412.211 189.78 412.751 189C413.291 188.2 413.561 187.35 413.561 186.45V186.15C413.561 185.15 413.281 184.39 412.721 183.87C412.161 183.35 411.381 183.09 410.381 183.09C409.281 183.09 408.441 183.39 407.861 183.99C407.281 184.59 406.861 185.33 406.601 186.21L403.181 184.92C403.401 184.24 403.711 183.59 404.111 182.97C404.531 182.33 405.041 181.77 405.641 181.29C406.261 180.81 406.991 180.43 407.831 180.15C408.671 179.85 409.631 179.7 410.711 179.7C411.831 179.7 412.821 179.86 413.681 180.18C414.561 180.48 415.301 180.91 415.901 181.47C416.501 182.01 416.951 182.66 417.251 183.42C417.571 184.18 417.731 185.01 417.731 185.91C417.731 186.77 417.591 187.56 417.311 188.28C417.051 189 416.681 189.69 416.201 190.35C415.721 190.99 415.151 191.61 414.491 192.21C413.851 192.81 413.151 193.41 412.391 194.01L407.831 197.7H418.301V201ZM428.789 201.36C427.429 201.36 426.249 201.12 425.249 200.64C424.249 200.14 423.419 199.43 422.759 198.51C422.119 197.59 421.639 196.46 421.319 195.12C421.019 193.78 420.869 192.25 420.869 190.53C420.869 188.83 421.019 187.31 421.319 185.97C421.639 184.61 422.119 183.47 422.759 182.55C423.419 181.63 424.249 180.93 425.249 180.45C426.249 179.95 427.429 179.7 428.789 179.7C431.509 179.7 433.509 180.65 434.789 182.55C436.069 184.45 436.709 187.11 436.709 190.53C436.709 193.95 436.069 196.61 434.789 198.51C433.509 200.41 431.509 201.36 428.789 201.36ZM428.789 182.73C427.309 182.73 426.259 183.26 425.639 184.32C425.039 185.38 424.739 186.83 424.739 188.67V192.24V193.05L432.209 184.92C431.929 184.22 431.509 183.68 430.949 183.3C430.389 182.92 429.669 182.73 428.789 182.73ZM428.789 198.33C430.269 198.33 431.309 197.8 431.909 196.74C432.529 195.68 432.839 194.23 432.839 192.39V188.82V188.01L425.369 196.14C425.649 196.84 426.069 197.38 426.629 197.76C427.189 198.14 427.909 198.33 428.789 198.33ZM446.777 201.36C445.417 201.36 444.237 201.12 443.237 200.64C442.237 200.14 441.407 199.43 440.747 198.51C440.107 197.59 439.627 196.46 439.307 195.12C439.007 193.78 438.857 192.25 438.857 190.53C438.857 188.83 439.007 187.31 439.307 185.97C439.627 184.61 440.107 183.47 440.747 182.55C441.407 181.63 442.237 180.93 443.237 180.45C444.237 179.95 445.417 179.7 446.777 179.7C449.497 179.7 451.497 180.65 452.777 182.55C454.057 184.45 454.697 187.11 454.697 190.53C454.697 193.95 454.057 196.61 452.777 198.51C451.497 200.41 449.497 201.36 446.777 201.36ZM446.777 182.73C445.297 182.73 444.247 183.26 443.627 184.32C443.027 185.38 442.727 186.83 442.727 188.67V192.24V193.05L450.197 184.92C449.917 184.22 449.497 183.68 448.937 183.3C448.377 182.92 447.657 182.73 446.777 182.73ZM446.777 198.33C448.257 198.33 449.297 197.8 449.897 196.74C450.517 195.68 450.827 194.23 450.827 192.39V188.82V188.01L443.357 196.14C443.637 196.84 444.057 197.38 444.617 197.76C445.177 198.14 445.897 198.33 446.777 198.33ZM456.876 201V185.52H460.056V187.65H460.236C460.476 186.97 460.816 186.39 461.256 185.91C461.716 185.41 462.356 185.16 463.176 185.16C463.956 185.16 464.576 185.39 465.036 185.85C465.496 186.29 465.796 186.92 465.936 187.74H466.086C466.346 187.04 466.726 186.44 467.226 185.94C467.746 185.42 468.476 185.16 469.416 185.16C470.556 185.16 471.376 185.57 471.876 186.39C472.376 187.21 472.626 188.42 472.626 190.02V201H469.476V190.47C469.476 189.57 469.346 188.94 469.086 188.58C468.846 188.22 468.476 188.04 467.976 188.04C467.516 188.04 467.126 188.19 466.806 188.49C466.506 188.79 466.356 189.25 466.356 189.87V201H463.176V190.47C463.176 189.57 463.056 188.94 462.816 188.58C462.576 188.22 462.206 188.04 461.706 188.04C461.226 188.04 460.826 188.19 460.506 188.49C460.206 188.79 460.056 189.25 460.056 189.87V201H456.876ZM482.694 201.36C480.994 201.36 479.524 201.1 478.284 200.58C477.044 200.04 476.074 199.32 475.374 198.42L477.624 196.38C478.264 197.08 478.994 197.62 479.814 198C480.654 198.38 481.624 198.57 482.724 198.57C483.684 198.57 484.454 198.41 485.034 198.09C485.614 197.77 485.904 197.28 485.904 196.62C485.904 196.06 485.704 195.68 485.304 195.48C484.924 195.28 484.414 195.13 483.774 195.03L481.284 194.64C480.644 194.54 480.014 194.4 479.394 194.22C478.794 194.02 478.254 193.75 477.774 193.41C477.314 193.07 476.944 192.64 476.664 192.12C476.384 191.58 476.244 190.93 476.244 190.17C476.244 188.55 476.844 187.31 478.044 186.45C479.264 185.59 480.934 185.16 483.054 185.16C484.554 185.16 485.824 185.37 486.864 185.79C487.924 186.21 488.794 186.8 489.474 187.56L487.464 189.78C487.024 189.3 486.434 188.88 485.694 188.52C484.974 188.14 484.054 187.95 482.934 187.95C480.974 187.95 479.994 188.56 479.994 189.78C479.994 190.34 480.194 190.73 480.594 190.95C480.994 191.15 481.514 191.3 482.154 191.4L484.614 191.79C485.274 191.89 485.904 192.04 486.504 192.24C487.124 192.42 487.664 192.68 488.124 193.02C488.604 193.36 488.984 193.79 489.264 194.31C489.544 194.83 489.684 195.47 489.684 196.23C489.684 197.83 489.064 199.09 487.824 200.01C486.604 200.91 484.894 201.36 482.694 201.36ZM504.252 191.67C504.252 193.13 504.082 194.54 503.742 195.9C503.422 197.24 502.972 198.49 502.392 199.65C501.832 200.81 501.172 201.86 500.412 202.8C499.652 203.74 498.852 204.52 498.012 205.14H494.172C495.072 204.5 495.932 203.75 496.752 202.89C497.572 202.03 498.292 201.09 498.912 200.07C499.532 199.03 500.022 197.93 500.382 196.77C500.762 195.59 500.952 194.37 500.952 193.11V190.23C500.952 188.97 500.762 187.76 500.382 186.6C500.022 185.42 499.532 184.32 498.912 183.3C498.292 182.26 497.572 181.31 496.752 180.45C495.932 179.59 495.072 178.84 494.172 178.2H498.012C498.852 178.84 499.652 179.63 500.412 180.57C501.172 181.49 501.832 182.53 502.392 183.69C502.972 184.85 503.422 186.11 503.742 187.47C504.082 188.81 504.252 190.21 504.252 191.67Z" fill="#969696"/>
<path d="M108.432 154C106.304 154 104.699 153.459 103.616 152.376C102.533 151.256 101.992 149.688 101.992 147.672V129.864H97.456V124.88H99.92C100.928 124.88 101.619 124.656 101.992 124.208C102.403 123.76 102.608 123.032 102.608 122.024V116.928H108.096V124.88H114.2V129.864H108.096V149.016H113.752V154H108.432ZM142.157 154C140.552 154 139.32 153.552 138.461 152.656C137.602 151.723 137.08 150.547 136.893 149.128H136.613C136.053 150.957 135.026 152.339 133.533 153.272C132.04 154.205 130.229 154.672 128.101 154.672C125.077 154.672 122.744 153.888 121.101 152.32C119.496 150.752 118.693 148.643 118.693 145.992C118.693 143.08 119.738 140.896 121.829 139.44C123.957 137.984 127.056 137.256 131.125 137.256H136.389V134.792C136.389 133 135.904 131.619 134.933 130.648C133.962 129.677 132.45 129.192 130.397 129.192C128.68 129.192 127.28 129.565 126.197 130.312C125.114 131.059 124.2 132.011 123.453 133.168L119.813 129.864C120.784 128.221 122.146 126.877 123.901 125.832C125.656 124.749 127.952 124.208 130.789 124.208C134.56 124.208 137.453 125.085 139.469 126.84C141.485 128.595 142.493 131.115 142.493 134.4V149.016H145.573V154H142.157ZM129.837 150.024C131.741 150.024 133.309 149.613 134.541 148.792C135.773 147.933 136.389 146.795 136.389 145.376V141.176H131.237C127.018 141.176 124.909 142.483 124.909 145.096V146.104C124.909 147.411 125.338 148.4 126.197 149.072C127.093 149.707 128.306 150.024 129.837 150.024ZM151.556 124.88H157.66V129.696H157.94C158.574 127.941 159.601 126.597 161.02 125.664C162.476 124.693 164.174 124.208 166.116 124.208C169.812 124.208 172.668 125.552 174.684 128.24C176.7 130.891 177.708 134.624 177.708 139.44C177.708 144.256 176.7 148.008 174.684 150.696C172.668 153.347 169.812 154.672 166.116 154.672C164.174 154.672 162.476 154.187 161.02 153.216C159.601 152.245 158.574 150.901 157.94 149.184H157.66V165.2H151.556V124.88ZM164.268 149.408C166.396 149.408 168.094 148.736 169.364 147.392C170.633 146.011 171.268 144.2 171.268 141.96V136.92C171.268 134.68 170.633 132.888 169.364 131.544C168.094 130.163 166.396 129.472 164.268 129.472C162.401 129.472 160.833 129.939 159.564 130.872C158.294 131.768 157.66 132.963 157.66 134.456V144.424C157.66 145.917 158.294 147.131 159.564 148.064C160.833 148.96 162.401 149.408 164.268 149.408Z" fill="black"/>
<path d="M990 232.5L975 223.84V241.16L990 232.5ZM609 252V232.5H606V252H609ZM607.5 234H976.5V231H607.5V234ZM609 232.5V213H606V232.5H609Z" fill="black"/>
<rect x="990" y="213" width="3" height="39" fill="black"/>
<rect x="606" y="264" width="544" height="72" fill="black"/>
<path d="M628.56 315.432C627.432 315.432 626.436 315.24 625.572 314.856C624.732 314.472 624.012 313.956 623.412 313.308C622.812 312.66 622.356 311.904 622.044 311.04C621.756 310.176 621.612 309.252 621.612 308.268C621.612 306.828 621.96 305.508 622.656 304.308C623.352 303.108 624.468 302.088 626.004 301.248C625.236 300.24 624.648 299.316 624.24 298.476C623.856 297.612 623.664 296.688 623.664 295.704C623.664 294.792 623.832 293.952 624.168 293.184C624.528 292.416 625.008 291.756 625.608 291.204C626.232 290.652 626.964 290.22 627.804 289.908C628.644 289.596 629.556 289.44 630.54 289.44C631.404 289.44 632.196 289.56 632.916 289.8C633.636 290.04 634.272 290.364 634.824 290.772C635.4 291.156 635.88 291.612 636.264 292.14C636.648 292.644 636.936 293.172 637.128 293.724L633.852 295.452C633.588 294.684 633.156 294.084 632.556 293.652C631.98 293.196 631.308 292.968 630.54 292.968C629.7 292.968 629.028 293.22 628.524 293.724C628.02 294.228 627.768 294.864 627.768 295.632V295.848C627.768 296.208 627.816 296.544 627.912 296.856C628.008 297.168 628.164 297.516 628.38 297.9C628.62 298.284 628.92 298.716 629.28 299.196C629.64 299.676 630.096 300.252 630.648 300.924L633.024 303.948L635.04 306.756H635.256C635.328 306.324 635.388 305.856 635.436 305.352C635.484 304.848 635.52 304.332 635.544 303.804C635.592 303.252 635.616 302.724 635.616 302.22C635.64 301.692 635.652 301.2 635.652 300.744H641.664V304.236H639.108C638.964 305.124 638.784 305.988 638.568 306.828C638.376 307.644 638.076 308.52 637.668 309.456L642.276 315H637.272L634.32 311.436H634.068C633.852 312.66 633.252 313.632 632.268 314.352C631.308 315.072 630.072 315.432 628.56 315.432ZM629.712 311.796C630.408 311.796 631.044 311.664 631.62 311.4C632.196 311.136 632.664 310.692 633.024 310.068L627.912 303.66C627.144 304.284 626.628 304.956 626.364 305.676C626.1 306.372 625.968 307.116 625.968 307.908V308.088C625.968 309.288 626.304 310.212 626.976 310.86C627.648 311.484 628.56 311.796 629.712 311.796ZM643.918 315V296.424H647.734V298.98H647.95C648.238 298.164 648.646 297.468 649.174 296.892C649.726 296.292 650.494 295.992 651.478 295.992C652.414 295.992 653.158 296.268 653.71 296.82C654.262 297.348 654.622 298.104 654.79 299.088H654.97C655.282 298.248 655.738 297.528 656.338 296.928C656.962 296.304 657.838 295.992 658.966 295.992C660.334 295.992 661.318 296.484 661.918 297.468C662.518 298.452 662.818 299.904 662.818 301.824V315H659.038V302.364C659.038 301.284 658.882 300.528 658.57 300.096C658.282 299.664 657.838 299.448 657.238 299.448C656.686 299.448 656.218 299.628 655.834 299.988C655.474 300.348 655.294 300.9 655.294 301.644V315H651.478V302.364C651.478 301.284 651.334 300.528 651.046 300.096C650.758 299.664 650.314 299.448 649.714 299.448C649.138 299.448 648.658 299.628 648.274 299.988C647.914 300.348 647.734 300.9 647.734 301.644V315H643.918ZM676.232 315C674.456 315 673.148 314.532 672.308 313.596C671.468 312.66 671.048 311.448 671.048 309.96V300.06H665.648V296.424H669.32C670.064 296.424 670.592 296.28 670.904 295.992C671.216 295.68 671.372 295.14 671.372 294.372V289.872H675.656V296.424H683.216V300.06H675.656V311.364H683.216V315H676.232ZM710.944 315V289.872H715.66V311.112H726.784V315H710.944ZM739.442 315.432C737.282 315.432 735.434 315.06 733.898 314.316C732.386 313.572 731.15 312.588 730.19 311.364L733.034 308.412C733.97 309.492 734.978 310.296 736.058 310.824C737.162 311.328 738.338 311.58 739.586 311.58C741.026 311.58 742.13 311.256 742.898 310.608C743.666 309.96 744.05 309.024 744.05 307.8C744.05 306.792 743.762 306.036 743.186 305.532C742.61 305.004 741.638 304.632 740.27 304.416L737.606 303.984C735.278 303.576 733.622 302.736 732.638 301.464C731.654 300.168 731.162 298.644 731.162 296.892C731.162 294.492 731.942 292.656 733.502 291.384C735.062 290.088 737.222 289.44 739.982 289.44C741.95 289.44 743.642 289.752 745.058 290.376C746.498 291 747.65 291.852 748.514 292.932L745.742 295.884C745.07 295.092 744.266 294.468 743.33 294.012C742.394 293.532 741.29 293.292 740.018 293.292C737.282 293.292 735.914 294.42 735.914 296.676C735.914 297.636 736.202 298.368 736.778 298.872C737.354 299.376 738.338 299.748 739.73 299.988L742.358 300.456C744.542 300.864 746.162 301.668 747.218 302.868C748.274 304.068 748.802 305.604 748.802 307.476C748.802 308.652 748.598 309.732 748.19 310.716C747.782 311.676 747.182 312.516 746.39 313.236C745.598 313.932 744.614 314.472 743.438 314.856C742.286 315.24 740.954 315.432 739.442 315.432ZM764.988 304.2H757.644V315H752.928V289.872H757.644V300.312H764.988V289.872H769.704V315H764.988V304.2ZM774.91 315V311.472H780.562V293.4H774.91V289.872H790.894V293.4H785.242V311.472H790.894V315H774.91ZM796.676 315V289.872H813.092V293.76H801.392V300.312H811.94V304.2H801.392V315H796.676ZM828.413 293.76V315H823.733V293.76H816.173V289.872H835.973V293.76H828.413ZM861.433 315V289.872H877.849V293.76H866.149V300.312H876.697V304.2H866.149V315H861.433Z" fill="white"/>
<rect x="991.5" y="349.5" width="156" height="69" fill="white" stroke="black" stroke-width="3"/>
<path d="M1007.84 398V372.872H1012.56V394.112H1023.68V398H1007.84ZM1036.34 398.432C1034.18 398.432 1032.33 398.06 1030.8 397.316C1029.28 396.572 1028.05 395.588 1027.09 394.364L1029.93 391.412C1030.87 392.492 1031.88 393.296 1032.96 393.824C1034.06 394.328 1035.24 394.58 1036.48 394.58C1037.92 394.58 1039.03 394.256 1039.8 393.608C1040.56 392.96 1040.95 392.024 1040.95 390.8C1040.95 389.792 1040.66 389.036 1040.08 388.532C1039.51 388.004 1038.54 387.632 1037.17 387.416L1034.5 386.984C1032.18 386.576 1030.52 385.736 1029.54 384.464C1028.55 383.168 1028.06 381.644 1028.06 379.892C1028.06 377.492 1028.84 375.656 1030.4 374.384C1031.96 373.088 1034.12 372.44 1036.88 372.44C1038.85 372.44 1040.54 372.752 1041.96 373.376C1043.4 374 1044.55 374.852 1045.41 375.932L1042.64 378.884C1041.97 378.092 1041.16 377.468 1040.23 377.012C1039.29 376.532 1038.19 376.292 1036.92 376.292C1034.18 376.292 1032.81 377.42 1032.81 379.676C1032.81 380.636 1033.1 381.368 1033.68 381.872C1034.25 382.376 1035.24 382.748 1036.63 382.988L1039.26 383.456C1041.44 383.864 1043.06 384.668 1044.12 385.868C1045.17 387.068 1045.7 388.604 1045.7 390.476C1045.7 391.652 1045.5 392.732 1045.09 393.716C1044.68 394.676 1044.08 395.516 1043.29 396.236C1042.5 396.932 1041.51 397.472 1040.34 397.856C1039.18 398.24 1037.85 398.432 1036.34 398.432ZM1061.89 387.2H1054.54V398H1049.83V372.872H1054.54V383.312H1061.89V372.872H1066.6V398H1061.89V387.2ZM1071.81 398V394.472H1077.46V376.4H1071.81V372.872H1087.79V376.4H1082.14V394.472H1087.79V398H1071.81ZM1093.57 398V372.872H1109.99V376.76H1098.29V383.312H1108.84V387.2H1098.29V398H1093.57ZM1125.31 376.76V398H1120.63V376.76H1113.07V372.872H1132.87V376.76H1125.31Z" fill="black"/>
<path d="M616.05 201C614.57 201 613.48 200.61 612.78 199.83C612.08 199.05 611.73 198.04 611.73 196.8V188.55H607.23V185.52H610.29C610.91 185.52 611.35 185.4 611.61 185.16C611.87 184.9 612 184.45 612 183.81V180.06H615.57V185.52H621.87V188.55H615.57V197.97H621.87V201H616.05ZM638.688 201C637.748 201 637.018 200.77 636.498 200.31C635.998 199.83 635.698 199.17 635.598 198.33H635.448C635.168 199.29 634.618 200.04 633.798 200.58C632.978 201.1 631.968 201.36 630.768 201.36C629.208 201.36 627.968 200.95 627.048 200.13C626.128 199.31 625.668 198.17 625.668 196.71C625.668 193.59 627.958 192.03 632.538 192.03H635.268V191.01C635.268 190.03 635.028 189.29 634.548 188.79C634.068 188.29 633.288 188.04 632.208 188.04C631.228 188.04 630.438 188.23 629.838 188.61C629.238 188.99 628.728 189.48 628.308 190.08L626.118 188.22C626.598 187.36 627.368 186.64 628.428 186.06C629.508 185.46 630.898 185.16 632.598 185.16C634.638 185.16 636.228 185.64 637.368 186.6C638.528 187.54 639.108 188.95 639.108 190.83V198.12H640.938V201H638.688ZM632.058 198.72C632.978 198.72 633.738 198.51 634.338 198.09C634.958 197.65 635.268 197.06 635.268 196.32V194.25H632.628C630.528 194.25 629.478 194.91 629.478 196.23V196.83C629.478 197.45 629.708 197.92 630.168 198.24C630.628 198.56 631.258 198.72 632.058 198.72ZM644.047 185.52H647.887V188.25H648.097C648.517 187.31 649.087 186.56 649.807 186C650.547 185.44 651.517 185.16 652.717 185.16C653.597 185.16 654.397 185.33 655.117 185.67C655.857 185.99 656.487 186.49 657.007 187.17C657.527 187.83 657.927 188.67 658.207 189.69C658.487 190.71 658.627 191.9 658.627 193.26C658.627 194.62 658.487 195.81 658.207 196.83C657.927 197.85 657.527 198.7 657.007 199.38C656.487 200.04 655.857 200.54 655.117 200.88C654.397 201.2 653.597 201.36 652.717 201.36C651.517 201.36 650.547 201.08 649.807 200.52C649.087 199.96 648.517 199.21 648.097 198.27H647.887V207H644.047V185.52ZM651.097 198.3C652.217 198.3 653.077 197.96 653.677 197.28C654.297 196.6 654.607 195.67 654.607 194.49V192.03C654.607 190.85 654.297 189.92 653.677 189.24C653.077 188.56 652.217 188.22 651.097 188.22C650.217 188.22 649.457 188.44 648.817 188.88C648.197 189.3 647.887 189.95 647.887 190.83V195.69C647.887 196.57 648.197 197.23 648.817 197.67C649.457 198.09 650.217 198.3 651.097 198.3ZM662.035 185.52H665.875V188.25H666.085C666.505 187.31 667.075 186.56 667.795 186C668.535 185.44 669.505 185.16 670.705 185.16C671.585 185.16 672.385 185.33 673.105 185.67C673.845 185.99 674.475 186.49 674.995 187.17C675.515 187.83 675.915 188.67 676.195 189.69C676.475 190.71 676.615 191.9 676.615 193.26C676.615 194.62 676.475 195.81 676.195 196.83C675.915 197.85 675.515 198.7 674.995 199.38C674.475 200.04 673.845 200.54 673.105 200.88C672.385 201.2 671.585 201.36 670.705 201.36C669.505 201.36 668.535 201.08 667.795 200.52C667.075 199.96 666.505 199.21 666.085 198.27H665.875V207H662.035V185.52ZM669.085 198.3C670.205 198.3 671.065 197.96 671.665 197.28C672.285 196.6 672.595 195.67 672.595 194.49V192.03C672.595 190.85 672.285 189.92 671.665 189.24C671.065 188.56 670.205 188.22 669.085 188.22C668.205 188.22 667.445 188.44 666.805 188.88C666.185 189.3 665.875 189.95 665.875 190.83V195.69C665.875 196.57 666.185 197.23 666.805 197.67C667.445 198.09 668.205 198.3 669.085 198.3ZM687.913 183.12C687.013 183.12 686.373 182.93 685.993 182.55C685.633 182.17 685.453 181.71 685.453 181.17V180.45C685.453 179.91 685.633 179.45 685.993 179.07C686.373 178.69 687.013 178.5 687.913 178.5C688.813 178.5 689.443 178.69 689.803 179.07C690.183 179.45 690.373 179.91 690.373 180.45V181.17C690.373 181.71 690.183 182.17 689.803 182.55C689.443 182.93 688.813 183.12 687.913 183.12ZM680.893 197.97H685.993V188.55H680.893V185.52H689.833V197.97H694.573V201H680.893V197.97ZM698.191 201V185.52H702.031V188.25H702.181C702.521 187.41 703.041 186.69 703.741 186.09C704.461 185.47 705.451 185.16 706.711 185.16C708.231 185.16 709.461 185.67 710.401 186.69C711.361 187.69 711.841 189.13 711.841 191.01V201H708.001V191.55C708.001 189.31 707.031 188.19 705.091 188.19C704.691 188.19 704.311 188.24 703.951 188.34C703.591 188.44 703.261 188.6 702.961 188.82C702.681 189.02 702.451 189.27 702.271 189.57C702.111 189.87 702.031 190.23 702.031 190.65V201H698.191ZM729.86 200.19C729.86 202.45 729.22 204.21 727.94 205.47C726.68 206.73 724.8 207.36 722.3 207.36C720.84 207.36 719.62 207.15 718.64 206.73C717.66 206.31 716.86 205.78 716.24 205.14L718.31 202.68C719.35 203.76 720.66 204.3 722.24 204.3C723.52 204.3 724.47 203.97 725.09 203.31C725.71 202.65 726.02 201.72 726.02 200.52V197.58H725.81C725.39 198.52 724.81 199.28 724.07 199.86C723.35 200.42 722.39 200.7 721.19 200.7C719.41 200.7 717.98 200.04 716.9 198.72C715.82 197.4 715.28 195.47 715.28 192.93C715.28 190.37 715.82 188.44 716.9 187.14C717.98 185.82 719.41 185.16 721.19 185.16C722.39 185.16 723.35 185.44 724.07 186C724.81 186.56 725.39 187.31 725.81 188.25H726.02V185.52H729.86V200.19ZM722.81 197.61C723.25 197.61 723.66 197.56 724.04 197.46C724.44 197.34 724.78 197.18 725.06 196.98C725.36 196.76 725.59 196.49 725.75 196.17C725.93 195.83 726.02 195.44 726.02 195V190.83C726.02 190.39 725.93 190.01 725.75 189.69C725.59 189.35 725.36 189.08 725.06 188.88C724.78 188.66 724.44 188.5 724.04 188.4C723.66 188.28 723.25 188.22 722.81 188.22C721.69 188.22 720.82 188.56 720.2 189.24C719.6 189.9 719.3 190.83 719.3 192.03V193.8C719.3 194.98 719.6 195.91 720.2 196.59C720.82 197.27 721.69 197.61 722.81 197.61ZM736.268 193.74V189.99H745.568V193.74H736.268ZM759.956 201C758.476 201 757.386 200.61 756.686 199.83C755.986 199.05 755.636 198.04 755.636 196.8V188.55H751.136V185.52H754.196C754.816 185.52 755.256 185.4 755.516 185.16C755.776 184.9 755.906 184.45 755.906 183.81V180.06H759.476V185.52H765.776V188.55H759.476V197.97H765.776V201H759.956ZM777.255 201.36C776.015 201.36 774.915 201.17 773.955 200.79C772.995 200.41 772.185 199.87 771.525 199.17C770.885 198.47 770.395 197.63 770.055 196.65C769.715 195.65 769.545 194.53 769.545 193.29C769.545 192.03 769.715 190.9 770.055 189.9C770.415 188.9 770.915 188.05 771.555 187.35C772.195 186.65 772.965 186.11 773.865 185.73C774.785 185.35 775.815 185.16 776.955 185.16C778.075 185.16 779.085 185.35 779.985 185.73C780.885 186.09 781.645 186.61 782.265 187.29C782.905 187.97 783.395 188.79 783.735 189.75C784.075 190.71 784.245 191.77 784.245 192.93V194.19H773.385V194.58C773.385 195.7 773.735 196.61 774.435 197.31C775.135 197.99 776.115 198.33 777.375 198.33C778.335 198.33 779.155 198.14 779.835 197.76C780.535 197.36 781.115 196.84 781.575 196.2L783.765 198.39C783.205 199.21 782.385 199.91 781.305 200.49C780.245 201.07 778.895 201.36 777.255 201.36ZM776.985 187.98C775.905 187.98 775.035 188.32 774.375 189C773.715 189.68 773.385 190.58 773.385 191.7V191.91H780.405V191.64C780.405 190.52 780.095 189.63 779.475 188.97C778.875 188.31 778.045 187.98 776.985 187.98ZM788.133 197.97H791.973V188.55H788.133V185.52H795.813V189.75H796.053C796.193 189.21 796.383 188.69 796.623 188.19C796.883 187.67 797.203 187.22 797.583 186.84C797.983 186.44 798.463 186.12 799.023 185.88C799.583 185.64 800.253 185.52 801.033 185.52H802.713V189.12H799.533C798.373 189.12 797.463 189.46 796.803 190.14C796.143 190.82 795.813 191.69 795.813 192.75V197.97H801.183V201H788.133V197.97ZM804.981 201V185.52H808.161V187.65H808.341C808.581 186.97 808.921 186.39 809.361 185.91C809.821 185.41 810.461 185.16 811.281 185.16C812.061 185.16 812.681 185.39 813.141 185.85C813.601 186.29 813.901 186.92 814.041 187.74H814.191C814.451 187.04 814.831 186.44 815.331 185.94C815.851 185.42 816.581 185.16 817.521 185.16C818.661 185.16 819.481 185.57 819.981 186.39C820.481 187.21 820.731 188.42 820.731 190.02V201H817.581V190.47C817.581 189.57 817.451 188.94 817.191 188.58C816.951 188.22 816.581 188.04 816.081 188.04C815.621 188.04 815.231 188.19 814.911 188.49C814.611 188.79 814.461 189.25 814.461 189.87V201H811.281V190.47C811.281 189.57 811.161 188.94 810.921 188.58C810.681 188.22 810.311 188.04 809.811 188.04C809.331 188.04 808.931 188.19 808.611 188.49C808.311 188.79 808.161 189.25 808.161 189.87V201H804.981ZM826.209 193.74V189.99H835.509V193.74H826.209ZM840.958 201V185.52H844.138V187.65H844.318C844.558 186.97 844.898 186.39 845.338 185.91C845.798 185.41 846.438 185.16 847.258 185.16C848.038 185.16 848.658 185.39 849.118 185.85C849.578 186.29 849.878 186.92 850.018 187.74H850.168C850.428 187.04 850.808 186.44 851.308 185.94C851.828 185.42 852.558 185.16 853.498 185.16C854.638 185.16 855.458 185.57 855.958 186.39C856.458 187.21 856.708 188.42 856.708 190.02V201H853.558V190.47C853.558 189.57 853.428 188.94 853.168 188.58C852.928 188.22 852.558 188.04 852.058 188.04C851.598 188.04 851.208 188.19 850.888 188.49C850.588 188.79 850.438 189.25 850.438 189.87V201H847.258V190.47C847.258 189.57 847.138 188.94 846.898 188.58C846.658 188.22 846.288 188.04 845.788 188.04C845.308 188.04 844.908 188.19 844.588 188.49C844.288 188.79 844.138 189.25 844.138 189.87V201H840.958ZM866.776 201.36C865.076 201.36 863.606 201.1 862.366 200.58C861.126 200.04 860.156 199.32 859.456 198.42L861.706 196.38C862.346 197.08 863.076 197.62 863.896 198C864.736 198.38 865.706 198.57 866.806 198.57C867.766 198.57 868.536 198.41 869.116 198.09C869.696 197.77 869.986 197.28 869.986 196.62C869.986 196.06 869.786 195.68 869.386 195.48C869.006 195.28 868.496 195.13 867.856 195.03L865.366 194.64C864.726 194.54 864.096 194.4 863.476 194.22C862.876 194.02 862.336 193.75 861.856 193.41C861.396 193.07 861.026 192.64 860.746 192.12C860.466 191.58 860.326 190.93 860.326 190.17C860.326 188.55 860.926 187.31 862.126 186.45C863.346 185.59 865.016 185.16 867.136 185.16C868.636 185.16 869.906 185.37 870.946 185.79C872.006 186.21 872.876 186.8 873.556 187.56L871.546 189.78C871.106 189.3 870.516 188.88 869.776 188.52C869.056 188.14 868.136 187.95 867.016 187.95C865.056 187.95 864.076 188.56 864.076 189.78C864.076 190.34 864.276 190.73 864.676 190.95C865.076 191.15 865.596 191.3 866.236 191.4L868.696 191.79C869.356 191.89 869.986 192.04 870.586 192.24C871.206 192.42 871.746 192.68 872.206 193.02C872.686 193.36 873.066 193.79 873.346 194.31C873.626 194.83 873.766 195.47 873.766 196.23C873.766 197.83 873.146 199.09 871.906 200.01C870.686 200.91 868.976 201.36 866.776 201.36Z" fill="black"/>
<path d="M899.303 191.67C899.303 190.21 899.463 188.81 899.783 187.47C900.123 186.11 900.573 184.85 901.133 183.69C901.713 182.53 902.383 181.49 903.143 180.57C903.903 179.63 904.703 178.84 905.543 178.2H909.383C908.483 178.84 907.623 179.59 906.803 180.45C905.983 181.31 905.263 182.26 904.643 183.3C904.023 184.32 903.523 185.42 903.143 186.6C902.783 187.76 902.603 188.97 902.603 190.23V193.11C902.603 194.37 902.783 195.59 903.143 196.77C903.523 197.93 904.023 199.03 904.643 200.07C905.263 201.09 905.983 202.03 906.803 202.89C907.623 203.75 908.483 204.5 909.383 205.14H905.543C904.703 204.52 903.903 203.74 903.143 202.8C902.383 201.86 901.713 200.81 901.133 199.65C900.573 198.49 900.123 197.24 899.783 195.9C899.463 194.54 899.303 193.13 899.303 191.67ZM928.301 201H913.541V197.34L920.261 191.61C921.381 190.65 922.211 189.78 922.751 189C923.291 188.2 923.561 187.35 923.561 186.45V186.15C923.561 185.15 923.281 184.39 922.721 183.87C922.161 183.35 921.381 183.09 920.381 183.09C919.281 183.09 918.441 183.39 917.861 183.99C917.281 184.59 916.861 185.33 916.601 186.21L913.181 184.92C913.401 184.24 913.711 183.59 914.111 182.97C914.531 182.33 915.041 181.77 915.641 181.29C916.261 180.81 916.991 180.43 917.831 180.15C918.671 179.85 919.631 179.7 920.711 179.7C921.831 179.7 922.821 179.86 923.681 180.18C924.561 180.48 925.301 180.91 925.901 181.47C926.501 182.01 926.951 182.66 927.251 183.42C927.571 184.18 927.731 185.01 927.731 185.91C927.731 186.77 927.591 187.56 927.311 188.28C927.051 189 926.681 189.69 926.201 190.35C925.721 190.99 925.151 191.61 924.491 192.21C923.851 192.81 923.151 193.41 922.391 194.01L917.831 197.7H928.301V201ZM938.789 201.36C937.429 201.36 936.249 201.12 935.249 200.64C934.249 200.14 933.419 199.43 932.759 198.51C932.119 197.59 931.639 196.46 931.319 195.12C931.019 193.78 930.869 192.25 930.869 190.53C930.869 188.83 931.019 187.31 931.319 185.97C931.639 184.61 932.119 183.47 932.759 182.55C933.419 181.63 934.249 180.93 935.249 180.45C936.249 179.95 937.429 179.7 938.789 179.7C941.509 179.7 943.509 180.65 944.789 182.55C946.069 184.45 946.709 187.11 946.709 190.53C946.709 193.95 946.069 196.61 944.789 198.51C943.509 200.41 941.509 201.36 938.789 201.36ZM938.789 182.73C937.309 182.73 936.259 183.26 935.639 184.32C935.039 185.38 934.739 186.83 934.739 188.67V192.24V193.05L942.209 184.92C941.929 184.22 941.509 183.68 940.949 183.3C940.389 182.92 939.669 182.73 938.789 182.73ZM938.789 198.33C940.269 198.33 941.309 197.8 941.909 196.74C942.529 195.68 942.839 194.23 942.839 192.39V188.82V188.01L935.369 196.14C935.649 196.84 936.069 197.38 936.629 197.76C937.189 198.14 937.909 198.33 938.789 198.33ZM956.777 201.36C955.417 201.36 954.237 201.12 953.237 200.64C952.237 200.14 951.407 199.43 950.747 198.51C950.107 197.59 949.627 196.46 949.307 195.12C949.007 193.78 948.857 192.25 948.857 190.53C948.857 188.83 949.007 187.31 949.307 185.97C949.627 184.61 950.107 183.47 950.747 182.55C951.407 181.63 952.237 180.93 953.237 180.45C954.237 179.95 955.417 179.7 956.777 179.7C959.497 179.7 961.497 180.65 962.777 182.55C964.057 184.45 964.697 187.11 964.697 190.53C964.697 193.95 964.057 196.61 962.777 198.51C961.497 200.41 959.497 201.36 956.777 201.36ZM956.777 182.73C955.297 182.73 954.247 183.26 953.627 184.32C953.027 185.38 952.727 186.83 952.727 188.67V192.24V193.05L960.197 184.92C959.917 184.22 959.497 183.68 958.937 183.3C958.377 182.92 957.657 182.73 956.777 182.73ZM956.777 198.33C958.257 198.33 959.297 197.8 959.897 196.74C960.517 195.68 960.827 194.23 960.827 192.39V188.82V188.01L953.357 196.14C953.637 196.84 954.057 197.38 954.617 197.76C955.177 198.14 955.897 198.33 956.777 198.33ZM966.876 201V185.52H970.056V187.65H970.236C970.476 186.97 970.816 186.39 971.256 185.91C971.716 185.41 972.356 185.16 973.176 185.16C973.956 185.16 974.576 185.39 975.036 185.85C975.496 186.29 975.796 186.92 975.936 187.74H976.086C976.346 187.04 976.726 186.44 977.226 185.94C977.746 185.42 978.476 185.16 979.416 185.16C980.556 185.16 981.376 185.57 981.876 186.39C982.376 187.21 982.626 188.42 982.626 190.02V201H979.476V190.47C979.476 189.57 979.346 188.94 979.086 188.58C978.846 188.22 978.476 188.04 977.976 188.04C977.516 188.04 977.126 188.19 976.806 188.49C976.506 188.79 976.356 189.25 976.356 189.87V201H973.176V190.47C973.176 189.57 973.056 188.94 972.816 188.58C972.576 188.22 972.206 188.04 971.706 188.04C971.226 188.04 970.826 188.19 970.506 188.49C970.206 188.79 970.056 189.25 970.056 189.87V201H966.876ZM992.694 201.36C990.994 201.36 989.524 201.1 988.284 200.58C987.044 200.04 986.074 199.32 985.374 198.42L987.624 196.38C988.264 197.08 988.994 197.62 989.814 198C990.654 198.38 991.624 198.57 992.724 198.57C993.684 198.57 994.454 198.41 995.034 198.09C995.614 197.77 995.904 197.28 995.904 196.62C995.904 196.06 995.704 195.68 995.304 195.48C994.924 195.28 994.414 195.13 993.774 195.03L991.284 194.64C990.644 194.54 990.014 194.4 989.394 194.22C988.794 194.02 988.254 193.75 987.774 193.41C987.314 193.07 986.944 192.64 986.664 192.12C986.384 191.58 986.244 190.93 986.244 190.17C986.244 188.55 986.844 187.31 988.044 186.45C989.264 185.59 990.934 185.16 993.054 185.16C994.554 185.16 995.824 185.37 996.864 185.79C997.924 186.21 998.794 186.8 999.474 187.56L997.464 189.78C997.024 189.3 996.434 188.88 995.694 188.52C994.974 188.14 994.054 187.95 992.934 187.95C990.974 187.95 989.994 188.56 989.994 189.78C989.994 190.34 990.194 190.73 990.594 190.95C990.994 191.15 991.514 191.3 992.154 191.4L994.614 191.79C995.274 191.89 995.904 192.04 996.504 192.24C997.124 192.42 997.664 192.68 998.124 193.02C998.604 193.36 998.984 193.79 999.264 194.31C999.544 194.83 999.684 195.47 999.684 196.23C999.684 197.83 999.064 199.09 997.824 200.01C996.604 200.91 994.894 201.36 992.694 201.36ZM1014.25 191.67C1014.25 193.13 1014.08 194.54 1013.74 195.9C1013.42 197.24 1012.97 198.49 1012.39 199.65C1011.83 200.81 1011.17 201.86 1010.41 202.8C1009.65 203.74 1008.85 204.52 1008.01 205.14H1004.17C1005.07 204.5 1005.93 203.75 1006.75 202.89C1007.57 202.03 1008.29 201.09 1008.91 200.07C1009.53 199.03 1010.02 197.93 1010.38 196.77C1010.76 195.59 1010.95 194.37 1010.95 193.11V190.23C1010.95 188.97 1010.76 187.76 1010.38 186.6C1010.02 185.42 1009.53 184.32 1008.91 183.3C1008.29 182.26 1007.57 181.31 1006.75 180.45C1005.93 179.59 1005.07 178.84 1004.17 178.2H1008.01C1008.85 178.84 1009.65 179.63 1010.41 180.57C1011.17 181.49 1011.83 182.53 1012.39 183.69C1012.97 184.85 1013.42 186.11 1013.74 187.47C1014.08 188.81 1014.25 190.21 1014.25 191.67Z" fill="#969696"/>
<path d="M610.368 112.56H616.472V129.696H616.752C617.387 128.128 618.339 126.821 619.608 125.776C620.915 124.731 622.688 124.208 624.928 124.208C627.915 124.208 630.229 125.197 631.872 127.176C633.552 129.117 634.392 131.899 634.392 135.52V154H628.288V136.248C628.288 131.731 626.459 129.472 622.8 129.472C622.016 129.472 621.232 129.584 620.448 129.808C619.701 129.995 619.029 130.293 618.432 130.704C617.835 131.115 617.349 131.637 616.976 132.272C616.64 132.907 616.472 133.635 616.472 134.456V154H610.368V112.56ZM654.276 154.672C652.26 154.672 650.412 154.317 648.732 153.608C647.09 152.899 645.69 151.891 644.532 150.584C643.375 149.24 642.479 147.635 641.844 145.768C641.21 143.864 640.892 141.755 640.892 139.44C640.892 137.125 641.21 135.035 641.844 133.168C642.479 131.264 643.375 129.659 644.532 128.352C645.69 127.008 647.09 125.981 648.732 125.272C650.412 124.563 652.26 124.208 654.276 124.208C656.292 124.208 658.122 124.563 659.764 125.272C661.444 125.981 662.863 127.008 664.02 128.352C665.178 129.659 666.074 131.264 666.708 133.168C667.343 135.035 667.66 137.125 667.66 139.44C667.66 141.755 667.343 143.864 666.708 145.768C666.074 147.635 665.178 149.24 664.02 150.584C662.863 151.891 661.444 152.899 659.764 153.608C658.122 154.317 656.292 154.672 654.276 154.672ZM654.276 149.632C656.367 149.632 658.047 148.997 659.316 147.728C660.586 146.421 661.22 144.48 661.22 141.904V136.976C661.22 134.4 660.586 132.477 659.316 131.208C658.047 129.901 656.367 129.248 654.276 129.248C652.186 129.248 650.506 129.901 649.236 131.208C647.967 132.477 647.332 134.4 647.332 136.976V141.904C647.332 144.48 647.967 146.421 649.236 147.728C650.506 148.997 652.186 149.632 654.276 149.632ZM680.678 154C678.587 154 677.019 153.477 675.974 152.432C674.966 151.349 674.462 149.856 674.462 147.952V112.56H680.566V149.016H684.598V154H680.678ZM708.743 149.184H708.463C707.828 150.901 706.783 152.245 705.327 153.216C703.908 154.187 702.228 154.672 700.287 154.672C696.591 154.672 693.735 153.347 691.719 150.696C689.703 148.008 688.695 144.256 688.695 139.44C688.695 134.624 689.703 130.891 691.719 128.24C693.735 125.552 696.591 124.208 700.287 124.208C702.228 124.208 703.908 124.693 705.327 125.664C706.783 126.597 707.828 127.941 708.463 129.696H708.743V112.56H714.846V154H708.743V149.184ZM702.135 149.408C704.001 149.408 705.569 148.96 706.839 148.064C708.108 147.131 708.743 145.917 708.743 144.424V134.456C708.743 132.963 708.108 131.768 706.839 130.872C705.569 129.939 704.001 129.472 702.135 129.472C700.007 129.472 698.308 130.163 697.039 131.544C695.769 132.888 695.135 134.68 695.135 136.92V141.96C695.135 144.2 695.769 146.011 697.039 147.392C698.308 148.736 700.007 149.408 702.135 149.408Z" fill="black"/>
</svg>
