<?xml version="1.0" encoding="UTF-8" standalone="no"?>
<svg
   width="1245"
   height="395.76953"
   viewBox="0 0 1245 395.76953"
   fill="none"
   version="1.1"
   id="svg13"
   sodipodi:docname="case1_2.svg"
   inkscape:version="1.4 (e7c3feb100, 2024-10-09)"
   xmlns:inkscape="http://www.inkscape.org/namespaces/inkscape"
   xmlns:sodipodi="http://sodipodi.sourceforge.net/DTD/sodipodi-0.dtd"
   xmlns="http://www.w3.org/2000/svg"
   xmlns:svg="http://www.w3.org/2000/svg">
  <defs
     id="defs13" />
  <sodipodi:namedview
     id="namedview13"
     pagecolor="#505050"
     bordercolor="#eeeeee"
     borderopacity="1"
     inkscape:showpageshadow="0"
     inkscape:pageopacity="0"
     inkscape:pagecheckerboard="0"
     inkscape:deskcolor="#505050"
     inkscape:zoom="0.66006341"
     inkscape:cx="659.02759"
     inkscape:cy="172.71068"
     inkscape:window-width="1904"
     inkscape:window-height="1035"
     inkscape:window-x="0"
     inkscape:window-y="0"
     inkscape:window-maximized="0"
     inkscape:current-layer="svg13" />
  <rect
     width="1245"
     height="395.76953"
     fill="#ffffff"
     id="rect1"
     x="0"
     y="0"
     style="stroke-width:0.872408" />
  <path
     d="m 480,170.38475 -15,-8.66 v 17.32 z m -381,19.5 v -19.5 h -3 v 19.5 z m -1.5,-18 h 369 v -3 h -369 z m 1.5,-1.5 v -19.5 h -3 v 19.5 z"
     fill="#000000"
     id="path1" />
  <rect
     x="480"
     y="150.88475"
     width="3"
     height="39"
     fill="#000000"
     id="rect2" />
  <rect
     x="96"
     y="201.88475"
     width="300"
     height="72"
     fill="#000000"
     id="rect3" />
  <path
     d="m 118.56,253.31675 c -1.128,0 -2.124,-0.192 -2.988,-0.576 -0.84,-0.384 -1.56,-0.9 -2.16,-1.548 -0.6,-0.648 -1.056,-1.404 -1.368,-2.268 -0.288,-0.864 -0.432,-1.788 -0.432,-2.772 0,-1.44 0.348,-2.76 1.044,-3.96 0.696,-1.2 1.812,-2.22 3.348,-3.06 -0.768,-1.008 -1.356,-1.932 -1.764,-2.772 -0.384,-0.864 -0.576,-1.788 -0.576,-2.772 0,-0.912 0.168,-1.752 0.504,-2.52 0.36,-0.768 0.84,-1.428 1.44,-1.98 0.624,-0.552 1.356,-0.984 2.196,-1.296 0.84,-0.312 1.752,-0.468 2.736,-0.468 0.864,0 1.656,0.12 2.376,0.36 0.72,0.24 1.356,0.564 1.908,0.972 0.576,0.384 1.056,0.84 1.44,1.368 0.384,0.504 0.672,1.032 0.864,1.584 l -3.276,1.728 c -0.264,-0.768 -0.696,-1.368 -1.296,-1.8 -0.576,-0.456 -1.248,-0.684 -2.016,-0.684 -0.84,0 -1.512,0.252 -2.016,0.756 -0.504,0.504 -0.756,1.14 -0.756,1.908 v 0.216 c 0,0.36 0.048,0.696 0.144,1.008 0.096,0.312 0.252,0.66 0.468,1.044 0.24,0.384 0.54,0.816 0.9,1.296 0.36,0.48 0.816,1.056 1.368,1.728 l 2.376,3.024 2.016,2.808 h 0.216 c 0.072,-0.432 0.132,-0.9 0.18,-1.404 0.048,-0.504 0.084,-1.02 0.108,-1.548 0.048,-0.552 0.072,-1.08 0.072,-1.584 0.024,-0.528 0.036,-1.02 0.036,-1.476 h 6.012 v 3.492 h -2.556 c -0.144,0.888 -0.324,1.752 -0.54,2.592 -0.192,0.816 -0.492,1.692 -0.9,2.628 l 4.608,5.544 h -5.004 l -2.952,-3.564 h -0.252 c -0.216,1.224 -0.816,2.196 -1.8,2.916 -0.96,0.72 -2.196,1.08 -3.708,1.08 z m 1.152,-3.636 c 0.696,0 1.332,-0.132 1.908,-0.396 0.576,-0.264 1.044,-0.708 1.404,-1.332 l -5.112,-6.408 c -0.768,0.624 -1.284,1.296 -1.548,2.016 -0.264,0.696 -0.396,1.44 -0.396,2.232 v 0.18 c 0,1.2 0.336,2.124 1.008,2.772 0.672,0.624 1.584,0.936 2.736,0.936 z m 14.206,3.204 v -18.576 h 3.816 v 2.556 h 0.216 c 0.288,-0.816 0.696,-1.512 1.224,-2.088 0.552,-0.6 1.32,-0.9 2.304,-0.9 0.936,0 1.68,0.276 2.232,0.828 0.552,0.528 0.912,1.284 1.08,2.268 h 0.18 c 0.312,-0.84 0.768,-1.56 1.368,-2.16 0.624,-0.624 1.5,-0.936 2.628,-0.936 1.368,0 2.352,0.492 2.952,1.476 0.6,0.984 0.9,2.436 0.9,4.356 v 13.176 h -3.78 v -12.636 c 0,-1.08 -0.156,-1.836 -0.468,-2.268 -0.288,-0.432 -0.732,-0.648 -1.332,-0.648 -0.552,0 -1.02,0.18 -1.404,0.54 -0.36,0.36 -0.54,0.912 -0.54,1.656 v 13.356 h -3.816 v -12.636 c 0,-1.08 -0.144,-1.836 -0.432,-2.268 -0.288,-0.432 -0.732,-0.648 -1.332,-0.648 -0.576,0 -1.056,0.18 -1.44,0.54 -0.36,0.36 -0.54,0.912 -0.54,1.656 v 13.356 z m 32.314,0 c -1.776,0 -3.084,-0.468 -3.924,-1.404 -0.84,-0.936 -1.26,-2.148 -1.26,-3.636 v -9.9 h -5.4 v -3.636 h 3.672 c 0.744,0 1.272,-0.144 1.584,-0.432 0.312,-0.312 0.468,-0.852 0.468,-1.62 v -4.5 h 4.284 v 6.552 h 7.56 v 3.636 h -7.56 v 11.304 h 7.56 v 3.636 z m 34.712,0 v -25.128 h 4.716 v 21.24 h 11.124 v 3.888 z m 28.498,0.432 c -2.16,0 -4.008,-0.372 -5.544,-1.116 -1.512,-0.744 -2.748,-1.728 -3.708,-2.952 l 2.844,-2.952 c 0.936,1.08 1.944,1.884 3.024,2.412 1.104,0.504 2.28,0.756 3.528,0.756 1.44,0 2.544,-0.324 3.312,-0.972 0.768,-0.648 1.152,-1.584 1.152,-2.808 0,-1.008 -0.288,-1.764 -0.864,-2.268 -0.576,-0.528 -1.548,-0.9 -2.916,-1.116 l -2.664,-0.432 c -2.328,-0.408 -3.984,-1.248 -4.968,-2.52 -0.984,-1.296 -1.476,-2.82 -1.476,-4.572 0,-2.4 0.78,-4.236 2.34,-5.508 1.56,-1.296 3.72,-1.944 6.48,-1.944 1.968,0 3.66,0.312 5.076,0.936 1.44,0.624 2.592,1.476 3.456,2.556 l -2.772,2.952 c -0.672,-0.792 -1.476,-1.416 -2.412,-1.872 -0.936,-0.48 -2.04,-0.72 -3.312,-0.72 -2.736,0 -4.104,1.128 -4.104,3.384 0,0.96 0.288,1.692 0.864,2.196 0.576,0.504 1.56,0.876 2.952,1.116 l 2.628,0.468 c 2.184,0.408 3.804,1.212 4.86,2.412 1.056,1.2 1.584,2.736 1.584,4.608 0,1.176 -0.204,2.256 -0.612,3.24 -0.408,0.96 -1.008,1.8 -1.8,2.52 -0.792,0.696 -1.776,1.236 -2.952,1.62 -1.152,0.384 -2.484,0.576 -3.996,0.576 z m 25.546,-11.232 h -7.344 v 10.8 h -4.716 v -25.128 h 4.716 v 10.44 h 7.344 v -10.44 h 4.716 v 25.128 h -4.716 z m 9.922,10.8 v -3.528 h 5.652 v -18.072 h -5.652 v -3.528 h 15.984 v 3.528 h -5.652 v 18.072 h 5.652 v 3.528 z m 21.766,0 v -25.128 h 16.416 v 3.888 h -11.7 v 6.552 h 10.548 v 3.888 h -10.548 v 10.8 z m 31.737,-21.24 v 21.24 h -4.68 v -21.24 h -7.56 v -3.888 h 19.8 v 3.888 z m 33.02,21.24 v -25.128 h 16.416 v 3.888 h -11.7 v 6.552 h 10.548 v 3.888 h -10.548 v 10.8 z"
     fill="#ffffff"
     id="path3" />
  <rect
     x="397.5"
     y="287.38477"
     width="37"
     height="69"
     fill="#ffffff"
     stroke="#000000"
     stroke-width="3"
     id="rect4" />
  <path
     d="m 407.968,332.24875 h 5.688 v -11.304 h -6.048 v -3.636 h 6.048 v -3.024 c 0,-0.744 0.096,-1.416 0.288,-2.016 0.216,-0.624 0.54,-1.152 0.972,-1.584 0.432,-0.456 0.972,-0.804 1.62,-1.044 0.672,-0.264 1.452,-0.396 2.34,-0.396 h 6.264 v 3.636 h -6.876 v 4.428 h 6.876 v 3.636 h -6.876 v 11.304 h 6.048 v 3.636 h -16.344 z"
     fill="#000000"
     id="path4" />
  <path
     d="m 106.05,138.88475 c -1.48,0 -2.57,-0.39 -3.27,-1.17 -0.7,-0.78 -1.05,-1.79 -1.05,-3.03 v -8.25 h -4.5 v -3.03 h 3.06 c 0.62,0 1.06,-0.12 1.32,-0.36 0.26,-0.26 0.39,-0.71 0.39,-1.35 v -3.75 h 3.57 v 5.46 h 6.3 v 3.03 h -6.3 v 9.42 h 6.3 v 3.03 z m 22.638,0 c -0.94,0 -1.67,-0.23 -2.19,-0.69 -0.5,-0.48 -0.8,-1.14 -0.9,-1.98 h -0.15 c -0.28,0.96 -0.83,1.71 -1.65,2.25 -0.82,0.52 -1.83,0.78 -3.03,0.78 -1.56,0 -2.8,-0.41 -3.72,-1.23 -0.92,-0.82 -1.38,-1.96 -1.38,-3.42 0,-3.12 2.29,-4.68 6.87,-4.68 h 2.73 v -1.02 c 0,-0.98 -0.24,-1.72 -0.72,-2.22 -0.48,-0.5 -1.26,-0.75 -2.34,-0.75 -0.98,0 -1.77,0.19 -2.37,0.57 -0.6,0.38 -1.11,0.87 -1.53,1.47 l -2.19,-1.86 c 0.48,-0.86 1.25,-1.58 2.31,-2.16 1.08,-0.6 2.47,-0.9 4.17,-0.9 2.04,0 3.63,0.48 4.77,1.44 1.16,0.94 1.74,2.35 1.74,4.23 v 7.29 h 1.83 v 2.88 z m -6.63,-2.28 c 0.92,0 1.68,-0.21 2.28,-0.63 0.62,-0.44 0.93,-1.03 0.93,-1.77 v -2.07 h -2.64 c -2.1,0 -3.15,0.66 -3.15,1.98 v 0.6 c 0,0.62 0.23,1.09 0.69,1.41 0.46,0.32 1.09,0.48 1.89,0.48 z m 11.989,-13.2 h 3.84 v 2.73 h 0.21 c 0.42,-0.94 0.99,-1.69 1.71,-2.25 0.74,-0.56 1.71,-0.84 2.91,-0.84 0.88,0 1.68,0.17 2.4,0.51 0.74,0.32 1.37,0.82 1.89,1.5 0.52,0.66 0.92,1.5 1.2,2.52 0.28,1.02 0.42,2.21 0.42,3.57 0,1.36 -0.14,2.55 -0.42,3.57 -0.28,1.02 -0.68,1.87 -1.2,2.55 -0.52,0.66 -1.15,1.16 -1.89,1.5 -0.72,0.32 -1.52,0.48 -2.4,0.48 -1.2,0 -2.17,-0.28 -2.91,-0.84 -0.72,-0.56 -1.29,-1.31 -1.71,-2.25 h -0.21 v 8.73 h -3.84 z m 7.05,12.78 c 1.12,0 1.98,-0.34 2.58,-1.02 0.62,-0.68 0.93,-1.61 0.93,-2.79 v -2.46 c 0,-1.18 -0.31,-2.11 -0.93,-2.79 -0.6,-0.68 -1.46,-1.02 -2.58,-1.02 -0.88,0 -1.64,0.22 -2.28,0.66 -0.62,0.42 -0.93,1.07 -0.93,1.95 v 4.86 c 0,0.88 0.31,1.54 0.93,1.98 0.64,0.42 1.4,0.63 2.28,0.63 z m 10.938,-12.78 h 3.84 v 2.73 h 0.21 c 0.42,-0.94 0.99,-1.69 1.71,-2.25 0.74,-0.56 1.71,-0.84 2.91,-0.84 0.88,0 1.68,0.17 2.4,0.51 0.74,0.32 1.37,0.82 1.89,1.5 0.52,0.66 0.92,1.5 1.2,2.52 0.28,1.02 0.42,2.21 0.42,3.57 0,1.36 -0.14,2.55 -0.42,3.57 -0.28,1.02 -0.68,1.87 -1.2,2.55 -0.52,0.66 -1.15,1.16 -1.89,1.5 -0.72,0.32 -1.52,0.48 -2.4,0.48 -1.2,0 -2.17,-0.28 -2.91,-0.84 -0.72,-0.56 -1.29,-1.31 -1.71,-2.25 h -0.21 v 8.73 h -3.84 z m 7.05,12.78 c 1.12,0 1.98,-0.34 2.58,-1.02 0.62,-0.68 0.93,-1.61 0.93,-2.79 v -2.46 c 0,-1.18 -0.31,-2.11 -0.93,-2.79 -0.6,-0.68 -1.46,-1.02 -2.58,-1.02 -0.88,0 -1.64,0.22 -2.28,0.66 -0.62,0.42 -0.93,1.07 -0.93,1.95 v 4.86 c 0,0.88 0.31,1.54 0.93,1.98 0.64,0.42 1.4,0.63 2.28,0.63 z m 18.828,-15.18 c -0.9,0 -1.54,-0.19 -1.92,-0.57 -0.36,-0.38 -0.54,-0.84 -0.54,-1.38 v -0.72 c 0,-0.54 0.18,-1 0.54,-1.38 0.38,-0.38 1.02,-0.57 1.92,-0.57 0.9,0 1.53,0.19 1.89,0.57 0.38,0.38 0.57,0.84 0.57,1.38 v 0.72 c 0,0.54 -0.19,1 -0.57,1.38 -0.36,0.38 -0.99,0.57 -1.89,0.57 z m -7.02,14.85 h 5.1 v -9.42 h -5.1 v -3.03 h 8.94 v 12.45 h 4.74 v 3.03 h -13.68 z m 17.298,3.03 v -15.48 h 3.84 v 2.73 h 0.15 c 0.34,-0.84 0.86,-1.56 1.56,-2.16 0.72,-0.62 1.71,-0.93 2.97,-0.93 1.52,0 2.75,0.51 3.69,1.53 0.96,1 1.44,2.44 1.44,4.32 v 9.99 h -3.84 v -9.45 c 0,-2.24 -0.97,-3.36 -2.91,-3.36 -0.4,0 -0.78,0.05 -1.14,0.15 -0.36,0.1 -0.69,0.26 -0.99,0.48 -0.28,0.2 -0.51,0.45 -0.69,0.75 -0.16,0.3 -0.24,0.66 -0.24,1.08 v 10.35 z m 31.669,-0.81 c 0,2.26 -0.64,4.02 -1.92,5.28 -1.26,1.26 -3.14,1.89 -5.64,1.89 -1.46,0 -2.68,-0.21 -3.66,-0.63 -0.98,-0.42 -1.78,-0.95 -2.4,-1.59 l 2.07,-2.46 c 1.04,1.08 2.35,1.62 3.93,1.62 1.28,0 2.23,-0.33 2.85,-0.99 0.62,-0.66 0.93,-1.59 0.93,-2.79 v -2.94 h -0.21 c -0.42,0.94 -1,1.7 -1.74,2.28 -0.72,0.56 -1.68,0.84 -2.88,0.84 -1.78,0 -3.21,-0.66 -4.29,-1.98 -1.08,-1.32 -1.62,-3.25 -1.62,-5.79 0,-2.56 0.54,-4.49 1.62,-5.79 1.08,-1.32 2.51,-1.98 4.29,-1.98 1.2,0 2.16,0.28 2.88,0.84 0.74,0.56 1.32,1.31 1.74,2.25 h 0.21 v -2.73 h 3.84 z m -7.05,-2.58 c 0.44,0 0.85,-0.05 1.23,-0.15 0.4,-0.12 0.74,-0.28 1.02,-0.48 0.3,-0.22 0.53,-0.49 0.69,-0.81 0.18,-0.34 0.27,-0.73 0.27,-1.17 v -4.17 c 0,-0.44 -0.09,-0.82 -0.27,-1.14 -0.16,-0.34 -0.39,-0.61 -0.69,-0.81 -0.28,-0.22 -0.62,-0.38 -1.02,-0.48 -0.38,-0.12 -0.79,-0.18 -1.23,-0.18 -1.12,0 -1.99,0.34 -2.61,1.02 -0.6,0.66 -0.9,1.59 -0.9,2.79 v 1.77 c 0,1.18 0.3,2.11 0.9,2.79 0.62,0.68 1.49,1.02 2.61,1.02 z m 13.458,-3.87 v -3.75 h 9.3 v 3.75 z m 23.688,7.26 c -1.48,0 -2.57,-0.39 -3.27,-1.17 -0.7,-0.78 -1.05,-1.79 -1.05,-3.03 v -8.25 h -4.5 v -3.03 h 3.06 c 0.62,0 1.06,-0.12 1.32,-0.36 0.26,-0.26 0.39,-0.71 0.39,-1.35 v -3.75 h 3.57 v 5.46 h 6.3 v 3.03 h -6.3 v 9.42 h 6.3 v 3.03 z m 17.299,0.36 c -1.24,0 -2.34,-0.19 -3.3,-0.57 -0.96,-0.38 -1.77,-0.92 -2.43,-1.62 -0.64,-0.7 -1.13,-1.54 -1.47,-2.52 -0.34,-1 -0.51,-2.12 -0.51,-3.36 0,-1.26 0.17,-2.39 0.51,-3.39 0.36,-1 0.86,-1.85 1.5,-2.55 0.64,-0.7 1.41,-1.24 2.31,-1.62 0.92,-0.38 1.95,-0.57 3.09,-0.57 1.12,0 2.13,0.19 3.03,0.57 0.9,0.36 1.66,0.88 2.28,1.56 0.64,0.68 1.13,1.5 1.47,2.46 0.34,0.96 0.51,2.02 0.51,3.18 v 1.26 h -10.86 v 0.39 c 0,1.12 0.35,2.03 1.05,2.73 0.7,0.68 1.68,1.02 2.94,1.02 0.96,0 1.78,-0.19 2.46,-0.57 0.7,-0.4 1.28,-0.92 1.74,-1.56 l 2.19,2.19 c -0.56,0.82 -1.38,1.52 -2.46,2.1 -1.06,0.58 -2.41,0.87 -4.05,0.87 z m -0.27,-13.38 c -1.08,0 -1.95,0.34 -2.61,1.02 -0.66,0.68 -0.99,1.58 -0.99,2.7 v 0.21 h 7.02 v -0.27 c 0,-1.12 -0.31,-2.01 -0.93,-2.67 -0.6,-0.66 -1.43,-0.99 -2.49,-0.99 z m 11.148,9.99 h 3.84 v -9.42 h -3.84 v -3.03 h 7.68 v 4.23 h 0.24 c 0.14,-0.54 0.33,-1.06 0.57,-1.56 0.26,-0.52 0.58,-0.97 0.96,-1.35 0.4,-0.4 0.88,-0.72 1.44,-0.96 0.56,-0.24 1.23,-0.36 2.01,-0.36 h 1.68 v 3.6 h -3.18 c -1.16,0 -2.07,0.34 -2.73,1.02 -0.66,0.68 -0.99,1.55 -0.99,2.61 v 5.22 h 5.37 v 3.03 h -13.05 z m 16.848,3.03 v -15.48 h 3.18 v 2.13 h 0.18 c 0.24,-0.68 0.58,-1.26 1.02,-1.74 0.46,-0.5 1.1,-0.75 1.92,-0.75 0.78,0 1.4,0.23 1.86,0.69 0.46,0.44 0.76,1.07 0.9,1.89 h 0.15 c 0.26,-0.7 0.64,-1.3 1.14,-1.8 0.52,-0.52 1.25,-0.78 2.19,-0.78 1.14,0 1.96,0.41 2.46,1.23 0.5,0.82 0.75,2.03 0.75,3.63 v 10.98 h -3.15 v -10.53 c 0,-0.9 -0.13,-1.53 -0.39,-1.89 -0.24,-0.36 -0.61,-0.54 -1.11,-0.54 -0.46,0 -0.85,0.15 -1.17,0.45 -0.3,0.3 -0.45,0.76 -0.45,1.38 v 11.13 h -3.18 v -10.53 c 0,-0.9 -0.12,-1.53 -0.36,-1.89 -0.24,-0.36 -0.61,-0.54 -1.11,-0.54 -0.48,0 -0.88,0.15 -1.2,0.45 -0.3,0.3 -0.45,0.76 -0.45,1.38 v 11.13 z m 21.228,-7.26 v -3.75 h 9.3 v 3.75 z m 14.749,7.26 v -15.48 h 3.18 v 2.13 h 0.18 c 0.24,-0.68 0.58,-1.26 1.02,-1.74 0.46,-0.5 1.1,-0.75 1.92,-0.75 0.78,0 1.4,0.23 1.86,0.69 0.46,0.44 0.76,1.07 0.9,1.89 h 0.15 c 0.26,-0.7 0.64,-1.3 1.14,-1.8 0.52,-0.52 1.25,-0.78 2.19,-0.78 1.14,0 1.96,0.41 2.46,1.23 0.5,0.82 0.75,2.03 0.75,3.63 v 10.98 h -3.15 v -10.53 c 0,-0.9 -0.13,-1.53 -0.39,-1.89 -0.24,-0.36 -0.61,-0.54 -1.11,-0.54 -0.46,0 -0.85,0.15 -1.17,0.45 -0.3,0.3 -0.45,0.76 -0.45,1.38 v 11.13 h -3.18 v -10.53 c 0,-0.9 -0.12,-1.53 -0.36,-1.89 -0.24,-0.36 -0.61,-0.54 -1.11,-0.54 -0.48,0 -0.88,0.15 -1.2,0.45 -0.3,0.3 -0.45,0.76 -0.45,1.38 v 11.13 z m 25.818,0.36 c -1.7,0 -3.17,-0.26 -4.41,-0.78 -1.24,-0.54 -2.21,-1.26 -2.91,-2.16 l 2.25,-2.04 c 0.64,0.7 1.37,1.24 2.19,1.62 0.84,0.38 1.81,0.57 2.91,0.57 0.96,0 1.73,-0.16 2.31,-0.48 0.58,-0.32 0.87,-0.81 0.87,-1.47 0,-0.56 -0.2,-0.94 -0.6,-1.14 -0.38,-0.2 -0.89,-0.35 -1.53,-0.45 l -2.49,-0.39 c -0.64,-0.1 -1.27,-0.24 -1.89,-0.42 -0.6,-0.2 -1.14,-0.47 -1.62,-0.81 -0.46,-0.34 -0.83,-0.77 -1.11,-1.29 -0.28,-0.54 -0.42,-1.19 -0.42,-1.95 0,-1.62 0.6,-2.86 1.8,-3.72 1.22,-0.86 2.89,-1.29 5.01,-1.29 1.5,0 2.77,0.21 3.81,0.63 1.06,0.42 1.93,1.01 2.61,1.77 l -2.01,2.22 c -0.44,-0.48 -1.03,-0.9 -1.77,-1.26 -0.72,-0.38 -1.64,-0.57 -2.76,-0.57 -1.96,0 -2.94,0.61 -2.94,1.83 0,0.56 0.2,0.95 0.6,1.17 0.4,0.2 0.92,0.35 1.56,0.45 l 2.46,0.39 c 0.66,0.1 1.29,0.25 1.89,0.45 0.62,0.18 1.16,0.44 1.62,0.78 0.48,0.34 0.86,0.77 1.14,1.29 0.28,0.52 0.42,1.16 0.42,1.92 0,1.6 -0.62,2.86 -1.86,3.78 -1.22,0.9 -2.93,1.35 -5.13,1.35 z"
     fill="#000000"
     id="path5" />
  <path
     d="m 389.303,129.55475 c 0,-1.46 0.16,-2.86 0.48,-4.2 0.34,-1.36 0.79,-2.62 1.35,-3.78 0.58,-1.16 1.25,-2.2 2.01,-3.12 0.76,-0.94 1.56,-1.73 2.4,-2.37 h 3.84 c -0.9,0.64 -1.76,1.39 -2.58,2.25 -0.82,0.86 -1.54,1.81 -2.16,2.85 -0.62,1.02 -1.12,2.12 -1.5,3.3 -0.36,1.16 -0.54,2.37 -0.54,3.63 v 2.88 c 0,1.26 0.18,2.48 0.54,3.66 0.38,1.16 0.88,2.26 1.5,3.3 0.62,1.02 1.34,1.96 2.16,2.82 0.82,0.86 1.68,1.61 2.58,2.25 h -3.84 c -0.84,-0.62 -1.64,-1.4 -2.4,-2.34 -0.76,-0.94 -1.43,-1.99 -2.01,-3.15 -0.56,-1.16 -1.01,-2.41 -1.35,-3.75 -0.32,-1.36 -0.48,-2.77 -0.48,-4.23 z m 28.998,9.33 h -14.76 v -3.66 l 6.72,-5.73 c 1.12,-0.96 1.95,-1.83 2.49,-2.61 0.54,-0.8 0.81,-1.65 0.81,-2.55 v -0.3 c 0,-1 -0.28,-1.76 -0.84,-2.28 -0.56,-0.52 -1.34,-0.78 -2.34,-0.78 -1.1,0 -1.94,0.3 -2.52,0.9 -0.58,0.6 -1,1.34 -1.26,2.22 l -3.42,-1.29 c 0.22,-0.68 0.53,-1.33 0.93,-1.95 0.42,-0.64 0.93,-1.2 1.53,-1.68 0.62,-0.48 1.35,-0.86 2.19,-1.14 0.84,-0.3 1.8,-0.45 2.88,-0.45 1.12,0 2.11,0.16 2.97,0.48 0.88,0.3 1.62,0.73 2.22,1.29 0.6,0.54 1.05,1.19 1.35,1.95 0.32,0.76 0.48,1.59 0.48,2.49 0,0.86 -0.14,1.65 -0.42,2.37 -0.26,0.72 -0.63,1.41 -1.11,2.07 -0.48,0.64 -1.05,1.26 -1.71,1.86 -0.64,0.6 -1.34,1.2 -2.1,1.8 l -4.56,3.69 h 10.47 z m 10.488,0.36 c -1.36,0 -2.54,-0.24 -3.54,-0.72 -1,-0.5 -1.83,-1.21 -2.49,-2.13 -0.64,-0.92 -1.12,-2.05 -1.44,-3.39 -0.3,-1.34 -0.45,-2.87 -0.45,-4.59 0,-1.7 0.15,-3.22 0.45,-4.56 0.32,-1.36 0.8,-2.5 1.44,-3.42 0.66,-0.92 1.49,-1.62 2.49,-2.1 1,-0.5 2.18,-0.75 3.54,-0.75 2.72,0 4.72,0.95 6,2.85 1.28,1.9 1.92,4.56 1.92,7.98 0,3.42 -0.64,6.08 -1.92,7.98 -1.28,1.9 -3.28,2.85 -6,2.85 z m 0,-18.63 c -1.48,0 -2.53,0.53 -3.15,1.59 -0.6,1.06 -0.9,2.51 -0.9,4.35 v 3.57 0.81 l 7.47,-8.13 c -0.28,-0.7 -0.7,-1.24 -1.26,-1.62 -0.56,-0.38 -1.28,-0.57 -2.16,-0.57 z m 0,15.6 c 1.48,0 2.52,-0.53 3.12,-1.59 0.62,-1.06 0.93,-2.51 0.93,-4.35 v -3.57 -0.81 l -7.47,8.13 c 0.28,0.7 0.7,1.24 1.26,1.62 0.56,0.38 1.28,0.57 2.16,0.57 z m 17.988,3.03 c -1.36,0 -2.54,-0.24 -3.54,-0.72 -1,-0.5 -1.83,-1.21 -2.49,-2.13 -0.64,-0.92 -1.12,-2.05 -1.44,-3.39 -0.3,-1.34 -0.45,-2.87 -0.45,-4.59 0,-1.7 0.15,-3.22 0.45,-4.56 0.32,-1.36 0.8,-2.5 1.44,-3.42 0.66,-0.92 1.49,-1.62 2.49,-2.1 1,-0.5 2.18,-0.75 3.54,-0.75 2.72,0 4.72,0.95 6,2.85 1.28,1.9 1.92,4.56 1.92,7.98 0,3.42 -0.64,6.08 -1.92,7.98 -1.28,1.9 -3.28,2.85 -6,2.85 z m 0,-18.63 c -1.48,0 -2.53,0.53 -3.15,1.59 -0.6,1.06 -0.9,2.51 -0.9,4.35 v 3.57 0.81 l 7.47,-8.13 c -0.28,-0.7 -0.7,-1.24 -1.26,-1.62 -0.56,-0.38 -1.28,-0.57 -2.16,-0.57 z m 0,15.6 c 1.48,0 2.52,-0.53 3.12,-1.59 0.62,-1.06 0.93,-2.51 0.93,-4.35 v -3.57 -0.81 l -7.47,8.13 c 0.28,0.7 0.7,1.24 1.26,1.62 0.56,0.38 1.28,0.57 2.16,0.57 z m 10.099,2.67 v -15.48 h 3.18 v 2.13 h 0.18 c 0.24,-0.68 0.58,-1.26 1.02,-1.74 0.46,-0.5 1.1,-0.75 1.92,-0.75 0.78,0 1.4,0.23 1.86,0.69 0.46,0.44 0.76,1.07 0.9,1.89 h 0.15 c 0.26,-0.7 0.64,-1.3 1.14,-1.8 0.52,-0.52 1.25,-0.78 2.19,-0.78 1.14,0 1.96,0.41 2.46,1.23 0.5,0.82 0.75,2.03 0.75,3.63 v 10.98 h -3.15 v -10.53 c 0,-0.9 -0.13,-1.53 -0.39,-1.89 -0.24,-0.36 -0.61,-0.54 -1.11,-0.54 -0.46,0 -0.85,0.15 -1.17,0.45 -0.3,0.3 -0.45,0.76 -0.45,1.38 v 11.13 h -3.18 v -10.53 c 0,-0.9 -0.12,-1.53 -0.36,-1.89 -0.24,-0.36 -0.61,-0.54 -1.11,-0.54 -0.48,0 -0.88,0.15 -1.2,0.45 -0.3,0.3 -0.45,0.76 -0.45,1.38 v 11.13 z m 25.818,0.36 c -1.7,0 -3.17,-0.26 -4.41,-0.78 -1.24,-0.54 -2.21,-1.26 -2.91,-2.16 l 2.25,-2.04 c 0.64,0.7 1.37,1.24 2.19,1.62 0.84,0.38 1.81,0.57 2.91,0.57 0.96,0 1.73,-0.16 2.31,-0.48 0.58,-0.32 0.87,-0.81 0.87,-1.47 0,-0.56 -0.2,-0.94 -0.6,-1.14 -0.38,-0.2 -0.89,-0.35 -1.53,-0.45 l -2.49,-0.39 c -0.64,-0.1 -1.27,-0.24 -1.89,-0.42 -0.6,-0.2 -1.14,-0.47 -1.62,-0.81 -0.46,-0.34 -0.83,-0.77 -1.11,-1.29 -0.28,-0.54 -0.42,-1.19 -0.42,-1.95 0,-1.62 0.6,-2.86 1.8,-3.72 1.22,-0.86 2.89,-1.29 5.01,-1.29 1.5,0 2.77,0.21 3.81,0.63 1.06,0.42 1.93,1.01 2.61,1.77 l -2.01,2.22 c -0.44,-0.48 -1.03,-0.9 -1.77,-1.26 -0.72,-0.38 -1.64,-0.57 -2.76,-0.57 -1.96,0 -2.94,0.61 -2.94,1.83 0,0.56 0.2,0.95 0.6,1.17 0.4,0.2 0.92,0.35 1.56,0.45 l 2.46,0.39 c 0.66,0.1 1.29,0.25 1.89,0.45 0.62,0.18 1.16,0.44 1.62,0.78 0.48,0.34 0.86,0.77 1.14,1.29 0.28,0.52 0.42,1.16 0.42,1.92 0,1.6 -0.62,2.86 -1.86,3.78 -1.22,0.9 -2.93,1.35 -5.13,1.35 z m 21.558,-9.69 c 0,1.46 -0.17,2.87 -0.51,4.23 -0.32,1.34 -0.77,2.59 -1.35,3.75 -0.56,1.16 -1.22,2.21 -1.98,3.15 -0.76,0.94 -1.56,1.72 -2.4,2.34 h -3.84 c 0.9,-0.64 1.76,-1.39 2.58,-2.25 0.82,-0.86 1.54,-1.8 2.16,-2.82 0.62,-1.04 1.11,-2.14 1.47,-3.3 0.38,-1.18 0.57,-2.4 0.57,-3.66 v -2.88 c 0,-1.26 -0.19,-2.47 -0.57,-3.63 -0.36,-1.18 -0.85,-2.28 -1.47,-3.3 -0.62,-1.04 -1.34,-1.99 -2.16,-2.85 -0.82,-0.86 -1.68,-1.61 -2.58,-2.25 h 3.84 c 0.84,0.64 1.64,1.43 2.4,2.37 0.76,0.92 1.42,1.96 1.98,3.12 0.58,1.16 1.03,2.42 1.35,3.78 0.34,1.34 0.51,2.74 0.51,4.2 z"
     fill="#969696"
     id="path6" />
  <path
     d="m 108.432,91.884754 c -2.128,0 -3.733,-0.541 -4.816,-1.624 -1.083,-1.12 -1.624,-2.688 -1.624,-4.704 v -17.808 h -4.536 v -4.984 h 2.464 c 1.008,0 1.699,-0.224 2.072,-0.672 0.411,-0.448 0.616,-1.176 0.616,-2.184 v -5.096 h 5.488 v 7.952 h 6.104 v 4.984 h -6.104 v 19.152 h 5.656 v 4.984 z m 33.725,0 c -1.605,0 -2.837,-0.448 -3.696,-1.344 -0.859,-0.933 -1.381,-2.109 -1.568,-3.528 h -0.28 c -0.56,1.829 -1.587,3.211 -3.08,4.144 -1.493,0.933 -3.304,1.4 -5.432,1.4 -3.024,0 -5.357,-0.784 -7,-2.352 -1.605,-1.568 -2.408,-3.677 -2.408,-6.328 0,-2.912 1.045,-5.096 3.136,-6.552 2.128,-1.456 5.227,-2.184 9.296,-2.184 h 5.264 v -2.464 c 0,-1.792 -0.485,-3.173 -1.456,-4.144 -0.971,-0.971 -2.483,-1.456 -4.536,-1.456 -1.717,0 -3.117,0.373 -4.2,1.12 -1.083,0.747 -1.997,1.699 -2.744,2.856 l -3.64,-3.304 c 0.971,-1.643 2.333,-2.987 4.088,-4.032 1.755,-1.083 4.051,-1.624 6.888,-1.624 3.771,0 6.664,0.877 8.68,2.632 2.016,1.755 3.024,4.275 3.024,7.56 v 14.616 h 3.08 v 4.984 z m -12.32,-3.976 c 1.904,0 3.472,-0.411 4.704,-1.232 1.232,-0.859 1.848,-1.997 1.848,-3.416 v -4.2 h -5.152 c -4.219,0 -6.328,1.307 -6.328,3.92 v 1.008 c 0,1.307 0.429,2.296 1.288,2.968 0.896,0.635 2.109,0.952 3.64,0.952 z m 21.719,-25.144 h 6.104 v 4.816 h 0.28 c 0.634,-1.755 1.661,-3.099 3.08,-4.032 1.456,-0.971 3.154,-1.456 5.096,-1.456 3.696,0 6.552,1.344 8.568,4.032 2.016,2.651 3.024,6.384 3.024,11.2 0,4.816 -1.008,8.568 -3.024,11.256 -2.016,2.651 -4.872,3.976 -8.568,3.976 -1.942,0 -3.64,-0.485 -5.096,-1.456 -1.419,-0.971 -2.446,-2.315 -3.08,-4.032 h -0.28 v 16.015996 h -6.104 z m 12.712,24.528 c 2.128,0 3.826,-0.672 5.096,-2.016 1.269,-1.381 1.904,-3.192 1.904,-5.432 v -5.04 c 0,-2.24 -0.635,-4.032 -1.904,-5.376 -1.27,-1.381 -2.968,-2.072 -5.096,-2.072 -1.867,0 -3.435,0.467 -4.704,1.4 -1.27,0.896 -1.904,2.091 -1.904,3.584 v 9.968 c 0,1.493 0.634,2.707 1.904,3.64 1.269,0.896 2.837,1.344 4.704,1.344 z"
     fill="#000000"
     id="path7" />
  <path
     d="m 990,170.38475 -15,-8.66 v 17.32 z m -381,19.5 v -19.5 h -3 v 19.5 z m -1.5,-18 h 369 v -3 h -369 z m 1.5,-1.5 v -19.5 h -3 v 19.5 z"
     fill="#000000"
     id="path8" />
  <rect
     x="990"
     y="150.88475"
     width="3"
     height="39"
     fill="#000000"
     id="rect8" />
  <rect
     x="606"
     y="201.88475"
     width="544"
     height="72"
     fill="#000000"
     id="rect9" />
  <path
     d="m 628.56,253.31675 c -1.128,0 -2.124,-0.192 -2.988,-0.576 -0.84,-0.384 -1.56,-0.9 -2.16,-1.548 -0.6,-0.648 -1.056,-1.404 -1.368,-2.268 -0.288,-0.864 -0.432,-1.788 -0.432,-2.772 0,-1.44 0.348,-2.76 1.044,-3.96 0.696,-1.2 1.812,-2.22 3.348,-3.06 -0.768,-1.008 -1.356,-1.932 -1.764,-2.772 -0.384,-0.864 -0.576,-1.788 -0.576,-2.772 0,-0.912 0.168,-1.752 0.504,-2.52 0.36,-0.768 0.84,-1.428 1.44,-1.98 0.624,-0.552 1.356,-0.984 2.196,-1.296 0.84,-0.312 1.752,-0.468 2.736,-0.468 0.864,0 1.656,0.12 2.376,0.36 0.72,0.24 1.356,0.564 1.908,0.972 0.576,0.384 1.056,0.84 1.44,1.368 0.384,0.504 0.672,1.032 0.864,1.584 l -3.276,1.728 c -0.264,-0.768 -0.696,-1.368 -1.296,-1.8 -0.576,-0.456 -1.248,-0.684 -2.016,-0.684 -0.84,0 -1.512,0.252 -2.016,0.756 -0.504,0.504 -0.756,1.14 -0.756,1.908 v 0.216 c 0,0.36 0.048,0.696 0.144,1.008 0.096,0.312 0.252,0.66 0.468,1.044 0.24,0.384 0.54,0.816 0.9,1.296 0.36,0.48 0.816,1.056 1.368,1.728 l 2.376,3.024 2.016,2.808 h 0.216 c 0.072,-0.432 0.132,-0.9 0.18,-1.404 0.048,-0.504 0.084,-1.02 0.108,-1.548 0.048,-0.552 0.072,-1.08 0.072,-1.584 0.024,-0.528 0.036,-1.02 0.036,-1.476 h 6.012 v 3.492 h -2.556 c -0.144,0.888 -0.324,1.752 -0.54,2.592 -0.192,0.816 -0.492,1.692 -0.9,2.628 l 4.608,5.544 h -5.004 l -2.952,-3.564 h -0.252 c -0.216,1.224 -0.816,2.196 -1.8,2.916 -0.96,0.72 -2.196,1.08 -3.708,1.08 z m 1.152,-3.636 c 0.696,0 1.332,-0.132 1.908,-0.396 0.576,-0.264 1.044,-0.708 1.404,-1.332 l -5.112,-6.408 c -0.768,0.624 -1.284,1.296 -1.548,2.016 -0.264,0.696 -0.396,1.44 -0.396,2.232 v 0.18 c 0,1.2 0.336,2.124 1.008,2.772 0.672,0.624 1.584,0.936 2.736,0.936 z m 14.206,3.204 v -18.576 h 3.816 v 2.556 h 0.216 c 0.288,-0.816 0.696,-1.512 1.224,-2.088 0.552,-0.6 1.32,-0.9 2.304,-0.9 0.936,0 1.68,0.276 2.232,0.828 0.552,0.528 0.912,1.284 1.08,2.268 h 0.18 c 0.312,-0.84 0.768,-1.56 1.368,-2.16 0.624,-0.624 1.5,-0.936 2.628,-0.936 1.368,0 2.352,0.492 2.952,1.476 0.6,0.984 0.9,2.436 0.9,4.356 v 13.176 h -3.78 v -12.636 c 0,-1.08 -0.156,-1.836 -0.468,-2.268 -0.288,-0.432 -0.732,-0.648 -1.332,-0.648 -0.552,0 -1.02,0.18 -1.404,0.54 -0.36,0.36 -0.54,0.912 -0.54,1.656 v 13.356 h -3.816 v -12.636 c 0,-1.08 -0.144,-1.836 -0.432,-2.268 -0.288,-0.432 -0.732,-0.648 -1.332,-0.648 -0.576,0 -1.056,0.18 -1.44,0.54 -0.36,0.36 -0.54,0.912 -0.54,1.656 v 13.356 z m 32.314,0 c -1.776,0 -3.084,-0.468 -3.924,-1.404 -0.84,-0.936 -1.26,-2.148 -1.26,-3.636 v -9.9 h -5.4 v -3.636 h 3.672 c 0.744,0 1.272,-0.144 1.584,-0.432 0.312,-0.312 0.468,-0.852 0.468,-1.62 v -4.5 h 4.284 v 6.552 h 7.56 v 3.636 h -7.56 v 11.304 h 7.56 v 3.636 z m 34.712,0 v -25.128 h 4.716 v 21.24 h 11.124 v 3.888 z m 28.498,0.432 c -2.16,0 -4.008,-0.372 -5.544,-1.116 -1.512,-0.744 -2.748,-1.728 -3.708,-2.952 l 2.844,-2.952 c 0.936,1.08 1.944,1.884 3.024,2.412 1.104,0.504 2.28,0.756 3.528,0.756 1.44,0 2.544,-0.324 3.312,-0.972 0.768,-0.648 1.152,-1.584 1.152,-2.808 0,-1.008 -0.288,-1.764 -0.864,-2.268 -0.576,-0.528 -1.548,-0.9 -2.916,-1.116 l -2.664,-0.432 c -2.328,-0.408 -3.984,-1.248 -4.968,-2.52 -0.984,-1.296 -1.476,-2.82 -1.476,-4.572 0,-2.4 0.78,-4.236 2.34,-5.508 1.56,-1.296 3.72,-1.944 6.48,-1.944 1.968,0 3.66,0.312 5.076,0.936 1.44,0.624 2.592,1.476 3.456,2.556 l -2.772,2.952 c -0.672,-0.792 -1.476,-1.416 -2.412,-1.872 -0.936,-0.48 -2.04,-0.72 -3.312,-0.72 -2.736,0 -4.104,1.128 -4.104,3.384 0,0.96 0.288,1.692 0.864,2.196 0.576,0.504 1.56,0.876 2.952,1.116 l 2.628,0.468 c 2.184,0.408 3.804,1.212 4.86,2.412 1.056,1.2 1.584,2.736 1.584,4.608 0,1.176 -0.204,2.256 -0.612,3.24 -0.408,0.96 -1.008,1.8 -1.8,2.52 -0.792,0.696 -1.776,1.236 -2.952,1.62 -1.152,0.384 -2.484,0.576 -3.996,0.576 z m 25.546,-11.232 h -7.344 v 10.8 h -4.716 v -25.128 h 4.716 v 10.44 h 7.344 v -10.44 h 4.716 v 25.128 h -4.716 z m 9.922,10.8 v -3.528 h 5.652 v -18.072 h -5.652 v -3.528 h 15.984 v 3.528 h -5.652 v 18.072 h 5.652 v 3.528 z m 21.766,0 v -25.128 h 16.416 v 3.888 h -11.7 v 6.552 h 10.548 v 3.888 h -10.548 v 10.8 z m 31.737,-21.24 v 21.24 h -4.68 v -21.24 h -7.56 v -3.888 h 19.8 v 3.888 z m 33.02,21.24 v -25.128 h 16.416 v 3.888 h -11.7 v 6.552 h 10.548 v 3.888 h -10.548 v 10.8 z"
     fill="#ffffff"
     id="path9" />
  <rect
     x="991.5"
     y="287.38477"
     width="156"
     height="69"
     fill="#ffffff"
     stroke="#000000"
     stroke-width="3"
     id="rect10" />
  <path
     d="m 1007.84,335.88475 v -25.128 h 4.72 v 21.24 h 11.12 v 3.888 z m 28.5,0.432 c -2.16,0 -4.01,-0.372 -5.54,-1.116 -1.52,-0.744 -2.75,-1.728 -3.71,-2.952 l 2.84,-2.952 c 0.94,1.08 1.95,1.884 3.03,2.412 1.1,0.504 2.28,0.756 3.52,0.756 1.44,0 2.55,-0.324 3.32,-0.972 0.76,-0.648 1.15,-1.584 1.15,-2.808 0,-1.008 -0.29,-1.764 -0.87,-2.268 -0.57,-0.528 -1.54,-0.9 -2.91,-1.116 l -2.67,-0.432 c -2.32,-0.408 -3.98,-1.248 -4.96,-2.52 -0.99,-1.296 -1.48,-2.82 -1.48,-4.572 0,-2.4 0.78,-4.236 2.34,-5.508 1.56,-1.296 3.72,-1.944 6.48,-1.944 1.97,0 3.66,0.312 5.08,0.936 1.44,0.624 2.59,1.476 3.45,2.556 l -2.77,2.952 c -0.67,-0.792 -1.48,-1.416 -2.41,-1.872 -0.94,-0.48 -2.04,-0.72 -3.31,-0.72 -2.74,0 -4.11,1.128 -4.11,3.384 0,0.96 0.29,1.692 0.87,2.196 0.57,0.504 1.56,0.876 2.95,1.116 l 2.63,0.468 c 2.18,0.408 3.8,1.212 4.86,2.412 1.05,1.2 1.58,2.736 1.58,4.608 0,1.176 -0.2,2.256 -0.61,3.24 -0.41,0.96 -1.01,1.8 -1.8,2.52 -0.79,0.696 -1.78,1.236 -2.95,1.62 -1.16,0.384 -2.49,0.576 -4,0.576 z m 25.55,-11.232 h -7.35 v 10.8 h -4.71 v -25.128 h 4.71 v 10.44 h 7.35 v -10.44 h 4.71 v 25.128 h -4.71 z m 9.92,10.8 v -3.528 h 5.65 v -18.072 h -5.65 v -3.528 h 15.98 v 3.528 h -5.65 v 18.072 h 5.65 v 3.528 z m 21.76,0 v -25.128 h 16.42 v 3.888 h -11.7 v 6.552 h 10.55 v 3.888 h -10.55 v 10.8 z m 31.74,-21.24 v 21.24 h -4.68 v -21.24 h -7.56 v -3.888 h 19.8 v 3.888 z"
     fill="#000000"
     id="path10" />
  <path
     d="m 616.05,138.88475 c -1.48,0 -2.57,-0.39 -3.27,-1.17 -0.7,-0.78 -1.05,-1.79 -1.05,-3.03 v -8.25 h -4.5 v -3.03 h 3.06 c 0.62,0 1.06,-0.12 1.32,-0.36 0.26,-0.26 0.39,-0.71 0.39,-1.35 v -3.75 h 3.57 v 5.46 h 6.3 v 3.03 h -6.3 v 9.42 h 6.3 v 3.03 z m 22.638,0 c -0.94,0 -1.67,-0.23 -2.19,-0.69 -0.5,-0.48 -0.8,-1.14 -0.9,-1.98 h -0.15 c -0.28,0.96 -0.83,1.71 -1.65,2.25 -0.82,0.52 -1.83,0.78 -3.03,0.78 -1.56,0 -2.8,-0.41 -3.72,-1.23 -0.92,-0.82 -1.38,-1.96 -1.38,-3.42 0,-3.12 2.29,-4.68 6.87,-4.68 h 2.73 v -1.02 c 0,-0.98 -0.24,-1.72 -0.72,-2.22 -0.48,-0.5 -1.26,-0.75 -2.34,-0.75 -0.98,0 -1.77,0.19 -2.37,0.57 -0.6,0.38 -1.11,0.87 -1.53,1.47 l -2.19,-1.86 c 0.48,-0.86 1.25,-1.58 2.31,-2.16 1.08,-0.6 2.47,-0.9 4.17,-0.9 2.04,0 3.63,0.48 4.77,1.44 1.16,0.94 1.74,2.35 1.74,4.23 v 7.29 h 1.83 v 2.88 z m -6.63,-2.28 c 0.92,0 1.68,-0.21 2.28,-0.63 0.62,-0.44 0.93,-1.03 0.93,-1.77 v -2.07 h -2.64 c -2.1,0 -3.15,0.66 -3.15,1.98 v 0.6 c 0,0.62 0.23,1.09 0.69,1.41 0.46,0.32 1.09,0.48 1.89,0.48 z m 11.989,-13.2 h 3.84 v 2.73 h 0.21 c 0.42,-0.94 0.99,-1.69 1.71,-2.25 0.74,-0.56 1.71,-0.84 2.91,-0.84 0.88,0 1.68,0.17 2.4,0.51 0.74,0.32 1.37,0.82 1.89,1.5 0.52,0.66 0.92,1.5 1.2,2.52 0.28,1.02 0.42,2.21 0.42,3.57 0,1.36 -0.14,2.55 -0.42,3.57 -0.28,1.02 -0.68,1.87 -1.2,2.55 -0.52,0.66 -1.15,1.16 -1.89,1.5 -0.72,0.32 -1.52,0.48 -2.4,0.48 -1.2,0 -2.17,-0.28 -2.91,-0.84 -0.72,-0.56 -1.29,-1.31 -1.71,-2.25 h -0.21 v 8.73 h -3.84 z m 7.05,12.78 c 1.12,0 1.98,-0.34 2.58,-1.02 0.62,-0.68 0.93,-1.61 0.93,-2.79 v -2.46 c 0,-1.18 -0.31,-2.11 -0.93,-2.79 -0.6,-0.68 -1.46,-1.02 -2.58,-1.02 -0.88,0 -1.64,0.22 -2.28,0.66 -0.62,0.42 -0.93,1.07 -0.93,1.95 v 4.86 c 0,0.88 0.31,1.54 0.93,1.98 0.64,0.42 1.4,0.63 2.28,0.63 z m 10.938,-12.78 h 3.84 v 2.73 h 0.21 c 0.42,-0.94 0.99,-1.69 1.71,-2.25 0.74,-0.56 1.71,-0.84 2.91,-0.84 0.88,0 1.68,0.17 2.4,0.51 0.74,0.32 1.37,0.82 1.89,1.5 0.52,0.66 0.92,1.5 1.2,2.52 0.28,1.02 0.42,2.21 0.42,3.57 0,1.36 -0.14,2.55 -0.42,3.57 -0.28,1.02 -0.68,1.87 -1.2,2.55 -0.52,0.66 -1.15,1.16 -1.89,1.5 -0.72,0.32 -1.52,0.48 -2.4,0.48 -1.2,0 -2.17,-0.28 -2.91,-0.84 -0.72,-0.56 -1.29,-1.31 -1.71,-2.25 h -0.21 v 8.73 h -3.84 z m 7.05,12.78 c 1.12,0 1.98,-0.34 2.58,-1.02 0.62,-0.68 0.93,-1.61 0.93,-2.79 v -2.46 c 0,-1.18 -0.31,-2.11 -0.93,-2.79 -0.6,-0.68 -1.46,-1.02 -2.58,-1.02 -0.88,0 -1.64,0.22 -2.28,0.66 -0.62,0.42 -0.93,1.07 -0.93,1.95 v 4.86 c 0,0.88 0.31,1.54 0.93,1.98 0.64,0.42 1.4,0.63 2.28,0.63 z m 18.828,-15.18 c -0.9,0 -1.54,-0.19 -1.92,-0.57 -0.36,-0.38 -0.54,-0.84 -0.54,-1.38 v -0.72 c 0,-0.54 0.18,-1 0.54,-1.38 0.38,-0.38 1.02,-0.57 1.92,-0.57 0.9,0 1.53,0.19 1.89,0.57 0.38,0.38 0.57,0.84 0.57,1.38 v 0.72 c 0,0.54 -0.19,1 -0.57,1.38 -0.36,0.38 -0.99,0.57 -1.89,0.57 z m -7.02,14.85 h 5.1 v -9.42 h -5.1 v -3.03 h 8.94 v 12.45 h 4.74 v 3.03 h -13.68 z m 17.298,3.03 v -15.48 h 3.84 v 2.73 h 0.15 c 0.34,-0.84 0.86,-1.56 1.56,-2.16 0.72,-0.62 1.71,-0.93 2.97,-0.93 1.52,0 2.75,0.51 3.69,1.53 0.96,1 1.44,2.44 1.44,4.32 v 9.99 h -3.84 v -9.45 c 0,-2.24 -0.97,-3.36 -2.91,-3.36 -0.4,0 -0.78,0.05 -1.14,0.15 -0.36,0.1 -0.69,0.26 -0.99,0.48 -0.28,0.2 -0.51,0.45 -0.69,0.75 -0.16,0.3 -0.24,0.66 -0.24,1.08 v 10.35 z m 31.669,-0.81 c 0,2.26 -0.64,4.02 -1.92,5.28 -1.26,1.26 -3.14,1.89 -5.64,1.89 -1.46,0 -2.68,-0.21 -3.66,-0.63 -0.98,-0.42 -1.78,-0.95 -2.4,-1.59 l 2.07,-2.46 c 1.04,1.08 2.35,1.62 3.93,1.62 1.28,0 2.23,-0.33 2.85,-0.99 0.62,-0.66 0.93,-1.59 0.93,-2.79 v -2.94 h -0.21 c -0.42,0.94 -1,1.7 -1.74,2.28 -0.72,0.56 -1.68,0.84 -2.88,0.84 -1.78,0 -3.21,-0.66 -4.29,-1.98 -1.08,-1.32 -1.62,-3.25 -1.62,-5.79 0,-2.56 0.54,-4.49 1.62,-5.79 1.08,-1.32 2.51,-1.98 4.29,-1.98 1.2,0 2.16,0.28 2.88,0.84 0.74,0.56 1.32,1.31 1.74,2.25 h 0.21 v -2.73 h 3.84 z m -7.05,-2.58 c 0.44,0 0.85,-0.05 1.23,-0.15 0.4,-0.12 0.74,-0.28 1.02,-0.48 0.3,-0.22 0.53,-0.49 0.69,-0.81 0.18,-0.34 0.27,-0.73 0.27,-1.17 v -4.17 c 0,-0.44 -0.09,-0.82 -0.27,-1.14 -0.16,-0.34 -0.39,-0.61 -0.69,-0.81 -0.28,-0.22 -0.62,-0.38 -1.02,-0.48 -0.38,-0.12 -0.79,-0.18 -1.23,-0.18 -1.12,0 -1.99,0.34 -2.61,1.02 -0.6,0.66 -0.9,1.59 -0.9,2.79 v 1.77 c 0,1.18 0.3,2.11 0.9,2.79 0.62,0.68 1.49,1.02 2.61,1.02 z m 13.458,-3.87 v -3.75 h 9.3 v 3.75 z m 23.688,7.26 c -1.48,0 -2.57,-0.39 -3.27,-1.17 -0.7,-0.78 -1.05,-1.79 -1.05,-3.03 v -8.25 h -4.5 v -3.03 h 3.06 c 0.62,0 1.06,-0.12 1.32,-0.36 0.26,-0.26 0.39,-0.71 0.39,-1.35 v -3.75 h 3.57 v 5.46 h 6.3 v 3.03 h -6.3 v 9.42 h 6.3 v 3.03 z m 17.299,0.36 c -1.24,0 -2.34,-0.19 -3.3,-0.57 -0.96,-0.38 -1.77,-0.92 -2.43,-1.62 -0.64,-0.7 -1.13,-1.54 -1.47,-2.52 -0.34,-1 -0.51,-2.12 -0.51,-3.36 0,-1.26 0.17,-2.39 0.51,-3.39 0.36,-1 0.86,-1.85 1.5,-2.55 0.64,-0.7 1.41,-1.24 2.31,-1.62 0.92,-0.38 1.95,-0.57 3.09,-0.57 1.12,0 2.13,0.19 3.03,0.57 0.9,0.36 1.66,0.88 2.28,1.56 0.64,0.68 1.13,1.5 1.47,2.46 0.34,0.96 0.51,2.02 0.51,3.18 v 1.26 h -10.86 v 0.39 c 0,1.12 0.35,2.03 1.05,2.73 0.7,0.68 1.68,1.02 2.94,1.02 0.96,0 1.78,-0.19 2.46,-0.57 0.7,-0.4 1.28,-0.92 1.74,-1.56 l 2.19,2.19 c -0.56,0.82 -1.38,1.52 -2.46,2.1 -1.06,0.58 -2.41,0.87 -4.05,0.87 z m -0.27,-13.38 c -1.08,0 -1.95,0.34 -2.61,1.02 -0.66,0.68 -0.99,1.58 -0.99,2.7 v 0.21 h 7.02 v -0.27 c 0,-1.12 -0.31,-2.01 -0.93,-2.67 -0.6,-0.66 -1.43,-0.99 -2.49,-0.99 z m 11.148,9.99 h 3.84 v -9.42 h -3.84 v -3.03 h 7.68 v 4.23 h 0.24 c 0.14,-0.54 0.33,-1.06 0.57,-1.56 0.26,-0.52 0.58,-0.97 0.96,-1.35 0.4,-0.4 0.88,-0.72 1.44,-0.96 0.56,-0.24 1.23,-0.36 2.01,-0.36 h 1.68 v 3.6 h -3.18 c -1.16,0 -2.07,0.34 -2.73,1.02 -0.66,0.68 -0.99,1.55 -0.99,2.61 v 5.22 h 5.37 v 3.03 h -13.05 z m 16.848,3.03 v -15.48 h 3.18 v 2.13 h 0.18 c 0.24,-0.68 0.58,-1.26 1.02,-1.74 0.46,-0.5 1.1,-0.75 1.92,-0.75 0.78,0 1.4,0.23 1.86,0.69 0.46,0.44 0.76,1.07 0.9,1.89 h 0.15 c 0.26,-0.7 0.64,-1.3 1.14,-1.8 0.52,-0.52 1.25,-0.78 2.19,-0.78 1.14,0 1.96,0.41 2.46,1.23 0.5,0.82 0.75,2.03 0.75,3.63 v 10.98 h -3.15 v -10.53 c 0,-0.9 -0.13,-1.53 -0.39,-1.89 -0.24,-0.36 -0.61,-0.54 -1.11,-0.54 -0.46,0 -0.85,0.15 -1.17,0.45 -0.3,0.3 -0.45,0.76 -0.45,1.38 v 11.13 h -3.18 v -10.53 c 0,-0.9 -0.12,-1.53 -0.36,-1.89 -0.24,-0.36 -0.61,-0.54 -1.11,-0.54 -0.48,0 -0.88,0.15 -1.2,0.45 -0.3,0.3 -0.45,0.76 -0.45,1.38 v 11.13 z m 21.228,-7.26 v -3.75 h 9.3 v 3.75 z m 14.749,7.26 v -15.48 h 3.18 v 2.13 h 0.18 c 0.24,-0.68 0.58,-1.26 1.02,-1.74 0.46,-0.5 1.1,-0.75 1.92,-0.75 0.78,0 1.4,0.23 1.86,0.69 0.46,0.44 0.76,1.07 0.9,1.89 h 0.15 c 0.26,-0.7 0.64,-1.3 1.14,-1.8 0.52,-0.52 1.25,-0.78 2.19,-0.78 1.14,0 1.96,0.41 2.46,1.23 0.5,0.82 0.75,2.03 0.75,3.63 v 10.98 h -3.15 v -10.53 c 0,-0.9 -0.13,-1.53 -0.39,-1.89 -0.24,-0.36 -0.61,-0.54 -1.11,-0.54 -0.46,0 -0.85,0.15 -1.17,0.45 -0.3,0.3 -0.45,0.76 -0.45,1.38 v 11.13 h -3.18 v -10.53 c 0,-0.9 -0.12,-1.53 -0.36,-1.89 -0.24,-0.36 -0.61,-0.54 -1.11,-0.54 -0.48,0 -0.88,0.15 -1.2,0.45 -0.3,0.3 -0.45,0.76 -0.45,1.38 v 11.13 z m 25.818,0.36 c -1.7,0 -3.17,-0.26 -4.41,-0.78 -1.24,-0.54 -2.21,-1.26 -2.91,-2.16 l 2.25,-2.04 c 0.64,0.7 1.37,1.24 2.19,1.62 0.84,0.38 1.81,0.57 2.91,0.57 0.96,0 1.73,-0.16 2.31,-0.48 0.58,-0.32 0.87,-0.81 0.87,-1.47 0,-0.56 -0.2,-0.94 -0.6,-1.14 -0.38,-0.2 -0.89,-0.35 -1.53,-0.45 l -2.49,-0.39 c -0.64,-0.1 -1.27,-0.24 -1.89,-0.42 -0.6,-0.2 -1.14,-0.47 -1.62,-0.81 -0.46,-0.34 -0.83,-0.77 -1.11,-1.29 -0.28,-0.54 -0.42,-1.19 -0.42,-1.95 0,-1.62 0.6,-2.86 1.8,-3.72 1.22,-0.86 2.89,-1.29 5.01,-1.29 1.5,0 2.77,0.21 3.81,0.63 1.06,0.42 1.93,1.01 2.61,1.77 l -2.01,2.22 c -0.44,-0.48 -1.03,-0.9 -1.77,-1.26 -0.72,-0.38 -1.64,-0.57 -2.76,-0.57 -1.96,0 -2.94,0.61 -2.94,1.83 0,0.56 0.2,0.95 0.6,1.17 0.4,0.2 0.92,0.35 1.56,0.45 l 2.46,0.39 c 0.66,0.1 1.29,0.25 1.89,0.45 0.62,0.18 1.16,0.44 1.62,0.78 0.48,0.34 0.86,0.77 1.14,1.29 0.28,0.52 0.42,1.16 0.42,1.92 0,1.6 -0.62,2.86 -1.86,3.78 -1.22,0.9 -2.93,1.35 -5.13,1.35 z"
     fill="#000000"
     id="path11" />
  <path
     d="m 899.303,129.55475 c 0,-1.46 0.16,-2.86 0.48,-4.2 0.34,-1.36 0.79,-2.62 1.35,-3.78 0.58,-1.16 1.25,-2.2 2.01,-3.12 0.76,-0.94 1.56,-1.73 2.4,-2.37 h 3.84 c -0.9,0.64 -1.76,1.39 -2.58,2.25 -0.82,0.86 -1.54,1.81 -2.16,2.85 -0.62,1.02 -1.12,2.12 -1.5,3.3 -0.36,1.16 -0.54,2.37 -0.54,3.63 v 2.88 c 0,1.26 0.18,2.48 0.54,3.66 0.38,1.16 0.88,2.26 1.5,3.3 0.62,1.02 1.34,1.96 2.16,2.82 0.82,0.86 1.68,1.61 2.58,2.25 h -3.84 c -0.84,-0.62 -1.64,-1.4 -2.4,-2.34 -0.76,-0.94 -1.43,-1.99 -2.01,-3.15 -0.56,-1.16 -1.01,-2.41 -1.35,-3.75 -0.32,-1.36 -0.48,-2.77 -0.48,-4.23 z m 28.998,9.33 h -14.76 v -3.66 l 6.72,-5.73 c 1.12,-0.96 1.95,-1.83 2.49,-2.61 0.54,-0.8 0.81,-1.65 0.81,-2.55 v -0.3 c 0,-1 -0.28,-1.76 -0.84,-2.28 -0.56,-0.52 -1.34,-0.78 -2.34,-0.78 -1.1,0 -1.94,0.3 -2.52,0.9 -0.58,0.6 -1,1.34 -1.26,2.22 l -3.42,-1.29 c 0.22,-0.68 0.53,-1.33 0.93,-1.95 0.42,-0.64 0.93,-1.2 1.53,-1.68 0.62,-0.48 1.35,-0.86 2.19,-1.14 0.84,-0.3 1.8,-0.45 2.88,-0.45 1.12,0 2.11,0.16 2.97,0.48 0.88,0.3 1.62,0.73 2.22,1.29 0.6,0.54 1.05,1.19 1.35,1.95 0.32,0.76 0.48,1.59 0.48,2.49 0,0.86 -0.14,1.65 -0.42,2.37 -0.26,0.72 -0.63,1.41 -1.11,2.07 -0.48,0.64 -1.05,1.26 -1.71,1.86 -0.64,0.6 -1.34,1.2 -2.1,1.8 l -4.56,3.69 h 10.47 z m 10.488,0.36 c -1.36,0 -2.54,-0.24 -3.54,-0.72 -1,-0.5 -1.83,-1.21 -2.49,-2.13 -0.64,-0.92 -1.12,-2.05 -1.44,-3.39 -0.3,-1.34 -0.45,-2.87 -0.45,-4.59 0,-1.7 0.15,-3.22 0.45,-4.56 0.32,-1.36 0.8,-2.5 1.44,-3.42 0.66,-0.92 1.49,-1.62 2.49,-2.1 1,-0.5 2.18,-0.75 3.54,-0.75 2.72,0 4.72,0.95 6,2.85 1.28,1.9 1.92,4.56 1.92,7.98 0,3.42 -0.64,6.08 -1.92,7.98 -1.28,1.9 -3.28,2.85 -6,2.85 z m 0,-18.63 c -1.48,0 -2.53,0.53 -3.15,1.59 -0.6,1.06 -0.9,2.51 -0.9,4.35 v 3.57 0.81 l 7.47,-8.13 c -0.28,-0.7 -0.7,-1.24 -1.26,-1.62 -0.56,-0.38 -1.28,-0.57 -2.16,-0.57 z m 0,15.6 c 1.48,0 2.52,-0.53 3.12,-1.59 0.62,-1.06 0.93,-2.51 0.93,-4.35 v -3.57 -0.81 l -7.47,8.13 c 0.28,0.7 0.7,1.24 1.26,1.62 0.56,0.38 1.28,0.57 2.16,0.57 z m 17.988,3.03 c -1.36,0 -2.54,-0.24 -3.54,-0.72 -1,-0.5 -1.83,-1.21 -2.49,-2.13 -0.64,-0.92 -1.12,-2.05 -1.44,-3.39 -0.3,-1.34 -0.45,-2.87 -0.45,-4.59 0,-1.7 0.15,-3.22 0.45,-4.56 0.32,-1.36 0.8,-2.5 1.44,-3.42 0.66,-0.92 1.49,-1.62 2.49,-2.1 1,-0.5 2.18,-0.75 3.54,-0.75 2.72,0 4.72,0.95 6,2.85 1.28,1.9 1.92,4.56 1.92,7.98 0,3.42 -0.64,6.08 -1.92,7.98 -1.28,1.9 -3.28,2.85 -6,2.85 z m 0,-18.63 c -1.48,0 -2.53,0.53 -3.15,1.59 -0.6,1.06 -0.9,2.51 -0.9,4.35 v 3.57 0.81 l 7.47,-8.13 c -0.28,-0.7 -0.7,-1.24 -1.26,-1.62 -0.56,-0.38 -1.28,-0.57 -2.16,-0.57 z m 0,15.6 c 1.48,0 2.52,-0.53 3.12,-1.59 0.62,-1.06 0.93,-2.51 0.93,-4.35 v -3.57 -0.81 l -7.47,8.13 c 0.28,0.7 0.7,1.24 1.26,1.62 0.56,0.38 1.28,0.57 2.16,0.57 z m 10.099,2.67 v -15.48 h 3.18 v 2.13 h 0.18 c 0.24,-0.68 0.58,-1.26 1.02,-1.74 0.46,-0.5 1.1,-0.75 1.92,-0.75 0.78,0 1.4,0.23 1.86,0.69 0.46,0.44 0.76,1.07 0.9,1.89 h 0.15 c 0.26,-0.7 0.64,-1.3 1.14,-1.8 0.52,-0.52 1.25,-0.78 2.19,-0.78 1.14,0 1.96,0.41 2.46,1.23 0.5,0.82 0.75,2.03 0.75,3.63 v 10.98 h -3.15 v -10.53 c 0,-0.9 -0.13,-1.53 -0.39,-1.89 -0.24,-0.36 -0.61,-0.54 -1.11,-0.54 -0.46,0 -0.85,0.15 -1.17,0.45 -0.3,0.3 -0.45,0.76 -0.45,1.38 v 11.13 h -3.18 v -10.53 c 0,-0.9 -0.12,-1.53 -0.36,-1.89 -0.24,-0.36 -0.61,-0.54 -1.11,-0.54 -0.48,0 -0.88,0.15 -1.2,0.45 -0.3,0.3 -0.45,0.76 -0.45,1.38 v 11.13 z m 25.818,0.36 c -1.7,0 -3.17,-0.26 -4.41,-0.78 -1.24,-0.54 -2.21,-1.26 -2.91,-2.16 l 2.25,-2.04 c 0.64,0.7 1.37,1.24 2.19,1.62 0.84,0.38 1.81,0.57 2.91,0.57 0.96,0 1.73,-0.16 2.31,-0.48 0.58,-0.32 0.87,-0.81 0.87,-1.47 0,-0.56 -0.2,-0.94 -0.6,-1.14 -0.38,-0.2 -0.89,-0.35 -1.53,-0.45 l -2.49,-0.39 c -0.64,-0.1 -1.27,-0.24 -1.89,-0.42 -0.6,-0.2 -1.14,-0.47 -1.62,-0.81 -0.46,-0.34 -0.83,-0.77 -1.11,-1.29 -0.28,-0.54 -0.42,-1.19 -0.42,-1.95 0,-1.62 0.6,-2.86 1.8,-3.72 1.22,-0.86 2.89,-1.29 5.01,-1.29 1.5,0 2.77,0.21 3.81,0.63 1.06,0.42 1.93,1.01 2.61,1.77 l -2.01,2.22 c -0.44,-0.48 -1.03,-0.9 -1.77,-1.26 -0.72,-0.38 -1.64,-0.57 -2.76,-0.57 -1.96,0 -2.94,0.61 -2.94,1.83 0,0.56 0.2,0.95 0.6,1.17 0.4,0.2 0.92,0.35 1.56,0.45 l 2.46,0.39 c 0.66,0.1 1.29,0.25 1.89,0.45 0.62,0.18 1.16,0.44 1.62,0.78 0.48,0.34 0.86,0.77 1.14,1.29 0.28,0.52 0.42,1.16 0.42,1.92 0,1.6 -0.62,2.86 -1.86,3.78 -1.22,0.9 -2.93,1.35 -5.13,1.35 z m 21.556,-9.69 c 0,1.46 -0.17,2.87 -0.51,4.23 -0.32,1.34 -0.77,2.59 -1.35,3.75 -0.56,1.16 -1.22,2.21 -1.98,3.15 -0.76,0.94 -1.56,1.72 -2.4,2.34 h -3.84 c 0.9,-0.64 1.76,-1.39 2.58,-2.25 0.82,-0.86 1.54,-1.8 2.16,-2.82 0.62,-1.04 1.11,-2.14 1.47,-3.3 0.38,-1.18 0.57,-2.4 0.57,-3.66 v -2.88 c 0,-1.26 -0.19,-2.47 -0.57,-3.63 -0.36,-1.18 -0.85,-2.28 -1.47,-3.3 -0.62,-1.04 -1.34,-1.99 -2.16,-2.85 -0.82,-0.86 -1.68,-1.61 -2.58,-2.25 h 3.84 c 0.84,0.64 1.64,1.43 2.4,2.37 0.76,0.92 1.42,1.96 1.98,3.12 0.58,1.16 1.03,2.42 1.35,3.78 0.34,1.34 0.51,2.74 0.51,4.2 z"
     fill="#969696"
     id="path12" />
  <path
     d="m 610.368,50.444754 h 6.104 v 17.136 h 0.28 c 0.635,-1.568 1.587,-2.875 2.856,-3.92 1.307,-1.045 3.08,-1.568 5.32,-1.568 2.987,0 5.301,0.989 6.944,2.968 1.68,1.941 2.52,4.723 2.52,8.344 v 18.48 h -6.104 v -17.752 c 0,-4.517 -1.829,-6.776 -5.488,-6.776 -0.784,0 -1.568,0.112 -2.352,0.336 -0.747,0.187 -1.419,0.485 -2.016,0.896 -0.597,0.411 -1.083,0.933 -1.456,1.568 -0.336,0.635 -0.504,1.363 -0.504,2.184 v 19.544 h -6.104 z m 43.908,42.112 c -2.016,0 -3.864,-0.355 -5.544,-1.064 -1.642,-0.709 -3.042,-1.717 -4.2,-3.024 -1.157,-1.344 -2.053,-2.949 -2.688,-4.816 -0.634,-1.904 -0.952,-4.013 -0.952,-6.328 0,-2.315 0.318,-4.405 0.952,-6.272 0.635,-1.904 1.531,-3.509 2.688,-4.816 1.158,-1.344 2.558,-2.371 4.2,-3.08 1.68,-0.709 3.528,-1.064 5.544,-1.064 2.016,0 3.846,0.355 5.488,1.064 1.68,0.709 3.099,1.736 4.256,3.08 1.158,1.307 2.054,2.912 2.688,4.816 0.635,1.867 0.952,3.957 0.952,6.272 0,2.315 -0.317,4.424 -0.952,6.328 -0.634,1.867 -1.53,3.472 -2.688,4.816 -1.157,1.307 -2.576,2.315 -4.256,3.024 -1.642,0.709 -3.472,1.064 -5.488,1.064 z m 0,-5.04 c 2.091,0 3.771,-0.635 5.04,-1.904 1.27,-1.307 1.904,-3.248 1.904,-5.824 v -4.928 c 0,-2.576 -0.634,-4.499 -1.904,-5.768 -1.269,-1.307 -2.949,-1.96 -5.04,-1.96 -2.09,0 -3.77,0.653 -5.04,1.96 -1.269,1.269 -1.904,3.192 -1.904,5.768 v 4.928 c 0,2.576 0.635,4.517 1.904,5.824 1.27,1.269 2.95,1.904 5.04,1.904 z m 26.402,4.368 c -2.091,0 -3.659,-0.523 -4.704,-1.568 -1.008,-1.083 -1.512,-2.576 -1.512,-4.48 v -35.392 h 6.104 v 36.456 h 4.032 v 4.984 z m 28.065,-4.816 h -0.28 c -0.635,1.717 -1.68,3.061 -3.136,4.032 -1.419,0.971 -3.099,1.456 -5.04,1.456 -3.696,0 -6.552,-1.325 -8.568,-3.976 -2.016,-2.688 -3.024,-6.44 -3.024,-11.256 0,-4.816 1.008,-8.549 3.024,-11.2 2.016,-2.688 4.872,-4.032 8.568,-4.032 1.941,0 3.621,0.485 5.04,1.456 1.456,0.933 2.501,2.277 3.136,4.032 h 0.28 v -17.136 h 6.103 v 41.44 h -6.103 z m -6.608,0.224 c 1.866,0 3.434,-0.448 4.704,-1.344 1.269,-0.933 1.904,-2.147 1.904,-3.64 v -9.968 c 0,-1.493 -0.635,-2.688 -1.904,-3.584 -1.27,-0.933 -2.838,-1.4 -4.704,-1.4 -2.128,0 -3.827,0.691 -5.096,2.072 -1.27,1.344 -1.904,3.136 -1.904,5.376 v 5.04 c 0,2.24 0.634,4.051 1.904,5.432 1.269,1.344 2.968,2.016 5.096,2.016 z"
     fill="#000000"
     id="path13" />
</svg>
