<svg width="1312" height="555" viewBox="0 0 1312 555" fill="none" xmlns="http://www.w3.org/2000/svg">
<rect width="1312" height="555" fill="white"/>
<path d="M224 115.5L209 106.84V124.16L224 115.5ZM99 135V115.5H96V135H99ZM97.5 117H210.5V114H97.5V117ZM99 115.5V96H96V115.5H99Z" fill="black"/>
<rect x="224" y="96" width="3" height="213" fill="black"/>
<rect x="96" y="147" width="512" height="72" fill="black"/>
<path d="M115.56 197.432C114.432 197.432 113.436 197.24 112.572 196.856C111.732 196.472 111.012 195.956 110.412 195.308C109.812 194.66 109.356 193.904 109.044 193.04C108.756 192.176 108.612 191.252 108.612 190.268C108.612 188.828 108.96 187.508 109.656 186.308C110.352 185.108 111.468 184.088 113.004 183.248C112.236 182.24 111.648 181.316 111.24 180.476C110.856 179.612 110.664 178.688 110.664 177.704C110.664 176.792 110.832 175.952 111.168 175.184C111.528 174.416 112.008 173.756 112.608 173.204C113.232 172.652 113.964 172.22 114.804 171.908C115.644 171.596 116.556 171.44 117.54 171.44C118.404 171.44 119.196 171.56 119.916 171.8C120.636 172.04 121.272 172.364 121.824 172.772C122.4 173.156 122.88 173.612 123.264 174.14C123.648 174.644 123.936 175.172 124.128 175.724L120.852 177.452C120.588 176.684 120.156 176.084 119.556 175.652C118.98 175.196 118.308 174.968 117.54 174.968C116.7 174.968 116.028 175.22 115.524 175.724C115.02 176.228 114.768 176.864 114.768 177.632V177.848C114.768 178.208 114.816 178.544 114.912 178.856C115.008 179.168 115.164 179.516 115.38 179.9C115.62 180.284 115.92 180.716 116.28 181.196C116.64 181.676 117.096 182.252 117.648 182.924L120.024 185.948L122.04 188.756H122.256C122.328 188.324 122.388 187.856 122.436 187.352C122.484 186.848 122.52 186.332 122.544 185.804C122.592 185.252 122.616 184.724 122.616 184.22C122.64 183.692 122.652 183.2 122.652 182.744H128.664V186.236H126.108C125.964 187.124 125.784 187.988 125.568 188.828C125.376 189.644 125.076 190.52 124.668 191.456L129.276 197H124.272L121.32 193.436H121.068C120.852 194.66 120.252 195.632 119.268 196.352C118.308 197.072 117.072 197.432 115.56 197.432ZM116.712 193.796C117.408 193.796 118.044 193.664 118.62 193.4C119.196 193.136 119.664 192.692 120.024 192.068L114.912 185.66C114.144 186.284 113.628 186.956 113.364 187.676C113.1 188.372 112.968 189.116 112.968 189.908V190.088C112.968 191.288 113.304 192.212 113.976 192.86C114.648 193.484 115.56 193.796 116.712 193.796ZM132.286 170.36H136.894V181.7H137.074C137.482 180.692 138.106 179.828 138.946 179.108C139.81 178.364 140.998 177.992 142.51 177.992C144.334 177.992 145.81 178.604 146.938 179.828C148.09 181.028 148.666 182.756 148.666 185.012V197H144.058V185.66C144.058 182.972 142.894 181.628 140.566 181.628C140.086 181.628 139.63 181.688 139.198 181.808C138.766 181.928 138.37 182.12 138.01 182.384C137.674 182.624 137.398 182.924 137.182 183.284C136.99 183.644 136.894 184.076 136.894 184.58V197H132.286V170.36ZM163.232 197C161.456 197 160.148 196.532 159.308 195.596C158.468 194.66 158.048 193.448 158.048 191.96V182.06H152.648V178.424H156.32C157.064 178.424 157.592 178.28 157.904 177.992C158.216 177.68 158.372 177.14 158.372 176.372V171.872H162.656V178.424H170.216V182.06H162.656V193.364H170.216V197H163.232ZM174.918 203.66V199.808H192.198V203.66H174.918ZM197.044 170.36H201.652V181.7H201.832C202.24 180.692 202.864 179.828 203.704 179.108C204.568 178.364 205.756 177.992 207.268 177.992C209.092 177.992 210.568 178.604 211.696 179.828C212.848 181.028 213.424 182.756 213.424 185.012V197H208.816V185.66C208.816 182.972 207.652 181.628 205.324 181.628C204.844 181.628 204.388 181.688 203.956 181.808C203.524 181.928 203.128 182.12 202.768 182.384C202.432 182.624 202.156 182.924 201.94 183.284C201.748 183.644 201.652 184.076 201.652 184.58V197H197.044V170.36ZM218.414 178.424H223.022V181.7H223.274C223.778 180.572 224.462 179.672 225.326 179C226.214 178.328 227.378 177.992 228.818 177.992C229.874 177.992 230.834 178.196 231.698 178.604C232.586 178.988 233.342 179.588 233.966 180.404C234.59 181.196 235.07 182.204 235.406 183.428C235.742 184.652 235.91 186.08 235.91 187.712C235.91 189.344 235.742 190.772 235.406 191.996C235.07 193.22 234.59 194.24 233.966 195.056C233.342 195.848 232.586 196.448 231.698 196.856C230.834 197.24 229.874 197.432 228.818 197.432C227.378 197.432 226.214 197.096 225.326 196.424C224.462 195.752 223.778 194.852 223.274 193.724H223.022V204.2H218.414V178.424ZM226.874 193.76C228.218 193.76 229.25 193.352 229.97 192.536C230.714 191.72 231.086 190.604 231.086 189.188V186.236C231.086 184.82 230.714 183.704 229.97 182.888C229.25 182.072 228.218 181.664 226.874 181.664C225.818 181.664 224.906 181.928 224.138 182.456C223.394 182.96 223.022 183.74 223.022 184.796V190.628C223.022 191.684 223.394 192.476 224.138 193.004C224.906 193.508 225.818 193.76 226.874 193.76ZM262.702 197V171.872H267.418V193.112H278.542V197H262.702ZM291.2 197.432C289.04 197.432 287.192 197.06 285.656 196.316C284.144 195.572 282.908 194.588 281.948 193.364L284.792 190.412C285.728 191.492 286.736 192.296 287.816 192.824C288.92 193.328 290.096 193.58 291.344 193.58C292.784 193.58 293.888 193.256 294.656 192.608C295.424 191.96 295.808 191.024 295.808 189.8C295.808 188.792 295.52 188.036 294.944 187.532C294.368 187.004 293.396 186.632 292.028 186.416L289.364 185.984C287.036 185.576 285.38 184.736 284.396 183.464C283.412 182.168 282.92 180.644 282.92 178.892C282.92 176.492 283.7 174.656 285.26 173.384C286.82 172.088 288.98 171.44 291.74 171.44C293.708 171.44 295.4 171.752 296.816 172.376C298.256 173 299.408 173.852 300.272 174.932L297.5 177.884C296.828 177.092 296.024 176.468 295.088 176.012C294.152 175.532 293.048 175.292 291.776 175.292C289.04 175.292 287.672 176.42 287.672 178.676C287.672 179.636 287.96 180.368 288.536 180.872C289.112 181.376 290.096 181.748 291.488 181.988L294.116 182.456C296.3 182.864 297.92 183.668 298.976 184.868C300.032 186.068 300.56 187.604 300.56 189.476C300.56 190.652 300.356 191.732 299.948 192.716C299.54 193.676 298.94 194.516 298.148 195.236C297.356 195.932 296.372 196.472 295.196 196.856C294.044 197.24 292.712 197.432 291.2 197.432ZM316.745 186.2H309.401V197H304.685V171.872H309.401V182.312H316.745V171.872H321.461V197H316.745V186.2ZM326.667 197V193.472H332.319V175.4H326.667V171.872H342.651V175.4H336.999V193.472H342.651V197H326.667ZM348.433 197V171.872H364.849V175.76H353.149V182.312H363.697V186.2H353.149V197H348.433ZM380.171 175.76V197H375.491V175.76H367.931V171.872H387.731V175.76H380.171ZM413.191 197V171.872H429.607V175.76H417.907V182.312H428.455V186.2H417.907V197H413.191Z" fill="white"/>
<path d="M224 225H384V297H224V225Z" fill="#F21D00"/>
<path d="M257.595 275.432C256.467 275.432 255.471 275.24 254.607 274.856C253.767 274.472 253.047 273.956 252.447 273.308C251.847 272.66 251.391 271.904 251.079 271.04C250.791 270.176 250.647 269.252 250.647 268.268C250.647 266.828 250.995 265.508 251.691 264.308C252.387 263.108 253.503 262.088 255.039 261.248C254.271 260.24 253.683 259.316 253.275 258.476C252.891 257.612 252.699 256.688 252.699 255.704C252.699 254.792 252.867 253.952 253.203 253.184C253.563 252.416 254.043 251.756 254.643 251.204C255.267 250.652 255.999 250.22 256.839 249.908C257.679 249.596 258.591 249.44 259.575 249.44C260.439 249.44 261.231 249.56 261.951 249.8C262.671 250.04 263.307 250.364 263.859 250.772C264.435 251.156 264.915 251.612 265.299 252.14C265.683 252.644 265.971 253.172 266.163 253.724L262.887 255.452C262.623 254.684 262.191 254.084 261.591 253.652C261.015 253.196 260.343 252.968 259.575 252.968C258.735 252.968 258.063 253.22 257.559 253.724C257.055 254.228 256.803 254.864 256.803 255.632V255.848C256.803 256.208 256.851 256.544 256.947 256.856C257.043 257.168 257.199 257.516 257.415 257.9C257.655 258.284 257.955 258.716 258.315 259.196C258.675 259.676 259.131 260.252 259.683 260.924L262.059 263.948L264.075 266.756H264.291C264.363 266.324 264.423 265.856 264.471 265.352C264.519 264.848 264.555 264.332 264.579 263.804C264.627 263.252 264.651 262.724 264.651 262.22C264.675 261.692 264.687 261.2 264.687 260.744H270.699V264.236H268.143C267.999 265.124 267.819 265.988 267.603 266.828C267.411 267.644 267.111 268.52 266.703 269.456L271.311 275H266.307L263.355 271.436H263.103C262.887 272.66 262.287 273.632 261.303 274.352C260.343 275.072 259.107 275.432 257.595 275.432ZM258.747 271.796C259.443 271.796 260.079 271.664 260.655 271.4C261.231 271.136 261.699 270.692 262.059 270.068L256.947 263.66C256.179 264.284 255.663 264.956 255.399 265.676C255.135 266.372 255.003 267.116 255.003 267.908V268.088C255.003 269.288 255.339 270.212 256.011 270.86C256.683 271.484 257.595 271.796 258.747 271.796ZM274.393 248.36H279.001V263.984H279.217L281.917 261.032L286.489 256.424H291.853L284.473 263.732L292.645 275H287.137L281.197 266.36L279.001 268.448V275H274.393V248.36ZM295.691 256.424H300.299V259.7H300.551C301.055 258.572 301.739 257.672 302.603 257C303.491 256.328 304.655 255.992 306.095 255.992C307.151 255.992 308.111 256.196 308.975 256.604C309.863 256.988 310.619 257.588 311.243 258.404C311.867 259.196 312.347 260.204 312.683 261.428C313.019 262.652 313.187 264.08 313.187 265.712C313.187 267.344 313.019 268.772 312.683 269.996C312.347 271.22 311.867 272.24 311.243 273.056C310.619 273.848 309.863 274.448 308.975 274.856C308.111 275.24 307.151 275.432 306.095 275.432C304.655 275.432 303.491 275.096 302.603 274.424C301.739 273.752 301.055 272.852 300.551 271.724H300.299V282.2H295.691V256.424ZM304.151 271.76C305.495 271.76 306.527 271.352 307.247 270.536C307.991 269.72 308.363 268.604 308.363 267.188V264.236C308.363 262.82 307.991 261.704 307.247 260.888C306.527 260.072 305.495 259.664 304.151 259.664C303.095 259.664 302.183 259.928 301.415 260.456C300.671 260.96 300.299 261.74 300.299 262.796V268.628C300.299 269.684 300.671 270.476 301.415 271.004C302.183 271.508 303.095 271.76 304.151 271.76ZM354.451 249.872V268.124C354.451 269.252 354.259 270.272 353.875 271.184C353.491 272.072 352.939 272.828 352.219 273.452C351.523 274.076 350.671 274.568 349.663 274.928C348.679 275.264 347.575 275.432 346.351 275.432C343.975 275.432 342.103 274.832 340.735 273.632C339.391 272.432 338.527 270.836 338.143 268.844L342.571 267.908C342.787 268.964 343.171 269.84 343.723 270.536C344.299 271.208 345.175 271.544 346.351 271.544C347.431 271.544 348.259 271.232 348.835 270.608C349.411 269.96 349.699 268.952 349.699 267.584V253.76H341.203V249.872H354.451Z" fill="white"/>
<rect x="225.5" y="310.5" width="381" height="69" fill="white" stroke="black" stroke-width="3"/>
<path d="M354.842 359V333.872H359.558V355.112H370.682V359H354.842ZM383.34 359.432C381.18 359.432 379.332 359.06 377.796 358.316C376.284 357.572 375.048 356.588 374.088 355.364L376.932 352.412C377.868 353.492 378.876 354.296 379.956 354.824C381.06 355.328 382.236 355.58 383.484 355.58C384.924 355.58 386.028 355.256 386.796 354.608C387.564 353.96 387.948 353.024 387.948 351.8C387.948 350.792 387.66 350.036 387.084 349.532C386.508 349.004 385.536 348.632 384.168 348.416L381.504 347.984C379.176 347.576 377.52 346.736 376.536 345.464C375.552 344.168 375.06 342.644 375.06 340.892C375.06 338.492 375.84 336.656 377.4 335.384C378.96 334.088 381.12 333.44 383.88 333.44C385.848 333.44 387.54 333.752 388.956 334.376C390.396 335 391.548 335.852 392.412 336.932L389.64 339.884C388.968 339.092 388.164 338.468 387.228 338.012C386.292 337.532 385.188 337.292 383.916 337.292C381.18 337.292 379.812 338.42 379.812 340.676C379.812 341.636 380.1 342.368 380.676 342.872C381.252 343.376 382.236 343.748 383.628 343.988L386.256 344.456C388.44 344.864 390.06 345.668 391.116 346.868C392.172 348.068 392.7 349.604 392.7 351.476C392.7 352.652 392.496 353.732 392.088 354.716C391.68 355.676 391.08 356.516 390.288 357.236C389.496 357.932 388.512 358.472 387.336 358.856C386.184 359.24 384.852 359.432 383.34 359.432ZM408.886 348.2H401.542V359H396.826V333.872H401.542V344.312H408.886V333.872H413.602V359H408.886V348.2ZM418.808 359V355.472H424.46V337.4H418.808V333.872H434.792V337.4H429.14V355.472H434.792V359H418.808ZM440.574 359V333.872H456.99V337.76H445.29V344.312H455.838V348.2H445.29V359H440.574ZM472.312 337.76V359H467.632V337.76H460.072V333.872H479.872V337.76H472.312Z" fill="black"/>
<rect x="231.5" y="388.5" width="151" height="69" fill="white" stroke="black" stroke-width="3"/>
<path d="M299.285 439.564H306.953V421.06H299.141V417.424H311.561V438.16C311.561 439.648 311.141 440.86 310.301 441.796C309.461 442.732 308.153 443.2 306.377 443.2H299.285V439.564ZM309.293 414.544C308.213 414.544 307.445 414.316 306.989 413.86C306.557 413.404 306.341 412.852 306.341 412.204V411.34C306.341 410.692 306.557 410.14 306.989 409.684C307.445 409.228 308.213 409 309.293 409C310.373 409 311.129 409.228 311.561 409.684C312.017 410.14 312.245 410.692 312.245 411.34V412.204C312.245 412.852 312.017 413.404 311.561 413.86C311.129 414.316 310.373 414.544 309.293 414.544Z" fill="black"/>
<path d="M928 115.5L913 106.84V124.16L928 115.5ZM707 135V115.5H704V135H707ZM705.5 117H914.5V114H705.5V117ZM707 115.5V96H704V115.5H707Z" fill="black"/>
<rect x="928" y="96" width="3" height="285" fill="black"/>
<rect x="704" y="147" width="370" height="72" fill="black"/>
<path d="M723.56 197.432C722.432 197.432 721.436 197.24 720.572 196.856C719.732 196.472 719.012 195.956 718.412 195.308C717.812 194.66 717.356 193.904 717.044 193.04C716.756 192.176 716.612 191.252 716.612 190.268C716.612 188.828 716.96 187.508 717.656 186.308C718.352 185.108 719.468 184.088 721.004 183.248C720.236 182.24 719.648 181.316 719.24 180.476C718.856 179.612 718.664 178.688 718.664 177.704C718.664 176.792 718.832 175.952 719.168 175.184C719.528 174.416 720.008 173.756 720.608 173.204C721.232 172.652 721.964 172.22 722.804 171.908C723.644 171.596 724.556 171.44 725.54 171.44C726.404 171.44 727.196 171.56 727.916 171.8C728.636 172.04 729.272 172.364 729.824 172.772C730.4 173.156 730.88 173.612 731.264 174.14C731.648 174.644 731.936 175.172 732.128 175.724L728.852 177.452C728.588 176.684 728.156 176.084 727.556 175.652C726.98 175.196 726.308 174.968 725.54 174.968C724.7 174.968 724.028 175.22 723.524 175.724C723.02 176.228 722.768 176.864 722.768 177.632V177.848C722.768 178.208 722.816 178.544 722.912 178.856C723.008 179.168 723.164 179.516 723.38 179.9C723.62 180.284 723.92 180.716 724.28 181.196C724.64 181.676 725.096 182.252 725.648 182.924L728.024 185.948L730.04 188.756H730.256C730.328 188.324 730.388 187.856 730.436 187.352C730.484 186.848 730.52 186.332 730.544 185.804C730.592 185.252 730.616 184.724 730.616 184.22C730.64 183.692 730.652 183.2 730.652 182.744H736.664V186.236H734.108C733.964 187.124 733.784 187.988 733.568 188.828C733.376 189.644 733.076 190.52 732.668 191.456L737.276 197H732.272L729.32 193.436H729.068C728.852 194.66 728.252 195.632 727.268 196.352C726.308 197.072 725.072 197.432 723.56 197.432ZM724.712 193.796C725.408 193.796 726.044 193.664 726.62 193.4C727.196 193.136 727.664 192.692 728.024 192.068L722.912 185.66C722.144 186.284 721.628 186.956 721.364 187.676C721.1 188.372 720.968 189.116 720.968 189.908V190.088C720.968 191.288 721.304 192.212 721.976 192.86C722.648 193.484 723.56 193.796 724.712 193.796ZM740.286 170.36H744.894V181.7H745.074C745.482 180.692 746.106 179.828 746.946 179.108C747.81 178.364 748.998 177.992 750.51 177.992C752.334 177.992 753.81 178.604 754.938 179.828C756.09 181.028 756.666 182.756 756.666 185.012V197H752.058V185.66C752.058 182.972 750.894 181.628 748.566 181.628C748.086 181.628 747.63 181.688 747.198 181.808C746.766 181.928 746.37 182.12 746.01 182.384C745.674 182.624 745.398 182.924 745.182 183.284C744.99 183.644 744.894 184.076 744.894 184.58V197H740.286V170.36ZM771.232 197C769.456 197 768.148 196.532 767.308 195.596C766.468 194.66 766.048 193.448 766.048 191.96V182.06H760.648V178.424H764.32C765.064 178.424 765.592 178.28 765.904 177.992C766.216 177.68 766.372 177.14 766.372 176.372V171.872H770.656V178.424H778.216V182.06H770.656V193.364H778.216V197H771.232ZM782.918 203.66V199.808H800.198V203.66H782.918ZM805.044 170.36H809.652V181.7H809.832C810.24 180.692 810.864 179.828 811.704 179.108C812.568 178.364 813.756 177.992 815.268 177.992C817.092 177.992 818.568 178.604 819.696 179.828C820.848 181.028 821.424 182.756 821.424 185.012V197H816.816V185.66C816.816 182.972 815.652 181.628 813.324 181.628C812.844 181.628 812.388 181.688 811.956 181.808C811.524 181.928 811.128 182.12 810.768 182.384C810.432 182.624 810.156 182.924 809.94 183.284C809.748 183.644 809.652 184.076 809.652 184.58V197H805.044V170.36ZM826.414 178.424H831.022V181.7H831.274C831.778 180.572 832.462 179.672 833.326 179C834.214 178.328 835.378 177.992 836.818 177.992C837.874 177.992 838.834 178.196 839.698 178.604C840.586 178.988 841.342 179.588 841.966 180.404C842.59 181.196 843.07 182.204 843.406 183.428C843.742 184.652 843.91 186.08 843.91 187.712C843.91 189.344 843.742 190.772 843.406 191.996C843.07 193.22 842.59 194.24 841.966 195.056C841.342 195.848 840.586 196.448 839.698 196.856C838.834 197.24 837.874 197.432 836.818 197.432C835.378 197.432 834.214 197.096 833.326 196.424C832.462 195.752 831.778 194.852 831.274 193.724H831.022V204.2H826.414V178.424ZM834.874 193.76C836.218 193.76 837.25 193.352 837.97 192.536C838.714 191.72 839.086 190.604 839.086 189.188V186.236C839.086 184.82 838.714 183.704 837.97 182.888C837.25 182.072 836.218 181.664 834.874 181.664C833.818 181.664 832.906 181.928 832.138 182.456C831.394 182.96 831.022 183.74 831.022 184.796V190.628C831.022 191.684 831.394 192.476 832.138 193.004C832.906 193.508 833.818 193.76 834.874 193.76ZM870.702 197V171.872H875.418V193.112H886.542V197H870.702ZM899.2 197.432C897.04 197.432 895.192 197.06 893.656 196.316C892.144 195.572 890.908 194.588 889.948 193.364L892.792 190.412C893.728 191.492 894.736 192.296 895.816 192.824C896.92 193.328 898.096 193.58 899.344 193.58C900.784 193.58 901.888 193.256 902.656 192.608C903.424 191.96 903.808 191.024 903.808 189.8C903.808 188.792 903.52 188.036 902.944 187.532C902.368 187.004 901.396 186.632 900.028 186.416L897.364 185.984C895.036 185.576 893.38 184.736 892.396 183.464C891.412 182.168 890.92 180.644 890.92 178.892C890.92 176.492 891.7 174.656 893.26 173.384C894.82 172.088 896.98 171.44 899.74 171.44C901.708 171.44 903.4 171.752 904.816 172.376C906.256 173 907.408 173.852 908.272 174.932L905.5 177.884C904.828 177.092 904.024 176.468 903.088 176.012C902.152 175.532 901.048 175.292 899.776 175.292C897.04 175.292 895.672 176.42 895.672 178.676C895.672 179.636 895.96 180.368 896.536 180.872C897.112 181.376 898.096 181.748 899.488 181.988L902.116 182.456C904.3 182.864 905.92 183.668 906.976 184.868C908.032 186.068 908.56 187.604 908.56 189.476C908.56 190.652 908.356 191.732 907.948 192.716C907.54 193.676 906.94 194.516 906.148 195.236C905.356 195.932 904.372 196.472 903.196 196.856C902.044 197.24 900.712 197.432 899.2 197.432ZM924.745 186.2H917.401V197H912.685V171.872H917.401V182.312H924.745V171.872H929.461V197H924.745V186.2ZM934.667 197V193.472H940.319V175.4H934.667V171.872H950.651V175.4H944.999V193.472H950.651V197H934.667ZM956.433 197V171.872H972.849V175.76H961.149V182.312H971.697V186.2H961.149V197H956.433ZM988.171 175.76V197H983.491V175.76H975.931V171.872H995.731V175.76H988.171ZM1021.19 197V171.872H1037.61V175.76H1025.91V182.312H1036.46V186.2H1025.91V197H1021.19Z" fill="white"/>
<path d="M928 225H1216V297H928V225Z" fill="#F21D00"/>
<path d="M1025.6 275.432C1024.47 275.432 1023.47 275.24 1022.61 274.856C1021.77 274.472 1021.05 273.956 1020.45 273.308C1019.85 272.66 1019.39 271.904 1019.08 271.04C1018.79 270.176 1018.65 269.252 1018.65 268.268C1018.65 266.828 1019 265.508 1019.69 264.308C1020.39 263.108 1021.5 262.088 1023.04 261.248C1022.27 260.24 1021.68 259.316 1021.28 258.476C1020.89 257.612 1020.7 256.688 1020.7 255.704C1020.7 254.792 1020.87 253.952 1021.2 253.184C1021.56 252.416 1022.04 251.756 1022.64 251.204C1023.27 250.652 1024 250.22 1024.84 249.908C1025.68 249.596 1026.59 249.44 1027.58 249.44C1028.44 249.44 1029.23 249.56 1029.95 249.8C1030.67 250.04 1031.31 250.364 1031.86 250.772C1032.44 251.156 1032.92 251.612 1033.3 252.14C1033.68 252.644 1033.97 253.172 1034.16 253.724L1030.89 255.452C1030.62 254.684 1030.19 254.084 1029.59 253.652C1029.02 253.196 1028.34 252.968 1027.58 252.968C1026.74 252.968 1026.06 253.22 1025.56 253.724C1025.06 254.228 1024.8 254.864 1024.8 255.632V255.848C1024.8 256.208 1024.85 256.544 1024.95 256.856C1025.04 257.168 1025.2 257.516 1025.42 257.9C1025.66 258.284 1025.96 258.716 1026.32 259.196C1026.68 259.676 1027.13 260.252 1027.68 260.924L1030.06 263.948L1032.08 266.756H1032.29C1032.36 266.324 1032.42 265.856 1032.47 265.352C1032.52 264.848 1032.56 264.332 1032.58 263.804C1032.63 263.252 1032.65 262.724 1032.65 262.22C1032.68 261.692 1032.69 261.2 1032.69 260.744H1038.7V264.236H1036.14C1036 265.124 1035.82 265.988 1035.6 266.828C1035.41 267.644 1035.11 268.52 1034.7 269.456L1039.31 275H1034.31L1031.36 271.436H1031.1C1030.89 272.66 1030.29 273.632 1029.3 274.352C1028.34 275.072 1027.11 275.432 1025.6 275.432ZM1026.75 271.796C1027.44 271.796 1028.08 271.664 1028.66 271.4C1029.23 271.136 1029.7 270.692 1030.06 270.068L1024.95 263.66C1024.18 264.284 1023.66 264.956 1023.4 265.676C1023.14 266.372 1023 267.116 1023 267.908V268.088C1023 269.288 1023.34 270.212 1024.01 270.86C1024.68 271.484 1025.6 271.796 1026.75 271.796ZM1042.39 248.36H1047V263.984H1047.22L1049.92 261.032L1054.49 256.424H1059.85L1052.47 263.732L1060.65 275H1055.14L1049.2 266.36L1047 268.448V275H1042.39V248.36ZM1063.69 256.424H1068.3V259.7H1068.55C1069.06 258.572 1069.74 257.672 1070.6 257C1071.49 256.328 1072.66 255.992 1074.1 255.992C1075.15 255.992 1076.11 256.196 1076.98 256.604C1077.86 256.988 1078.62 257.588 1079.24 258.404C1079.87 259.196 1080.35 260.204 1080.68 261.428C1081.02 262.652 1081.19 264.08 1081.19 265.712C1081.19 267.344 1081.02 268.772 1080.68 269.996C1080.35 271.22 1079.87 272.24 1079.24 273.056C1078.62 273.848 1077.86 274.448 1076.98 274.856C1076.11 275.24 1075.15 275.432 1074.1 275.432C1072.66 275.432 1071.49 275.096 1070.6 274.424C1069.74 273.752 1069.06 272.852 1068.55 271.724H1068.3V282.2H1063.69V256.424ZM1072.15 271.76C1073.5 271.76 1074.53 271.352 1075.25 270.536C1075.99 269.72 1076.36 268.604 1076.36 267.188V264.236C1076.36 262.82 1075.99 261.704 1075.25 260.888C1074.53 260.072 1073.5 259.664 1072.15 259.664C1071.1 259.664 1070.18 259.928 1069.42 260.456C1068.67 260.96 1068.3 261.74 1068.3 262.796V268.628C1068.3 269.684 1068.67 270.476 1069.42 271.004C1070.18 271.508 1071.1 271.76 1072.15 271.76ZM1122.45 249.872V268.124C1122.45 269.252 1122.26 270.272 1121.87 271.184C1121.49 272.072 1120.94 272.828 1120.22 273.452C1119.52 274.076 1118.67 274.568 1117.66 274.928C1116.68 275.264 1115.57 275.432 1114.35 275.432C1111.97 275.432 1110.1 274.832 1108.73 273.632C1107.39 272.432 1106.53 270.836 1106.14 268.844L1110.57 267.908C1110.79 268.964 1111.17 269.84 1111.72 270.536C1112.3 271.208 1113.17 271.544 1114.35 271.544C1115.43 271.544 1116.26 271.232 1116.83 270.608C1117.41 269.96 1117.7 268.952 1117.7 267.584V253.76H1109.2V249.872H1122.45Z" fill="white"/>
<rect x="929.5" y="310.5" width="143" height="69" fill="white" stroke="black" stroke-width="3"/>
<path d="M939.842 359V333.872H944.558V355.112H955.682V359H939.842ZM968.34 359.432C966.18 359.432 964.332 359.06 962.796 358.316C961.284 357.572 960.048 356.588 959.088 355.364L961.932 352.412C962.868 353.492 963.876 354.296 964.956 354.824C966.06 355.328 967.236 355.58 968.484 355.58C969.924 355.58 971.028 355.256 971.796 354.608C972.564 353.96 972.948 353.024 972.948 351.8C972.948 350.792 972.66 350.036 972.084 349.532C971.508 349.004 970.536 348.632 969.168 348.416L966.504 347.984C964.176 347.576 962.52 346.736 961.536 345.464C960.552 344.168 960.06 342.644 960.06 340.892C960.06 338.492 960.84 336.656 962.4 335.384C963.96 334.088 966.12 333.44 968.88 333.44C970.848 333.44 972.54 333.752 973.956 334.376C975.396 335 976.548 335.852 977.412 336.932L974.64 339.884C973.968 339.092 973.164 338.468 972.228 338.012C971.292 337.532 970.188 337.292 968.916 337.292C966.18 337.292 964.812 338.42 964.812 340.676C964.812 341.636 965.1 342.368 965.676 342.872C966.252 343.376 967.236 343.748 968.628 343.988L971.256 344.456C973.44 344.864 975.06 345.668 976.116 346.868C977.172 348.068 977.7 349.604 977.7 351.476C977.7 352.652 977.496 353.732 977.088 354.716C976.68 355.676 976.08 356.516 975.288 357.236C974.496 357.932 973.512 358.472 972.336 358.856C971.184 359.24 969.852 359.432 968.34 359.432ZM993.886 348.2H986.542V359H981.826V333.872H986.542V344.312H993.886V333.872H998.602V359H993.886V348.2ZM1003.81 359V355.472H1009.46V337.4H1003.81V333.872H1019.79V337.4H1014.14V355.472H1019.79V359H1003.81ZM1025.57 359V333.872H1041.99V337.76H1030.29V344.312H1040.84V348.2H1030.29V359H1025.57ZM1057.31 337.76V359H1052.63V337.76H1045.07V333.872H1064.87V337.76H1057.31Z" fill="black"/>
<rect x="935.5" y="388.5" width="279" height="69" fill="white" stroke="black" stroke-width="3"/>
<path d="M1067.78 439.564H1075.45V421.06H1067.63V417.424H1080.05V438.16C1080.05 439.648 1079.63 440.86 1078.79 441.796C1077.95 442.732 1076.65 443.2 1074.87 443.2H1067.78V439.564ZM1077.79 414.544C1076.71 414.544 1075.94 414.316 1075.48 413.86C1075.05 413.404 1074.83 412.852 1074.83 412.204V411.34C1074.83 410.692 1075.05 410.14 1075.48 409.684C1075.94 409.228 1076.71 409 1077.79 409C1078.87 409 1079.62 409.228 1080.05 409.684C1080.51 410.14 1080.74 410.692 1080.74 411.34V412.204C1080.74 412.852 1080.51 413.404 1080.05 413.86C1079.62 414.316 1078.87 414.544 1077.79 414.544Z" fill="black"/>
</svg>
