<?xml version="1.0" encoding="UTF-8"?>
<svg xmlns="http://www.w3.org/2000/svg" xmlns:xlink="http://www.w3.org/1999/xlink" width="630px" height="330px" viewBox="0 0 630 330" version="1.1">
<g id="surface1">
<rect x="0" y="0" width="630" height="330" style="fill:rgb(100%,100%,100%);fill-opacity:1;stroke:none;"/>
<path style=" stroke:none;fill-rule:nonzero;fill:rgb(0.784314%,43.529412%,77.254902%);fill-opacity:1;" d="M 345 67.5 L 495 67.5 L 495 105 L 345 105 Z M 345 67.5 "/>
<path style=" stroke:none;fill-rule:nonzero;fill:rgb(0%,0%,0%);fill-opacity:1;" d="M 39.492188 38.925781 C 39.207031 39.082031 38.835938 39.160156 38.371094 39.160156 C 37.058594 39.160156 36.402344 38.429688 36.402344 36.964844 L 36.402344 32.527344 L 35.113281 32.527344 L 35.113281 31.5 L 36.402344 31.5 L 36.402344 29.667969 L 37.601562 29.28125 L 37.601562 31.5 L 39.492188 31.5 L 39.492188 32.527344 L 37.601562 32.527344 L 37.601562 36.75 C 37.601562 37.253906 37.6875 37.613281 37.859375 37.828125 C 38.03125 38.042969 38.3125 38.152344 38.707031 38.152344 C 39.011719 38.152344 39.273438 38.066406 39.492188 37.902344 Z M 46.464844 39 L 45.265625 39 L 45.265625 37.828125 L 45.234375 37.828125 C 44.710938 38.726562 43.941406 39.175781 42.925781 39.175781 C 42.179688 39.175781 41.59375 38.976562 41.167969 38.582031 C 40.75 38.1875 40.539062 37.664062 40.539062 37.007812 C 40.539062 35.605469 41.363281 34.789062 43.015625 34.5625 L 45.265625 34.246094 C 45.265625 32.972656 44.75 32.335938 43.71875 32.335938 C 42.816406 32.335938 42 32.640625 41.273438 33.257812 L 41.273438 32.027344 C 42.007812 31.558594 42.859375 31.324219 43.820312 31.324219 C 45.582031 31.324219 46.464844 32.257812 46.464844 34.121094 Z M 45.265625 35.207031 L 43.453125 35.453125 C 42.898438 35.53125 42.476562 35.671875 42.195312 35.871094 C 41.910156 36.066406 41.769531 36.417969 41.769531 36.921875 C 41.769531 37.285156 41.898438 37.585938 42.160156 37.820312 C 42.421875 38.050781 42.769531 38.164062 43.207031 38.164062 C 43.800781 38.164062 44.292969 37.957031 44.679688 37.542969 C 45.070312 37.121094 45.265625 36.59375 45.265625 35.953125 Z M 49.957031 37.914062 L 49.929688 37.914062 L 49.929688 42.449219 L 48.726562 42.449219 L 48.726562 31.5 L 49.929688 31.5 L 49.929688 32.816406 L 49.957031 32.816406 C 50.550781 31.820312 51.414062 31.324219 52.550781 31.324219 C 53.519531 31.324219 54.273438 31.660156 54.816406 32.335938 C 55.355469 33.003906 55.628906 33.902344 55.628906 35.03125 C 55.628906 36.285156 55.320312 37.292969 54.710938 38.046875 C 54.101562 38.800781 53.265625 39.175781 52.207031 39.175781 C 51.234375 39.175781 50.484375 38.753906 49.957031 37.914062 Z M 49.929688 34.890625 L 49.929688 35.9375 C 49.929688 36.558594 50.128906 37.085938 50.53125 37.519531 C 50.933594 37.949219 51.449219 38.164062 52.066406 38.164062 C 52.796875 38.164062 53.363281 37.886719 53.773438 37.328125 C 54.1875 36.773438 54.398438 36 54.398438 35.007812 C 54.398438 34.171875 54.203125 33.519531 53.816406 33.046875 C 53.433594 32.570312 52.910156 32.335938 52.25 32.335938 C 51.554688 32.335938 50.992188 32.578125 50.566406 33.066406 C 50.140625 33.550781 49.929688 34.160156 49.929688 34.890625 Z M 58.777344 37.914062 L 58.746094 37.914062 L 58.746094 42.449219 L 57.546875 42.449219 L 57.546875 31.5 L 58.746094 31.5 L 58.746094 32.816406 L 58.777344 32.816406 C 59.367188 31.820312 60.230469 31.324219 61.371094 31.324219 C 62.335938 31.324219 63.089844 31.660156 63.632812 32.335938 C 64.175781 33.003906 64.445312 33.902344 64.445312 35.03125 C 64.445312 36.285156 64.140625 37.292969 63.53125 38.046875 C 62.917969 38.800781 62.085938 39.175781 61.027344 39.175781 C 60.054688 39.175781 59.304688 38.753906 58.777344 37.914062 Z M 58.746094 34.890625 L 58.746094 35.9375 C 58.746094 36.558594 58.949219 37.085938 59.347656 37.519531 C 59.753906 37.949219 60.265625 38.164062 60.886719 38.164062 C 61.613281 38.164062 62.183594 37.886719 62.59375 37.328125 C 63.007812 36.773438 63.214844 36 63.214844 35.007812 C 63.214844 34.171875 63.023438 33.519531 62.636719 33.046875 C 62.25 32.570312 61.726562 32.335938 61.070312 32.335938 C 60.371094 32.335938 59.808594 32.578125 59.382812 33.066406 C 58.960938 33.550781 58.746094 34.160156 58.746094 34.890625 Z M 66.980469 29.597656 C 66.765625 29.597656 66.582031 29.523438 66.429688 29.375 C 66.28125 29.230469 66.203125 29.042969 66.203125 28.820312 C 66.203125 28.59375 66.28125 28.410156 66.429688 28.261719 C 66.582031 28.113281 66.765625 28.035156 66.980469 28.035156 C 67.199219 28.035156 67.386719 28.113281 67.535156 28.261719 C 67.691406 28.410156 67.769531 28.59375 67.769531 28.820312 C 67.769531 29.035156 67.691406 29.21875 67.535156 29.367188 C 67.386719 29.519531 67.199219 29.597656 66.980469 29.597656 Z M 67.566406 39 L 66.363281 39 L 66.363281 31.5 L 67.566406 31.5 Z M 76.222656 39 L 75.023438 39 L 75.023438 34.722656 C 75.023438 33.128906 74.441406 32.335938 73.277344 32.335938 C 72.679688 32.335938 72.179688 32.5625 71.785156 33.015625 C 71.394531 33.464844 71.199219 34.035156 71.199219 34.722656 L 71.199219 39 L 69.996094 39 L 69.996094 31.5 L 71.199219 31.5 L 71.199219 32.746094 L 71.226562 32.746094 C 71.792969 31.796875 72.613281 31.324219 73.6875 31.324219 C 74.507812 31.324219 75.136719 31.589844 75.570312 32.121094 C 76.007812 32.648438 76.222656 33.414062 76.222656 34.414062 Z M 84.894531 38.398438 C 84.894531 41.152344 83.578125 42.53125 80.941406 42.53125 C 80.011719 42.53125 79.203125 42.355469 78.507812 42.003906 L 78.507812 40.800781 C 79.351562 41.269531 80.160156 41.503906 80.925781 41.503906 C 82.769531 41.503906 83.695312 40.523438 83.695312 38.558594 L 83.695312 37.742188 L 83.664062 37.742188 C 83.09375 38.699219 82.234375 39.175781 81.085938 39.175781 C 80.152344 39.175781 79.402344 38.84375 78.832031 38.179688 C 78.265625 37.511719 77.980469 36.613281 77.980469 35.492188 C 77.980469 34.21875 78.285156 33.203125 78.898438 32.453125 C 79.511719 31.699219 80.351562 31.324219 81.414062 31.324219 C 82.425781 31.324219 83.175781 31.730469 83.664062 32.539062 L 83.695312 32.539062 L 83.695312 31.5 L 84.894531 31.5 Z M 83.695312 35.609375 L 83.695312 34.503906 C 83.695312 33.90625 83.492188 33.398438 83.085938 32.972656 C 82.6875 32.546875 82.183594 32.335938 81.585938 32.335938 C 80.84375 32.335938 80.261719 32.605469 79.839844 33.148438 C 79.421875 33.683594 79.210938 34.4375 79.210938 35.410156 C 79.210938 36.246094 79.410156 36.914062 79.8125 37.417969 C 80.21875 37.914062 80.75 38.164062 81.414062 38.164062 C 82.089844 38.164062 82.636719 37.925781 83.058594 37.445312 C 83.480469 36.96875 83.695312 36.355469 83.695312 35.609375 Z M 91.164062 35.292969 L 87.164062 35.292969 L 87.164062 34.347656 L 91.164062 34.347656 Z M 96.8125 38.925781 C 96.527344 39.082031 96.15625 39.160156 95.691406 39.160156 C 94.378906 39.160156 93.722656 38.429688 93.722656 36.964844 L 93.722656 32.527344 L 92.433594 32.527344 L 92.433594 31.5 L 93.722656 31.5 L 93.722656 29.667969 L 94.921875 29.28125 L 94.921875 31.5 L 96.8125 31.5 L 96.8125 32.527344 L 94.921875 32.527344 L 94.921875 36.75 C 94.921875 37.253906 95.007812 37.613281 95.179688 37.828125 C 95.347656 38.042969 95.632812 38.152344 96.027344 38.152344 C 96.332031 38.152344 96.589844 38.066406 96.8125 37.902344 Z M 104.441406 35.550781 L 99.148438 35.550781 C 99.167969 36.386719 99.390625 37.03125 99.820312 37.484375 C 100.25 37.9375 100.84375 38.164062 101.59375 38.164062 C 102.4375 38.164062 103.214844 37.886719 103.921875 37.328125 L 103.921875 38.457031 C 103.265625 38.9375 102.390625 39.175781 101.308594 39.175781 C 100.25 39.175781 99.417969 38.835938 98.8125 38.15625 C 98.207031 37.472656 97.902344 36.515625 97.902344 35.277344 C 97.902344 34.113281 98.234375 33.164062 98.890625 32.429688 C 99.554688 31.691406 100.378906 31.324219 101.359375 31.324219 C 102.339844 31.324219 103.101562 31.640625 103.636719 32.277344 C 104.175781 32.910156 104.441406 33.792969 104.441406 34.921875 Z M 103.214844 34.53125 C 103.207031 33.839844 103.039062 33.300781 102.707031 32.914062 C 102.378906 32.527344 101.921875 32.335938 101.339844 32.335938 C 100.773438 32.335938 100.289062 32.539062 99.894531 32.941406 C 99.5 33.347656 99.253906 33.878906 99.164062 34.53125 Z M 110.179688 32.714844 C 109.96875 32.554688 109.664062 32.472656 109.269531 32.472656 C 108.757812 32.472656 108.328125 32.714844 107.980469 33.199219 C 107.640625 33.683594 107.46875 34.339844 107.46875 35.175781 L 107.46875 39 L 106.265625 39 L 106.265625 31.5 L 107.46875 31.5 L 107.46875 33.046875 L 107.496094 33.046875 C 107.667969 32.519531 107.929688 32.109375 108.28125 31.816406 C 108.632812 31.515625 109.027344 31.367188 109.460938 31.367188 C 109.773438 31.367188 110.011719 31.402344 110.179688 31.472656 Z M 122.132812 39 L 120.929688 39 L 120.929688 34.691406 C 120.929688 33.863281 120.800781 33.261719 120.542969 32.890625 C 120.289062 32.519531 119.859375 32.335938 119.253906 32.335938 C 118.742188 32.335938 118.304688 32.570312 117.941406 33.039062 C 117.585938 33.507812 117.40625 34.066406 117.40625 34.722656 L 117.40625 39 L 116.207031 39 L 116.207031 34.546875 C 116.207031 33.074219 115.636719 32.335938 114.5 32.335938 C 113.972656 32.335938 113.539062 32.558594 113.195312 33 C 112.855469 33.441406 112.683594 34.015625 112.683594 34.722656 L 112.683594 39 L 111.480469 39 L 111.480469 31.5 L 112.683594 31.5 L 112.683594 32.6875 L 112.710938 32.6875 C 113.246094 31.777344 114.019531 31.324219 115.042969 31.324219 C 115.554688 31.324219 116 31.46875 116.382812 31.757812 C 116.761719 32.039062 117.023438 32.414062 117.164062 32.878906 C 117.722656 31.84375 118.550781 31.324219 119.65625 31.324219 C 121.304688 31.324219 122.132812 32.34375 122.132812 34.378906 Z M 128.238281 35.292969 L 124.242188 35.292969 L 124.242188 34.347656 L 128.238281 34.347656 Z M 141.058594 39 L 139.855469 39 L 139.855469 34.691406 C 139.855469 33.863281 139.726562 33.261719 139.46875 32.890625 C 139.214844 32.519531 138.785156 32.335938 138.179688 32.335938 C 137.664062 32.335938 137.230469 32.570312 136.867188 33.039062 C 136.511719 33.507812 136.332031 34.066406 136.332031 34.722656 L 136.332031 39 L 135.132812 39 L 135.132812 34.546875 C 135.132812 33.074219 134.5625 32.335938 133.425781 32.335938 C 132.898438 32.335938 132.464844 32.558594 132.121094 33 C 131.78125 33.441406 131.609375 34.015625 131.609375 34.722656 L 131.609375 39 L 130.40625 39 L 130.40625 31.5 L 131.609375 31.5 L 131.609375 32.6875 L 131.636719 32.6875 C 132.171875 31.777344 132.945312 31.324219 133.96875 31.324219 C 134.480469 31.324219 134.925781 31.46875 135.308594 31.757812 C 135.6875 32.039062 135.949219 32.414062 136.089844 32.878906 C 136.648438 31.84375 137.476562 31.324219 138.582031 31.324219 C 140.230469 31.324219 141.058594 32.34375 141.058594 34.378906 Z M 142.875 38.730469 L 142.875 37.441406 C 143.527344 37.921875 144.25 38.164062 145.035156 38.164062 C 146.089844 38.164062 146.617188 37.8125 146.617188 37.109375 C 146.617188 36.910156 146.570312 36.742188 146.476562 36.605469 C 146.390625 36.464844 146.265625 36.339844 146.109375 36.230469 C 145.960938 36.125 145.777344 36.027344 145.570312 35.945312 C 145.363281 35.859375 145.140625 35.769531 144.902344 35.675781 C 144.570312 35.542969 144.277344 35.410156 144.023438 35.277344 C 143.773438 35.144531 143.5625 34.992188 143.394531 34.824219 C 143.226562 34.65625 143.101562 34.460938 143.011719 34.246094 C 142.929688 34.03125 142.886719 33.78125 142.886719 33.492188 C 142.886719 33.140625 142.96875 32.832031 143.128906 32.5625 C 143.289062 32.289062 143.507812 32.0625 143.773438 31.878906 C 144.042969 31.695312 144.347656 31.554688 144.691406 31.464844 C 145.035156 31.371094 145.394531 31.324219 145.757812 31.324219 C 146.410156 31.324219 146.988281 31.4375 147.503906 31.660156 L 147.503906 32.878906 C 146.949219 32.515625 146.316406 32.335938 145.597656 32.335938 C 145.375 32.335938 145.171875 32.363281 144.992188 32.414062 C 144.808594 32.464844 144.652344 32.535156 144.523438 32.628906 C 144.394531 32.71875 144.292969 32.832031 144.222656 32.964844 C 144.152344 33.09375 144.117188 33.234375 144.117188 33.390625 C 144.117188 33.585938 144.152344 33.75 144.222656 33.878906 C 144.292969 34.011719 144.398438 34.128906 144.535156 34.230469 C 144.671875 34.335938 144.839844 34.425781 145.035156 34.511719 C 145.230469 34.59375 145.453125 34.683594 145.699219 34.78125 C 146.03125 34.90625 146.332031 35.039062 146.59375 35.175781 C 146.859375 35.308594 147.082031 35.460938 147.269531 35.628906 C 147.453125 35.796875 147.59375 35.988281 147.691406 36.210938 C 147.796875 36.429688 147.847656 36.691406 147.847656 36.992188 C 147.847656 37.363281 147.761719 37.6875 147.597656 37.960938 C 147.4375 38.234375 147.21875 38.460938 146.945312 38.640625 C 146.671875 38.820312 146.355469 38.957031 146 39.042969 C 145.644531 39.132812 145.269531 39.175781 144.878906 39.175781 C 144.109375 39.175781 143.441406 39.027344 142.875 38.730469 Z M 156.964844 41.386719 L 155.898438 41.386719 C 154.382812 39.660156 153.625 37.527344 153.625 34.992188 C 153.625 32.449219 154.382812 30.285156 155.898438 28.496094 L 156.980469 28.496094 C 155.445312 30.351562 154.679688 32.511719 154.679688 34.980469 C 154.679688 37.425781 155.441406 39.5625 156.964844 41.386719 Z M 162.78125 31.25 C 162.78125 30.929688 162.730469 30.648438 162.628906 30.410156 C 162.53125 30.167969 162.394531 29.972656 162.21875 29.816406 C 162.046875 29.652344 161.84375 29.535156 161.609375 29.457031 C 161.375 29.378906 161.121094 29.339844 160.847656 29.339844 C 160.613281 29.339844 160.382812 29.371094 160.15625 29.433594 C 159.933594 29.5 159.714844 29.585938 159.5 29.699219 C 159.289062 29.8125 159.085938 29.945312 158.882812 30.101562 C 158.691406 30.257812 158.507812 30.429688 158.335938 30.621094 L 158.335938 29.332031 C 158.671875 29.003906 159.046875 28.757812 159.464844 28.585938 C 159.882812 28.410156 160.394531 28.320312 160.992188 28.320312 C 161.425781 28.320312 161.820312 28.386719 162.1875 28.511719 C 162.554688 28.632812 162.871094 28.8125 163.140625 29.054688 C 163.410156 29.292969 163.617188 29.589844 163.769531 29.941406 C 163.925781 30.292969 164.003906 30.695312 164.003906 31.148438 C 164.003906 31.5625 163.953125 31.941406 163.855469 32.277344 C 163.765625 32.613281 163.621094 32.929688 163.425781 33.226562 C 163.234375 33.527344 162.992188 33.8125 162.699219 34.085938 C 162.40625 34.359375 162.0625 34.636719 161.667969 34.921875 C 161.175781 35.273438 160.765625 35.570312 160.445312 35.820312 C 160.125 36.070312 159.871094 36.304688 159.683594 36.523438 C 159.496094 36.738281 159.363281 36.957031 159.285156 37.175781 C 159.214844 37.390625 159.175781 37.640625 159.175781 37.921875 L 164.40625 37.921875 L 164.40625 39 L 157.925781 39 L 157.925781 38.480469 C 157.925781 38.03125 157.972656 37.636719 158.070312 37.292969 C 158.167969 36.953125 158.328125 36.628906 158.554688 36.320312 C 158.78125 36.011719 159.070312 35.703125 159.433594 35.398438 C 159.800781 35.089844 160.246094 34.742188 160.773438 34.355469 C 161.15625 34.082031 161.472656 33.820312 161.726562 33.574219 C 161.984375 33.324219 162.191406 33.074219 162.347656 32.824219 C 162.503906 32.578125 162.613281 32.324219 162.679688 32.070312 C 162.746094 31.8125 162.78125 31.539062 162.78125 31.25 Z M 172.683594 33.703125 C 172.683594 34.582031 172.601562 35.363281 172.441406 36.039062 C 172.285156 36.71875 172.054688 37.292969 171.753906 37.761719 C 171.453125 38.226562 171.085938 38.582031 170.648438 38.824219 C 170.210938 39.0625 169.71875 39.183594 169.160156 39.183594 C 168.632812 39.183594 168.160156 39.070312 167.746094 38.839844 C 167.335938 38.605469 166.988281 38.265625 166.707031 37.820312 C 166.421875 37.375 166.210938 36.832031 166.0625 36.1875 C 165.914062 35.539062 165.84375 34.796875 165.84375 33.960938 C 165.84375 33.042969 165.917969 32.234375 166.070312 31.527344 C 166.226562 30.828125 166.453125 30.238281 166.75 29.765625 C 167.050781 29.285156 167.417969 28.925781 167.855469 28.6875 C 168.300781 28.441406 168.808594 28.320312 169.378906 28.320312 C 171.582031 28.320312 172.683594 30.117188 172.683594 33.703125 Z M 171.453125 33.820312 C 171.453125 30.832031 170.742188 29.339844 169.320312 29.339844 C 167.824219 29.339844 167.074219 30.859375 167.074219 33.902344 C 167.074219 36.738281 167.808594 38.15625 169.277344 38.15625 C 170.726562 38.15625 171.453125 36.710938 171.453125 33.820312 Z M 180.769531 33.703125 C 180.769531 34.582031 180.6875 35.363281 180.527344 36.039062 C 180.371094 36.71875 180.140625 37.292969 179.839844 37.761719 C 179.539062 38.226562 179.171875 38.582031 178.734375 38.824219 C 178.300781 39.0625 177.800781 39.183594 177.246094 39.183594 C 176.71875 39.183594 176.246094 39.070312 175.832031 38.839844 C 175.421875 38.605469 175.074219 38.265625 174.792969 37.820312 C 174.511719 37.375 174.292969 36.832031 174.148438 36.1875 C 174 35.539062 173.929688 34.796875 173.929688 33.960938 C 173.929688 33.042969 174.003906 32.234375 174.15625 31.527344 C 174.3125 30.828125 174.539062 30.238281 174.835938 29.765625 C 175.132812 29.285156 175.503906 28.925781 175.941406 28.6875 C 176.386719 28.441406 176.894531 28.320312 177.464844 28.320312 C 179.667969 28.320312 180.769531 30.117188 180.769531 33.703125 Z M 179.539062 33.820312 C 179.539062 30.832031 178.828125 29.339844 177.40625 29.339844 C 175.90625 29.339844 175.15625 30.859375 175.15625 33.902344 C 175.15625 36.738281 175.894531 38.15625 177.363281 38.15625 C 178.8125 38.15625 179.539062 36.710938 179.539062 33.820312 Z M 193.25 39 L 192.046875 39 L 192.046875 34.691406 C 192.046875 33.863281 191.917969 33.261719 191.660156 32.890625 C 191.40625 32.519531 190.976562 32.335938 190.371094 32.335938 C 189.859375 32.335938 189.421875 32.570312 189.058594 33.039062 C 188.703125 33.507812 188.527344 34.066406 188.527344 34.722656 L 188.527344 39 L 187.324219 39 L 187.324219 34.546875 C 187.324219 33.074219 186.757812 32.335938 185.617188 32.335938 C 185.089844 32.335938 184.65625 32.558594 184.3125 33 C 183.972656 33.441406 183.800781 34.015625 183.800781 34.722656 L 183.800781 39 L 182.597656 39 L 182.597656 31.5 L 183.800781 31.5 L 183.800781 32.6875 L 183.832031 32.6875 C 184.363281 31.777344 185.140625 31.324219 186.160156 31.324219 C 186.671875 31.324219 187.117188 31.46875 187.5 31.757812 C 187.882812 32.039062 188.140625 32.414062 188.28125 32.878906 C 188.839844 31.84375 189.671875 31.324219 190.773438 31.324219 C 192.425781 31.324219 193.25 32.34375 193.25 34.378906 Z M 195.066406 38.730469 L 195.066406 37.441406 C 195.71875 37.921875 196.441406 38.164062 197.226562 38.164062 C 198.28125 38.164062 198.808594 37.8125 198.808594 37.109375 C 198.808594 36.910156 198.761719 36.742188 198.667969 36.605469 C 198.582031 36.464844 198.460938 36.339844 198.304688 36.230469 C 198.152344 36.125 197.972656 36.027344 197.761719 35.945312 C 197.554688 35.859375 197.335938 35.769531 197.09375 35.675781 C 196.761719 35.542969 196.46875 35.410156 196.214844 35.277344 C 195.96875 35.144531 195.757812 34.992188 195.585938 34.824219 C 195.421875 34.65625 195.292969 34.460938 195.207031 34.246094 C 195.121094 34.03125 195.082031 33.78125 195.082031 33.492188 C 195.082031 33.140625 195.160156 32.832031 195.324219 32.5625 C 195.484375 32.289062 195.699219 32.0625 195.96875 31.878906 C 196.234375 31.695312 196.539062 31.554688 196.882812 31.464844 C 197.230469 31.371094 197.585938 31.324219 197.953125 31.324219 C 198.601562 31.324219 199.183594 31.4375 199.695312 31.660156 L 199.695312 32.878906 C 199.144531 32.515625 198.507812 32.335938 197.789062 32.335938 C 197.566406 32.335938 197.363281 32.363281 197.183594 32.414062 C 197.003906 32.464844 196.84375 32.535156 196.714844 32.628906 C 196.585938 32.71875 196.488281 32.832031 196.414062 32.964844 C 196.34375 33.09375 196.3125 33.234375 196.3125 33.390625 C 196.3125 33.585938 196.34375 33.75 196.414062 33.878906 C 196.488281 34.011719 196.589844 34.128906 196.726562 34.230469 C 196.863281 34.335938 197.03125 34.425781 197.226562 34.511719 C 197.421875 34.59375 197.644531 34.683594 197.894531 34.78125 C 198.226562 34.90625 198.523438 35.039062 198.785156 35.175781 C 199.050781 35.308594 199.273438 35.460938 199.460938 35.628906 C 199.644531 35.796875 199.789062 35.988281 199.886719 36.210938 C 199.988281 36.429688 200.039062 36.691406 200.039062 36.992188 C 200.039062 37.363281 199.957031 37.6875 199.789062 37.960938 C 199.628906 38.234375 199.410156 38.460938 199.136719 38.640625 C 198.863281 38.820312 198.550781 38.957031 198.195312 39.042969 C 197.835938 39.132812 197.464844 39.175781 197.074219 39.175781 C 196.300781 39.175781 195.632812 39.027344 195.066406 38.730469 Z M 201.921875 41.386719 L 200.851562 41.386719 C 202.375 39.5625 203.136719 37.425781 203.136719 34.980469 C 203.136719 32.511719 202.371094 30.351562 200.839844 28.496094 L 201.921875 28.496094 C 203.445312 30.285156 204.207031 32.449219 204.207031 34.992188 C 204.207031 37.527344 203.445312 39.660156 201.921875 41.386719 Z M 201.921875 41.386719 "/>
<path style=" stroke:none;fill-rule:nonzero;fill:rgb(0.784314%,43.529412%,77.254902%);fill-opacity:1;" d="M 45 67.5 L 270 67.5 L 270 105 L 45 105 Z M 45 67.5 "/>
<path style=" stroke:none;fill-rule:nonzero;fill:rgb(100%,100%,100%);fill-opacity:1;" d="M 78.4375 93.203125 C 78.101562 93.203125 77.808594 93.15625 77.546875 93.0625 C 77.296875 92.972656 77.0625 92.847656 76.847656 92.683594 C 76.628906 92.515625 76.417969 92.308594 76.214844 92.066406 C 76.015625 91.828125 75.804688 91.554688 75.578125 91.25 C 75.347656 91.503906 75.074219 91.746094 74.761719 91.980469 C 74.457031 92.214844 74.117188 92.421875 73.742188 92.605469 C 73.367188 92.785156 72.957031 92.929688 72.511719 93.035156 C 72.066406 93.148438 71.585938 93.203125 71.0625 93.203125 C 70.429688 93.203125 69.847656 93.121094 69.320312 92.964844 C 68.796875 92.808594 68.34375 92.574219 67.96875 92.269531 C 67.59375 91.960938 67.300781 91.578125 67.089844 91.128906 C 66.882812 90.675781 66.78125 90.160156 66.78125 89.570312 C 66.78125 88.675781 67.035156 87.910156 67.546875 87.277344 C 68.058594 86.640625 68.777344 86.117188 69.710938 85.714844 C 69.535156 85.585938 69.359375 85.433594 69.183594 85.265625 C 69.003906 85.089844 68.847656 84.894531 68.707031 84.675781 C 68.570312 84.453125 68.460938 84.210938 68.371094 83.945312 C 68.289062 83.679688 68.25 83.382812 68.25 83.066406 C 68.25 82.605469 68.332031 82.195312 68.496094 81.839844 C 68.664062 81.480469 68.898438 81.179688 69.191406 80.933594 C 69.484375 80.6875 69.828125 80.503906 70.226562 80.378906 C 70.625 80.25 71.058594 80.183594 71.519531 80.183594 C 71.976562 80.183594 72.390625 80.25 72.765625 80.378906 C 73.148438 80.503906 73.472656 80.679688 73.742188 80.914062 C 74.019531 81.148438 74.234375 81.429688 74.382812 81.757812 C 74.535156 82.085938 74.613281 82.453125 74.613281 82.859375 C 74.613281 83.558594 74.410156 84.148438 74.007812 84.617188 C 73.609375 85.078125 73.007812 85.472656 72.203125 85.800781 C 72.609375 85.960938 72.976562 86.152344 73.304688 86.382812 C 73.632812 86.609375 73.933594 86.867188 74.210938 87.148438 C 74.492188 87.429688 74.75 87.730469 74.992188 88.050781 C 75.230469 88.375 75.46875 88.707031 75.703125 89.054688 C 76.179688 88.390625 76.535156 87.660156 76.777344 86.867188 C 77.015625 86.066406 77.136719 85.234375 77.136719 84.359375 C 77.136719 84.136719 77.121094 83.929688 77.089844 83.734375 C 77.066406 83.535156 77.035156 83.339844 76.984375 83.148438 L 78.382812 83.148438 C 78.429688 83.339844 78.457031 83.527344 78.464844 83.703125 C 78.472656 83.871094 78.484375 84.078125 78.496094 84.316406 C 78.496094 84.847656 78.441406 85.386719 78.332031 85.925781 C 78.21875 86.464844 78.070312 86.988281 77.882812 87.496094 C 77.695312 88.003906 77.476562 88.484375 77.222656 88.941406 C 76.976562 89.398438 76.714844 89.816406 76.441406 90.195312 C 76.648438 90.476562 76.835938 90.722656 77.003906 90.933594 C 77.171875 91.140625 77.34375 91.3125 77.515625 91.453125 C 77.691406 91.59375 77.867188 91.699219 78.050781 91.769531 C 78.238281 91.835938 78.449219 91.867188 78.683594 91.867188 C 78.859375 91.867188 79.035156 91.84375 79.21875 91.796875 C 79.402344 91.75 79.589844 91.691406 79.78125 91.621094 L 79.78125 92.957031 C 79.570312 93.039062 79.347656 93.097656 79.113281 93.140625 C 78.882812 93.183594 78.660156 93.203125 78.4375 93.203125 Z M 71.0625 91.953125 C 71.507812 91.953125 71.917969 91.90625 72.292969 91.8125 C 72.667969 91.714844 73.015625 91.585938 73.328125 91.425781 C 73.648438 91.261719 73.933594 91.074219 74.191406 90.863281 C 74.449219 90.648438 74.683594 90.421875 74.894531 90.1875 C 74.535156 89.628906 74.207031 89.15625 73.902344 88.765625 C 73.601562 88.367188 73.296875 88.023438 72.988281 87.734375 C 72.683594 87.449219 72.355469 87.203125 72.003906 86.996094 C 71.65625 86.792969 71.253906 86.601562 70.796875 86.425781 C 70.429688 86.570312 70.089844 86.734375 69.777344 86.917969 C 69.46875 87.09375 69.199219 87.304688 68.972656 87.550781 C 68.746094 87.789062 68.570312 88.070312 68.441406 88.394531 C 68.316406 88.714844 68.25 89.09375 68.25 89.527344 C 68.25 89.925781 68.324219 90.277344 68.46875 90.582031 C 68.617188 90.886719 68.816406 91.140625 69.066406 91.347656 C 69.324219 91.546875 69.625 91.699219 69.964844 91.804688 C 70.304688 91.902344 70.671875 91.953125 71.0625 91.953125 Z M 73.257812 82.980469 C 73.257812 82.6875 73.203125 82.4375 73.09375 82.234375 C 72.988281 82.027344 72.847656 81.859375 72.679688 81.722656 C 72.515625 81.589844 72.332031 81.492188 72.125 81.433594 C 71.921875 81.371094 71.71875 81.335938 71.519531 81.335938 C 70.945312 81.335938 70.484375 81.492188 70.140625 81.804688 C 69.800781 82.113281 69.628906 82.535156 69.621094 83.066406 C 69.621094 83.308594 69.65625 83.535156 69.726562 83.746094 C 69.804688 83.957031 69.90625 84.152344 70.035156 84.335938 C 70.167969 84.515625 70.324219 84.675781 70.5 84.816406 C 70.675781 84.957031 70.863281 85.078125 71.0625 85.179688 C 71.800781 84.921875 72.351562 84.621094 72.714844 84.28125 C 73.078125 83.933594 73.257812 83.503906 73.257812 82.980469 Z M 94.390625 93 L 92.945312 93 L 92.945312 87.832031 C 92.945312 86.835938 92.792969 86.117188 92.480469 85.671875 C 92.175781 85.222656 91.660156 85.003906 90.933594 85.003906 C 90.320312 85.003906 89.796875 85.285156 89.359375 85.847656 C 88.933594 86.410156 88.71875 87.082031 88.71875 87.867188 L 88.71875 93 L 87.277344 93 L 87.277344 87.65625 C 87.277344 85.886719 86.597656 85.003906 85.230469 85.003906 C 84.597656 85.003906 84.078125 85.269531 83.664062 85.800781 C 83.253906 86.328125 83.050781 87.015625 83.050781 87.867188 L 83.050781 93 L 81.609375 93 L 81.609375 84 L 83.050781 84 L 83.050781 85.421875 L 83.085938 85.421875 C 83.722656 84.335938 84.65625 83.789062 85.878906 83.789062 C 86.496094 83.789062 87.03125 83.960938 87.488281 84.308594 C 87.945312 84.648438 88.257812 85.097656 88.429688 85.652344 C 89.097656 84.410156 90.09375 83.789062 91.417969 83.789062 C 93.398438 83.789062 94.390625 85.011719 94.390625 87.453125 Z M 101.289062 92.910156 C 100.949219 93.097656 100.5 93.191406 99.941406 93.191406 C 98.367188 93.191406 97.578125 92.316406 97.578125 90.558594 L 97.578125 85.230469 L 96.03125 85.230469 L 96.03125 84 L 97.578125 84 L 97.578125 81.804688 L 99.019531 81.335938 L 99.019531 84 L 101.289062 84 L 101.289062 85.230469 L 99.019531 85.230469 L 99.019531 90.300781 C 99.019531 90.90625 99.121094 91.335938 99.328125 91.59375 C 99.535156 91.851562 99.871094 91.980469 100.347656 91.980469 C 100.710938 91.980469 101.023438 91.878906 101.289062 91.683594 Z M 114.882812 93 L 108.347656 93 L 108.347656 80.398438 L 109.820312 80.398438 L 109.820312 91.664062 L 114.882812 91.664062 Z M 116.230469 92.492188 L 116.230469 90.75 C 116.429688 90.925781 116.664062 91.085938 116.941406 91.222656 C 117.222656 91.367188 117.515625 91.484375 117.820312 91.585938 C 118.128906 91.679688 118.441406 91.753906 118.753906 91.804688 C 119.0625 91.859375 119.347656 91.882812 119.613281 91.882812 C 120.523438 91.882812 121.199219 91.714844 121.644531 91.382812 C 122.09375 91.042969 122.320312 90.558594 122.320312 89.921875 C 122.320312 89.585938 122.246094 89.289062 122.089844 89.035156 C 121.945312 88.785156 121.742188 88.554688 121.476562 88.351562 C 121.214844 88.140625 120.898438 87.941406 120.535156 87.753906 C 120.179688 87.558594 119.792969 87.359375 119.375 87.148438 C 118.9375 86.921875 118.527344 86.699219 118.144531 86.46875 C 117.765625 86.242188 117.433594 85.988281 117.152344 85.714844 C 116.871094 85.4375 116.648438 85.128906 116.484375 84.78125 C 116.328125 84.429688 116.246094 84.019531 116.246094 83.550781 C 116.246094 82.976562 116.371094 82.480469 116.625 82.058594 C 116.878906 81.628906 117.207031 81.277344 117.617188 81.003906 C 118.027344 80.726562 118.496094 80.523438 119.015625 80.386719 C 119.542969 80.253906 120.078125 80.183594 120.625 80.183594 C 121.867188 80.183594 122.773438 80.335938 123.339844 80.632812 L 123.339844 82.296875 C 122.597656 81.777344 121.640625 81.523438 120.472656 81.523438 C 120.152344 81.523438 119.828125 81.558594 119.507812 81.628906 C 119.183594 81.691406 118.898438 81.800781 118.648438 81.953125 C 118.394531 82.105469 118.191406 82.300781 118.03125 82.539062 C 117.871094 82.78125 117.792969 83.074219 117.792969 83.421875 C 117.792969 83.742188 117.851562 84.019531 117.96875 84.253906 C 118.09375 84.488281 118.273438 84.703125 118.503906 84.898438 C 118.742188 85.089844 119.023438 85.277344 119.359375 85.460938 C 119.699219 85.640625 120.089844 85.839844 120.527344 86.058594 C 120.976562 86.277344 121.40625 86.515625 121.808594 86.757812 C 122.214844 87.003906 122.570312 87.277344 122.875 87.578125 C 123.179688 87.875 123.417969 88.207031 123.59375 88.570312 C 123.777344 88.933594 123.867188 89.347656 123.867188 89.816406 C 123.867188 90.441406 123.746094 90.964844 123.496094 91.402344 C 123.257812 91.828125 122.929688 92.175781 122.515625 92.445312 C 122.101562 92.714844 121.628906 92.910156 121.089844 93.027344 C 120.550781 93.148438 119.984375 93.210938 119.382812 93.210938 C 119.183594 93.210938 118.941406 93.191406 118.648438 93.160156 C 118.351562 93.128906 118.054688 93.082031 117.75 93.015625 C 117.445312 92.960938 117.15625 92.886719 116.878906 92.796875 C 116.609375 92.703125 116.394531 92.601562 116.230469 92.492188 Z M 135.855469 93 L 134.378906 93 L 134.378906 87.253906 L 127.859375 87.253906 L 127.859375 93 L 126.378906 93 L 126.378906 80.398438 L 127.859375 80.398438 L 127.859375 85.925781 L 134.378906 85.925781 L 134.378906 80.398438 L 135.855469 80.398438 Z M 140.636719 93 L 139.160156 93 L 139.160156 80.398438 L 140.636719 80.398438 Z M 150.355469 81.734375 L 145.433594 81.734375 L 145.433594 86.089844 L 149.988281 86.089844 L 149.988281 87.417969 L 145.433594 87.417969 L 145.433594 93 L 143.960938 93 L 143.960938 80.398438 L 150.355469 80.398438 Z M 160.203125 81.734375 L 156.5625 81.734375 L 156.5625 93 L 155.085938 93 L 155.085938 81.734375 L 151.457031 81.734375 L 151.457031 80.398438 L 160.203125 80.398438 Z M 173.527344 81.734375 L 168.601562 81.734375 L 168.601562 86.089844 L 173.15625 86.089844 L 173.15625 87.417969 L 168.601562 87.417969 L 168.601562 93 L 167.128906 93 L 167.128906 80.398438 L 173.527344 80.398438 Z M 173.527344 81.734375 "/>
<path style=" stroke:none;fill-rule:nonzero;fill:rgb(100%,100%,100%);fill-opacity:1;" d="M 378.4375 93.203125 C 378.101562 93.203125 377.804688 93.15625 377.546875 93.0625 C 377.296875 92.972656 377.0625 92.847656 376.84375 92.683594 C 376.628906 92.515625 376.417969 92.308594 376.214844 92.066406 C 376.015625 91.828125 375.800781 91.554688 375.582031 91.25 C 375.34375 91.503906 375.074219 91.746094 374.761719 91.980469 C 374.457031 92.214844 374.117188 92.421875 373.742188 92.605469 C 373.367188 92.785156 372.957031 92.929688 372.511719 93.035156 C 372.066406 93.148438 371.585938 93.203125 371.0625 93.203125 C 370.429688 93.203125 369.847656 93.121094 369.324219 92.964844 C 368.792969 92.808594 368.34375 92.574219 367.96875 92.269531 C 367.59375 91.960938 367.300781 91.578125 367.089844 91.128906 C 366.886719 90.675781 366.78125 90.160156 366.78125 89.570312 C 366.78125 88.675781 367.035156 87.910156 367.546875 87.277344 C 368.054688 86.640625 368.777344 86.117188 369.710938 85.714844 C 369.53125 85.585938 369.355469 85.433594 369.179688 85.265625 C 369.007812 85.089844 368.847656 84.894531 368.707031 84.675781 C 368.574219 84.453125 368.460938 84.210938 368.371094 83.945312 C 368.289062 83.679688 368.25 83.382812 368.25 83.066406 C 368.25 82.605469 368.332031 82.195312 368.496094 81.839844 C 368.664062 81.480469 368.898438 81.179688 369.191406 80.933594 C 369.484375 80.6875 369.828125 80.503906 370.226562 80.378906 C 370.625 80.25 371.054688 80.183594 371.519531 80.183594 C 371.976562 80.183594 372.394531 80.25 372.769531 80.378906 C 373.148438 80.503906 373.472656 80.679688 373.742188 80.914062 C 374.019531 81.148438 374.230469 81.429688 374.386719 81.757812 C 374.535156 82.085938 374.613281 82.453125 374.613281 82.859375 C 374.613281 83.558594 374.410156 84.148438 374.007812 84.617188 C 373.609375 85.078125 373.007812 85.472656 372.207031 85.800781 C 372.609375 85.960938 372.976562 86.152344 373.304688 86.382812 C 373.632812 86.609375 373.933594 86.867188 374.210938 87.148438 C 374.488281 87.429688 374.75 87.730469 374.992188 88.050781 C 375.230469 88.375 375.46875 88.707031 375.703125 89.054688 C 376.175781 88.390625 376.535156 87.660156 376.777344 86.867188 C 377.015625 86.066406 377.136719 85.234375 377.136719 84.359375 C 377.136719 84.136719 377.121094 83.929688 377.09375 83.734375 C 377.070312 83.535156 377.03125 83.339844 376.984375 83.148438 L 378.382812 83.148438 C 378.429688 83.339844 378.457031 83.527344 378.464844 83.703125 C 378.472656 83.871094 378.484375 84.078125 378.496094 84.316406 C 378.496094 84.847656 378.441406 85.386719 378.332031 85.925781 C 378.21875 86.464844 378.070312 86.988281 377.882812 87.496094 C 377.695312 88.003906 377.476562 88.484375 377.222656 88.941406 C 376.976562 89.398438 376.71875 89.816406 376.441406 90.195312 C 376.648438 90.476562 376.835938 90.722656 377.003906 90.933594 C 377.171875 91.140625 377.34375 91.3125 377.515625 91.453125 C 377.691406 91.59375 377.867188 91.699219 378.050781 91.769531 C 378.238281 91.835938 378.449219 91.867188 378.683594 91.867188 C 378.859375 91.867188 379.035156 91.84375 379.21875 91.796875 C 379.402344 91.75 379.589844 91.691406 379.78125 91.621094 L 379.78125 92.957031 C 379.570312 93.039062 379.347656 93.097656 379.113281 93.140625 C 378.886719 93.183594 378.660156 93.203125 378.4375 93.203125 Z M 371.0625 91.953125 C 371.507812 91.953125 371.917969 91.90625 372.292969 91.8125 C 372.667969 91.714844 373.015625 91.585938 373.332031 91.425781 C 373.648438 91.261719 373.933594 91.074219 374.191406 90.863281 C 374.449219 90.648438 374.683594 90.421875 374.894531 90.1875 C 374.535156 89.628906 374.207031 89.15625 373.902344 88.765625 C 373.601562 88.367188 373.296875 88.023438 372.988281 87.734375 C 372.683594 87.449219 372.355469 87.203125 372.003906 86.996094 C 371.65625 86.792969 371.257812 86.601562 370.796875 86.425781 C 370.429688 86.570312 370.089844 86.734375 369.78125 86.917969 C 369.46875 87.09375 369.199219 87.304688 368.96875 87.550781 C 368.746094 87.789062 368.574219 88.070312 368.445312 88.394531 C 368.316406 88.714844 368.25 89.09375 368.25 89.527344 C 368.25 89.925781 368.324219 90.277344 368.46875 90.582031 C 368.617188 90.886719 368.816406 91.140625 369.066406 91.347656 C 369.324219 91.546875 369.625 91.699219 369.964844 91.804688 C 370.304688 91.902344 370.667969 91.953125 371.0625 91.953125 Z M 373.261719 82.980469 C 373.261719 82.6875 373.203125 82.4375 373.09375 82.234375 C 372.988281 82.027344 372.847656 81.859375 372.679688 81.722656 C 372.515625 81.589844 372.332031 81.492188 372.125 81.433594 C 371.921875 81.371094 371.71875 81.335938 371.519531 81.335938 C 370.945312 81.335938 370.484375 81.492188 370.140625 81.804688 C 369.800781 82.113281 369.628906 82.535156 369.621094 83.066406 C 369.621094 83.308594 369.65625 83.535156 369.726562 83.746094 C 369.800781 83.957031 369.90625 84.152344 370.035156 84.335938 C 370.167969 84.515625 370.324219 84.675781 370.5 84.816406 C 370.675781 84.957031 370.863281 85.078125 371.0625 85.179688 C 371.800781 84.921875 372.351562 84.621094 372.714844 84.28125 C 373.078125 83.933594 373.261719 83.503906 373.261719 82.980469 Z M 394.390625 93 L 392.949219 93 L 392.949219 87.832031 C 392.949219 86.835938 392.792969 86.117188 392.480469 85.671875 C 392.175781 85.222656 391.660156 85.003906 390.933594 85.003906 C 390.320312 85.003906 389.792969 85.285156 389.359375 85.847656 C 388.933594 86.410156 388.71875 87.082031 388.71875 87.867188 L 388.71875 93 L 387.277344 93 L 387.277344 87.65625 C 387.277344 85.886719 386.59375 85.003906 385.230469 85.003906 C 384.597656 85.003906 384.078125 85.269531 383.664062 85.800781 C 383.257812 86.328125 383.050781 87.015625 383.050781 87.867188 L 383.050781 93 L 381.609375 93 L 381.609375 84 L 383.050781 84 L 383.050781 85.421875 L 383.085938 85.421875 C 383.722656 84.335938 384.65625 83.789062 385.882812 83.789062 C 386.496094 83.789062 387.03125 83.960938 387.488281 84.308594 C 387.945312 84.648438 388.261719 85.097656 388.429688 85.652344 C 389.097656 84.410156 390.09375 83.789062 391.417969 83.789062 C 393.398438 83.789062 394.390625 85.011719 394.390625 87.453125 Z M 401.289062 92.910156 C 400.949219 93.097656 400.5 93.191406 399.945312 93.191406 C 398.367188 93.191406 397.578125 92.316406 397.578125 90.558594 L 397.578125 85.230469 L 396.03125 85.230469 L 396.03125 84 L 397.578125 84 L 397.578125 81.804688 L 399.019531 81.335938 L 399.019531 84 L 401.289062 84 L 401.289062 85.230469 L 399.019531 85.230469 L 399.019531 90.300781 C 399.019531 90.90625 399.121094 91.335938 399.328125 91.59375 C 399.53125 91.851562 399.871094 91.980469 400.347656 91.980469 C 400.710938 91.980469 401.023438 91.878906 401.289062 91.683594 Z M 414.886719 93 L 408.34375 93 L 408.34375 80.398438 L 409.824219 80.398438 L 409.824219 91.664062 L 414.886719 91.664062 Z M 416.230469 92.492188 L 416.230469 90.75 C 416.429688 90.925781 416.664062 91.085938 416.941406 91.222656 C 417.222656 91.367188 417.515625 91.484375 417.820312 91.585938 C 418.132812 91.679688 418.441406 91.753906 418.753906 91.804688 C 419.0625 91.859375 419.347656 91.882812 419.613281 91.882812 C 420.523438 91.882812 421.199219 91.714844 421.644531 91.382812 C 422.09375 91.042969 422.320312 90.558594 422.320312 89.921875 C 422.320312 89.585938 422.242188 89.289062 422.09375 89.035156 C 421.945312 88.785156 421.738281 88.554688 421.476562 88.351562 C 421.214844 88.140625 420.898438 87.941406 420.535156 87.753906 C 420.179688 87.558594 419.792969 87.359375 419.375 87.148438 C 418.9375 86.921875 418.527344 86.699219 418.144531 86.46875 C 417.765625 86.242188 417.433594 85.988281 417.152344 85.714844 C 416.871094 85.4375 416.648438 85.128906 416.484375 84.78125 C 416.328125 84.429688 416.246094 84.019531 416.246094 83.550781 C 416.246094 82.976562 416.371094 82.480469 416.625 82.058594 C 416.878906 81.628906 417.207031 81.277344 417.617188 81.003906 C 418.027344 80.726562 418.492188 80.523438 419.015625 80.386719 C 419.542969 80.253906 420.078125 80.183594 420.625 80.183594 C 421.867188 80.183594 422.773438 80.335938 423.339844 80.632812 L 423.339844 82.296875 C 422.59375 81.777344 421.640625 81.523438 420.472656 81.523438 C 420.152344 81.523438 419.832031 81.558594 419.507812 81.628906 C 419.183594 81.691406 418.898438 81.800781 418.648438 81.953125 C 418.394531 82.105469 418.191406 82.300781 418.03125 82.539062 C 417.871094 82.78125 417.792969 83.074219 417.792969 83.421875 C 417.792969 83.742188 417.851562 84.019531 417.96875 84.253906 C 418.09375 84.488281 418.273438 84.703125 418.507812 84.898438 C 418.738281 85.089844 419.023438 85.277344 419.359375 85.460938 C 419.699219 85.640625 420.089844 85.839844 420.527344 86.058594 C 420.976562 86.277344 421.40625 86.515625 421.808594 86.757812 C 422.214844 87.003906 422.570312 87.277344 422.875 87.578125 C 423.179688 87.875 423.417969 88.207031 423.59375 88.570312 C 423.777344 88.933594 423.867188 89.347656 423.867188 89.816406 C 423.867188 90.441406 423.742188 90.964844 423.496094 91.402344 C 423.257812 91.828125 422.929688 92.175781 422.515625 92.445312 C 422.101562 92.714844 421.628906 92.910156 421.089844 93.027344 C 420.550781 93.148438 419.980469 93.210938 419.386719 93.210938 C 419.183594 93.210938 418.941406 93.191406 418.648438 93.160156 C 418.351562 93.128906 418.054688 93.082031 417.75 93.015625 C 417.445312 92.960938 417.15625 92.886719 416.878906 92.796875 C 416.609375 92.703125 416.394531 92.601562 416.230469 92.492188 Z M 435.855469 93 L 434.378906 93 L 434.378906 87.253906 L 427.855469 87.253906 L 427.855469 93 L 426.382812 93 L 426.382812 80.398438 L 427.855469 80.398438 L 427.855469 85.925781 L 434.378906 85.925781 L 434.378906 80.398438 L 435.855469 80.398438 Z M 440.636719 93 L 439.160156 93 L 439.160156 80.398438 L 440.636719 80.398438 Z M 450.355469 81.734375 L 445.433594 81.734375 L 445.433594 86.089844 L 449.988281 86.089844 L 449.988281 87.417969 L 445.433594 87.417969 L 445.433594 93 L 443.960938 93 L 443.960938 80.398438 L 450.355469 80.398438 Z M 460.203125 81.734375 L 456.5625 81.734375 L 456.5625 93 L 455.085938 93 L 455.085938 81.734375 L 451.457031 81.734375 L 451.457031 80.398438 L 460.203125 80.398438 Z M 473.527344 81.734375 L 468.601562 81.734375 L 468.601562 86.089844 L 473.15625 86.089844 L 473.15625 87.417969 L 468.601562 87.417969 L 468.601562 93 L 467.128906 93 L 467.128906 80.398438 L 473.527344 80.398438 Z M 473.527344 81.734375 "/>
<path style="fill:none;stroke-width:1;stroke-linecap:butt;stroke-linejoin:miter;stroke:rgb(0%,0%,0%);stroke-opacity:1;stroke-dasharray:2,2;stroke-miterlimit:4;" d="M 129.5 46 L 129.5 70 " transform="matrix(1.5,0,0,1.5,0,0)"/>
<path style=" stroke:none;fill-rule:nonzero;fill:rgb(0%,0%,0%);fill-opacity:1;" d="M 195 52.5 L 187.5 60 L 187.5 45 Z M 195 52.5 "/>
<path style="fill:none;stroke-width:1;stroke-linecap:butt;stroke-linejoin:miter;stroke:rgb(0%,0%,0%);stroke-opacity:1;stroke-miterlimit:4;" d="M 30.5 45 L 30.5 35 " transform="matrix(1.5,0,0,1.5,0,0)"/>
<path style="fill:none;stroke-width:1;stroke-linecap:butt;stroke-linejoin:miter;stroke:rgb(0%,0%,0%);stroke-opacity:1;stroke-miterlimit:4;" d="M 30 34.5 L 129 34.5 " transform="matrix(1.5,0,0,1.5,0,0)"/>
<path style="fill:none;stroke-width:1;stroke-linecap:butt;stroke-linejoin:miter;stroke:rgb(0%,0%,0%);stroke-opacity:1;stroke-miterlimit:4;" d="M 230 34.5 L 329 34.5 " transform="matrix(1.5,0,0,1.5,0,0)"/>
<path style="fill:none;stroke-width:1;stroke-linecap:butt;stroke-linejoin:miter;stroke:rgb(0%,0%,0%);stroke-opacity:1;stroke-miterlimit:4;" d="M 129.5 45 L 129.5 35 " transform="matrix(1.5,0,0,1.5,0,0)"/>
<path style=" stroke:none;fill-rule:nonzero;fill:rgb(76.862745%,76.862745%,76.862745%);fill-opacity:1;" d="M 120 180 L 135 180 L 135 217.5 L 120 217.5 Z M 120 180 "/>
<path style=" stroke:none;fill-rule:nonzero;fill:rgb(0%,0%,0%);fill-opacity:1;" d="M 128.222656 203.621094 C 128.222656 205.097656 127.921875 206.234375 127.324219 207.03125 C 126.734375 207.835938 125.882812 208.234375 124.777344 208.234375 C 124.367188 208.234375 123.964844 208.144531 123.578125 207.957031 L 123.578125 206.609375 C 124.015625 206.875 124.421875 207.007812 124.808594 207.007812 C 126.121094 207.007812 126.777344 205.957031 126.777344 203.859375 L 126.777344 195 L 128.222656 195 Z M 127.515625 192.714844 C 127.257812 192.714844 127.039062 192.628906 126.859375 192.453125 C 126.675781 192.277344 126.585938 192.050781 126.585938 191.78125 C 126.585938 191.515625 126.675781 191.289062 126.859375 191.113281 C 127.039062 190.933594 127.257812 190.84375 127.515625 190.84375 C 127.78125 190.84375 128.003906 190.933594 128.183594 191.113281 C 128.371094 191.289062 128.464844 191.515625 128.464844 191.78125 C 128.464844 192.039062 128.371094 192.261719 128.183594 192.441406 C 128.003906 192.625 127.78125 192.714844 127.515625 192.714844 Z M 127.515625 192.714844 "/>
<path style=" stroke:none;fill-rule:nonzero;fill:rgb(76.862745%,76.862745%,76.862745%);fill-opacity:1;" d="M 120 142.5 L 270 142.5 L 270 180 L 120 180 Z M 120 142.5 "/>
<path style=" stroke:none;fill-rule:nonzero;fill:rgb(0%,0%,0%);fill-opacity:1;" d="M 176.269531 166.5 L 169.730469 166.5 L 169.730469 153.898438 L 171.207031 153.898438 L 171.207031 165.164062 L 176.269531 165.164062 Z M 177.613281 165.988281 L 177.613281 164.25 C 177.816406 164.425781 178.050781 164.585938 178.328125 164.722656 C 178.609375 164.863281 178.902344 164.984375 179.207031 165.085938 C 179.515625 165.179688 179.828125 165.253906 180.136719 165.304688 C 180.449219 165.355469 180.734375 165.382812 181 165.382812 C 181.90625 165.382812 182.585938 165.21875 183.03125 164.882812 C 183.480469 164.542969 183.707031 164.054688 183.707031 163.421875 C 183.707031 163.085938 183.628906 162.789062 183.476562 162.535156 C 183.332031 162.285156 183.125 162.054688 182.863281 161.851562 C 182.597656 161.640625 182.285156 161.441406 181.921875 161.253906 C 181.566406 161.058594 181.175781 160.855469 180.761719 160.648438 C 180.324219 160.421875 179.910156 160.199219 179.53125 159.96875 C 179.152344 159.742188 178.820312 159.488281 178.539062 159.214844 C 178.257812 158.9375 178.035156 158.628906 177.871094 158.28125 C 177.710938 157.929688 177.632812 157.519531 177.632812 157.050781 C 177.632812 156.476562 177.757812 155.980469 178.011719 155.558594 C 178.261719 155.128906 178.59375 154.777344 179.003906 154.503906 C 179.414062 154.226562 179.878906 154.023438 180.402344 153.886719 C 180.929688 153.753906 181.464844 153.683594 182.011719 153.683594 C 183.253906 153.683594 184.15625 153.835938 184.726562 154.132812 L 184.726562 155.792969 C 183.980469 155.28125 183.027344 155.023438 181.859375 155.023438 C 181.539062 155.023438 181.214844 155.054688 180.894531 155.128906 C 180.570312 155.191406 180.285156 155.300781 180.03125 155.453125 C 179.78125 155.605469 179.574219 155.800781 179.417969 156.039062 C 179.257812 156.28125 179.179688 156.574219 179.179688 156.917969 C 179.179688 157.242188 179.238281 157.519531 179.355469 157.753906 C 179.476562 157.988281 179.65625 158.203125 179.890625 158.398438 C 180.125 158.589844 180.410156 158.777344 180.742188 158.960938 C 181.085938 159.140625 181.472656 159.339844 181.914062 159.554688 C 182.363281 159.78125 182.792969 160.015625 183.195312 160.261719 C 183.601562 160.507812 183.957031 160.777344 184.261719 161.078125 C 184.566406 161.375 184.804688 161.707031 184.980469 162.070312 C 185.160156 162.433594 185.253906 162.847656 185.253906 163.320312 C 185.253906 163.941406 185.128906 164.46875 184.882812 164.902344 C 184.644531 165.328125 184.316406 165.675781 183.898438 165.945312 C 183.488281 166.214844 183.015625 166.410156 182.476562 166.527344 C 181.9375 166.648438 181.367188 166.710938 180.769531 166.710938 C 180.570312 166.710938 180.324219 166.695312 180.03125 166.65625 C 179.738281 166.628906 179.441406 166.582031 179.136719 166.519531 C 178.832031 166.460938 178.539062 166.386719 178.265625 166.296875 C 177.996094 166.203125 177.78125 166.101562 177.613281 165.988281 Z M 197.242188 166.5 L 195.765625 166.5 L 195.765625 160.753906 L 189.242188 160.753906 L 189.242188 166.5 L 187.765625 166.5 L 187.765625 153.898438 L 189.242188 153.898438 L 189.242188 159.425781 L 195.765625 159.425781 L 195.765625 153.898438 L 197.242188 153.898438 Z M 202.023438 166.5 L 200.546875 166.5 L 200.546875 153.898438 L 202.023438 153.898438 Z M 211.742188 155.230469 L 206.820312 155.230469 L 206.820312 159.59375 L 211.375 159.59375 L 211.375 160.917969 L 206.820312 160.917969 L 206.820312 166.5 L 205.34375 166.5 L 205.34375 153.898438 L 211.742188 153.898438 Z M 221.585938 155.230469 L 217.949219 155.230469 L 217.949219 166.5 L 216.472656 166.5 L 216.472656 155.230469 L 212.84375 155.230469 L 212.84375 153.898438 L 221.585938 153.898438 Z M 221.585938 155.230469 "/>
<path style="fill:none;stroke-width:1;stroke-linecap:butt;stroke-linejoin:miter;stroke:rgb(100%,0%,0%);stroke-opacity:1;stroke-dasharray:2,2;stroke-miterlimit:4;" d="M 329.5 46 L 329.5 70 " transform="matrix(1.5,0,0,1.5,0,0)"/>
<path style=" stroke:none;fill-rule:nonzero;fill:rgb(0%,0%,0%);fill-opacity:1;" d="M 495 52.5 L 487.5 60 L 487.5 45 Z M 495 52.5 "/>
<path style="fill:none;stroke-width:1;stroke-linecap:butt;stroke-linejoin:miter;stroke:rgb(0%,0%,0%);stroke-opacity:1;stroke-miterlimit:4;" d="M 230.5 45 L 230.5 35 " transform="matrix(1.5,0,0,1.5,0,0)"/>
<path style=" stroke:none;fill-rule:nonzero;fill:rgb(100%,0%,0%);fill-opacity:1;" d="M 495 45 L 493.5 45 L 493.5 67.5 L 495 67.5 Z M 495 45 "/>
<path style=" stroke:none;fill-rule:nonzero;fill:rgb(82.352941%,40%,16.078431%);fill-opacity:1;" d="M 120 105 L 135 105 L 135 142.5 L 120 142.5 Z M 120 105 "/>
<path style=" stroke:none;fill-rule:nonzero;fill:rgb(100%,100%,100%);fill-opacity:1;" d="M 128.222656 130.121094 C 128.222656 131.597656 127.921875 132.734375 127.324219 133.53125 C 126.734375 134.335938 125.882812 134.734375 124.777344 134.734375 C 124.367188 134.734375 123.964844 134.640625 123.578125 134.453125 L 123.578125 133.109375 C 124.015625 133.375 124.421875 133.503906 124.808594 133.503906 C 126.121094 133.503906 126.777344 132.457031 126.777344 130.359375 L 126.777344 121.5 L 128.222656 121.5 Z M 127.515625 119.214844 C 127.257812 119.214844 127.039062 119.128906 126.859375 118.953125 C 126.675781 118.777344 126.585938 118.554688 126.585938 118.285156 C 126.585938 118.015625 126.675781 117.789062 126.859375 117.617188 C 127.039062 117.433594 127.257812 117.34375 127.515625 117.34375 C 127.78125 117.34375 128.003906 117.433594 128.183594 117.617188 C 128.371094 117.789062 128.464844 118.015625 128.464844 118.285156 C 128.464844 118.539062 128.371094 118.761719 128.183594 118.941406 C 128.003906 119.125 127.78125 119.214844 127.515625 119.214844 Z M 127.515625 119.214844 "/>
<path style=" stroke:none;fill-rule:nonzero;fill:rgb(76.862745%,76.862745%,76.862745%);fill-opacity:1;" d="M 420 180 L 570 180 L 570 217.5 L 420 217.5 Z M 420 180 "/>
<path style=" stroke:none;fill-rule:nonzero;fill:rgb(0%,0%,0%);fill-opacity:1;" d="M 495.71875 203.621094 C 495.71875 205.097656 495.421875 206.234375 494.824219 207.03125 C 494.230469 207.835938 493.382812 208.234375 492.277344 208.234375 C 491.863281 208.234375 491.46875 208.144531 491.082031 207.957031 L 491.082031 206.609375 C 491.515625 206.875 491.921875 207.007812 492.308594 207.007812 C 493.621094 207.007812 494.28125 205.957031 494.28125 203.859375 L 494.28125 195 L 495.71875 195 Z M 495.019531 192.714844 C 494.761719 192.714844 494.539062 192.628906 494.359375 192.453125 C 494.175781 192.277344 494.085938 192.050781 494.085938 191.78125 C 494.085938 191.515625 494.175781 191.289062 494.359375 191.113281 C 494.539062 190.933594 494.761719 190.84375 495.019531 190.84375 C 495.28125 190.84375 495.503906 190.933594 495.683594 191.113281 C 495.871094 191.289062 495.96875 191.515625 495.96875 191.78125 C 495.96875 192.039062 495.871094 192.261719 495.683594 192.441406 C 495.503906 192.625 495.28125 192.714844 495.019531 192.714844 Z M 495.019531 192.714844 "/>
<path style=" stroke:none;fill-rule:nonzero;fill:rgb(76.862745%,76.862745%,76.862745%);fill-opacity:1;" d="M 420 142.5 L 495 142.5 L 495 180 L 420 180 Z M 420 142.5 "/>
<path style=" stroke:none;fill-rule:nonzero;fill:rgb(0%,0%,0%);fill-opacity:1;" d="M 438.769531 166.5 L 432.230469 166.5 L 432.230469 153.898438 L 433.707031 153.898438 L 433.707031 165.164062 L 438.769531 165.164062 Z M 440.113281 165.988281 L 440.113281 164.25 C 440.316406 164.425781 440.550781 164.585938 440.828125 164.722656 C 441.109375 164.863281 441.402344 164.984375 441.707031 165.085938 C 442.015625 165.179688 442.328125 165.253906 442.636719 165.304688 C 442.949219 165.355469 443.234375 165.382812 443.5 165.382812 C 444.40625 165.382812 445.085938 165.21875 445.53125 164.882812 C 445.980469 164.542969 446.207031 164.054688 446.207031 163.421875 C 446.207031 163.085938 446.128906 162.789062 445.976562 162.535156 C 445.832031 162.285156 445.625 162.054688 445.363281 161.851562 C 445.097656 161.640625 444.785156 161.441406 444.421875 161.253906 C 444.066406 161.058594 443.675781 160.855469 443.261719 160.648438 C 442.824219 160.421875 442.410156 160.199219 442.03125 159.96875 C 441.652344 159.742188 441.320312 159.488281 441.039062 159.214844 C 440.757812 158.9375 440.535156 158.628906 440.371094 158.28125 C 440.210938 157.929688 440.132812 157.519531 440.132812 157.050781 C 440.132812 156.476562 440.257812 155.980469 440.511719 155.558594 C 440.761719 155.128906 441.09375 154.777344 441.503906 154.503906 C 441.914062 154.226562 442.378906 154.023438 442.902344 153.886719 C 443.429688 153.753906 443.964844 153.683594 444.511719 153.683594 C 445.753906 153.683594 446.65625 153.835938 447.226562 154.132812 L 447.226562 155.792969 C 446.480469 155.28125 445.527344 155.023438 444.359375 155.023438 C 444.039062 155.023438 443.714844 155.054688 443.394531 155.128906 C 443.070312 155.191406 442.785156 155.300781 442.53125 155.453125 C 442.28125 155.605469 442.074219 155.800781 441.917969 156.039062 C 441.757812 156.28125 441.679688 156.574219 441.679688 156.917969 C 441.679688 157.242188 441.738281 157.519531 441.855469 157.753906 C 441.976562 157.988281 442.15625 158.203125 442.390625 158.398438 C 442.625 158.589844 442.910156 158.777344 443.242188 158.960938 C 443.585938 159.140625 443.972656 159.339844 444.414062 159.554688 C 444.863281 159.78125 445.292969 160.015625 445.695312 160.261719 C 446.101562 160.507812 446.457031 160.777344 446.761719 161.078125 C 447.066406 161.375 447.304688 161.707031 447.480469 162.070312 C 447.660156 162.433594 447.753906 162.847656 447.753906 163.320312 C 447.753906 163.941406 447.628906 164.46875 447.382812 164.902344 C 447.144531 165.328125 446.816406 165.675781 446.398438 165.945312 C 445.988281 166.214844 445.515625 166.410156 444.976562 166.527344 C 444.4375 166.648438 443.867188 166.710938 443.269531 166.710938 C 443.070312 166.710938 442.824219 166.695312 442.53125 166.65625 C 442.238281 166.628906 441.941406 166.582031 441.636719 166.519531 C 441.332031 166.460938 441.039062 166.386719 440.765625 166.296875 C 440.496094 166.203125 440.28125 166.101562 440.113281 165.988281 Z M 459.742188 166.5 L 458.265625 166.5 L 458.265625 160.753906 L 451.742188 160.753906 L 451.742188 166.5 L 450.265625 166.5 L 450.265625 153.898438 L 451.742188 153.898438 L 451.742188 159.425781 L 458.265625 159.425781 L 458.265625 153.898438 L 459.742188 153.898438 Z M 464.523438 166.5 L 463.046875 166.5 L 463.046875 153.898438 L 464.523438 153.898438 Z M 474.242188 155.230469 L 469.320312 155.230469 L 469.320312 159.59375 L 473.875 159.59375 L 473.875 160.917969 L 469.320312 160.917969 L 469.320312 166.5 L 467.84375 166.5 L 467.84375 153.898438 L 474.242188 153.898438 Z M 484.085938 155.230469 L 480.449219 155.230469 L 480.449219 166.5 L 478.972656 166.5 L 478.972656 155.230469 L 475.34375 155.230469 L 475.34375 153.898438 L 484.085938 153.898438 Z M 484.085938 155.230469 "/>
<path style=" stroke:none;fill-rule:nonzero;fill:rgb(82.352941%,40%,16.078431%);fill-opacity:1;" d="M 420 105 L 570 105 L 570 142.5 L 420 142.5 Z M 420 105 "/>
<path style=" stroke:none;fill-rule:nonzero;fill:rgb(100%,100%,100%);fill-opacity:1;" d="M 495.71875 130.121094 C 495.71875 131.597656 495.421875 132.734375 494.824219 133.53125 C 494.230469 134.335938 493.382812 134.734375 492.277344 134.734375 C 491.863281 134.734375 491.46875 134.640625 491.082031 134.453125 L 491.082031 133.109375 C 491.515625 133.375 491.921875 133.503906 492.308594 133.503906 C 493.621094 133.503906 494.28125 132.457031 494.28125 130.359375 L 494.28125 121.5 L 495.71875 121.5 Z M 495.019531 119.214844 C 494.761719 119.214844 494.539062 119.128906 494.359375 118.953125 C 494.175781 118.777344 494.085938 118.554688 494.085938 118.285156 C 494.085938 118.015625 494.175781 117.789062 494.359375 117.617188 C 494.539062 117.433594 494.761719 117.34375 495.019531 117.34375 C 495.28125 117.34375 495.503906 117.433594 495.683594 117.617188 C 495.871094 117.789062 495.96875 118.015625 495.96875 118.285156 C 495.96875 118.539062 495.871094 118.761719 495.683594 118.941406 C 495.503906 119.125 495.28125 119.214844 495.019531 119.214844 Z M 495.019531 119.214844 "/>
<path style=" stroke:none;fill-rule:nonzero;fill:rgb(0%,0%,0%);fill-opacity:1;" d="M 556.832031 248.59375 C 556.617188 248.59375 556.433594 248.523438 556.28125 248.375 C 556.132812 248.230469 556.054688 248.042969 556.054688 247.820312 C 556.054688 247.59375 556.132812 247.410156 556.28125 247.261719 C 556.433594 247.113281 556.617188 247.035156 556.832031 247.035156 C 557.050781 247.035156 557.238281 247.113281 557.386719 247.261719 C 557.542969 247.410156 557.621094 247.59375 557.621094 247.820312 C 557.621094 248.035156 557.542969 248.21875 557.386719 248.367188 C 557.238281 248.519531 557.050781 248.59375 556.832031 248.59375 Z M 557.417969 258 L 556.214844 258 L 556.214844 250.5 L 557.417969 250.5 Z M 566.074219 258 L 564.871094 258 L 564.871094 253.722656 C 564.871094 252.128906 564.292969 251.335938 563.128906 251.335938 C 562.53125 251.335938 562.03125 251.5625 561.636719 252.015625 C 561.246094 252.464844 561.050781 253.035156 561.050781 253.722656 L 561.050781 258 L 559.847656 258 L 559.847656 250.5 L 561.050781 250.5 L 561.050781 251.746094 L 561.078125 251.746094 C 561.644531 250.796875 562.464844 250.324219 563.539062 250.324219 C 564.359375 250.324219 564.988281 250.589844 565.421875 251.121094 C 565.855469 251.652344 566.074219 252.414062 566.074219 253.414062 Z M 569.574219 256.914062 L 569.546875 256.914062 L 569.546875 261.449219 L 568.34375 261.449219 L 568.34375 250.5 L 569.546875 250.5 L 569.546875 251.820312 L 569.574219 251.820312 C 570.167969 250.824219 571.03125 250.324219 572.167969 250.324219 C 573.136719 250.324219 573.890625 250.660156 574.429688 251.335938 C 574.972656 252.003906 575.242188 252.902344 575.242188 254.03125 C 575.242188 255.285156 574.941406 256.292969 574.328125 257.046875 C 573.71875 257.800781 572.882812 258.175781 571.824219 258.175781 C 570.851562 258.175781 570.101562 257.753906 569.574219 256.914062 Z M 569.546875 253.890625 L 569.546875 254.9375 C 569.546875 255.558594 569.746094 256.085938 570.148438 256.519531 C 570.550781 256.949219 571.066406 257.164062 571.683594 257.164062 C 572.410156 257.164062 572.980469 256.886719 573.390625 256.332031 C 573.804688 255.773438 574.015625 255 574.015625 254.007812 C 574.015625 253.171875 573.820312 252.519531 573.433594 252.046875 C 573.050781 251.574219 572.527344 251.335938 571.867188 251.335938 C 571.171875 251.335938 570.609375 251.578125 570.183594 252.066406 C 569.757812 252.550781 569.546875 253.15625 569.546875 253.890625 Z M 583.226562 258 L 582.027344 258 L 582.027344 256.8125 L 581.996094 256.8125 C 581.5 257.722656 580.726562 258.175781 579.683594 258.175781 C 577.894531 258.175781 577.003906 257.113281 577.003906 254.980469 L 577.003906 250.5 L 578.195312 250.5 L 578.195312 254.792969 C 578.195312 256.375 578.800781 257.164062 580.011719 257.164062 C 580.597656 257.164062 581.078125 256.949219 581.457031 256.519531 C 581.835938 256.085938 582.027344 255.519531 582.027344 254.820312 L 582.027344 250.5 L 583.226562 250.5 Z M 589.136719 257.925781 C 588.855469 258.082031 588.480469 258.160156 588.019531 258.160156 C 586.703125 258.160156 586.046875 257.429688 586.046875 255.964844 L 586.046875 251.527344 L 584.757812 251.527344 L 584.757812 250.5 L 586.046875 250.5 L 586.046875 248.667969 L 587.25 248.28125 L 587.25 250.5 L 589.136719 250.5 L 589.136719 251.527344 L 587.25 251.527344 L 587.25 255.75 C 587.25 256.253906 587.335938 256.613281 587.503906 256.828125 C 587.675781 257.042969 587.960938 257.152344 588.355469 257.152344 C 588.65625 257.152344 588.917969 257.066406 589.136719 256.902344 Z M 589.136719 257.925781 "/>
<path style=" stroke:none;fill-rule:nonzero;fill:rgb(82.352941%,40%,16.078431%);fill-opacity:1;" d="M 532.5 246 L 547.5 246 L 547.5 261 L 532.5 261 Z M 532.5 246 "/>
<path style=" stroke:none;fill-rule:nonzero;fill:rgb(0.784314%,43.529412%,77.254902%);fill-opacity:1;" d="M 532.5 246 L 547.5 246 L 532.5 261 Z M 532.5 246 "/>
<path style=" stroke:none;fill-rule:nonzero;fill:rgb(0%,0%,0%);fill-opacity:1;" d="M 559.351562 286.675781 C 558.242188 286.675781 557.355469 286.324219 556.691406 285.628906 C 556.03125 284.925781 555.703125 283.996094 555.703125 282.839844 C 555.703125 281.578125 556.046875 280.59375 556.734375 279.886719 C 557.425781 279.179688 558.355469 278.824219 559.527344 278.824219 C 560.644531 278.824219 561.515625 279.167969 562.140625 279.855469 C 562.773438 280.546875 563.085938 281.5 563.085938 282.71875 C 563.085938 283.917969 562.746094 284.878906 562.066406 285.597656 C 561.394531 286.316406 560.488281 286.675781 559.351562 286.675781 Z M 559.4375 279.835938 C 558.667969 279.835938 558.058594 280.097656 557.605469 280.625 C 557.160156 281.148438 556.933594 281.871094 556.933594 282.792969 C 556.933594 283.683594 557.160156 284.382812 557.613281 284.898438 C 558.070312 285.40625 558.675781 285.664062 559.4375 285.664062 C 560.214844 285.664062 560.8125 285.414062 561.226562 284.910156 C 561.644531 284.40625 561.855469 283.691406 561.855469 282.765625 C 561.855469 281.828125 561.644531 281.105469 561.226562 280.597656 C 560.8125 280.089844 560.214844 279.835938 559.4375 279.835938 Z M 571.070312 286.5 L 569.867188 286.5 L 569.867188 285.3125 L 569.839844 285.3125 C 569.339844 286.222656 568.570312 286.675781 567.523438 286.675781 C 565.738281 286.675781 564.84375 285.613281 564.84375 283.480469 L 564.84375 279 L 566.035156 279 L 566.035156 283.292969 C 566.035156 284.875 566.644531 285.664062 567.851562 285.664062 C 568.441406 285.664062 568.921875 285.449219 569.296875 285.019531 C 569.675781 284.585938 569.867188 284.019531 569.867188 283.320312 L 569.867188 279 L 571.070312 279 Z M 576.980469 286.425781 C 576.699219 286.582031 576.324219 286.660156 575.859375 286.660156 C 574.546875 286.660156 573.890625 285.929688 573.890625 284.464844 L 573.890625 280.027344 L 572.597656 280.027344 L 572.597656 279 L 573.890625 279 L 573.890625 277.167969 L 575.089844 276.78125 L 575.089844 279 L 576.980469 279 L 576.980469 280.027344 L 575.089844 280.027344 L 575.089844 284.25 C 575.089844 284.753906 575.175781 285.113281 575.347656 285.328125 C 575.515625 285.542969 575.800781 285.652344 576.195312 285.652344 C 576.5 285.652344 576.761719 285.566406 576.980469 285.402344 Z M 579.816406 285.414062 L 579.785156 285.414062 L 579.785156 289.949219 L 578.585938 289.949219 L 578.585938 279 L 579.785156 279 L 579.785156 280.320312 L 579.816406 280.320312 C 580.40625 279.324219 581.269531 278.824219 582.40625 278.824219 C 583.375 278.824219 584.128906 279.160156 584.671875 279.835938 C 585.214844 280.503906 585.484375 281.402344 585.484375 282.53125 C 585.484375 283.785156 585.179688 284.792969 584.566406 285.546875 C 583.957031 286.300781 583.121094 286.675781 582.0625 286.675781 C 581.089844 286.675781 580.34375 286.253906 579.816406 285.414062 Z M 579.785156 282.390625 L 579.785156 283.4375 C 579.785156 284.058594 579.984375 284.585938 580.386719 285.019531 C 580.789062 285.449219 581.304688 285.664062 581.921875 285.664062 C 582.652344 285.664062 583.21875 285.386719 583.628906 284.832031 C 584.046875 284.273438 584.253906 283.5 584.253906 282.507812 C 584.253906 281.671875 584.058594 281.019531 583.675781 280.546875 C 583.289062 280.074219 582.765625 279.835938 582.105469 279.835938 C 581.410156 279.835938 580.847656 280.078125 580.421875 280.566406 C 579.996094 281.050781 579.785156 281.65625 579.785156 282.390625 Z M 593.46875 286.5 L 592.265625 286.5 L 592.265625 285.3125 L 592.234375 285.3125 C 591.738281 286.222656 590.96875 286.675781 589.921875 286.675781 C 588.136719 286.675781 587.242188 285.613281 587.242188 283.480469 L 587.242188 279 L 588.433594 279 L 588.433594 283.292969 C 588.433594 284.875 589.039062 285.664062 590.25 285.664062 C 590.839844 285.664062 591.316406 285.449219 591.695312 285.019531 C 592.074219 284.585938 592.265625 284.019531 592.265625 283.320312 L 592.265625 279 L 593.46875 279 Z M 599.378906 286.425781 C 599.09375 286.582031 598.71875 286.660156 598.257812 286.660156 C 596.941406 286.660156 596.285156 285.929688 596.285156 284.464844 L 596.285156 280.027344 L 594.996094 280.027344 L 594.996094 279 L 596.285156 279 L 596.285156 277.167969 L 597.488281 276.78125 L 597.488281 279 L 599.378906 279 L 599.378906 280.027344 L 597.488281 280.027344 L 597.488281 284.25 C 597.488281 284.753906 597.574219 285.113281 597.742188 285.328125 C 597.914062 285.542969 598.199219 285.652344 598.59375 285.652344 C 598.894531 285.652344 599.15625 285.566406 599.378906 285.402344 Z M 599.378906 286.425781 "/>
<path style=" stroke:none;fill-rule:nonzero;fill:rgb(76.862745%,76.862745%,76.862745%);fill-opacity:1;" d="M 532.5 274.5 L 547.5 274.5 L 547.5 289.5 L 532.5 289.5 Z M 532.5 274.5 "/>
</g>
</svg>
