<?xml version="1.0" encoding="UTF-8"?>
<svg xmlns="http://www.w3.org/2000/svg" xmlns:xlink="http://www.w3.org/1999/xlink" width="360px" height="390px" viewBox="0 0 360 390" version="1.1">
<g id="surface1">
<rect x="0" y="0" width="360" height="390" style="fill:rgb(100%,100%,100%);fill-opacity:1;stroke:none;"/>
<path style=" stroke:none;fill-rule:nonzero;fill:rgb(0.784314%,43.529412%,77.254902%);fill-opacity:1;" d="M 105 195 L 330 195 L 330 232.5 L 105 232.5 Z M 105 195 "/>
<path style=" stroke:none;fill-rule:nonzero;fill:rgb(0%,0%,0%);fill-opacity:1;" d="M 106.992188 38.925781 C 106.707031 39.082031 106.335938 39.160156 105.871094 39.160156 C 104.558594 39.160156 103.902344 38.429688 103.902344 36.964844 L 103.902344 32.527344 L 102.613281 32.527344 L 102.613281 31.5 L 103.902344 31.5 L 103.902344 29.667969 L 105.101562 29.28125 L 105.101562 31.5 L 106.992188 31.5 L 106.992188 32.527344 L 105.101562 32.527344 L 105.101562 36.75 C 105.101562 37.253906 105.1875 37.613281 105.359375 37.828125 C 105.53125 38.042969 105.8125 38.152344 106.207031 38.152344 C 106.511719 38.152344 106.773438 38.066406 106.992188 37.902344 Z M 113.964844 39 L 112.765625 39 L 112.765625 37.828125 L 112.734375 37.828125 C 112.210938 38.726562 111.441406 39.175781 110.425781 39.175781 C 109.679688 39.175781 109.09375 38.976562 108.667969 38.582031 C 108.25 38.1875 108.039062 37.664062 108.039062 37.007812 C 108.039062 35.605469 108.863281 34.789062 110.515625 34.5625 L 112.765625 34.246094 C 112.765625 32.972656 112.25 32.335938 111.21875 32.335938 C 110.316406 32.335938 109.5 32.640625 108.773438 33.257812 L 108.773438 32.027344 C 109.507812 31.558594 110.359375 31.324219 111.320312 31.324219 C 113.082031 31.324219 113.964844 32.257812 113.964844 34.121094 Z M 112.765625 35.207031 L 110.953125 35.453125 C 110.398438 35.53125 109.976562 35.671875 109.695312 35.871094 C 109.410156 36.066406 109.269531 36.417969 109.269531 36.921875 C 109.269531 37.285156 109.398438 37.585938 109.660156 37.820312 C 109.921875 38.050781 110.269531 38.164062 110.707031 38.164062 C 111.300781 38.164062 111.792969 37.957031 112.179688 37.542969 C 112.570312 37.121094 112.765625 36.59375 112.765625 35.953125 Z M 117.457031 37.914062 L 117.429688 37.914062 L 117.429688 42.449219 L 116.226562 42.449219 L 116.226562 31.5 L 117.429688 31.5 L 117.429688 32.816406 L 117.457031 32.816406 C 118.050781 31.820312 118.914062 31.324219 120.050781 31.324219 C 121.019531 31.324219 121.773438 31.660156 122.316406 32.335938 C 122.855469 33.003906 123.128906 33.902344 123.128906 35.03125 C 123.128906 36.285156 122.820312 37.292969 122.210938 38.046875 C 121.601562 38.800781 120.765625 39.175781 119.707031 39.175781 C 118.734375 39.175781 117.984375 38.753906 117.457031 37.914062 Z M 117.429688 34.890625 L 117.429688 35.9375 C 117.429688 36.558594 117.628906 37.085938 118.03125 37.519531 C 118.433594 37.949219 118.949219 38.164062 119.566406 38.164062 C 120.296875 38.164062 120.863281 37.886719 121.273438 37.328125 C 121.6875 36.773438 121.898438 36 121.898438 35.007812 C 121.898438 34.171875 121.703125 33.519531 121.316406 33.046875 C 120.933594 32.570312 120.410156 32.335938 119.75 32.335938 C 119.054688 32.335938 118.492188 32.578125 118.066406 33.066406 C 117.640625 33.550781 117.429688 34.160156 117.429688 34.890625 Z M 126.277344 37.914062 L 126.246094 37.914062 L 126.246094 42.449219 L 125.046875 42.449219 L 125.046875 31.5 L 126.246094 31.5 L 126.246094 32.816406 L 126.277344 32.816406 C 126.867188 31.820312 127.730469 31.324219 128.871094 31.324219 C 129.835938 31.324219 130.589844 31.660156 131.132812 32.335938 C 131.675781 33.003906 131.945312 33.902344 131.945312 35.03125 C 131.945312 36.285156 131.640625 37.292969 131.03125 38.046875 C 130.417969 38.800781 129.585938 39.175781 128.527344 39.175781 C 127.554688 39.175781 126.804688 38.753906 126.277344 37.914062 Z M 126.246094 34.890625 L 126.246094 35.9375 C 126.246094 36.558594 126.449219 37.085938 126.847656 37.519531 C 127.253906 37.949219 127.765625 38.164062 128.386719 38.164062 C 129.113281 38.164062 129.683594 37.886719 130.09375 37.328125 C 130.507812 36.773438 130.714844 36 130.714844 35.007812 C 130.714844 34.171875 130.523438 33.519531 130.136719 33.046875 C 129.75 32.570312 129.226562 32.335938 128.570312 32.335938 C 127.871094 32.335938 127.308594 32.578125 126.882812 33.066406 C 126.460938 33.550781 126.246094 34.160156 126.246094 34.890625 Z M 134.480469 29.597656 C 134.265625 29.597656 134.082031 29.523438 133.929688 29.375 C 133.78125 29.230469 133.703125 29.042969 133.703125 28.820312 C 133.703125 28.59375 133.78125 28.410156 133.929688 28.261719 C 134.082031 28.113281 134.265625 28.035156 134.480469 28.035156 C 134.699219 28.035156 134.886719 28.113281 135.035156 28.261719 C 135.191406 28.410156 135.269531 28.59375 135.269531 28.820312 C 135.269531 29.035156 135.191406 29.21875 135.035156 29.367188 C 134.886719 29.519531 134.699219 29.597656 134.480469 29.597656 Z M 135.066406 39 L 133.863281 39 L 133.863281 31.5 L 135.066406 31.5 Z M 143.722656 39 L 142.523438 39 L 142.523438 34.722656 C 142.523438 33.128906 141.941406 32.335938 140.777344 32.335938 C 140.179688 32.335938 139.679688 32.5625 139.285156 33.015625 C 138.894531 33.464844 138.699219 34.035156 138.699219 34.722656 L 138.699219 39 L 137.496094 39 L 137.496094 31.5 L 138.699219 31.5 L 138.699219 32.746094 L 138.726562 32.746094 C 139.292969 31.796875 140.113281 31.324219 141.1875 31.324219 C 142.007812 31.324219 142.636719 31.589844 143.070312 32.121094 C 143.507812 32.648438 143.722656 33.414062 143.722656 34.414062 Z M 152.394531 38.398438 C 152.394531 41.152344 151.078125 42.53125 148.441406 42.53125 C 147.511719 42.53125 146.703125 42.355469 146.007812 42.003906 L 146.007812 40.800781 C 146.851562 41.269531 147.660156 41.503906 148.425781 41.503906 C 150.273438 41.503906 151.195312 40.523438 151.195312 38.558594 L 151.195312 37.742188 L 151.164062 37.742188 C 150.59375 38.699219 149.734375 39.175781 148.585938 39.175781 C 147.652344 39.175781 146.902344 38.84375 146.332031 38.179688 C 145.765625 37.511719 145.480469 36.613281 145.480469 35.492188 C 145.480469 34.21875 145.785156 33.203125 146.398438 32.453125 C 147.011719 31.699219 147.851562 31.324219 148.914062 31.324219 C 149.925781 31.324219 150.675781 31.730469 151.164062 32.539062 L 151.195312 32.539062 L 151.195312 31.5 L 152.394531 31.5 Z M 151.195312 35.609375 L 151.195312 34.503906 C 151.195312 33.90625 150.992188 33.398438 150.585938 32.972656 C 150.1875 32.546875 149.683594 32.335938 149.085938 32.335938 C 148.34375 32.335938 147.761719 32.605469 147.339844 33.148438 C 146.921875 33.683594 146.710938 34.4375 146.710938 35.410156 C 146.710938 36.246094 146.910156 36.914062 147.3125 37.417969 C 147.71875 37.914062 148.25 38.164062 148.914062 38.164062 C 149.589844 38.164062 150.136719 37.925781 150.554688 37.445312 C 150.980469 36.96875 151.195312 36.355469 151.195312 35.609375 Z M 158.664062 35.292969 L 154.664062 35.292969 L 154.664062 34.347656 L 158.664062 34.347656 Z M 164.3125 38.925781 C 164.027344 39.082031 163.65625 39.160156 163.191406 39.160156 C 161.878906 39.160156 161.21875 38.429688 161.21875 36.964844 L 161.21875 32.527344 L 159.929688 32.527344 L 159.929688 31.5 L 161.21875 31.5 L 161.21875 29.667969 L 162.421875 29.28125 L 162.421875 31.5 L 164.3125 31.5 L 164.3125 32.527344 L 162.421875 32.527344 L 162.421875 36.75 C 162.421875 37.253906 162.507812 37.613281 162.679688 37.828125 C 162.847656 38.042969 163.132812 38.152344 163.527344 38.152344 C 163.828125 38.152344 164.09375 38.066406 164.3125 37.902344 Z M 171.945312 35.550781 L 166.648438 35.550781 C 166.667969 36.386719 166.890625 37.03125 167.320312 37.484375 C 167.75 37.9375 168.34375 38.164062 169.09375 38.164062 C 169.941406 38.164062 170.714844 37.886719 171.421875 37.328125 L 171.421875 38.457031 C 170.765625 38.9375 169.894531 39.175781 168.808594 39.175781 C 167.75 39.175781 166.917969 38.835938 166.3125 38.15625 C 165.703125 37.472656 165.402344 36.515625 165.402344 35.277344 C 165.402344 34.113281 165.730469 33.164062 166.390625 32.429688 C 167.054688 31.691406 167.878906 31.324219 168.859375 31.324219 C 169.84375 31.324219 170.601562 31.640625 171.136719 32.277344 C 171.675781 32.910156 171.945312 33.792969 171.945312 34.921875 Z M 170.714844 34.53125 C 170.707031 33.839844 170.539062 33.300781 170.207031 32.914062 C 169.882812 32.527344 169.421875 32.335938 168.839844 32.335938 C 168.273438 32.335938 167.789062 32.539062 167.394531 32.941406 C 167 33.347656 166.753906 33.878906 166.660156 34.53125 Z M 177.679688 32.714844 C 177.46875 32.554688 177.164062 32.472656 176.769531 32.472656 C 176.257812 32.472656 175.828125 32.714844 175.480469 33.199219 C 175.136719 33.683594 174.96875 34.339844 174.96875 35.175781 L 174.96875 39 L 173.765625 39 L 173.765625 31.5 L 174.96875 31.5 L 174.96875 33.046875 L 174.996094 33.046875 C 175.167969 32.519531 175.429688 32.109375 175.78125 31.816406 C 176.132812 31.515625 176.527344 31.367188 176.960938 31.367188 C 177.273438 31.367188 177.511719 31.402344 177.679688 31.472656 Z M 189.632812 39 L 188.429688 39 L 188.429688 34.691406 C 188.429688 33.863281 188.300781 33.261719 188.042969 32.890625 C 187.789062 32.519531 187.359375 32.335938 186.753906 32.335938 C 186.238281 32.335938 185.804688 32.570312 185.441406 33.039062 C 185.085938 33.507812 184.90625 34.066406 184.90625 34.722656 L 184.90625 39 L 183.707031 39 L 183.707031 34.546875 C 183.707031 33.074219 183.136719 32.335938 182 32.335938 C 181.472656 32.335938 181.039062 32.558594 180.695312 33 C 180.355469 33.441406 180.183594 34.015625 180.183594 34.722656 L 180.183594 39 L 178.980469 39 L 178.980469 31.5 L 180.183594 31.5 L 180.183594 32.6875 L 180.214844 32.6875 C 180.742188 31.777344 181.519531 31.324219 182.539062 31.324219 C 183.054688 31.324219 183.5 31.46875 183.882812 31.757812 C 184.261719 32.039062 184.523438 32.414062 184.664062 32.878906 C 185.222656 31.84375 186.050781 31.324219 187.15625 31.324219 C 188.804688 31.324219 189.632812 32.34375 189.632812 34.378906 Z M 195.738281 35.292969 L 191.742188 35.292969 L 191.742188 34.347656 L 195.738281 34.347656 Z M 208.558594 39 L 207.355469 39 L 207.355469 34.691406 C 207.355469 33.863281 207.226562 33.261719 206.96875 32.890625 C 206.714844 32.519531 206.285156 32.335938 205.679688 32.335938 C 205.164062 32.335938 204.730469 32.570312 204.367188 33.039062 C 204.011719 33.507812 203.832031 34.066406 203.832031 34.722656 L 203.832031 39 L 202.632812 39 L 202.632812 34.546875 C 202.632812 33.074219 202.0625 32.335938 200.925781 32.335938 C 200.398438 32.335938 199.964844 32.558594 199.621094 33 C 199.28125 33.441406 199.109375 34.015625 199.109375 34.722656 L 199.109375 39 L 197.90625 39 L 197.90625 31.5 L 199.109375 31.5 L 199.109375 32.6875 L 199.136719 32.6875 C 199.671875 31.777344 200.445312 31.324219 201.46875 31.324219 C 201.980469 31.324219 202.425781 31.46875 202.808594 31.757812 C 203.1875 32.039062 203.449219 32.414062 203.59375 32.878906 C 204.148438 31.84375 204.976562 31.324219 206.082031 31.324219 C 207.730469 31.324219 208.558594 32.34375 208.558594 34.378906 Z M 210.375 38.730469 L 210.375 37.441406 C 211.027344 37.921875 211.746094 38.164062 212.535156 38.164062 C 213.589844 38.164062 214.117188 37.8125 214.117188 37.109375 C 214.117188 36.910156 214.070312 36.742188 213.976562 36.605469 C 213.890625 36.464844 213.765625 36.339844 213.609375 36.230469 C 213.460938 36.125 213.277344 36.027344 213.070312 35.945312 C 212.863281 35.859375 212.640625 35.769531 212.402344 35.675781 C 212.070312 35.542969 211.777344 35.410156 211.523438 35.277344 C 211.273438 35.144531 211.066406 34.992188 210.894531 34.824219 C 210.726562 34.65625 210.601562 34.460938 210.511719 34.246094 C 210.429688 34.03125 210.386719 33.78125 210.386719 33.492188 C 210.386719 33.140625 210.46875 32.832031 210.628906 32.5625 C 210.789062 32.289062 211.007812 32.0625 211.273438 31.878906 C 211.542969 31.695312 211.847656 31.554688 212.191406 31.464844 C 212.535156 31.371094 212.894531 31.324219 213.257812 31.324219 C 213.910156 31.324219 214.488281 31.4375 215.003906 31.660156 L 215.003906 32.878906 C 214.449219 32.515625 213.816406 32.335938 213.097656 32.335938 C 212.875 32.335938 212.671875 32.363281 212.488281 32.414062 C 212.308594 32.464844 212.152344 32.535156 212.023438 32.628906 C 211.894531 32.71875 211.792969 32.832031 211.71875 32.964844 C 211.652344 33.09375 211.617188 33.234375 211.617188 33.390625 C 211.617188 33.585938 211.652344 33.75 211.71875 33.878906 C 211.792969 34.011719 211.898438 34.128906 212.035156 34.230469 C 212.171875 34.335938 212.339844 34.425781 212.535156 34.511719 C 212.730469 34.59375 212.953125 34.683594 213.199219 34.78125 C 213.53125 34.90625 213.832031 35.039062 214.09375 35.175781 C 214.359375 35.308594 214.582031 35.460938 214.769531 35.628906 C 214.953125 35.796875 215.09375 35.988281 215.191406 36.210938 C 215.296875 36.429688 215.347656 36.691406 215.347656 36.992188 C 215.347656 37.363281 215.261719 37.6875 215.097656 37.960938 C 214.9375 38.234375 214.71875 38.460938 214.445312 38.640625 C 214.171875 38.820312 213.859375 38.957031 213.5 39.042969 C 213.144531 39.132812 212.769531 39.175781 212.378906 39.175781 C 211.609375 39.175781 210.941406 39.027344 210.375 38.730469 Z M 224.464844 41.386719 L 223.398438 41.386719 C 221.882812 39.660156 221.125 37.527344 221.125 34.992188 C 221.125 32.449219 221.882812 30.285156 223.398438 28.496094 L 224.480469 28.496094 C 222.945312 30.351562 222.179688 32.511719 222.179688 34.980469 C 222.179688 37.425781 222.941406 39.5625 224.464844 41.386719 Z M 230.28125 31.25 C 230.28125 30.929688 230.230469 30.648438 230.128906 30.410156 C 230.03125 30.167969 229.894531 29.972656 229.71875 29.816406 C 229.546875 29.652344 229.34375 29.535156 229.109375 29.457031 C 228.875 29.378906 228.621094 29.339844 228.347656 29.339844 C 228.113281 29.339844 227.882812 29.371094 227.65625 29.433594 C 227.433594 29.5 227.214844 29.585938 227 29.699219 C 226.789062 29.8125 226.585938 29.945312 226.382812 30.101562 C 226.191406 30.257812 226.007812 30.429688 225.835938 30.621094 L 225.835938 29.332031 C 226.171875 29.003906 226.546875 28.757812 226.964844 28.585938 C 227.382812 28.410156 227.894531 28.320312 228.492188 28.320312 C 228.925781 28.320312 229.320312 28.386719 229.6875 28.511719 C 230.054688 28.632812 230.371094 28.8125 230.640625 29.054688 C 230.910156 29.292969 231.117188 29.589844 231.269531 29.941406 C 231.425781 30.292969 231.503906 30.695312 231.503906 31.148438 C 231.503906 31.5625 231.453125 31.941406 231.355469 32.277344 C 231.265625 32.613281 231.121094 32.929688 230.925781 33.226562 C 230.734375 33.527344 230.492188 33.8125 230.199219 34.085938 C 229.90625 34.359375 229.5625 34.636719 229.167969 34.921875 C 228.675781 35.273438 228.265625 35.570312 227.945312 35.820312 C 227.625 36.070312 227.371094 36.304688 227.183594 36.523438 C 226.996094 36.738281 226.863281 36.957031 226.785156 37.175781 C 226.714844 37.390625 226.675781 37.640625 226.675781 37.921875 L 231.90625 37.921875 L 231.90625 39 L 225.425781 39 L 225.425781 38.480469 C 225.425781 38.03125 225.472656 37.636719 225.570312 37.292969 C 225.667969 36.953125 225.828125 36.628906 226.054688 36.320312 C 226.28125 36.011719 226.570312 35.703125 226.933594 35.398438 C 227.300781 35.089844 227.746094 34.742188 228.273438 34.355469 C 228.65625 34.082031 228.972656 33.820312 229.226562 33.574219 C 229.484375 33.324219 229.691406 33.074219 229.847656 32.824219 C 230.003906 32.578125 230.113281 32.324219 230.179688 32.070312 C 230.246094 31.8125 230.28125 31.539062 230.28125 31.25 Z M 240.183594 33.703125 C 240.183594 34.582031 240.101562 35.363281 239.941406 36.039062 C 239.785156 36.71875 239.554688 37.292969 239.253906 37.761719 C 238.953125 38.226562 238.585938 38.582031 238.148438 38.824219 C 237.710938 39.0625 237.21875 39.183594 236.660156 39.183594 C 236.132812 39.183594 235.660156 39.070312 235.246094 38.839844 C 234.835938 38.605469 234.488281 38.265625 234.207031 37.820312 C 233.921875 37.375 233.710938 36.832031 233.5625 36.1875 C 233.414062 35.539062 233.34375 34.796875 233.34375 33.960938 C 233.34375 33.042969 233.417969 32.234375 233.570312 31.527344 C 233.726562 30.828125 233.953125 30.238281 234.25 29.765625 C 234.550781 29.285156 234.917969 28.925781 235.355469 28.6875 C 235.800781 28.441406 236.308594 28.320312 236.878906 28.320312 C 239.082031 28.320312 240.183594 30.117188 240.183594 33.703125 Z M 238.953125 33.820312 C 238.953125 30.832031 238.242188 29.339844 236.820312 29.339844 C 235.324219 29.339844 234.574219 30.859375 234.574219 33.902344 C 234.574219 36.738281 235.308594 38.15625 236.777344 38.15625 C 238.226562 38.15625 238.953125 36.710938 238.953125 33.820312 Z M 248.269531 33.703125 C 248.269531 34.582031 248.1875 35.363281 248.027344 36.039062 C 247.871094 36.71875 247.640625 37.292969 247.339844 37.761719 C 247.039062 38.226562 246.671875 38.582031 246.234375 38.824219 C 245.800781 39.0625 245.300781 39.183594 244.746094 39.183594 C 244.21875 39.183594 243.746094 39.070312 243.332031 38.839844 C 242.921875 38.605469 242.574219 38.265625 242.292969 37.820312 C 242.011719 37.375 241.792969 36.832031 241.648438 36.1875 C 241.5 35.539062 241.429688 34.796875 241.429688 33.960938 C 241.429688 33.042969 241.503906 32.234375 241.65625 31.527344 C 241.8125 30.828125 242.039062 30.238281 242.335938 29.765625 C 242.632812 29.285156 243.003906 28.925781 243.441406 28.6875 C 243.886719 28.441406 244.394531 28.320312 244.964844 28.320312 C 247.167969 28.320312 248.269531 30.117188 248.269531 33.703125 Z M 247.039062 33.820312 C 247.039062 30.832031 246.328125 29.339844 244.90625 29.339844 C 243.40625 29.339844 242.65625 30.859375 242.65625 33.902344 C 242.65625 36.738281 243.394531 38.15625 244.863281 38.15625 C 246.3125 38.15625 247.039062 36.710938 247.039062 33.820312 Z M 260.75 39 L 259.546875 39 L 259.546875 34.691406 C 259.546875 33.863281 259.417969 33.261719 259.160156 32.890625 C 258.90625 32.519531 258.476562 32.335938 257.871094 32.335938 C 257.359375 32.335938 256.921875 32.570312 256.558594 33.039062 C 256.203125 33.507812 256.027344 34.066406 256.027344 34.722656 L 256.027344 39 L 254.824219 39 L 254.824219 34.546875 C 254.824219 33.074219 254.257812 32.335938 253.117188 32.335938 C 252.589844 32.335938 252.15625 32.558594 251.8125 33 C 251.472656 33.441406 251.300781 34.015625 251.300781 34.722656 L 251.300781 39 L 250.097656 39 L 250.097656 31.5 L 251.300781 31.5 L 251.300781 32.6875 L 251.332031 32.6875 C 251.863281 31.777344 252.640625 31.324219 253.660156 31.324219 C 254.171875 31.324219 254.617188 31.46875 255 31.757812 C 255.382812 32.039062 255.640625 32.414062 255.78125 32.878906 C 256.339844 31.84375 257.171875 31.324219 258.273438 31.324219 C 259.925781 31.324219 260.75 32.34375 260.75 34.378906 Z M 262.566406 38.730469 L 262.566406 37.441406 C 263.21875 37.921875 263.941406 38.164062 264.726562 38.164062 C 265.78125 38.164062 266.308594 37.8125 266.308594 37.109375 C 266.308594 36.910156 266.261719 36.742188 266.167969 36.605469 C 266.082031 36.464844 265.960938 36.339844 265.804688 36.230469 C 265.652344 36.125 265.472656 36.027344 265.261719 35.945312 C 265.054688 35.859375 264.835938 35.769531 264.59375 35.675781 C 264.261719 35.542969 263.96875 35.410156 263.714844 35.277344 C 263.46875 35.144531 263.257812 34.992188 263.085938 34.824219 C 262.921875 34.65625 262.792969 34.460938 262.707031 34.246094 C 262.621094 34.03125 262.582031 33.78125 262.582031 33.492188 C 262.582031 33.140625 262.660156 32.832031 262.824219 32.5625 C 262.984375 32.289062 263.199219 32.0625 263.46875 31.878906 C 263.734375 31.695312 264.039062 31.554688 264.382812 31.464844 C 264.730469 31.371094 265.085938 31.324219 265.453125 31.324219 C 266.101562 31.324219 266.683594 31.4375 267.195312 31.660156 L 267.195312 32.878906 C 266.644531 32.515625 266.007812 32.335938 265.289062 32.335938 C 265.066406 32.335938 264.863281 32.363281 264.683594 32.414062 C 264.503906 32.464844 264.34375 32.535156 264.214844 32.628906 C 264.085938 32.71875 263.988281 32.832031 263.914062 32.964844 C 263.84375 33.09375 263.8125 33.234375 263.8125 33.390625 C 263.8125 33.585938 263.84375 33.75 263.914062 33.878906 C 263.988281 34.011719 264.089844 34.128906 264.226562 34.230469 C 264.363281 34.335938 264.53125 34.425781 264.726562 34.511719 C 264.921875 34.59375 265.144531 34.683594 265.394531 34.78125 C 265.726562 34.90625 266.023438 35.039062 266.285156 35.175781 C 266.550781 35.308594 266.773438 35.460938 266.960938 35.628906 C 267.144531 35.796875 267.289062 35.988281 267.386719 36.210938 C 267.488281 36.429688 267.539062 36.691406 267.539062 36.992188 C 267.539062 37.363281 267.457031 37.6875 267.289062 37.960938 C 267.128906 38.234375 266.910156 38.460938 266.636719 38.640625 C 266.363281 38.820312 266.050781 38.957031 265.695312 39.042969 C 265.335938 39.132812 264.964844 39.175781 264.574219 39.175781 C 263.800781 39.175781 263.132812 39.027344 262.566406 38.730469 Z M 269.421875 41.386719 L 268.351562 41.386719 C 269.875 39.5625 270.636719 37.425781 270.636719 34.980469 C 270.636719 32.511719 269.871094 30.351562 268.339844 28.496094 L 269.421875 28.496094 C 270.945312 30.285156 271.707031 32.449219 271.707031 34.992188 C 271.707031 37.527344 270.945312 39.660156 269.421875 41.386719 Z M 269.421875 41.386719 "/>
<path style=" stroke:none;fill-rule:nonzero;fill:rgb(0%,0%,0%);fill-opacity:1;" d="M 51.480469 94.386719 C 51.015625 94.621094 50.402344 94.734375 49.644531 94.734375 C 47.605469 94.734375 46.589844 93.757812 46.589844 91.804688 L 46.589844 85.867188 L 44.835938 85.867188 L 44.835938 84 L 46.589844 84 L 46.589844 81.570312 L 48.964844 80.894531 L 48.964844 84 L 51.480469 84 L 51.480469 85.867188 L 48.964844 85.867188 L 48.964844 91.117188 C 48.964844 91.738281 49.078125 92.183594 49.304688 92.449219 C 49.53125 92.714844 49.90625 92.847656 50.433594 92.847656 C 50.835938 92.847656 51.183594 92.734375 51.480469 92.5 Z M 61.589844 94.5 L 59.28125 94.5 L 59.28125 92.859375 L 59.242188 92.859375 C 58.515625 94.117188 57.453125 94.746094 56.050781 94.746094 C 55.019531 94.746094 54.210938 94.464844 53.621094 93.90625 C 53.042969 93.34375 52.75 92.601562 52.75 91.679688 C 52.75 89.699219 53.890625 88.542969 56.175781 88.214844 L 59.292969 87.773438 C 59.292969 86.277344 58.582031 85.527344 57.160156 85.527344 C 55.910156 85.527344 54.78125 85.957031 53.777344 86.820312 L 53.777344 84.738281 C 54.882812 84.082031 56.160156 83.753906 57.609375 83.753906 C 60.261719 83.753906 61.589844 85.058594 61.589844 87.671875 Z M 59.292969 89.34375 L 57.089844 89.648438 C 56.40625 89.738281 55.886719 89.90625 55.539062 90.152344 C 55.199219 90.390625 55.027344 90.816406 55.027344 91.421875 C 55.027344 91.867188 55.183594 92.234375 55.5 92.519531 C 55.820312 92.800781 56.246094 92.941406 56.78125 92.941406 C 57.503906 92.941406 58.101562 92.6875 58.574219 92.183594 C 59.054688 91.671875 59.292969 91.027344 59.292969 90.253906 Z M 66.921875 92.953125 L 66.878906 92.953125 L 66.878906 99.328125 L 64.5 99.328125 L 64.5 84 L 66.878906 84 L 66.878906 85.847656 L 66.921875 85.847656 C 67.734375 84.453125 68.925781 83.753906 70.488281 83.753906 C 71.824219 83.753906 72.863281 84.222656 73.605469 85.160156 C 74.351562 86.09375 74.722656 87.351562 74.722656 88.933594 C 74.722656 90.683594 74.304688 92.082031 73.464844 93.136719 C 72.621094 94.1875 71.472656 94.714844 70.019531 94.714844 C 68.679688 94.714844 67.644531 94.128906 66.921875 92.953125 Z M 66.859375 88.808594 L 66.859375 90.109375 C 66.859375 90.875 67.101562 91.527344 67.589844 92.058594 C 68.078125 92.59375 68.703125 92.859375 69.453125 92.859375 C 70.335938 92.859375 71.027344 92.519531 71.527344 91.835938 C 72.03125 91.144531 72.285156 90.183594 72.285156 88.953125 C 72.285156 87.921875 72.046875 87.113281 71.578125 86.53125 C 71.113281 85.945312 70.480469 85.652344 69.679688 85.652344 C 68.832031 85.652344 68.148438 85.953125 67.628906 86.554688 C 67.117188 87.15625 66.859375 87.90625 66.859375 88.808594 Z M 66.859375 88.808594 "/>
<path style=" stroke:none;fill-rule:nonzero;fill:rgb(0%,0%,0%);fill-opacity:1;" d="M 49.417969 222 L 47.039062 222 L 47.039062 216.257812 C 47.039062 214.179688 46.34375 213.140625 44.957031 213.140625 C 44.261719 213.140625 43.671875 213.441406 43.195312 214.042969 C 42.714844 214.644531 42.476562 215.414062 42.476562 216.347656 L 42.476562 222 L 40.085938 222 L 40.085938 206.457031 L 42.476562 206.457031 L 42.476562 213.242188 L 42.515625 213.242188 C 43.308594 211.917969 44.445312 211.253906 45.921875 211.253906 C 48.253906 211.253906 49.417969 212.679688 49.417969 215.53125 Z M 56.964844 222.246094 C 55.34375 222.246094 54.050781 221.757812 53.078125 220.78125 C 52.113281 219.796875 51.632812 218.492188 51.632812 216.871094 C 51.632812 215.109375 52.136719 213.730469 53.140625 212.742188 C 54.152344 211.75 55.511719 211.253906 57.222656 211.253906 C 58.863281 211.253906 60.140625 211.734375 61.054688 212.699219 C 61.972656 213.664062 62.429688 215 62.429688 216.710938 C 62.429688 218.382812 61.933594 219.726562 60.941406 220.738281 C 59.960938 221.742188 58.632812 222.246094 56.964844 222.246094 Z M 57.078125 213.152344 C 56.148438 213.152344 55.414062 213.476562 54.871094 214.125 C 54.332031 214.773438 54.0625 215.671875 54.0625 216.8125 C 54.0625 217.914062 54.335938 218.78125 54.882812 219.414062 C 55.429688 220.046875 56.160156 220.359375 57.078125 220.359375 C 58.015625 220.359375 58.730469 220.046875 59.230469 219.425781 C 59.738281 218.804688 59.988281 217.917969 59.988281 216.769531 C 59.988281 215.613281 59.738281 214.722656 59.230469 214.09375 C 58.730469 213.464844 58.015625 213.152344 57.078125 213.152344 Z M 67.25 222 L 64.859375 222 L 64.859375 206.457031 L 67.25 206.457031 Z M 79.902344 222 L 77.523438 222 L 77.523438 220.214844 L 77.484375 220.214844 C 76.71875 221.570312 75.539062 222.246094 73.945312 222.246094 C 72.652344 222.246094 71.617188 221.777344 70.839844 220.84375 C 70.066406 219.898438 69.679688 218.617188 69.679688 216.996094 C 69.679688 215.261719 70.105469 213.867188 70.960938 212.824219 C 71.824219 211.777344 72.96875 211.253906 74.398438 211.253906 C 75.8125 211.253906 76.839844 211.820312 77.484375 212.957031 L 77.523438 212.957031 L 77.523438 206.457031 L 79.902344 206.457031 Z M 77.554688 217.203125 L 77.554688 215.828125 C 77.554688 215.082031 77.3125 214.449219 76.828125 213.929688 C 76.339844 213.410156 75.722656 213.152344 74.972656 213.152344 C 74.082031 213.152344 73.382812 213.484375 72.867188 214.144531 C 72.363281 214.808594 72.109375 215.726562 72.109375 216.90625 C 72.109375 217.96875 72.351562 218.8125 72.839844 219.4375 C 73.328125 220.050781 73.988281 220.359375 74.816406 220.359375 C 75.628906 220.359375 76.289062 220.0625 76.796875 219.46875 C 77.300781 218.863281 77.554688 218.109375 77.554688 217.203125 Z M 77.554688 217.203125 "/>
<path style=" stroke:none;fill-rule:nonzero;fill:rgb(0.784314%,43.529412%,77.254902%);fill-opacity:1;" d="M 105 67.5 L 225 67.5 L 225 105 L 105 105 Z M 105 67.5 "/>
<path style=" stroke:none;fill-rule:nonzero;fill:rgb(100%,100%,100%);fill-opacity:1;" d="M 123.4375 93.203125 C 123.101562 93.203125 122.808594 93.15625 122.546875 93.0625 C 122.296875 92.972656 122.0625 92.847656 121.847656 92.683594 C 121.628906 92.515625 121.417969 92.308594 121.214844 92.066406 C 121.015625 91.828125 120.804688 91.554688 120.578125 91.25 C 120.347656 91.503906 120.074219 91.746094 119.761719 91.980469 C 119.457031 92.214844 119.117188 92.421875 118.742188 92.605469 C 118.367188 92.785156 117.957031 92.929688 117.511719 93.035156 C 117.066406 93.148438 116.585938 93.203125 116.0625 93.203125 C 115.429688 93.203125 114.847656 93.121094 114.320312 92.964844 C 113.796875 92.808594 113.34375 92.574219 112.96875 92.269531 C 112.59375 91.960938 112.300781 91.578125 112.089844 91.128906 C 111.882812 90.675781 111.78125 90.160156 111.78125 89.570312 C 111.78125 88.675781 112.035156 87.910156 112.546875 87.277344 C 113.058594 86.640625 113.777344 86.117188 114.710938 85.714844 C 114.535156 85.585938 114.359375 85.433594 114.183594 85.265625 C 114.003906 85.089844 113.847656 84.894531 113.707031 84.675781 C 113.570312 84.453125 113.460938 84.210938 113.371094 83.945312 C 113.289062 83.679688 113.25 83.382812 113.25 83.066406 C 113.25 82.605469 113.332031 82.195312 113.496094 81.839844 C 113.664062 81.480469 113.898438 81.179688 114.191406 80.933594 C 114.484375 80.6875 114.828125 80.503906 115.226562 80.378906 C 115.625 80.25 116.058594 80.183594 116.519531 80.183594 C 116.976562 80.183594 117.390625 80.25 117.765625 80.378906 C 118.148438 80.503906 118.472656 80.679688 118.742188 80.914062 C 119.019531 81.148438 119.234375 81.429688 119.382812 81.757812 C 119.535156 82.085938 119.613281 82.453125 119.613281 82.859375 C 119.613281 83.558594 119.410156 84.148438 119.007812 84.617188 C 118.609375 85.078125 118.007812 85.472656 117.203125 85.800781 C 117.609375 85.960938 117.976562 86.152344 118.304688 86.382812 C 118.632812 86.609375 118.933594 86.867188 119.210938 87.148438 C 119.492188 87.429688 119.75 87.730469 119.992188 88.050781 C 120.230469 88.375 120.46875 88.707031 120.703125 89.054688 C 121.179688 88.390625 121.535156 87.660156 121.777344 86.867188 C 122.015625 86.066406 122.136719 85.234375 122.136719 84.359375 C 122.136719 84.136719 122.121094 83.929688 122.089844 83.734375 C 122.066406 83.535156 122.035156 83.339844 121.984375 83.148438 L 123.382812 83.148438 C 123.429688 83.339844 123.457031 83.527344 123.464844 83.703125 C 123.472656 83.871094 123.484375 84.078125 123.496094 84.316406 C 123.496094 84.847656 123.441406 85.386719 123.332031 85.925781 C 123.21875 86.464844 123.070312 86.988281 122.882812 87.496094 C 122.695312 88.003906 122.476562 88.484375 122.222656 88.941406 C 121.976562 89.398438 121.714844 89.816406 121.441406 90.195312 C 121.648438 90.476562 121.835938 90.722656 122.003906 90.933594 C 122.171875 91.140625 122.34375 91.3125 122.515625 91.453125 C 122.691406 91.59375 122.867188 91.699219 123.050781 91.769531 C 123.238281 91.835938 123.449219 91.867188 123.683594 91.867188 C 123.859375 91.867188 124.035156 91.84375 124.21875 91.796875 C 124.402344 91.75 124.589844 91.691406 124.78125 91.621094 L 124.78125 92.957031 C 124.570312 93.039062 124.347656 93.097656 124.113281 93.140625 C 123.882812 93.183594 123.660156 93.203125 123.4375 93.203125 Z M 116.0625 91.953125 C 116.507812 91.953125 116.917969 91.90625 117.292969 91.8125 C 117.667969 91.714844 118.015625 91.585938 118.328125 91.425781 C 118.648438 91.261719 118.933594 91.074219 119.191406 90.863281 C 119.449219 90.648438 119.683594 90.421875 119.894531 90.1875 C 119.535156 89.628906 119.207031 89.15625 118.902344 88.765625 C 118.601562 88.367188 118.296875 88.023438 117.988281 87.734375 C 117.683594 87.449219 117.355469 87.203125 117.003906 86.996094 C 116.65625 86.792969 116.253906 86.601562 115.796875 86.425781 C 115.429688 86.570312 115.089844 86.734375 114.777344 86.917969 C 114.46875 87.09375 114.199219 87.304688 113.972656 87.550781 C 113.746094 87.789062 113.570312 88.070312 113.441406 88.394531 C 113.316406 88.714844 113.25 89.09375 113.25 89.527344 C 113.25 89.925781 113.324219 90.277344 113.46875 90.582031 C 113.617188 90.886719 113.816406 91.140625 114.066406 91.347656 C 114.324219 91.546875 114.625 91.699219 114.964844 91.804688 C 115.304688 91.902344 115.671875 91.953125 116.0625 91.953125 Z M 118.257812 82.980469 C 118.257812 82.6875 118.203125 82.4375 118.09375 82.234375 C 117.988281 82.027344 117.847656 81.859375 117.679688 81.722656 C 117.515625 81.589844 117.332031 81.492188 117.125 81.433594 C 116.921875 81.371094 116.71875 81.335938 116.519531 81.335938 C 115.945312 81.335938 115.484375 81.492188 115.140625 81.804688 C 114.800781 82.113281 114.628906 82.535156 114.621094 83.066406 C 114.621094 83.308594 114.65625 83.535156 114.726562 83.746094 C 114.804688 83.957031 114.90625 84.152344 115.035156 84.335938 C 115.167969 84.515625 115.324219 84.675781 115.5 84.816406 C 115.675781 84.957031 115.863281 85.078125 116.0625 85.179688 C 116.800781 84.921875 117.351562 84.621094 117.714844 84.28125 C 118.078125 83.933594 118.257812 83.503906 118.257812 82.980469 Z M 139.390625 93 L 137.945312 93 L 137.945312 87.832031 C 137.945312 86.835938 137.792969 86.117188 137.480469 85.671875 C 137.175781 85.222656 136.660156 85.003906 135.933594 85.003906 C 135.320312 85.003906 134.796875 85.285156 134.359375 85.847656 C 133.933594 86.410156 133.71875 87.082031 133.71875 87.867188 L 133.71875 93 L 132.277344 93 L 132.277344 87.65625 C 132.277344 85.886719 131.597656 85.003906 130.230469 85.003906 C 129.597656 85.003906 129.078125 85.269531 128.664062 85.800781 C 128.253906 86.328125 128.050781 87.015625 128.050781 87.867188 L 128.050781 93 L 126.609375 93 L 126.609375 84 L 128.050781 84 L 128.050781 85.421875 L 128.085938 85.421875 C 128.722656 84.335938 129.65625 83.789062 130.878906 83.789062 C 131.496094 83.789062 132.03125 83.960938 132.488281 84.308594 C 132.945312 84.648438 133.257812 85.097656 133.429688 85.652344 C 134.097656 84.410156 135.09375 83.789062 136.417969 83.789062 C 138.398438 83.789062 139.390625 85.011719 139.390625 87.453125 Z M 146.289062 92.910156 C 145.949219 93.097656 145.5 93.191406 144.941406 93.191406 C 143.367188 93.191406 142.578125 92.316406 142.578125 90.558594 L 142.578125 85.230469 L 141.03125 85.230469 L 141.03125 84 L 142.578125 84 L 142.578125 81.804688 L 144.019531 81.335938 L 144.019531 84 L 146.289062 84 L 146.289062 85.230469 L 144.019531 85.230469 L 144.019531 90.300781 C 144.019531 90.90625 144.121094 91.335938 144.328125 91.59375 C 144.535156 91.851562 144.871094 91.980469 145.347656 91.980469 C 145.710938 91.980469 146.023438 91.878906 146.289062 91.683594 Z M 159.886719 93 L 153.34375 93 L 153.34375 80.398438 L 154.824219 80.398438 L 154.824219 91.664062 L 159.886719 91.664062 Z M 161.230469 92.492188 L 161.230469 90.75 C 161.429688 90.925781 161.664062 91.085938 161.941406 91.222656 C 162.222656 91.367188 162.515625 91.484375 162.820312 91.585938 C 163.132812 91.679688 163.441406 91.753906 163.753906 91.804688 C 164.0625 91.859375 164.347656 91.882812 164.613281 91.882812 C 165.523438 91.882812 166.199219 91.714844 166.644531 91.382812 C 167.09375 91.042969 167.320312 90.558594 167.320312 89.921875 C 167.320312 89.585938 167.242188 89.289062 167.09375 89.035156 C 166.945312 88.785156 166.738281 88.554688 166.476562 88.351562 C 166.214844 88.140625 165.898438 87.941406 165.535156 87.753906 C 165.179688 87.558594 164.792969 87.359375 164.375 87.148438 C 163.9375 86.921875 163.527344 86.699219 163.144531 86.46875 C 162.765625 86.242188 162.433594 85.988281 162.152344 85.714844 C 161.871094 85.4375 161.648438 85.128906 161.484375 84.78125 C 161.328125 84.429688 161.246094 84.019531 161.246094 83.550781 C 161.246094 82.976562 161.371094 82.480469 161.625 82.058594 C 161.878906 81.628906 162.207031 81.277344 162.617188 81.003906 C 163.027344 80.726562 163.492188 80.523438 164.015625 80.386719 C 164.542969 80.253906 165.078125 80.183594 165.625 80.183594 C 166.867188 80.183594 167.773438 80.335938 168.339844 80.632812 L 168.339844 82.296875 C 167.59375 81.777344 166.640625 81.523438 165.472656 81.523438 C 165.152344 81.523438 164.832031 81.558594 164.507812 81.628906 C 164.183594 81.691406 163.898438 81.800781 163.648438 81.953125 C 163.394531 82.105469 163.191406 82.300781 163.03125 82.539062 C 162.871094 82.78125 162.792969 83.074219 162.792969 83.421875 C 162.792969 83.742188 162.851562 84.019531 162.96875 84.253906 C 163.09375 84.488281 163.273438 84.703125 163.507812 84.898438 C 163.738281 85.089844 164.023438 85.277344 164.359375 85.460938 C 164.699219 85.640625 165.089844 85.839844 165.527344 86.058594 C 165.976562 86.277344 166.40625 86.515625 166.808594 86.757812 C 167.214844 87.003906 167.570312 87.277344 167.875 87.578125 C 168.179688 87.875 168.417969 88.207031 168.59375 88.570312 C 168.777344 88.933594 168.867188 89.347656 168.867188 89.816406 C 168.867188 90.441406 168.742188 90.964844 168.496094 91.402344 C 168.257812 91.828125 167.929688 92.175781 167.515625 92.445312 C 167.101562 92.714844 166.628906 92.910156 166.089844 93.027344 C 165.550781 93.148438 164.980469 93.210938 164.386719 93.210938 C 164.183594 93.210938 163.941406 93.191406 163.648438 93.160156 C 163.351562 93.128906 163.054688 93.082031 162.75 93.015625 C 162.445312 92.960938 162.15625 92.886719 161.878906 92.796875 C 161.609375 92.703125 161.394531 92.601562 161.230469 92.492188 Z M 180.855469 93 L 179.378906 93 L 179.378906 87.253906 L 172.855469 87.253906 L 172.855469 93 L 171.382812 93 L 171.382812 80.398438 L 172.855469 80.398438 L 172.855469 85.925781 L 179.378906 85.925781 L 179.378906 80.398438 L 180.855469 80.398438 Z M 185.636719 93 L 184.160156 93 L 184.160156 80.398438 L 185.636719 80.398438 Z M 195.355469 81.734375 L 190.433594 81.734375 L 190.433594 86.089844 L 194.988281 86.089844 L 194.988281 87.417969 L 190.433594 87.417969 L 190.433594 93 L 188.960938 93 L 188.960938 80.398438 L 195.355469 80.398438 Z M 205.203125 81.734375 L 201.5625 81.734375 L 201.5625 93 L 200.085938 93 L 200.085938 81.734375 L 196.457031 81.734375 L 196.457031 80.398438 L 205.203125 80.398438 Z M 218.527344 81.734375 L 213.601562 81.734375 L 213.601562 86.089844 L 218.15625 86.089844 L 218.15625 87.417969 L 213.601562 87.417969 L 213.601562 93 L 212.128906 93 L 212.128906 80.398438 L 218.527344 80.398438 Z M 218.527344 81.734375 "/>
<path style=" stroke:none;fill-rule:nonzero;fill:rgb(100%,100%,100%);fill-opacity:1;" d="M 127.1875 220.703125 C 126.851562 220.703125 126.558594 220.65625 126.296875 220.5625 C 126.046875 220.472656 125.8125 220.347656 125.597656 220.183594 C 125.378906 220.015625 125.167969 219.808594 124.964844 219.570312 C 124.765625 219.328125 124.554688 219.054688 124.328125 218.75 C 124.097656 219.003906 123.824219 219.246094 123.511719 219.480469 C 123.207031 219.714844 122.867188 219.921875 122.492188 220.105469 C 122.117188 220.285156 121.707031 220.429688 121.261719 220.535156 C 120.816406 220.648438 120.335938 220.703125 119.8125 220.703125 C 119.179688 220.703125 118.597656 220.621094 118.070312 220.464844 C 117.546875 220.304688 117.09375 220.074219 116.71875 219.769531 C 116.34375 219.460938 116.050781 219.078125 115.839844 218.628906 C 115.632812 218.175781 115.53125 217.65625 115.53125 217.074219 C 115.53125 216.175781 115.785156 215.410156 116.296875 214.777344 C 116.808594 214.140625 117.527344 213.617188 118.460938 213.214844 C 118.285156 213.085938 118.109375 212.933594 117.933594 212.765625 C 117.753906 212.589844 117.597656 212.394531 117.457031 212.175781 C 117.320312 211.953125 117.210938 211.710938 117.121094 211.449219 C 117.039062 211.175781 117 210.886719 117 210.570312 C 117 210.105469 117.082031 209.695312 117.246094 209.339844 C 117.414062 208.980469 117.648438 208.679688 117.941406 208.433594 C 118.234375 208.1875 118.578125 208.003906 118.976562 207.878906 C 119.375 207.75 119.808594 207.683594 120.269531 207.683594 C 120.726562 207.683594 121.140625 207.75 121.515625 207.878906 C 121.898438 208.003906 122.222656 208.179688 122.492188 208.414062 C 122.769531 208.648438 122.984375 208.929688 123.132812 209.257812 C 123.285156 209.585938 123.363281 209.953125 123.363281 210.355469 C 123.363281 211.058594 123.160156 211.648438 122.757812 212.113281 C 122.359375 212.578125 121.757812 212.972656 120.953125 213.300781 C 121.359375 213.460938 121.726562 213.652344 122.054688 213.882812 C 122.382812 214.109375 122.683594 214.363281 122.960938 214.648438 C 123.242188 214.925781 123.5 215.230469 123.742188 215.550781 C 123.980469 215.875 124.21875 216.207031 124.453125 216.554688 C 124.929688 215.890625 125.285156 215.160156 125.527344 214.363281 C 125.765625 213.570312 125.886719 212.734375 125.886719 211.859375 C 125.886719 211.636719 125.871094 211.429688 125.839844 211.234375 C 125.816406 211.035156 125.785156 210.839844 125.734375 210.648438 L 127.132812 210.648438 C 127.179688 210.839844 127.207031 211.027344 127.214844 211.203125 C 127.222656 211.371094 127.234375 211.578125 127.246094 211.816406 C 127.246094 212.347656 127.191406 212.886719 127.082031 213.425781 C 126.96875 213.964844 126.820312 214.488281 126.632812 214.996094 C 126.445312 215.503906 126.226562 215.980469 125.972656 216.441406 C 125.726562 216.898438 125.464844 217.316406 125.191406 217.695312 C 125.398438 217.976562 125.585938 218.222656 125.753906 218.433594 C 125.921875 218.640625 126.09375 218.8125 126.265625 218.953125 C 126.441406 219.09375 126.617188 219.199219 126.800781 219.269531 C 126.988281 219.335938 127.199219 219.367188 127.433594 219.367188 C 127.609375 219.367188 127.785156 219.34375 127.96875 219.296875 C 128.152344 219.25 128.339844 219.191406 128.53125 219.121094 L 128.53125 220.457031 C 128.320312 220.539062 128.097656 220.597656 127.863281 220.640625 C 127.632812 220.679688 127.410156 220.703125 127.1875 220.703125 Z M 119.8125 219.453125 C 120.257812 219.453125 120.667969 219.40625 121.042969 219.3125 C 121.417969 219.214844 121.765625 219.085938 122.078125 218.925781 C 122.398438 218.761719 122.683594 218.574219 122.941406 218.363281 C 123.199219 218.148438 123.433594 217.921875 123.644531 217.6875 C 123.285156 217.132812 122.957031 216.65625 122.652344 216.265625 C 122.351562 215.863281 122.046875 215.523438 121.738281 215.234375 C 121.433594 214.949219 121.105469 214.703125 120.753906 214.496094 C 120.40625 214.292969 120.003906 214.101562 119.546875 213.925781 C 119.179688 214.074219 118.839844 214.234375 118.527344 214.417969 C 118.21875 214.59375 117.949219 214.804688 117.722656 215.050781 C 117.496094 215.289062 117.320312 215.574219 117.191406 215.894531 C 117.066406 216.21875 117 216.59375 117 217.027344 C 117 217.425781 117.074219 217.777344 117.21875 218.082031 C 117.367188 218.386719 117.566406 218.644531 117.816406 218.847656 C 118.074219 219.046875 118.375 219.199219 118.714844 219.304688 C 119.054688 219.40625 119.421875 219.453125 119.8125 219.453125 Z M 122.007812 210.480469 C 122.007812 210.1875 121.953125 209.9375 121.84375 209.734375 C 121.738281 209.527344 121.597656 209.359375 121.429688 209.222656 C 121.265625 209.089844 121.082031 208.992188 120.875 208.933594 C 120.671875 208.867188 120.46875 208.835938 120.269531 208.835938 C 119.695312 208.835938 119.234375 208.992188 118.890625 209.300781 C 118.550781 209.613281 118.378906 210.035156 118.371094 210.570312 C 118.371094 210.808594 118.40625 211.035156 118.476562 211.246094 C 118.554688 211.457031 118.65625 211.652344 118.785156 211.835938 C 118.917969 212.015625 119.074219 212.175781 119.25 212.316406 C 119.425781 212.457031 119.613281 212.578125 119.8125 212.675781 C 120.550781 212.417969 121.101562 212.121094 121.464844 211.78125 C 121.828125 211.433594 122.007812 211.003906 122.007812 210.480469 Z M 143.140625 220.5 L 141.695312 220.5 L 141.695312 215.332031 C 141.695312 214.335938 141.542969 213.613281 141.230469 213.167969 C 140.925781 212.722656 140.410156 212.503906 139.683594 212.503906 C 139.070312 212.503906 138.546875 212.78125 138.109375 213.34375 C 137.683594 213.90625 137.46875 214.582031 137.46875 215.367188 L 137.46875 220.5 L 136.027344 220.5 L 136.027344 215.15625 C 136.027344 213.386719 135.347656 212.503906 133.980469 212.503906 C 133.347656 212.503906 132.828125 212.769531 132.414062 213.300781 C 132.003906 213.828125 131.800781 214.519531 131.800781 215.367188 L 131.800781 220.5 L 130.359375 220.5 L 130.359375 211.5 L 131.800781 211.5 L 131.800781 212.921875 L 131.835938 212.921875 C 132.472656 211.835938 133.40625 211.289062 134.628906 211.289062 C 135.246094 211.289062 135.78125 211.460938 136.238281 211.808594 C 136.695312 212.148438 137.007812 212.59375 137.179688 213.152344 C 137.847656 211.910156 138.84375 211.289062 140.167969 211.289062 C 142.148438 211.289062 143.140625 212.511719 143.140625 214.953125 Z M 150.039062 220.410156 C 149.699219 220.597656 149.25 220.695312 148.691406 220.695312 C 147.117188 220.695312 146.328125 219.816406 146.328125 218.054688 L 146.328125 212.730469 L 144.78125 212.730469 L 144.78125 211.5 L 146.328125 211.5 L 146.328125 209.300781 L 147.769531 208.835938 L 147.769531 211.5 L 150.039062 211.5 L 150.039062 212.730469 L 147.769531 212.730469 L 147.769531 217.800781 C 147.769531 218.40625 147.871094 218.835938 148.078125 219.09375 C 148.285156 219.351562 148.621094 219.480469 149.097656 219.480469 C 149.460938 219.480469 149.773438 219.382812 150.039062 219.179688 Z M 163.636719 220.5 L 157.09375 220.5 L 157.09375 207.898438 L 158.574219 207.898438 L 158.574219 219.164062 L 163.636719 219.164062 Z M 164.980469 219.988281 L 164.980469 218.25 C 165.179688 218.425781 165.414062 218.585938 165.691406 218.722656 C 165.972656 218.863281 166.265625 218.984375 166.570312 219.085938 C 166.882812 219.179688 167.191406 219.253906 167.503906 219.304688 C 167.8125 219.355469 168.097656 219.382812 168.363281 219.382812 C 169.273438 219.382812 169.949219 219.21875 170.394531 218.882812 C 170.84375 218.542969 171.070312 218.054688 171.070312 217.421875 C 171.070312 217.085938 170.992188 216.789062 170.84375 216.535156 C 170.695312 216.285156 170.488281 216.054688 170.226562 215.851562 C 169.964844 215.640625 169.648438 215.441406 169.285156 215.253906 C 168.929688 215.058594 168.542969 214.855469 168.125 214.648438 C 167.6875 214.421875 167.277344 214.199219 166.894531 213.96875 C 166.515625 213.742188 166.183594 213.488281 165.902344 213.214844 C 165.621094 212.9375 165.398438 212.628906 165.234375 212.28125 C 165.078125 211.929688 164.996094 211.519531 164.996094 211.050781 C 164.996094 210.476562 165.121094 209.980469 165.375 209.558594 C 165.628906 209.128906 165.957031 208.777344 166.367188 208.503906 C 166.777344 208.226562 167.242188 208.023438 167.765625 207.886719 C 168.292969 207.753906 168.828125 207.683594 169.375 207.683594 C 170.617188 207.683594 171.523438 207.835938 172.089844 208.132812 L 172.089844 209.792969 C 171.34375 209.28125 170.390625 209.023438 169.222656 209.023438 C 168.902344 209.023438 168.582031 209.054688 168.257812 209.128906 C 167.933594 209.191406 167.648438 209.300781 167.398438 209.453125 C 167.144531 209.605469 166.941406 209.800781 166.78125 210.039062 C 166.621094 210.28125 166.542969 210.574219 166.542969 210.917969 C 166.542969 211.242188 166.601562 211.519531 166.71875 211.753906 C 166.84375 211.988281 167.023438 212.203125 167.257812 212.398438 C 167.488281 212.589844 167.773438 212.777344 168.109375 212.960938 C 168.449219 213.140625 168.839844 213.339844 169.277344 213.554688 C 169.726562 213.78125 170.15625 214.015625 170.558594 214.261719 C 170.964844 214.507812 171.320312 214.777344 171.625 215.078125 C 171.929688 215.375 172.167969 215.707031 172.34375 216.070312 C 172.527344 216.433594 172.617188 216.847656 172.617188 217.320312 C 172.617188 217.941406 172.492188 218.46875 172.246094 218.902344 C 172.007812 219.328125 171.679688 219.675781 171.265625 219.945312 C 170.851562 220.214844 170.378906 220.410156 169.839844 220.527344 C 169.300781 220.648438 168.730469 220.710938 168.136719 220.710938 C 167.933594 220.710938 167.691406 220.695312 167.398438 220.65625 C 167.101562 220.628906 166.804688 220.582031 166.5 220.519531 C 166.195312 220.460938 165.90625 220.386719 165.628906 220.296875 C 165.359375 220.203125 165.144531 220.101562 164.980469 219.988281 Z M 184.605469 220.5 L 183.128906 220.5 L 183.128906 214.753906 L 176.605469 214.753906 L 176.605469 220.5 L 175.132812 220.5 L 175.132812 207.898438 L 176.605469 207.898438 L 176.605469 213.425781 L 183.128906 213.425781 L 183.128906 207.898438 L 184.605469 207.898438 Z M 189.386719 220.5 L 187.910156 220.5 L 187.910156 207.898438 L 189.386719 207.898438 Z M 199.105469 209.230469 L 194.183594 209.230469 L 194.183594 213.59375 L 198.738281 213.59375 L 198.738281 214.917969 L 194.183594 214.917969 L 194.183594 220.5 L 192.710938 220.5 L 192.710938 207.898438 L 199.105469 207.898438 Z M 208.953125 209.230469 L 205.3125 209.230469 L 205.3125 220.5 L 203.835938 220.5 L 203.835938 209.230469 L 200.207031 209.230469 L 200.207031 207.898438 L 208.953125 207.898438 Z M 222.277344 209.230469 L 217.351562 209.230469 L 217.351562 213.59375 L 221.90625 213.59375 L 221.90625 214.917969 L 217.351562 214.917969 L 217.351562 220.5 L 215.878906 220.5 L 215.878906 207.898438 L 222.277344 207.898438 Z M 222.277344 209.230469 "/>
<path style="fill:none;stroke-width:1;stroke-linecap:butt;stroke-linejoin:miter;stroke:rgb(0%,0%,0%);stroke-opacity:1;stroke-dasharray:2,2;stroke-miterlimit:4;" d="M 169.5 46 L 169.5 70 " transform="matrix(1.5,0,0,1.5,0,0)"/>
<path style=" stroke:none;fill-rule:nonzero;fill:rgb(0%,0%,0%);fill-opacity:1;" d="M 255 52.5 L 247.5 60 L 247.5 45 Z M 255 52.5 "/>
<path style="fill:none;stroke-width:1;stroke-linecap:butt;stroke-linejoin:miter;stroke:rgb(0%,0%,0%);stroke-opacity:1;stroke-miterlimit:4;" d="M 70.5 45 L 70.5 35 " transform="matrix(1.5,0,0,1.5,0,0)"/>
<path style="fill:none;stroke-width:1;stroke-linecap:butt;stroke-linejoin:miter;stroke:rgb(0%,0%,0%);stroke-opacity:1;stroke-miterlimit:4;" d="M 70 34.5 L 169 34.5 " transform="matrix(1.5,0,0,1.5,0,0)"/>
<path style="fill:none;stroke-width:1;stroke-linecap:butt;stroke-linejoin:miter;stroke:rgb(0%,0%,0%);stroke-opacity:1;stroke-miterlimit:4;" d="M 70 119.5 L 169 119.5 " transform="matrix(1.5,0,0,1.5,0,0)"/>
<path style="fill:none;stroke-width:1;stroke-linecap:butt;stroke-linejoin:miter;stroke:rgb(0%,0%,0%);stroke-opacity:1;stroke-miterlimit:4;" d="M 169.5 45 L 169.5 35 " transform="matrix(1.5,0,0,1.5,0,0)"/>
<path style=" stroke:none;fill-rule:nonzero;fill:rgb(76.862745%,76.862745%,76.862745%);fill-opacity:1;" d="M 253.5 105 L 268.5 105 L 268.5 142.5 L 253.5 142.5 Z M 253.5 105 "/>
<path style=" stroke:none;fill-rule:nonzero;fill:rgb(0%,0%,0%);fill-opacity:1;" d="M 264.085938 116.941406 C 263.804688 116.785156 263.484375 116.703125 263.128906 116.703125 C 262.117188 116.703125 261.613281 117.339844 261.613281 118.609375 L 261.613281 120 L 263.722656 120 L 263.722656 121.230469 L 261.613281 121.230469 L 261.613281 129 L 260.183594 129 L 260.183594 121.230469 L 258.644531 121.230469 L 258.644531 120 L 260.183594 120 L 260.183594 118.539062 C 260.183594 117.597656 260.457031 116.851562 261 116.308594 C 261.542969 115.757812 262.222656 115.484375 263.039062 115.484375 C 263.476562 115.484375 263.828125 115.535156 264.085938 115.640625 Z M 264.085938 116.941406 "/>
<path style="fill:none;stroke-width:1;stroke-linecap:butt;stroke-linejoin:miter;stroke:rgb(100%,0%,0%);stroke-opacity:1;stroke-dasharray:2,2;stroke-miterlimit:4;" d="M 169.5 131 L 169.5 155 " transform="matrix(1.5,0,0,1.5,0,0)"/>
<path style=" stroke:none;fill-rule:nonzero;fill:rgb(0%,0%,0%);fill-opacity:1;" d="M 255 180 L 247.5 187.5 L 247.5 172.5 Z M 255 180 "/>
<path style="fill:none;stroke-width:1;stroke-linecap:butt;stroke-linejoin:miter;stroke:rgb(0%,0%,0%);stroke-opacity:1;stroke-miterlimit:4;" d="M 70.5 130 L 70.5 120 " transform="matrix(1.5,0,0,1.5,0,0)"/>
<path style=" stroke:none;fill-rule:nonzero;fill:rgb(76.862745%,76.862745%,76.862745%);fill-opacity:1;" d="M 255 232.5 L 330 232.5 L 330 270 L 255 270 Z M 255 232.5 "/>
<path style=" stroke:none;fill-rule:nonzero;fill:rgb(0%,0%,0%);fill-opacity:1;" d="M 273.769531 256.5 L 267.230469 256.5 L 267.230469 243.898438 L 268.707031 243.898438 L 268.707031 255.164062 L 273.769531 255.164062 Z M 275.113281 255.988281 L 275.113281 254.25 C 275.316406 254.425781 275.550781 254.585938 275.828125 254.722656 C 276.109375 254.863281 276.402344 254.984375 276.707031 255.085938 C 277.015625 255.179688 277.328125 255.253906 277.636719 255.304688 C 277.949219 255.355469 278.234375 255.382812 278.5 255.382812 C 279.40625 255.382812 280.085938 255.21875 280.53125 254.882812 C 280.980469 254.542969 281.207031 254.054688 281.207031 253.421875 C 281.207031 253.085938 281.128906 252.789062 280.976562 252.535156 C 280.832031 252.285156 280.625 252.054688 280.363281 251.851562 C 280.097656 251.640625 279.785156 251.441406 279.421875 251.253906 C 279.066406 251.058594 278.675781 250.855469 278.261719 250.648438 C 277.824219 250.421875 277.410156 250.199219 277.03125 249.96875 C 276.652344 249.742188 276.320312 249.488281 276.039062 249.214844 C 275.757812 248.9375 275.535156 248.628906 275.371094 248.28125 C 275.210938 247.929688 275.132812 247.519531 275.132812 247.050781 C 275.132812 246.476562 275.257812 245.980469 275.511719 245.558594 C 275.761719 245.128906 276.09375 244.777344 276.503906 244.503906 C 276.914062 244.226562 277.378906 244.023438 277.902344 243.886719 C 278.429688 243.753906 278.964844 243.683594 279.511719 243.683594 C 280.753906 243.683594 281.65625 243.835938 282.226562 244.132812 L 282.226562 245.792969 C 281.480469 245.28125 280.527344 245.023438 279.359375 245.023438 C 279.039062 245.023438 278.714844 245.054688 278.394531 245.128906 C 278.070312 245.191406 277.785156 245.300781 277.53125 245.453125 C 277.28125 245.605469 277.074219 245.800781 276.917969 246.039062 C 276.757812 246.28125 276.679688 246.574219 276.679688 246.917969 C 276.679688 247.242188 276.738281 247.519531 276.855469 247.753906 C 276.976562 247.988281 277.15625 248.203125 277.390625 248.398438 C 277.625 248.589844 277.910156 248.777344 278.242188 248.960938 C 278.585938 249.140625 278.972656 249.339844 279.414062 249.554688 C 279.863281 249.78125 280.292969 250.015625 280.695312 250.261719 C 281.101562 250.507812 281.457031 250.777344 281.761719 251.078125 C 282.066406 251.375 282.304688 251.707031 282.480469 252.070312 C 282.660156 252.433594 282.753906 252.847656 282.753906 253.320312 C 282.753906 253.941406 282.628906 254.46875 282.382812 254.902344 C 282.144531 255.328125 281.816406 255.675781 281.398438 255.945312 C 280.988281 256.214844 280.515625 256.410156 279.976562 256.527344 C 279.4375 256.648438 278.867188 256.710938 278.269531 256.710938 C 278.070312 256.710938 277.824219 256.695312 277.53125 256.65625 C 277.238281 256.628906 276.941406 256.582031 276.636719 256.519531 C 276.332031 256.460938 276.039062 256.386719 275.765625 256.296875 C 275.496094 256.203125 275.28125 256.101562 275.113281 255.988281 Z M 294.742188 256.5 L 293.265625 256.5 L 293.265625 250.753906 L 286.742188 250.753906 L 286.742188 256.5 L 285.265625 256.5 L 285.265625 243.898438 L 286.742188 243.898438 L 286.742188 249.425781 L 293.265625 249.425781 L 293.265625 243.898438 L 294.742188 243.898438 Z M 299.523438 256.5 L 298.046875 256.5 L 298.046875 243.898438 L 299.523438 243.898438 Z M 309.242188 245.230469 L 304.320312 245.230469 L 304.320312 249.59375 L 308.875 249.59375 L 308.875 250.917969 L 304.320312 250.917969 L 304.320312 256.5 L 302.84375 256.5 L 302.84375 243.898438 L 309.242188 243.898438 Z M 319.085938 245.230469 L 315.449219 245.230469 L 315.449219 256.5 L 313.972656 256.5 L 313.972656 245.230469 L 310.34375 245.230469 L 310.34375 243.898438 L 319.085938 243.898438 Z M 319.085938 245.230469 "/>
<path style=" stroke:none;fill-rule:nonzero;fill:rgb(100%,0%,0%);fill-opacity:1;" d="M 255 172.5 L 253.5 172.5 L 253.5 195 L 255 195 Z M 255 172.5 "/>
<path style=" stroke:none;fill-rule:nonzero;fill:rgb(0%,0%,0%);fill-opacity:1;" d="M 286.832031 308.59375 C 286.617188 308.59375 286.433594 308.523438 286.28125 308.375 C 286.132812 308.230469 286.054688 308.042969 286.054688 307.820312 C 286.054688 307.59375 286.132812 307.410156 286.28125 307.261719 C 286.433594 307.113281 286.617188 307.035156 286.832031 307.035156 C 287.050781 307.035156 287.238281 307.113281 287.386719 307.261719 C 287.542969 307.410156 287.621094 307.59375 287.621094 307.820312 C 287.621094 308.035156 287.542969 308.21875 287.386719 308.367188 C 287.238281 308.519531 287.050781 308.59375 286.832031 308.59375 Z M 287.417969 318 L 286.214844 318 L 286.214844 310.5 L 287.417969 310.5 Z M 296.074219 318 L 294.871094 318 L 294.871094 313.722656 C 294.871094 312.128906 294.292969 311.335938 293.128906 311.335938 C 292.53125 311.335938 292.03125 311.5625 291.636719 312.015625 C 291.246094 312.464844 291.050781 313.035156 291.050781 313.722656 L 291.050781 318 L 289.847656 318 L 289.847656 310.5 L 291.050781 310.5 L 291.050781 311.746094 L 291.078125 311.746094 C 291.644531 310.796875 292.464844 310.324219 293.539062 310.324219 C 294.359375 310.324219 294.988281 310.589844 295.421875 311.121094 C 295.855469 311.652344 296.074219 312.414062 296.074219 313.414062 Z M 299.574219 316.914062 L 299.546875 316.914062 L 299.546875 321.449219 L 298.34375 321.449219 L 298.34375 310.5 L 299.546875 310.5 L 299.546875 311.820312 L 299.574219 311.820312 C 300.167969 310.824219 301.03125 310.324219 302.167969 310.324219 C 303.136719 310.324219 303.890625 310.660156 304.429688 311.335938 C 304.972656 312.003906 305.242188 312.902344 305.242188 314.03125 C 305.242188 315.285156 304.941406 316.292969 304.328125 317.046875 C 303.71875 317.800781 302.882812 318.175781 301.824219 318.175781 C 300.851562 318.175781 300.101562 317.753906 299.574219 316.914062 Z M 299.546875 313.890625 L 299.546875 314.9375 C 299.546875 315.558594 299.746094 316.085938 300.148438 316.519531 C 300.550781 316.949219 301.066406 317.164062 301.683594 317.164062 C 302.410156 317.164062 302.980469 316.886719 303.390625 316.332031 C 303.804688 315.773438 304.015625 315 304.015625 314.007812 C 304.015625 313.171875 303.820312 312.519531 303.433594 312.046875 C 303.050781 311.574219 302.527344 311.335938 301.867188 311.335938 C 301.171875 311.335938 300.609375 311.578125 300.183594 312.066406 C 299.757812 312.550781 299.546875 313.15625 299.546875 313.890625 Z M 313.226562 318 L 312.027344 318 L 312.027344 316.8125 L 311.996094 316.8125 C 311.5 317.722656 310.726562 318.175781 309.683594 318.175781 C 307.894531 318.175781 307.003906 317.113281 307.003906 314.980469 L 307.003906 310.5 L 308.195312 310.5 L 308.195312 314.792969 C 308.195312 316.375 308.800781 317.164062 310.011719 317.164062 C 310.597656 317.164062 311.078125 316.949219 311.457031 316.519531 C 311.835938 316.085938 312.027344 315.519531 312.027344 314.820312 L 312.027344 310.5 L 313.226562 310.5 Z M 319.136719 317.925781 C 318.855469 318.082031 318.480469 318.160156 318.019531 318.160156 C 316.703125 318.160156 316.046875 317.429688 316.046875 315.964844 L 316.046875 311.527344 L 314.757812 311.527344 L 314.757812 310.5 L 316.046875 310.5 L 316.046875 308.667969 L 317.25 308.28125 L 317.25 310.5 L 319.136719 310.5 L 319.136719 311.527344 L 317.25 311.527344 L 317.25 315.75 C 317.25 316.253906 317.335938 316.613281 317.503906 316.828125 C 317.675781 317.042969 317.960938 317.152344 318.355469 317.152344 C 318.65625 317.152344 318.917969 317.066406 319.136719 316.902344 Z M 319.136719 317.925781 "/>
<path style=" stroke:none;fill-rule:nonzero;fill:rgb(0.784314%,43.529412%,77.254902%);fill-opacity:1;" d="M 262.5 306 L 277.5 306 L 277.5 321 L 262.5 321 Z M 262.5 306 "/>
<path style=" stroke:none;fill-rule:nonzero;fill:rgb(0.784314%,43.529412%,77.254902%);fill-opacity:1;" d="M 262.5 306 L 277.5 306 L 262.5 321 Z M 262.5 306 "/>
<path style=" stroke:none;fill-rule:nonzero;fill:rgb(0%,0%,0%);fill-opacity:1;" d="M 289.351562 346.675781 C 288.242188 346.675781 287.355469 346.324219 286.691406 345.628906 C 286.03125 344.925781 285.703125 343.996094 285.703125 342.839844 C 285.703125 341.578125 286.046875 340.59375 286.734375 339.886719 C 287.425781 339.179688 288.355469 338.824219 289.527344 338.824219 C 290.644531 338.824219 291.515625 339.167969 292.140625 339.855469 C 292.773438 340.546875 293.085938 341.5 293.085938 342.71875 C 293.085938 343.917969 292.746094 344.878906 292.066406 345.597656 C 291.394531 346.316406 290.488281 346.675781 289.351562 346.675781 Z M 289.4375 339.835938 C 288.667969 339.835938 288.058594 340.097656 287.605469 340.625 C 287.160156 341.148438 286.933594 341.871094 286.933594 342.792969 C 286.933594 343.683594 287.160156 344.382812 287.613281 344.898438 C 288.070312 345.40625 288.675781 345.664062 289.4375 345.664062 C 290.214844 345.664062 290.8125 345.414062 291.226562 344.910156 C 291.644531 344.40625 291.855469 343.691406 291.855469 342.765625 C 291.855469 341.828125 291.644531 341.105469 291.226562 340.597656 C 290.8125 340.089844 290.214844 339.835938 289.4375 339.835938 Z M 301.070312 346.5 L 299.867188 346.5 L 299.867188 345.3125 L 299.839844 345.3125 C 299.339844 346.222656 298.570312 346.675781 297.523438 346.675781 C 295.738281 346.675781 294.84375 345.613281 294.84375 343.480469 L 294.84375 339 L 296.035156 339 L 296.035156 343.292969 C 296.035156 344.875 296.644531 345.664062 297.851562 345.664062 C 298.441406 345.664062 298.921875 345.449219 299.296875 345.019531 C 299.675781 344.585938 299.867188 344.019531 299.867188 343.320312 L 299.867188 339 L 301.070312 339 Z M 306.980469 346.425781 C 306.699219 346.582031 306.324219 346.660156 305.859375 346.660156 C 304.546875 346.660156 303.890625 345.929688 303.890625 344.464844 L 303.890625 340.027344 L 302.597656 340.027344 L 302.597656 339 L 303.890625 339 L 303.890625 337.167969 L 305.089844 336.78125 L 305.089844 339 L 306.980469 339 L 306.980469 340.027344 L 305.089844 340.027344 L 305.089844 344.25 C 305.089844 344.753906 305.175781 345.113281 305.347656 345.328125 C 305.515625 345.542969 305.800781 345.652344 306.195312 345.652344 C 306.5 345.652344 306.761719 345.566406 306.980469 345.402344 Z M 309.816406 345.414062 L 309.785156 345.414062 L 309.785156 349.949219 L 308.585938 349.949219 L 308.585938 339 L 309.785156 339 L 309.785156 340.320312 L 309.816406 340.320312 C 310.40625 339.324219 311.269531 338.824219 312.40625 338.824219 C 313.375 338.824219 314.128906 339.160156 314.671875 339.835938 C 315.214844 340.503906 315.484375 341.402344 315.484375 342.53125 C 315.484375 343.785156 315.179688 344.792969 314.566406 345.546875 C 313.957031 346.300781 313.121094 346.675781 312.0625 346.675781 C 311.089844 346.675781 310.34375 346.253906 309.816406 345.414062 Z M 309.785156 342.390625 L 309.785156 343.4375 C 309.785156 344.058594 309.984375 344.585938 310.386719 345.019531 C 310.789062 345.449219 311.304688 345.664062 311.921875 345.664062 C 312.652344 345.664062 313.21875 345.386719 313.628906 344.832031 C 314.046875 344.273438 314.253906 343.5 314.253906 342.507812 C 314.253906 341.671875 314.058594 341.019531 313.675781 340.546875 C 313.289062 340.074219 312.765625 339.835938 312.105469 339.835938 C 311.410156 339.835938 310.847656 340.078125 310.421875 340.566406 C 309.996094 341.050781 309.785156 341.65625 309.785156 342.390625 Z M 323.46875 346.5 L 322.265625 346.5 L 322.265625 345.3125 L 322.234375 345.3125 C 321.738281 346.222656 320.96875 346.675781 319.921875 346.675781 C 318.136719 346.675781 317.242188 345.613281 317.242188 343.480469 L 317.242188 339 L 318.433594 339 L 318.433594 343.292969 C 318.433594 344.875 319.039062 345.664062 320.25 345.664062 C 320.839844 345.664062 321.316406 345.449219 321.695312 345.019531 C 322.074219 344.585938 322.265625 344.019531 322.265625 343.320312 L 322.265625 339 L 323.46875 339 Z M 329.378906 346.425781 C 329.09375 346.582031 328.71875 346.660156 328.257812 346.660156 C 326.941406 346.660156 326.285156 345.929688 326.285156 344.464844 L 326.285156 340.027344 L 324.996094 340.027344 L 324.996094 339 L 326.285156 339 L 326.285156 337.167969 L 327.488281 336.78125 L 327.488281 339 L 329.378906 339 L 329.378906 340.027344 L 327.488281 340.027344 L 327.488281 344.25 C 327.488281 344.753906 327.574219 345.113281 327.742188 345.328125 C 327.914062 345.542969 328.199219 345.652344 328.59375 345.652344 C 328.894531 345.652344 329.15625 345.566406 329.378906 345.402344 Z M 329.378906 346.425781 "/>
<path style=" stroke:none;fill-rule:nonzero;fill:rgb(76.862745%,76.862745%,76.862745%);fill-opacity:1;" d="M 262.5 334.5 L 277.5 334.5 L 277.5 349.5 L 262.5 349.5 Z M 262.5 334.5 "/>
</g>
</svg>
